<?xml version="1.0" encoding="utf-8" ?>
<svg baseProfile="full" height="16.0cm" version="1.1" width="20.1cm" xmlns="http://www.w3.org/2000/svg" xmlns:ev="http://www.w3.org/2001/xml-events" xmlns:xlink="http://www.w3.org/1999/xlink"><defs /><g id="cutlines"><line stroke="blue" x1="138.95" x2="144.62" y1="127.18" y2="127.18" /><line stroke="blue" x1="133.22" x2="139.66" y1="137.1" y2="126.47" /><line stroke="blue" x1="112.73" x2="133.22" y1="137.1" y2="137.1" /><line stroke="blue" x1="113.44" x2="112.73" y1="130.01" y2="137.1" /><line stroke="blue" x1="116.98" x2="113.44" y1="126.47" y2="130.01" /><line stroke="blue" x1="74.04" x2="116.27" y1="127.18" y2="127.18" /><line stroke="blue" x1="74.07" x2="74.04" y1="129.66" y2="126.47" /><line stroke="blue" x1="72.34" x2="74.07" y1="132.14" y2="129.66" /><line stroke="blue" x1="27.69" x2="71.49" y1="137.1" y2="132.14" /><line stroke="blue" x1="28.4" x2="27.69" y1="130.01" y2="137.1" /><line stroke="blue" x1="31.95" x2="28.4" y1="126.47" y2="130.01" /><line stroke="blue" x1="2.89" x2="31.24" y1="127.18" y2="127.18" /><line stroke="blue" x1="5.73" x2="2.89" y1="122.27" y2="127.18" /><line stroke="blue" x1="0.0" x2="5.99" y1="112.35" y2="123.23" /><line stroke="blue" x1="10.25" x2="0.0" y1="94.6" y2="112.35" /><line stroke="blue" x1="16.03" x2="10.25" y1="98.76" y2="94.6" /><line stroke="blue" x1="17.32" x2="16.03" y1="103.6" y2="98.76" /><line stroke="blue" x1="38.18" x2="17.07" y1="66.05" y2="102.63" /><line stroke="blue" x1="36.02" x2="38.8" y1="64.84" y2="66.41" /><line stroke="blue" x1="34.74" x2="36.02" y1="62.1" y2="64.84" /><line stroke="blue" x1="52.76" x2="35.16" y1="20.96" y2="61.36" /><line stroke="blue" x1="58.55" x2="52.76" y1="25.11" y2="20.96" /><line stroke="blue" x1="59.84" x2="58.55" y1="29.95" y2="25.11" /><line stroke="blue" x1="73.75" x2="59.58" y1="4.44" y2="28.99" /><line stroke="blue" x1="76.59" x2="73.75" y1="9.35" y2="4.44" /><line stroke="blue" x1="88.04" x2="75.62" y1="9.35" y2="9.09" /><line stroke="blue" x1="98.29" x2="88.04" y1="27.09" y2="9.35" /><line stroke="blue" x1="91.8" x2="98.29" y1="30.02" y2="27.09" /><line stroke="blue" x1="86.96" x2="91.8" y1="28.73" y2="30.02" /><line stroke="blue" x1="109.04" x2="87.93" y1="65.56" y2="28.99" /><line stroke="blue" x1="111.18" x2="108.43" y1="64.3" y2="65.92" /><line stroke="blue" x1="114.19" x2="111.18" y1="64.55" y2="64.3" /><line stroke="blue" x1="140.81" x2="114.62" y1="100.74" y2="65.29" /><line stroke="blue" x1="134.32" x2="140.81" y1="103.67" y2="100.74" /><line stroke="blue" x1="129.48" x2="134.32" y1="102.37" y2="103.67" /><line stroke="blue" x1="144.62" x2="130.44" y1="127.18" y2="102.63" /><line stroke="blue" x1="97.85" x2="92.18" y1="9.92" y2="9.92" /><line stroke="blue" x1="103.58" x2="97.14" y1="0.0" y2="10.63" /><line stroke="blue" x1="124.07" x2="103.58" y1="0.0" y2="0.0" /><line stroke="blue" x1="123.36" x2="124.07" y1="7.09" y2="0.0" /><line stroke="blue" x1="119.81" x2="123.36" y1="10.63" y2="7.09" /><line stroke="blue" x1="162.76" x2="120.52" y1="9.92" y2="9.92" /><line stroke="blue" x1="162.73" x2="162.76" y1="7.44" y2="10.63" /><line stroke="blue" x1="164.46" x2="162.73" y1="4.96" y2="7.44" /><line stroke="blue" x1="209.1" x2="165.31" y1="0.0" y2="4.96" /><line stroke="blue" x1="208.39" x2="209.1" y1="7.09" y2="0.0" /><line stroke="blue" x1="204.85" x2="208.39" y1="10.63" y2="7.09" /><line stroke="blue" x1="233.9" x2="205.56" y1="9.92" y2="9.92" /><line stroke="blue" x1="231.07" x2="233.9" y1="14.83" y2="9.92" /><line stroke="blue" x1="236.8" x2="230.81" y1="24.75" y2="13.86" /><line stroke="blue" x1="226.55" x2="236.8" y1="42.5" y2="24.75" /><line stroke="blue" x1="220.77" x2="226.55" y1="38.34" y2="42.5" /><line stroke="blue" x1="219.47" x2="220.77" y1="33.5" y2="38.34" /><line stroke="blue" x1="198.61" x2="219.73" y1="71.04" y2="34.47" /><line stroke="blue" x1="200.78" x2="198.0" y1="72.26" y2="70.69" /><line stroke="blue" x1="202.06" x2="200.78" y1="75.0" y2="72.26" /><line stroke="blue" x1="184.03" x2="201.63" y1="116.14" y2="75.73" /><line stroke="blue" x1="178.25" x2="184.03" y1="111.98" y2="116.14" /><line stroke="blue" x1="176.95" x2="178.25" y1="107.14" y2="111.98" /><line stroke="blue" x1="163.04" x2="177.21" y1="132.66" y2="108.11" /><line stroke="blue" x1="160.21" x2="163.04" y1="127.75" y2="132.66" /><line stroke="blue" x1="148.75" x2="161.17" y1="127.75" y2="128.01" /><line stroke="blue" x1="138.51" x2="148.75" y1="110.0" y2="127.75" /><line stroke="blue" x1="145.0" x2="138.51" y1="107.07" y2="110.0" /><line stroke="blue" x1="149.84" x2="145.0" y1="108.37" y2="107.07" /><line stroke="blue" x1="127.75" x2="148.87" y1="71.53" y2="108.11" /><line stroke="blue" x1="125.62" x2="128.37" y1="72.8" y2="71.18" /><line stroke="blue" x1="122.61" x2="125.62" y1="72.54" y2="72.8" /><line stroke="blue" x1="95.99" x2="122.18" y1="36.36" y2="71.81" /><line stroke="blue" x1="102.48" x2="95.99" y1="33.43" y2="36.36" /><line stroke="blue" x1="107.32" x2="102.48" y1="34.73" y2="33.43" /><line stroke="blue" x1="92.18" x2="106.35" y1="9.92" y2="34.47" /><line stroke="blue" x1="331.69" x2="337.36" y1="127.18" y2="127.18" /><line stroke="blue" x1="325.96" x2="332.4" y1="137.1" y2="126.47" /><line stroke="blue" x1="305.47" x2="325.96" y1="137.1" y2="137.1" /><line stroke="blue" x1="306.18" x2="305.47" y1="130.01" y2="137.1" /><line stroke="blue" x1="309.72" x2="306.18" y1="126.47" y2="130.01" /><line stroke="blue" x1="266.78" x2="309.02" y1="127.18" y2="127.18" /><line stroke="blue" x1="266.81" x2="266.78" y1="129.66" y2="126.47" /><line stroke="blue" x1="265.08" x2="266.81" y1="132.14" y2="129.66" /><line stroke="blue" x1="220.44" x2="264.23" y1="137.1" y2="132.14" /><line stroke="blue" x1="221.15" x2="220.44" y1="130.01" y2="137.1" /><line stroke="blue" x1="224.69" x2="221.15" y1="126.47" y2="130.01" /><line stroke="blue" x1="195.64" x2="223.98" y1="127.18" y2="127.18" /><line stroke="blue" x1="198.47" x2="195.64" y1="122.27" y2="127.18" /><line stroke="blue" x1="192.74" x2="198.73" y1="112.35" y2="123.23" /><line stroke="blue" x1="202.99" x2="192.74" y1="94.6" y2="112.35" /><line stroke="blue" x1="208.77" x2="202.99" y1="98.76" y2="94.6" /><line stroke="blue" x1="210.07" x2="208.77" y1="103.6" y2="98.76" /><line stroke="blue" x1="230.93" x2="209.81" y1="66.05" y2="102.63" /><line stroke="blue" x1="228.76" x2="231.54" y1="64.84" y2="66.41" /><line stroke="blue" x1="227.48" x2="228.76" y1="62.1" y2="64.84" /><line stroke="blue" x1="245.51" x2="227.91" y1="20.96" y2="61.36" /><line stroke="blue" x1="251.29" x2="245.51" y1="25.11" y2="20.96" /><line stroke="blue" x1="252.59" x2="251.29" y1="29.95" y2="25.11" /><line stroke="blue" x1="266.5" x2="252.33" y1="4.44" y2="28.99" /><line stroke="blue" x1="269.33" x2="266.5" y1="9.35" y2="4.44" /><line stroke="blue" x1="280.79" x2="268.37" y1="9.35" y2="9.09" /><line stroke="blue" x1="291.03" x2="280.79" y1="27.09" y2="9.35" /><line stroke="blue" x1="284.54" x2="291.03" y1="30.02" y2="27.09" /><line stroke="blue" x1="279.7" x2="284.54" y1="28.73" y2="30.02" /><line stroke="blue" x1="301.79" x2="280.67" y1="65.56" y2="28.99" /><line stroke="blue" x1="303.92" x2="301.17" y1="64.3" y2="65.92" /><line stroke="blue" x1="306.93" x2="303.92" y1="64.55" y2="64.3" /><line stroke="blue" x1="333.55" x2="307.36" y1="100.74" y2="65.29" /><line stroke="blue" x1="327.06" x2="333.55" y1="103.67" y2="100.74" /><line stroke="blue" x1="322.22" x2="327.06" y1="102.37" y2="103.67" /><line stroke="blue" x1="337.36" x2="323.19" y1="127.18" y2="102.63" /><line stroke="blue" x1="290.59" x2="284.92" y1="9.92" y2="9.92" /><line stroke="blue" x1="296.32" x2="289.88" y1="0.0" y2="10.63" /><line stroke="blue" x1="316.81" x2="296.32" y1="0.0" y2="0.0" /><line stroke="blue" x1="316.1" x2="316.81" y1="7.09" y2="0.0" /><line stroke="blue" x1="312.56" x2="316.1" y1="10.63" y2="7.09" /><line stroke="blue" x1="355.5" x2="313.27" y1="9.92" y2="9.92" /><line stroke="blue" x1="355.47" x2="355.5" y1="7.44" y2="10.63" /><line stroke="blue" x1="357.2" x2="355.47" y1="4.96" y2="7.44" /><line stroke="blue" x1="401.84" x2="358.05" y1="0.0" y2="4.96" /><line stroke="blue" x1="401.14" x2="401.84" y1="7.09" y2="0.0" /><line stroke="blue" x1="397.59" x2="401.14" y1="10.63" y2="7.09" /><line stroke="blue" x1="426.65" x2="398.3" y1="9.92" y2="9.92" /><line stroke="blue" x1="423.81" x2="426.65" y1="14.83" y2="9.92" /><line stroke="blue" x1="429.54" x2="423.55" y1="24.75" y2="13.86" /><line stroke="blue" x1="419.29" x2="429.54" y1="42.5" y2="24.75" /><line stroke="blue" x1="413.51" x2="419.29" y1="38.34" y2="42.5" /><line stroke="blue" x1="412.21" x2="413.51" y1="33.5" y2="38.34" /><line stroke="blue" x1="391.36" x2="412.47" y1="71.04" y2="34.47" /><line stroke="blue" x1="393.52" x2="390.74" y1="72.26" y2="70.69" /><line stroke="blue" x1="394.8" x2="393.52" y1="75.0" y2="72.26" /><line stroke="blue" x1="376.78" x2="394.38" y1="116.14" y2="75.73" /><line stroke="blue" x1="370.99" x2="376.78" y1="111.98" y2="116.14" /><line stroke="blue" x1="369.7" x2="370.99" y1="107.14" y2="111.98" /><line stroke="blue" x1="355.78" x2="369.96" y1="132.66" y2="108.11" /><line stroke="blue" x1="352.95" x2="355.78" y1="127.75" y2="132.66" /><line stroke="blue" x1="341.49" x2="353.92" y1="127.75" y2="128.01" /><line stroke="blue" x1="331.25" x2="341.49" y1="110.0" y2="127.75" /><line stroke="blue" x1="337.74" x2="331.25" y1="107.07" y2="110.0" /><line stroke="blue" x1="342.58" x2="337.74" y1="108.37" y2="107.07" /><line stroke="blue" x1="320.5" x2="341.61" y1="71.53" y2="108.11" /><line stroke="blue" x1="318.36" x2="321.11" y1="72.8" y2="71.18" /><line stroke="blue" x1="315.35" x2="318.36" y1="72.54" y2="72.8" /><line stroke="blue" x1="288.73" x2="314.92" y1="36.36" y2="71.81" /><line stroke="blue" x1="295.22" x2="288.73" y1="33.43" y2="36.36" /><line stroke="blue" x1="300.06" x2="295.22" y1="34.73" y2="33.43" /><line stroke="blue" x1="284.92" x2="299.1" y1="9.92" y2="34.47" /><line stroke="blue" x1="138.95" x2="144.62" y1="274.57" y2="274.57" /><line stroke="blue" x1="133.22" x2="139.66" y1="284.49" y2="273.86" /><line stroke="blue" x1="112.73" x2="133.22" y1="284.49" y2="284.49" /><line stroke="blue" x1="113.44" x2="112.73" y1="277.4" y2="284.49" /><line stroke="blue" x1="116.98" x2="113.44" y1="273.86" y2="277.4" /><line stroke="blue" x1="74.04" x2="116.27" y1="274.57" y2="274.57" /><line stroke="blue" x1="74.07" x2="74.04" y1="277.05" y2="273.86" /><line stroke="blue" x1="72.34" x2="74.07" y1="279.53" y2="277.05" /><line stroke="blue" x1="27.69" x2="71.49" y1="284.49" y2="279.53" /><line stroke="blue" x1="28.4" x2="27.69" y1="277.4" y2="284.49" /><line stroke="blue" x1="31.95" x2="28.4" y1="273.86" y2="277.4" /><line stroke="blue" x1="2.89" x2="31.24" y1="274.57" y2="274.57" /><line stroke="blue" x1="5.73" x2="2.89" y1="269.66" y2="274.57" /><line stroke="blue" x1="0.0" x2="5.99" y1="259.74" y2="270.63" /><line stroke="blue" x1="10.25" x2="0.0" y1="241.99" y2="259.74" /><line stroke="blue" x1="16.03" x2="10.25" y1="246.15" y2="241.99" /><line stroke="blue" x1="17.32" x2="16.03" y1="250.99" y2="246.15" /><line stroke="blue" x1="38.18" x2="17.07" y1="213.45" y2="250.02" /><line stroke="blue" x1="36.02" x2="38.8" y1="212.23" y2="213.8" /><line stroke="blue" x1="34.74" x2="36.02" y1="209.49" y2="212.23" /><line stroke="blue" x1="52.76" x2="35.16" y1="168.35" y2="208.76" /><line stroke="blue" x1="58.55" x2="52.76" y1="172.51" y2="168.35" /><line stroke="blue" x1="59.84" x2="58.55" y1="177.35" y2="172.51" /><line stroke="blue" x1="73.75" x2="59.58" y1="151.83" y2="176.38" /><line stroke="blue" x1="76.59" x2="73.75" y1="156.74" y2="151.83" /><line stroke="blue" x1="88.04" x2="75.62" y1="156.74" y2="156.48" /><line stroke="blue" x1="98.29" x2="88.04" y1="174.49" y2="156.74" /><line stroke="blue" x1="91.8" x2="98.29" y1="177.42" y2="174.49" /><line stroke="blue" x1="86.96" x2="91.8" y1="176.12" y2="177.42" /><line stroke="blue" x1="109.04" x2="87.93" y1="212.95" y2="176.38" /><line stroke="blue" x1="111.18" x2="108.43" y1="211.69" y2="213.31" /><line stroke="blue" x1="114.19" x2="111.18" y1="211.95" y2="211.69" /><line stroke="blue" x1="140.81" x2="114.62" y1="248.13" y2="212.68" /><line stroke="blue" x1="134.32" x2="140.81" y1="251.06" y2="248.13" /><line stroke="blue" x1="129.48" x2="134.32" y1="249.76" y2="251.06" /><line stroke="blue" x1="144.62" x2="130.44" y1="274.57" y2="250.02" /><line stroke="blue" x1="97.85" x2="92.18" y1="157.31" y2="157.31" /><line stroke="blue" x1="103.58" x2="97.14" y1="147.39" y2="158.02" /><line stroke="blue" x1="124.07" x2="103.58" y1="147.39" y2="147.39" /><line stroke="blue" x1="123.36" x2="124.07" y1="154.48" y2="147.39" /><line stroke="blue" x1="119.81" x2="123.36" y1="158.02" y2="154.48" /><line stroke="blue" x1="162.76" x2="120.52" y1="157.31" y2="157.31" /><line stroke="blue" x1="162.73" x2="162.76" y1="154.83" y2="158.02" /><line stroke="blue" x1="164.46" x2="162.73" y1="152.35" y2="154.83" /><line stroke="blue" x1="209.1" x2="165.31" y1="147.39" y2="152.35" /><line stroke="blue" x1="208.39" x2="209.1" y1="154.48" y2="147.39" /><line stroke="blue" x1="204.85" x2="208.39" y1="158.02" y2="154.48" /><line stroke="blue" x1="233.9" x2="205.56" y1="157.31" y2="157.31" /><line stroke="blue" x1="231.07" x2="233.9" y1="162.22" y2="157.31" /><line stroke="blue" x1="236.8" x2="230.81" y1="172.14" y2="161.25" /><line stroke="blue" x1="226.55" x2="236.8" y1="189.89" y2="172.14" /><line stroke="blue" x1="220.77" x2="226.55" y1="185.73" y2="189.89" /><line stroke="blue" x1="219.47" x2="220.77" y1="180.89" y2="185.73" /><line stroke="blue" x1="198.61" x2="219.73" y1="218.44" y2="181.86" /><line stroke="blue" x1="200.78" x2="198.0" y1="219.65" y2="218.08" /><line stroke="blue" x1="202.06" x2="200.78" y1="222.39" y2="219.65" /><line stroke="blue" x1="184.03" x2="201.63" y1="263.53" y2="223.12" /><line stroke="blue" x1="178.25" x2="184.03" y1="259.37" y2="263.53" /><line stroke="blue" x1="176.95" x2="178.25" y1="254.53" y2="259.37" /><line stroke="blue" x1="163.04" x2="177.21" y1="280.05" y2="255.5" /><line stroke="blue" x1="160.21" x2="163.04" y1="275.14" y2="280.05" /><line stroke="blue" x1="148.75" x2="161.17" y1="275.14" y2="275.4" /><line stroke="blue" x1="138.51" x2="148.75" y1="257.39" y2="275.14" /><line stroke="blue" x1="145.0" x2="138.51" y1="254.46" y2="257.39" /><line stroke="blue" x1="149.84" x2="145.0" y1="255.76" y2="254.46" /><line stroke="blue" x1="127.75" x2="148.87" y1="218.93" y2="255.5" /><line stroke="blue" x1="125.62" x2="128.37" y1="220.19" y2="218.57" /><line stroke="blue" x1="122.61" x2="125.62" y1="219.93" y2="220.19" /><line stroke="blue" x1="95.99" x2="122.18" y1="183.75" y2="219.2" /><line stroke="blue" x1="102.48" x2="95.99" y1="180.82" y2="183.75" /><line stroke="blue" x1="107.32" x2="102.48" y1="182.12" y2="180.82" /><line stroke="blue" x1="92.18" x2="106.35" y1="157.31" y2="181.86" /><line stroke="blue" x1="331.69" x2="337.36" y1="274.57" y2="274.57" /><line stroke="blue" x1="325.96" x2="332.4" y1="284.49" y2="273.86" /><line stroke="blue" x1="305.47" x2="325.96" y1="284.49" y2="284.49" /><line stroke="blue" x1="306.18" x2="305.47" y1="277.4" y2="284.49" /><line stroke="blue" x1="309.72" x2="306.18" y1="273.86" y2="277.4" /><line stroke="blue" x1="266.78" x2="309.02" y1="274.57" y2="274.57" /><line stroke="blue" x1="266.81" x2="266.78" y1="277.05" y2="273.86" /><line stroke="blue" x1="265.08" x2="266.81" y1="279.53" y2="277.05" /><line stroke="blue" x1="220.44" x2="264.23" y1="284.49" y2="279.53" /><line stroke="blue" x1="221.15" x2="220.44" y1="277.4" y2="284.49" /><line stroke="blue" x1="224.69" x2="221.15" y1="273.86" y2="277.4" /><line stroke="blue" x1="195.64" x2="223.98" y1="274.57" y2="274.57" /><line stroke="blue" x1="198.47" x2="195.64" y1="269.66" y2="274.57" /><line stroke="blue" x1="192.74" x2="198.73" y1="259.74" y2="270.63" /><line stroke="blue" x1="202.99" x2="192.74" y1="241.99" y2="259.74" /><line stroke="blue" x1="208.77" x2="202.99" y1="246.15" y2="241.99" /><line stroke="blue" x1="210.07" x2="208.77" y1="250.99" y2="246.15" /><line stroke="blue" x1="230.93" x2="209.81" y1="213.45" y2="250.02" /><line stroke="blue" x1="228.76" x2="231.54" y1="212.23" y2="213.8" /><line stroke="blue" x1="227.48" x2="228.76" y1="209.49" y2="212.23" /><line stroke="blue" x1="245.51" x2="227.91" y1="168.35" y2="208.76" /><line stroke="blue" x1="251.29" x2="245.51" y1="172.51" y2="168.35" /><line stroke="blue" x1="252.59" x2="251.29" y1="177.35" y2="172.51" /><line stroke="blue" x1="266.5" x2="252.33" y1="151.83" y2="176.38" /><line stroke="blue" x1="269.33" x2="266.5" y1="156.74" y2="151.83" /><line stroke="blue" x1="280.79" x2="268.37" y1="156.74" y2="156.48" /><line stroke="blue" x1="291.03" x2="280.79" y1="174.49" y2="156.74" /><line stroke="blue" x1="284.54" x2="291.03" y1="177.42" y2="174.49" /><line stroke="blue" x1="279.7" x2="284.54" y1="176.12" y2="177.42" /><line stroke="blue" x1="301.79" x2="280.67" y1="212.95" y2="176.38" /><line stroke="blue" x1="303.92" x2="301.17" y1="211.69" y2="213.31" /><line stroke="blue" x1="306.93" x2="303.92" y1="211.95" y2="211.69" /><line stroke="blue" x1="333.55" x2="307.36" y1="248.13" y2="212.68" /><line stroke="blue" x1="327.06" x2="333.55" y1="251.06" y2="248.13" /><line stroke="blue" x1="322.22" x2="327.06" y1="249.76" y2="251.06" /><line stroke="blue" x1="337.36" x2="323.19" y1="274.57" y2="250.02" /><line stroke="blue" x1="290.59" x2="284.92" y1="157.31" y2="157.31" /><line stroke="blue" x1="296.32" x2="289.88" y1="147.39" y2="158.02" /><line stroke="blue" x1="316.81" x2="296.32" y1="147.39" y2="147.39" /><line stroke="blue" x1="316.1" x2="316.81" y1="154.48" y2="147.39" /><line stroke="blue" x1="312.56" x2="316.1" y1="158.02" y2="154.48" /><line stroke="blue" x1="355.5" x2="313.27" y1="157.31" y2="157.31" /><line stroke="blue" x1="355.47" x2="355.5" y1="154.83" y2="158.02" /><line stroke="blue" x1="357.2" x2="355.47" y1="152.35" y2="154.83" /><line stroke="blue" x1="401.84" x2="358.05" y1="147.39" y2="152.35" /><line stroke="blue" x1="401.14" x2="401.84" y1="154.48" y2="147.39" /><line stroke="blue" x1="397.59" x2="401.14" y1="158.02" y2="154.48" /><line stroke="blue" x1="426.65" x2="398.3" y1="157.31" y2="157.31" /><line stroke="blue" x1="423.81" x2="426.65" y1="162.22" y2="157.31" /><line stroke="blue" x1="429.54" x2="423.55" y1="172.14" y2="161.25" /><line stroke="blue" x1="419.29" x2="429.54" y1="189.89" y2="172.14" /><line stroke="blue" x1="413.51" x2="419.29" y1="185.73" y2="189.89" /><line stroke="blue" x1="412.21" x2="413.51" y1="180.89" y2="185.73" /><line stroke="blue" x1="391.36" x2="412.47" y1="218.44" y2="181.86" /><line stroke="blue" x1="393.52" x2="390.74" y1="219.65" y2="218.08" /><line stroke="blue" x1="394.8" x2="393.52" y1="222.39" y2="219.65" /><line stroke="blue" x1="376.78" x2="394.38" y1="263.53" y2="223.12" /><line stroke="blue" x1="370.99" x2="376.78" y1="259.37" y2="263.53" /><line stroke="blue" x1="369.7" x2="370.99" y1="254.53" y2="259.37" /><line stroke="blue" x1="355.78" x2="369.96" y1="280.05" y2="255.5" /><line stroke="blue" x1="352.95" x2="355.78" y1="275.14" y2="280.05" /><line stroke="blue" x1="341.49" x2="353.92" y1="275.14" y2="275.4" /><line stroke="blue" x1="331.25" x2="341.49" y1="257.39" y2="275.14" /><line stroke="blue" x1="337.74" x2="331.25" y1="254.46" y2="257.39" /><line stroke="blue" x1="342.58" x2="337.74" y1="255.76" y2="254.46" /><line stroke="blue" x1="320.5" x2="341.61" y1="218.93" y2="255.5" /><line stroke="blue" x1="318.36" x2="321.11" y1="220.19" y2="218.57" /><line stroke="blue" x1="315.35" x2="318.36" y1="219.93" y2="220.19" /><line stroke="blue" x1="288.73" x2="314.92" y1="183.75" y2="219.2" /><line stroke="blue" x1="295.22" x2="288.73" y1="180.82" y2="183.75" /><line stroke="blue" x1="300.06" x2="295.22" y1="182.12" y2="180.82" /><line stroke="blue" x1="284.92" x2="299.1" y1="157.31" y2="181.86" /><line stroke="blue" x1="35.12" x2="27.33" y1="303.57" y2="302.34" /><line stroke="blue" x1="28.52" x2="35.12" y1="315.01" y2="303.57" /><line stroke="blue" x1="19.3" x2="28.52" y1="316.24" y2="315.01" /><line stroke="blue" x1="110.57" x2="14.26" y1="298.66" y2="298.66" /><line stroke="blue" x1="109.72" x2="110.57" y1="295.83" y2="298.66" /><line stroke="blue" x1="110.57" x2="109.72" y1="290.16" y2="295.83" /><line stroke="blue" x1="123.78" x2="110.57" y1="290.16" y2="290.16" /><line stroke="blue" x1="124.63" x2="123.78" y1="295.83" y2="290.16" /><line stroke="blue" x1="123.78" x2="124.63" y1="298.66" y2="295.83" /><line stroke="blue" x1="129.45" x2="123.78" y1="298.66" y2="298.66" /><line stroke="blue" x1="141.72" x2="129.45" y1="319.92" y2="298.66" /><line stroke="blue" x1="140.59" x2="141.72" y1="319.92" y2="319.92" /><line stroke="blue" x1="128.32" x2="140.59" y1="341.18" y2="319.92" /><line stroke="blue" x1="106.6" x2="114.4" y1="336.27" y2="337.5" /><line stroke="blue" x1="113.21" x2="106.6" y1="324.83" y2="336.27" /><line stroke="blue" x1="122.42" x2="113.21" y1="323.6" y2="324.83" /><line stroke="blue" x1="31.15" x2="127.47" y1="341.18" y2="341.18" /><line stroke="blue" x1="32.0" x2="31.15" y1="344.01" y2="341.18" /><line stroke="blue" x1="31.15" x2="32.0" y1="349.68" y2="344.01" /><line stroke="blue" x1="17.94" x2="31.15" y1="349.68" y2="349.68" /><line stroke="blue" x1="17.09" x2="17.94" y1="344.01" y2="349.68" /><line stroke="blue" x1="17.94" x2="17.09" y1="341.18" y2="344.01" /><line stroke="blue" x1="12.27" x2="17.94" y1="341.18" y2="341.18" /><line stroke="blue" x1="0.0" x2="12.27" y1="319.92" y2="341.18" /><line stroke="blue" x1="1.13" x2="0.0" y1="319.92" y2="319.92" /><line stroke="blue" x1="13.41" x2="1.13" y1="298.66" y2="319.92" /><line stroke="blue" x1="178.26" x2="170.47" y1="303.57" y2="302.34" /><line stroke="blue" x1="171.66" x2="178.26" y1="315.01" y2="303.57" /><line stroke="blue" x1="162.44" x2="171.66" y1="316.24" y2="315.01" /><line stroke="blue" x1="253.71" x2="157.4" y1="298.66" y2="298.66" /><line stroke="blue" x1="252.86" x2="253.71" y1="295.83" y2="298.66" /><line stroke="blue" x1="253.71" x2="252.86" y1="290.16" y2="295.83" /><line stroke="blue" x1="266.92" x2="253.71" y1="290.16" y2="290.16" /><line stroke="blue" x1="267.77" x2="266.92" y1="295.83" y2="290.16" /><line stroke="blue" x1="266.92" x2="267.77" y1="298.66" y2="295.83" /><line stroke="blue" x1="272.59" x2="266.92" y1="298.66" y2="298.66" /><line stroke="blue" x1="284.86" x2="272.59" y1="319.92" y2="298.66" /><line stroke="blue" x1="283.73" x2="284.86" y1="319.92" y2="319.92" /><line stroke="blue" x1="271.46" x2="283.73" y1="341.18" y2="319.92" /><line stroke="blue" x1="249.74" x2="257.54" y1="336.27" y2="337.5" /><line stroke="blue" x1="256.35" x2="249.74" y1="324.83" y2="336.27" /><line stroke="blue" x1="265.56" x2="256.35" y1="323.6" y2="324.83" /><line stroke="blue" x1="174.29" x2="270.61" y1="341.18" y2="341.18" /><line stroke="blue" x1="175.14" x2="174.29" y1="344.01" y2="341.18" /><line stroke="blue" x1="174.29" x2="175.14" y1="349.68" y2="344.01" /><line stroke="blue" x1="161.08" x2="174.29" y1="349.68" y2="349.68" /><line stroke="blue" x1="160.23" x2="161.08" y1="344.01" y2="349.68" /><line stroke="blue" x1="161.08" x2="160.23" y1="341.18" y2="344.01" /><line stroke="blue" x1="155.41" x2="161.08" y1="341.18" y2="341.18" /><line stroke="blue" x1="143.14" x2="155.41" y1="319.92" y2="341.18" /><line stroke="blue" x1="144.27" x2="143.14" y1="319.92" y2="319.92" /><line stroke="blue" x1="156.55" x2="144.27" y1="298.66" y2="319.92" /><line stroke="blue" x1="321.4" x2="313.61" y1="303.57" y2="302.34" /><line stroke="blue" x1="314.8" x2="321.4" y1="315.01" y2="303.57" /><line stroke="blue" x1="305.58" x2="314.8" y1="316.24" y2="315.01" /><line stroke="blue" x1="396.85" x2="300.54" y1="298.66" y2="298.66" /><line stroke="blue" x1="396.0" x2="396.85" y1="295.83" y2="298.66" /><line stroke="blue" x1="396.85" x2="396.0" y1="290.16" y2="295.83" /><line stroke="blue" x1="410.06" x2="396.85" y1="290.16" y2="290.16" /><line stroke="blue" x1="410.91" x2="410.06" y1="295.83" y2="290.16" /><line stroke="blue" x1="410.06" x2="410.91" y1="298.66" y2="295.83" /><line stroke="blue" x1="415.73" x2="410.06" y1="298.66" y2="298.66" /><line stroke="blue" x1="428.0" x2="415.73" y1="319.92" y2="298.66" /><line stroke="blue" x1="426.87" x2="428.0" y1="319.92" y2="319.92" /><line stroke="blue" x1="414.6" x2="426.87" y1="341.18" y2="319.92" /><line stroke="blue" x1="392.88" x2="400.68" y1="336.27" y2="337.5" /><line stroke="blue" x1="399.49" x2="392.88" y1="324.83" y2="336.27" /><line stroke="blue" x1="408.7" x2="399.49" y1="323.6" y2="324.83" /><line stroke="blue" x1="317.43" x2="413.75" y1="341.18" y2="341.18" /><line stroke="blue" x1="318.28" x2="317.43" y1="344.01" y2="341.18" /><line stroke="blue" x1="317.43" x2="318.28" y1="349.68" y2="344.01" /><line stroke="blue" x1="304.22" x2="317.43" y1="349.68" y2="349.68" /><line stroke="blue" x1="303.37" x2="304.22" y1="344.01" y2="349.68" /><line stroke="blue" x1="304.22" x2="303.37" y1="341.18" y2="344.01" /><line stroke="blue" x1="298.55" x2="304.22" y1="341.18" y2="341.18" /><line stroke="blue" x1="286.28" x2="298.55" y1="319.92" y2="341.18" /><line stroke="blue" x1="287.41" x2="286.28" y1="319.92" y2="319.92" /><line stroke="blue" x1="299.69" x2="287.41" y1="298.66" y2="319.92" /><line stroke="blue" x1="464.54" x2="456.75" y1="303.57" y2="302.34" /><line stroke="blue" x1="457.94" x2="464.54" y1="315.01" y2="303.57" /><line stroke="blue" x1="448.73" x2="457.94" y1="316.24" y2="315.01" /><line stroke="blue" x1="539.99" x2="443.68" y1="298.66" y2="298.66" /><line stroke="blue" x1="539.14" x2="539.99" y1="295.83" y2="298.66" /><line stroke="blue" x1="539.99" x2="539.14" y1="290.16" y2="295.83" /><line stroke="blue" x1="553.2" x2="539.99" y1="290.16" y2="290.16" /><line stroke="blue" x1="554.05" x2="553.2" y1="295.83" y2="290.16" /><line stroke="blue" x1="553.2" x2="554.05" y1="298.66" y2="295.83" /><line stroke="blue" x1="558.87" x2="553.2" y1="298.66" y2="298.66" /><line stroke="blue" x1="571.15" x2="558.87" y1="319.92" y2="298.66" /><line stroke="blue" x1="570.01" x2="571.15" y1="319.92" y2="319.92" /><line stroke="blue" x1="557.74" x2="570.01" y1="341.18" y2="319.92" /><line stroke="blue" x1="536.02" x2="543.82" y1="336.27" y2="337.5" /><line stroke="blue" x1="542.63" x2="536.02" y1="324.83" y2="336.27" /><line stroke="blue" x1="551.84" x2="542.63" y1="323.6" y2="324.83" /><line stroke="blue" x1="460.57" x2="556.89" y1="341.18" y2="341.18" /><line stroke="blue" x1="461.42" x2="460.57" y1="344.01" y2="341.18" /><line stroke="blue" x1="460.57" x2="461.42" y1="349.68" y2="344.01" /><line stroke="blue" x1="447.36" x2="460.57" y1="349.68" y2="349.68" /><line stroke="blue" x1="446.51" x2="447.36" y1="344.01" y2="349.68" /><line stroke="blue" x1="447.36" x2="446.51" y1="341.18" y2="344.01" /><line stroke="blue" x1="441.7" x2="447.36" y1="341.18" y2="341.18" /><line stroke="blue" x1="429.42" x2="441.7" y1="319.92" y2="341.18" /><line stroke="blue" x1="430.56" x2="429.42" y1="319.92" y2="319.92" /><line stroke="blue" x1="442.83" x2="430.56" y1="298.66" y2="319.92" /><line stroke="blue" x1="35.12" x2="27.33" y1="356.01" y2="354.78" /><line stroke="blue" x1="28.52" x2="35.12" y1="367.45" y2="356.01" /><line stroke="blue" x1="19.3" x2="28.52" y1="368.67" y2="367.45" /><line stroke="blue" x1="110.57" x2="14.26" y1="351.1" y2="351.1" /><line stroke="blue" x1="109.72" x2="110.57" y1="348.26" y2="351.1" /><line stroke="blue" x1="110.57" x2="109.72" y1="342.59" y2="348.26" /><line stroke="blue" x1="123.78" x2="110.57" y1="342.59" y2="342.59" /><line stroke="blue" x1="124.63" x2="123.78" y1="348.26" y2="342.59" /><line stroke="blue" x1="123.78" x2="124.63" y1="351.1" y2="348.26" /><line stroke="blue" x1="129.45" x2="123.78" y1="351.1" y2="351.1" /><line stroke="blue" x1="141.72" x2="129.45" y1="372.36" y2="351.1" /><line stroke="blue" x1="140.59" x2="141.72" y1="372.36" y2="372.36" /><line stroke="blue" x1="128.32" x2="140.59" y1="393.62" y2="372.36" /><line stroke="blue" x1="106.6" x2="114.4" y1="388.71" y2="389.93" /><line stroke="blue" x1="113.21" x2="106.6" y1="377.27" y2="388.71" /><line stroke="blue" x1="122.42" x2="113.21" y1="376.04" y2="377.27" /><line stroke="blue" x1="31.15" x2="127.47" y1="393.62" y2="393.62" /><line stroke="blue" x1="32.0" x2="31.15" y1="396.45" y2="393.62" /><line stroke="blue" x1="31.15" x2="32.0" y1="402.12" y2="396.45" /><line stroke="blue" x1="17.94" x2="31.15" y1="402.12" y2="402.12" /><line stroke="blue" x1="17.09" x2="17.94" y1="396.45" y2="402.12" /><line stroke="blue" x1="17.94" x2="17.09" y1="393.62" y2="396.45" /><line stroke="blue" x1="12.27" x2="17.94" y1="393.62" y2="393.62" /><line stroke="blue" x1="0.0" x2="12.27" y1="372.36" y2="393.62" /><line stroke="blue" x1="1.13" x2="0.0" y1="372.36" y2="372.36" /><line stroke="blue" x1="13.41" x2="1.13" y1="351.1" y2="372.36" /><line stroke="blue" x1="178.26" x2="170.47" y1="356.01" y2="354.78" /><line stroke="blue" x1="171.66" x2="178.26" y1="367.45" y2="356.01" /><line stroke="blue" x1="162.44" x2="171.66" y1="368.67" y2="367.45" /><line stroke="blue" x1="253.71" x2="157.4" y1="351.1" y2="351.1" /><line stroke="blue" x1="252.86" x2="253.71" y1="348.26" y2="351.1" /><line stroke="blue" x1="253.71" x2="252.86" y1="342.59" y2="348.26" /><line stroke="blue" x1="266.92" x2="253.71" y1="342.59" y2="342.59" /><line stroke="blue" x1="267.77" x2="266.92" y1="348.26" y2="342.59" /><line stroke="blue" x1="266.92" x2="267.77" y1="351.1" y2="348.26" /><line stroke="blue" x1="272.59" x2="266.92" y1="351.1" y2="351.1" /><line stroke="blue" x1="284.86" x2="272.59" y1="372.36" y2="351.1" /><line stroke="blue" x1="283.73" x2="284.86" y1="372.36" y2="372.36" /><line stroke="blue" x1="271.46" x2="283.73" y1="393.62" y2="372.36" /><line stroke="blue" x1="249.74" x2="257.54" y1="388.71" y2="389.93" /><line stroke="blue" x1="256.35" x2="249.74" y1="377.27" y2="388.71" /><line stroke="blue" x1="265.56" x2="256.35" y1="376.04" y2="377.27" /><line stroke="blue" x1="174.29" x2="270.61" y1="393.62" y2="393.62" /><line stroke="blue" x1="175.14" x2="174.29" y1="396.45" y2="393.62" /><line stroke="blue" x1="174.29" x2="175.14" y1="402.12" y2="396.45" /><line stroke="blue" x1="161.08" x2="174.29" y1="402.12" y2="402.12" /><line stroke="blue" x1="160.23" x2="161.08" y1="396.45" y2="402.12" /><line stroke="blue" x1="161.08" x2="160.23" y1="393.62" y2="396.45" /><line stroke="blue" x1="155.41" x2="161.08" y1="393.62" y2="393.62" /><line stroke="blue" x1="143.14" x2="155.41" y1="372.36" y2="393.62" /><line stroke="blue" x1="144.27" x2="143.14" y1="372.36" y2="372.36" /><line stroke="blue" x1="156.55" x2="144.27" y1="351.1" y2="372.36" /><line stroke="blue" x1="321.4" x2="313.61" y1="356.01" y2="354.78" /><line stroke="blue" x1="314.8" x2="321.4" y1="367.45" y2="356.01" /><line stroke="blue" x1="305.58" x2="314.8" y1="368.67" y2="367.45" /><line stroke="blue" x1="396.85" x2="300.54" y1="351.1" y2="351.1" /><line stroke="blue" x1="396.0" x2="396.85" y1="348.26" y2="351.1" /><line stroke="blue" x1="396.85" x2="396.0" y1="342.59" y2="348.26" /><line stroke="blue" x1="410.06" x2="396.85" y1="342.59" y2="342.59" /><line stroke="blue" x1="410.91" x2="410.06" y1="348.26" y2="342.59" /><line stroke="blue" x1="410.06" x2="410.91" y1="351.1" y2="348.26" /><line stroke="blue" x1="415.73" x2="410.06" y1="351.1" y2="351.1" /><line stroke="blue" x1="428.0" x2="415.73" y1="372.36" y2="351.1" /><line stroke="blue" x1="426.87" x2="428.0" y1="372.36" y2="372.36" /><line stroke="blue" x1="414.6" x2="426.87" y1="393.62" y2="372.36" /><line stroke="blue" x1="392.88" x2="400.68" y1="388.71" y2="389.93" /><line stroke="blue" x1="399.49" x2="392.88" y1="377.27" y2="388.71" /><line stroke="blue" x1="408.7" x2="399.49" y1="376.04" y2="377.27" /><line stroke="blue" x1="317.43" x2="413.75" y1="393.62" y2="393.62" /><line stroke="blue" x1="318.28" x2="317.43" y1="396.45" y2="393.62" /><line stroke="blue" x1="317.43" x2="318.28" y1="402.12" y2="396.45" /><line stroke="blue" x1="304.22" x2="317.43" y1="402.12" y2="402.12" /><line stroke="blue" x1="303.37" x2="304.22" y1="396.45" y2="402.12" /><line stroke="blue" x1="304.22" x2="303.37" y1="393.62" y2="396.45" /><line stroke="blue" x1="298.55" x2="304.22" y1="393.62" y2="393.62" /><line stroke="blue" x1="286.28" x2="298.55" y1="372.36" y2="393.62" /><line stroke="blue" x1="287.41" x2="286.28" y1="372.36" y2="372.36" /><line stroke="blue" x1="299.69" x2="287.41" y1="351.1" y2="372.36" /><line stroke="blue" x1="464.54" x2="456.75" y1="356.01" y2="354.78" /><line stroke="blue" x1="457.94" x2="464.54" y1="367.45" y2="356.01" /><line stroke="blue" x1="448.73" x2="457.94" y1="368.67" y2="367.45" /><line stroke="blue" x1="539.99" x2="443.68" y1="351.1" y2="351.1" /><line stroke="blue" x1="539.14" x2="539.99" y1="348.26" y2="351.1" /><line stroke="blue" x1="539.99" x2="539.14" y1="342.59" y2="348.26" /><line stroke="blue" x1="553.2" x2="539.99" y1="342.59" y2="342.59" /><line stroke="blue" x1="554.05" x2="553.2" y1="348.26" y2="342.59" /><line stroke="blue" x1="553.2" x2="554.05" y1="351.1" y2="348.26" /><line stroke="blue" x1="558.87" x2="553.2" y1="351.1" y2="351.1" /><line stroke="blue" x1="571.15" x2="558.87" y1="372.36" y2="351.1" /><line stroke="blue" x1="570.01" x2="571.15" y1="372.36" y2="372.36" /><line stroke="blue" x1="557.74" x2="570.01" y1="393.62" y2="372.36" /><line stroke="blue" x1="536.02" x2="543.82" y1="388.71" y2="389.93" /><line stroke="blue" x1="542.63" x2="536.02" y1="377.27" y2="388.71" /><line stroke="blue" x1="551.84" x2="542.63" y1="376.04" y2="377.27" /><line stroke="blue" x1="460.57" x2="556.89" y1="393.62" y2="393.62" /><line stroke="blue" x1="461.42" x2="460.57" y1="396.45" y2="393.62" /><line stroke="blue" x1="460.57" x2="461.42" y1="402.12" y2="396.45" /><line stroke="blue" x1="447.36" x2="460.57" y1="402.12" y2="402.12" /><line stroke="blue" x1="446.51" x2="447.36" y1="396.45" y2="402.12" /><line stroke="blue" x1="447.36" x2="446.51" y1="393.62" y2="396.45" /><line stroke="blue" x1="441.7" x2="447.36" y1="393.62" y2="393.62" /><line stroke="blue" x1="429.42" x2="441.7" y1="372.36" y2="393.62" /><line stroke="blue" x1="430.56" x2="429.42" y1="372.36" y2="372.36" /><line stroke="blue" x1="442.83" x2="430.56" y1="351.1" y2="372.36" /><line stroke="blue" x1="35.12" x2="27.33" y1="408.45" y2="407.22" /><line stroke="blue" x1="28.52" x2="35.12" y1="419.89" y2="408.45" /><line stroke="blue" x1="19.3" x2="28.52" y1="421.11" y2="419.89" /><line stroke="blue" x1="110.57" x2="14.26" y1="403.54" y2="403.54" /><line stroke="blue" x1="109.72" x2="110.57" y1="400.7" y2="403.54" /><line stroke="blue" x1="110.57" x2="109.72" y1="395.03" y2="400.7" /><line stroke="blue" x1="123.78" x2="110.57" y1="395.03" y2="395.03" /><line stroke="blue" x1="124.63" x2="123.78" y1="400.7" y2="395.03" /><line stroke="blue" x1="123.78" x2="124.63" y1="403.54" y2="400.7" /><line stroke="blue" x1="129.45" x2="123.78" y1="403.54" y2="403.54" /><line stroke="blue" x1="141.72" x2="129.45" y1="424.79" y2="403.54" /><line stroke="blue" x1="140.59" x2="141.72" y1="424.79" y2="424.79" /><line stroke="blue" x1="128.32" x2="140.59" y1="446.05" y2="424.79" /><line stroke="blue" x1="106.6" x2="114.4" y1="441.14" y2="442.37" /><line stroke="blue" x1="113.21" x2="106.6" y1="429.7" y2="441.14" /><line stroke="blue" x1="122.42" x2="113.21" y1="428.48" y2="429.7" /><line stroke="blue" x1="31.15" x2="127.47" y1="446.05" y2="446.05" /><line stroke="blue" x1="32.0" x2="31.15" y1="448.89" y2="446.05" /><line stroke="blue" x1="31.15" x2="32.0" y1="454.56" y2="448.89" /><line stroke="blue" x1="17.94" x2="31.15" y1="454.56" y2="454.56" /><line stroke="blue" x1="17.09" x2="17.94" y1="448.89" y2="454.56" /><line stroke="blue" x1="17.94" x2="17.09" y1="446.05" y2="448.89" /><line stroke="blue" x1="12.27" x2="17.94" y1="446.05" y2="446.05" /><line stroke="blue" x1="0.0" x2="12.27" y1="424.79" y2="446.05" /><line stroke="blue" x1="1.13" x2="0.0" y1="424.79" y2="424.79" /><line stroke="blue" x1="13.41" x2="1.13" y1="403.54" y2="424.79" /><line stroke="blue" x1="178.26" x2="170.47" y1="408.45" y2="407.22" /><line stroke="blue" x1="171.66" x2="178.26" y1="419.89" y2="408.45" /><line stroke="blue" x1="162.44" x2="171.66" y1="421.11" y2="419.89" /><line stroke="blue" x1="253.71" x2="157.4" y1="403.54" y2="403.54" /><line stroke="blue" x1="252.86" x2="253.71" y1="400.7" y2="403.54" /><line stroke="blue" x1="253.71" x2="252.86" y1="395.03" y2="400.7" /><line stroke="blue" x1="266.92" x2="253.71" y1="395.03" y2="395.03" /><line stroke="blue" x1="267.77" x2="266.92" y1="400.7" y2="395.03" /><line stroke="blue" x1="266.92" x2="267.77" y1="403.54" y2="400.7" /><line stroke="blue" x1="272.59" x2="266.92" y1="403.54" y2="403.54" /><line stroke="blue" x1="284.86" x2="272.59" y1="424.79" y2="403.54" /><line stroke="blue" x1="283.73" x2="284.86" y1="424.79" y2="424.79" /><line stroke="blue" x1="271.46" x2="283.73" y1="446.05" y2="424.79" /><line stroke="blue" x1="249.74" x2="257.54" y1="441.14" y2="442.37" /><line stroke="blue" x1="256.35" x2="249.74" y1="429.7" y2="441.14" /><line stroke="blue" x1="265.56" x2="256.35" y1="428.48" y2="429.7" /><line stroke="blue" x1="174.29" x2="270.61" y1="446.05" y2="446.05" /><line stroke="blue" x1="175.14" x2="174.29" y1="448.89" y2="446.05" /><line stroke="blue" x1="174.29" x2="175.14" y1="454.56" y2="448.89" /><line stroke="blue" x1="161.08" x2="174.29" y1="454.56" y2="454.56" /><line stroke="blue" x1="160.23" x2="161.08" y1="448.89" y2="454.56" /><line stroke="blue" x1="161.08" x2="160.23" y1="446.05" y2="448.89" /><line stroke="blue" x1="155.41" x2="161.08" y1="446.05" y2="446.05" /><line stroke="blue" x1="143.14" x2="155.41" y1="424.79" y2="446.05" /><line stroke="blue" x1="144.27" x2="143.14" y1="424.79" y2="424.79" /><line stroke="blue" x1="156.55" x2="144.27" y1="403.54" y2="424.79" /><line stroke="blue" x1="321.4" x2="313.61" y1="408.45" y2="407.22" /><line stroke="blue" x1="314.8" x2="321.4" y1="419.89" y2="408.45" /><line stroke="blue" x1="305.58" x2="314.8" y1="421.11" y2="419.89" /><line stroke="blue" x1="396.85" x2="300.54" y1="403.54" y2="403.54" /><line stroke="blue" x1="396.0" x2="396.85" y1="400.7" y2="403.54" /><line stroke="blue" x1="396.85" x2="396.0" y1="395.03" y2="400.7" /><line stroke="blue" x1="410.06" x2="396.85" y1="395.03" y2="395.03" /><line stroke="blue" x1="410.91" x2="410.06" y1="400.7" y2="395.03" /><line stroke="blue" x1="410.06" x2="410.91" y1="403.54" y2="400.7" /><line stroke="blue" x1="415.73" x2="410.06" y1="403.54" y2="403.54" /><line stroke="blue" x1="428.0" x2="415.73" y1="424.79" y2="403.54" /><line stroke="blue" x1="426.87" x2="428.0" y1="424.79" y2="424.79" /><line stroke="blue" x1="414.6" x2="426.87" y1="446.05" y2="424.79" /><line stroke="blue" x1="392.88" x2="400.68" y1="441.14" y2="442.37" /><line stroke="blue" x1="399.49" x2="392.88" y1="429.7" y2="441.14" /><line stroke="blue" x1="408.7" x2="399.49" y1="428.48" y2="429.7" /><line stroke="blue" x1="317.43" x2="413.75" y1="446.05" y2="446.05" /><line stroke="blue" x1="318.28" x2="317.43" y1="448.89" y2="446.05" /><line stroke="blue" x1="317.43" x2="318.28" y1="454.56" y2="448.89" /><line stroke="blue" x1="304.22" x2="317.43" y1="454.56" y2="454.56" /><line stroke="blue" x1="303.37" x2="304.22" y1="448.89" y2="454.56" /><line stroke="blue" x1="304.22" x2="303.37" y1="446.05" y2="448.89" /><line stroke="blue" x1="298.55" x2="304.22" y1="446.05" y2="446.05" /><line stroke="blue" x1="286.28" x2="298.55" y1="424.79" y2="446.05" /><line stroke="blue" x1="287.41" x2="286.28" y1="424.79" y2="424.79" /><line stroke="blue" x1="299.69" x2="287.41" y1="403.54" y2="424.79" /><line stroke="blue" x1="464.54" x2="456.75" y1="408.45" y2="407.22" /><line stroke="blue" x1="457.94" x2="464.54" y1="419.89" y2="408.45" /><line stroke="blue" x1="448.73" x2="457.94" y1="421.11" y2="419.89" /><line stroke="blue" x1="539.99" x2="443.68" y1="403.54" y2="403.54" /><line stroke="blue" x1="539.14" x2="539.99" y1="400.7" y2="403.54" /><line stroke="blue" x1="539.99" x2="539.14" y1="395.03" y2="400.7" /><line stroke="blue" x1="553.2" x2="539.99" y1="395.03" y2="395.03" /><line stroke="blue" x1="554.05" x2="553.2" y1="400.7" y2="395.03" /><line stroke="blue" x1="553.2" x2="554.05" y1="403.54" y2="400.7" /><line stroke="blue" x1="558.87" x2="553.2" y1="403.54" y2="403.54" /><line stroke="blue" x1="571.15" x2="558.87" y1="424.79" y2="403.54" /><line stroke="blue" x1="570.01" x2="571.15" y1="424.79" y2="424.79" /><line stroke="blue" x1="557.74" x2="570.01" y1="446.05" y2="424.79" /><line stroke="blue" x1="536.02" x2="543.82" y1="441.14" y2="442.37" /><line stroke="blue" x1="542.63" x2="536.02" y1="429.7" y2="441.14" /><line stroke="blue" x1="551.84" x2="542.63" y1="428.48" y2="429.7" /><line stroke="blue" x1="460.57" x2="556.89" y1="446.05" y2="446.05" /><line stroke="blue" x1="461.42" x2="460.57" y1="448.89" y2="446.05" /><line stroke="blue" x1="460.57" x2="461.42" y1="454.56" y2="448.89" /><line stroke="blue" x1="447.36" x2="460.57" y1="454.56" y2="454.56" /><line stroke="blue" x1="446.51" x2="447.36" y1="448.89" y2="454.56" /><line stroke="blue" x1="447.36" x2="446.51" y1="446.05" y2="448.89" /><line stroke="blue" x1="441.7" x2="447.36" y1="446.05" y2="446.05" /><line stroke="blue" x1="429.42" x2="441.7" y1="424.79" y2="446.05" /><line stroke="blue" x1="430.56" x2="429.42" y1="424.79" y2="424.79" /><line stroke="blue" x1="442.83" x2="430.56" y1="403.54" y2="424.79" /></g><g id="scorelines"><line stroke="red" x1="118.82" x2="138.95" y1="126.47" y2="126.47" /><line stroke="red" x1="33.79" x2="70.92" y1="126.47" y2="126.47" /><line stroke="red" x1="16.4" x2="6.34" y1="105.19" y2="122.62" /><line stroke="red" x1="58.92" x2="40.35" y1="31.55" y2="63.71" /><line stroke="red" x1="86.04" x2="75.98" y1="27.13" y2="9.7" /><line stroke="red" x1="128.56" x2="109.99" y1="100.77" y2="68.62" /><line stroke="red" x1="117.97" x2="97.85" y1="10.63" y2="10.63" /><line stroke="red" x1="203.01" x2="165.88" y1="10.63" y2="10.63" /><line stroke="red" x1="220.39" x2="230.45" y1="31.9" y2="14.48" /><line stroke="red" x1="177.87" x2="196.44" y1="105.55" y2="73.39" /><line stroke="red" x1="150.76" x2="160.82" y1="109.96" y2="127.39" /><line stroke="red" x1="108.24" x2="126.81" y1="36.32" y2="68.48" /><line stroke="red" x1="311.57" x2="331.69" y1="126.47" y2="126.47" /><line stroke="red" x1="226.53" x2="263.66" y1="126.47" y2="126.47" /><line stroke="red" x1="209.15" x2="199.09" y1="105.19" y2="122.62" /><line stroke="red" x1="251.66" x2="233.1" y1="31.55" y2="63.71" /><line stroke="red" x1="278.78" x2="268.72" y1="27.13" y2="9.7" /><line stroke="red" x1="321.3" x2="302.73" y1="100.77" y2="68.62" /><line stroke="red" x1="310.72" x2="290.59" y1="10.63" y2="10.63" /><line stroke="red" x1="395.75" x2="358.62" y1="10.63" y2="10.63" /><line stroke="red" x1="413.14" x2="423.2" y1="31.9" y2="14.48" /><line stroke="red" x1="370.62" x2="389.18" y1="105.55" y2="73.39" /><line stroke="red" x1="343.5" x2="353.56" y1="109.96" y2="127.39" /><line stroke="red" x1="300.98" x2="319.55" y1="36.32" y2="68.48" /><line stroke="red" x1="118.82" x2="138.95" y1="273.86" y2="273.86" /><line stroke="red" x1="33.79" x2="70.92" y1="273.86" y2="273.86" /><line stroke="red" x1="16.4" x2="6.34" y1="252.58" y2="270.01" /><line stroke="red" x1="58.92" x2="40.35" y1="178.94" y2="211.1" /><line stroke="red" x1="86.04" x2="75.98" y1="174.52" y2="157.1" /><line stroke="red" x1="128.56" x2="109.99" y1="248.17" y2="216.01" /><line stroke="red" x1="117.97" x2="97.85" y1="158.02" y2="158.02" /><line stroke="red" x1="203.01" x2="165.88" y1="158.02" y2="158.02" /><line stroke="red" x1="220.39" x2="230.45" y1="179.3" y2="161.87" /><line stroke="red" x1="177.87" x2="196.44" y1="252.94" y2="220.78" /><line stroke="red" x1="150.76" x2="160.82" y1="257.36" y2="274.79" /><line stroke="red" x1="108.24" x2="126.81" y1="183.72" y2="215.87" /><line stroke="red" x1="311.57" x2="331.69" y1="273.86" y2="273.86" /><line stroke="red" x1="226.53" x2="263.66" y1="273.86" y2="273.86" /><line stroke="red" x1="209.15" x2="199.09" y1="252.58" y2="270.01" /><line stroke="red" x1="251.66" x2="233.1" y1="178.94" y2="211.1" /><line stroke="red" x1="278.78" x2="268.72" y1="174.52" y2="157.1" /><line stroke="red" x1="321.3" x2="302.73" y1="248.17" y2="216.01" /><line stroke="red" x1="310.72" x2="290.59" y1="158.02" y2="158.02" /><line stroke="red" x1="395.75" x2="358.62" y1="158.02" y2="158.02" /><line stroke="red" x1="413.14" x2="423.2" y1="179.3" y2="161.87" /><line stroke="red" x1="370.62" x2="389.18" y1="252.94" y2="220.78" /><line stroke="red" x1="343.5" x2="353.56" y1="257.36" y2="274.79" /><line stroke="red" x1="300.98" x2="319.55" y1="183.72" y2="215.87" /><line stroke="red" x1="31.15" x2="17.94" y1="341.18" y2="341.18" /><line stroke="red" x1="123.78" x2="110.57" y1="298.66" y2="298.66" /><line stroke="red" x1="0.0" x2="141.72" y1="319.92" y2="319.92" /><line stroke="red" x1="174.29" x2="161.08" y1="341.18" y2="341.18" /><line stroke="red" x1="266.92" x2="253.71" y1="298.66" y2="298.66" /><line stroke="red" x1="143.14" x2="284.86" y1="319.92" y2="319.92" /><line stroke="red" x1="317.43" x2="304.22" y1="341.18" y2="341.18" /><line stroke="red" x1="410.06" x2="396.85" y1="298.66" y2="298.66" /><line stroke="red" x1="286.28" x2="428.0" y1="319.92" y2="319.92" /><line stroke="red" x1="460.57" x2="447.36" y1="341.18" y2="341.18" /><line stroke="red" x1="553.2" x2="539.99" y1="298.66" y2="298.66" /><line stroke="red" x1="429.42" x2="571.15" y1="319.92" y2="319.92" /><line stroke="red" x1="31.15" x2="17.94" y1="393.62" y2="393.62" /><line stroke="red" x1="123.78" x2="110.57" y1="351.1" y2="351.1" /><line stroke="red" x1="0.0" x2="141.72" y1="372.36" y2="372.36" /><line stroke="red" x1="174.29" x2="161.08" y1="393.62" y2="393.62" /><line stroke="red" x1="266.92" x2="253.71" y1="351.1" y2="351.1" /><line stroke="red" x1="143.14" x2="284.86" y1="372.36" y2="372.36" /><line stroke="red" x1="317.43" x2="304.22" y1="393.62" y2="393.62" /><line stroke="red" x1="410.06" x2="396.85" y1="351.1" y2="351.1" /><line stroke="red" x1="286.28" x2="428.0" y1="372.36" y2="372.36" /><line stroke="red" x1="460.57" x2="447.36" y1="393.62" y2="393.62" /><line stroke="red" x1="553.2" x2="539.99" y1="351.1" y2="351.1" /><line stroke="red" x1="429.42" x2="571.15" y1="372.36" y2="372.36" /><line stroke="red" x1="31.15" x2="17.94" y1="446.05" y2="446.05" /><line stroke="red" x1="123.78" x2="110.57" y1="403.54" y2="403.54" /><line stroke="red" x1="0.0" x2="141.72" y1="424.79" y2="424.79" /><line stroke="red" x1="174.29" x2="161.08" y1="446.05" y2="446.05" /><line stroke="red" x1="266.92" x2="253.71" y1="403.54" y2="403.54" /><line stroke="red" x1="143.14" x2="284.86" y1="424.79" y2="424.79" /><line stroke="red" x1="317.43" x2="304.22" y1="446.05" y2="446.05" /><line stroke="red" x1="410.06" x2="396.85" y1="403.54" y2="403.54" /><line stroke="red" x1="286.28" x2="428.0" y1="424.79" y2="424.79" /><line stroke="red" x1="460.57" x2="447.36" y1="446.05" y2="446.05" /><line stroke="red" x1="553.2" x2="539.99" y1="403.54" y2="403.54" /><line stroke="red" x1="429.42" x2="571.15" y1="424.79" y2="424.79" /></g></svg>