<?xml version="1.0" encoding="utf-8" ?>
<svg baseProfile="full" height="25.1cm" version="1.1" width="16.2cm" xmlns="http://www.w3.org/2000/svg" xmlns:ev="http://www.w3.org/2001/xml-events" xmlns:xlink="http://www.w3.org/1999/xlink"><defs /><g id="cutlines"><line stroke="blue" x1="9.92" x2="9.92" y1="141.61" y2="147.28" /><line stroke="blue" x1="0.0" x2="10.63" y1="135.88" y2="142.32" /><line stroke="blue" x1="0.0" x2="0.0" y1="115.39" y2="135.88" /><line stroke="blue" x1="7.09" x2="0.0" y1="116.1" y2="115.39" /><line stroke="blue" x1="10.63" x2="7.09" y1="119.64" y2="116.1" /><line stroke="blue" x1="9.92" x2="9.92" y1="76.7" y2="118.93" /><line stroke="blue" x1="7.44" x2="10.63" y1="76.73" y2="76.7" /><line stroke="blue" x1="4.96" x2="7.44" y1="75.0" y2="76.73" /><line stroke="blue" x1="0.0" x2="4.96" y1="30.36" y2="74.15" /><line stroke="blue" x1="7.09" x2="0.0" y1="31.06" y2="30.36" /><line stroke="blue" x1="10.63" x2="7.09" y1="34.61" y2="31.06" /><line stroke="blue" x1="9.92" x2="9.92" y1="5.55" y2="33.9" /><line stroke="blue" x1="15.27" x2="9.92" y1="7.44" y2="5.55" /><line stroke="blue" x1="23.97" x2="14.36" y1="0.0" y2="7.88" /><line stroke="blue" x1="43.29" x2="23.97" y1="6.83" y2="0.0" /><line stroke="blue" x1="40.26" x2="43.29" y1="13.27" y2="6.83" /><line stroke="blue" x1="35.74" x2="40.26" y1="15.43" y2="13.27" /><line stroke="blue" x1="76.46" x2="36.64" y1="29.08" y2="15.0" /><line stroke="blue" x1="77.26" x2="76.23" y1="26.73" y2="29.75" /><line stroke="blue" x1="79.72" x2="77.26" y1="24.97" y2="26.73" /><line stroke="blue" x1="123.46" x2="80.52" y1="35.17" y2="25.25" /><line stroke="blue" x1="120.43" x2="123.46" y1="41.62" y2="35.17" /><line stroke="blue" x1="115.91" x2="120.43" y1="43.78" y2="41.62" /><line stroke="blue" x1="143.54" x2="116.82" y1="52.79" y2="43.35" /><line stroke="blue" x1="143.54" x2="143.54" y1="58.46" y2="52.79" /><line stroke="blue" x1="153.46" x2="142.83" y1="64.19" y2="57.75" /><line stroke="blue" x1="153.46" x2="153.46" y1="84.68" y2="64.19" /><line stroke="blue" x1="146.37" x2="153.46" y1="83.97" y2="84.68" /><line stroke="blue" x1="142.83" x2="146.37" y1="80.43" y2="83.97" /><line stroke="blue" x1="143.54" x2="143.54" y1="123.37" y2="81.14" /><line stroke="blue" x1="146.02" x2="142.83" y1="123.34" y2="123.37" /><line stroke="blue" x1="148.5" x2="146.02" y1="125.07" y2="123.34" /><line stroke="blue" x1="153.46" x2="148.5" y1="169.71" y2="125.92" /><line stroke="blue" x1="146.37" x2="153.46" y1="169.01" y2="169.71" /><line stroke="blue" x1="142.83" x2="146.37" y1="165.46" y2="169.01" /><line stroke="blue" x1="143.54" x2="143.54" y1="194.52" y2="166.17" /><line stroke="blue" x1="138.19" x2="143.54" y1="192.63" y2="194.52" /><line stroke="blue" x1="129.49" x2="139.1" y1="200.07" y2="192.19" /><line stroke="blue" x1="110.17" x2="129.49" y1="193.24" y2="200.07" /><line stroke="blue" x1="113.2" x2="110.17" y1="186.8" y2="193.24" /><line stroke="blue" x1="117.72" x2="113.2" y1="184.64" y2="186.8" /><line stroke="blue" x1="77.0" x2="116.82" y1="170.99" y2="185.07" /><line stroke="blue" x1="76.2" x2="77.23" y1="173.34" y2="170.32" /><line stroke="blue" x1="73.74" x2="76.2" y1="175.1" y2="173.34" /><line stroke="blue" x1="30.0" x2="72.94" y1="164.9" y2="174.82" /><line stroke="blue" x1="33.03" x2="30.0" y1="158.45" y2="164.9" /><line stroke="blue" x1="37.55" x2="33.03" y1="156.29" y2="158.45" /><line stroke="blue" x1="9.92" x2="36.64" y1="147.28" y2="156.73" /><line stroke="blue" x1="162.98" x2="162.98" y1="141.61" y2="147.28" /><line stroke="blue" x1="153.06" x2="163.69" y1="135.88" y2="142.32" /><line stroke="blue" x1="153.06" x2="153.06" y1="115.39" y2="135.88" /><line stroke="blue" x1="160.15" x2="153.06" y1="116.1" y2="115.39" /><line stroke="blue" x1="163.69" x2="160.15" y1="119.64" y2="116.1" /><line stroke="blue" x1="162.98" x2="162.98" y1="76.7" y2="118.93" /><line stroke="blue" x1="160.5" x2="163.69" y1="76.73" y2="76.7" /><line stroke="blue" x1="158.02" x2="160.5" y1="75.0" y2="76.73" /><line stroke="blue" x1="153.06" x2="158.02" y1="30.36" y2="74.15" /><line stroke="blue" x1="160.15" x2="153.06" y1="31.06" y2="30.36" /><line stroke="blue" x1="163.69" x2="160.15" y1="34.61" y2="31.06" /><line stroke="blue" x1="162.98" x2="162.98" y1="5.55" y2="33.9" /><line stroke="blue" x1="168.33" x2="162.98" y1="7.44" y2="5.55" /><line stroke="blue" x1="177.03" x2="167.42" y1="0.0" y2="7.88" /><line stroke="blue" x1="196.35" x2="177.03" y1="6.83" y2="0.0" /><line stroke="blue" x1="193.32" x2="196.35" y1="13.27" y2="6.83" /><line stroke="blue" x1="188.8" x2="193.32" y1="15.43" y2="13.27" /><line stroke="blue" x1="229.52" x2="189.71" y1="29.08" y2="15.0" /><line stroke="blue" x1="230.32" x2="229.29" y1="26.73" y2="29.75" /><line stroke="blue" x1="232.78" x2="230.32" y1="24.97" y2="26.73" /><line stroke="blue" x1="276.52" x2="233.58" y1="35.17" y2="25.25" /><line stroke="blue" x1="273.49" x2="276.52" y1="41.62" y2="35.17" /><line stroke="blue" x1="268.97" x2="273.49" y1="43.78" y2="41.62" /><line stroke="blue" x1="296.6" x2="269.88" y1="52.79" y2="43.35" /><line stroke="blue" x1="296.6" x2="296.6" y1="58.46" y2="52.79" /><line stroke="blue" x1="306.52" x2="295.89" y1="64.19" y2="57.75" /><line stroke="blue" x1="306.52" x2="306.52" y1="84.68" y2="64.19" /><line stroke="blue" x1="299.44" x2="306.52" y1="83.97" y2="84.68" /><line stroke="blue" x1="295.89" x2="299.44" y1="80.43" y2="83.97" /><line stroke="blue" x1="296.6" x2="296.6" y1="123.37" y2="81.14" /><line stroke="blue" x1="299.08" x2="295.89" y1="123.34" y2="123.37" /><line stroke="blue" x1="301.56" x2="299.08" y1="125.07" y2="123.34" /><line stroke="blue" x1="306.52" x2="301.56" y1="169.71" y2="125.92" /><line stroke="blue" x1="299.44" x2="306.52" y1="169.01" y2="169.71" /><line stroke="blue" x1="295.89" x2="299.44" y1="165.46" y2="169.01" /><line stroke="blue" x1="296.6" x2="296.6" y1="194.52" y2="166.17" /><line stroke="blue" x1="291.26" x2="296.6" y1="192.63" y2="194.52" /><line stroke="blue" x1="282.55" x2="292.16" y1="200.07" y2="192.19" /><line stroke="blue" x1="263.23" x2="282.55" y1="193.24" y2="200.07" /><line stroke="blue" x1="266.26" x2="263.23" y1="186.8" y2="193.24" /><line stroke="blue" x1="270.78" x2="266.26" y1="184.64" y2="186.8" /><line stroke="blue" x1="230.06" x2="269.88" y1="170.99" y2="185.07" /><line stroke="blue" x1="229.26" x2="230.29" y1="173.34" y2="170.32" /><line stroke="blue" x1="226.8" x2="229.26" y1="175.1" y2="173.34" /><line stroke="blue" x1="183.06" x2="226.0" y1="164.9" y2="174.82" /><line stroke="blue" x1="186.09" x2="183.06" y1="158.45" y2="164.9" /><line stroke="blue" x1="190.61" x2="186.09" y1="156.29" y2="158.45" /><line stroke="blue" x1="162.98" x2="189.71" y1="147.28" y2="156.73" /><line stroke="blue" x1="316.04" x2="316.04" y1="141.61" y2="147.28" /><line stroke="blue" x1="306.12" x2="316.75" y1="135.88" y2="142.32" /><line stroke="blue" x1="306.12" x2="306.12" y1="115.39" y2="135.88" /><line stroke="blue" x1="313.21" x2="306.12" y1="116.1" y2="115.39" /><line stroke="blue" x1="316.75" x2="313.21" y1="119.64" y2="116.1" /><line stroke="blue" x1="316.04" x2="316.04" y1="76.7" y2="118.93" /><line stroke="blue" x1="313.56" x2="316.75" y1="76.73" y2="76.7" /><line stroke="blue" x1="311.08" x2="313.56" y1="75.0" y2="76.73" /><line stroke="blue" x1="306.12" x2="311.08" y1="30.36" y2="74.15" /><line stroke="blue" x1="313.21" x2="306.12" y1="31.06" y2="30.36" /><line stroke="blue" x1="316.75" x2="313.21" y1="34.61" y2="31.06" /><line stroke="blue" x1="316.04" x2="316.04" y1="5.55" y2="33.9" /><line stroke="blue" x1="321.39" x2="316.04" y1="7.44" y2="5.55" /><line stroke="blue" x1="330.09" x2="320.48" y1="0.0" y2="7.88" /><line stroke="blue" x1="349.41" x2="330.09" y1="6.83" y2="0.0" /><line stroke="blue" x1="346.38" x2="349.41" y1="13.27" y2="6.83" /><line stroke="blue" x1="341.86" x2="346.38" y1="15.43" y2="13.27" /><line stroke="blue" x1="382.59" x2="342.77" y1="29.08" y2="15.0" /><line stroke="blue" x1="383.39" x2="382.35" y1="26.73" y2="29.75" /><line stroke="blue" x1="385.84" x2="383.39" y1="24.97" y2="26.73" /><line stroke="blue" x1="429.59" x2="386.64" y1="35.17" y2="25.25" /><line stroke="blue" x1="426.56" x2="429.59" y1="41.62" y2="35.17" /><line stroke="blue" x1="422.03" x2="426.56" y1="43.78" y2="41.62" /><line stroke="blue" x1="449.66" x2="422.94" y1="52.79" y2="43.35" /><line stroke="blue" x1="449.66" x2="449.66" y1="58.46" y2="52.79" /><line stroke="blue" x1="459.58" x2="448.95" y1="64.19" y2="57.75" /><line stroke="blue" x1="459.58" x2="459.58" y1="84.68" y2="64.19" /><line stroke="blue" x1="452.5" x2="459.58" y1="83.97" y2="84.68" /><line stroke="blue" x1="448.95" x2="452.5" y1="80.43" y2="83.97" /><line stroke="blue" x1="449.66" x2="449.66" y1="123.37" y2="81.14" /><line stroke="blue" x1="452.14" x2="448.95" y1="123.34" y2="123.37" /><line stroke="blue" x1="454.62" x2="452.14" y1="125.07" y2="123.34" /><line stroke="blue" x1="459.58" x2="454.62" y1="169.71" y2="125.92" /><line stroke="blue" x1="452.5" x2="459.58" y1="169.01" y2="169.71" /><line stroke="blue" x1="448.95" x2="452.5" y1="165.46" y2="169.01" /><line stroke="blue" x1="449.66" x2="449.66" y1="194.52" y2="166.17" /><line stroke="blue" x1="444.32" x2="449.66" y1="192.63" y2="194.52" /><line stroke="blue" x1="435.61" x2="445.22" y1="200.07" y2="192.19" /><line stroke="blue" x1="416.29" x2="435.61" y1="193.24" y2="200.07" /><line stroke="blue" x1="419.32" x2="416.29" y1="186.8" y2="193.24" /><line stroke="blue" x1="423.84" x2="419.32" y1="184.64" y2="186.8" /><line stroke="blue" x1="383.12" x2="422.94" y1="170.99" y2="185.07" /><line stroke="blue" x1="382.32" x2="383.36" y1="173.34" y2="170.32" /><line stroke="blue" x1="379.86" x2="382.32" y1="175.1" y2="173.34" /><line stroke="blue" x1="336.12" x2="379.06" y1="164.9" y2="174.82" /><line stroke="blue" x1="339.15" x2="336.12" y1="158.45" y2="164.9" /><line stroke="blue" x1="343.67" x2="339.15" y1="156.29" y2="158.45" /><line stroke="blue" x1="316.04" x2="342.77" y1="147.28" y2="156.73" /><line stroke="blue" x1="9.92" x2="9.92" y1="311.68" y2="317.35" /><line stroke="blue" x1="0.0" x2="10.63" y1="305.95" y2="312.39" /><line stroke="blue" x1="0.0" x2="0.0" y1="285.46" y2="305.95" /><line stroke="blue" x1="7.09" x2="0.0" y1="286.17" y2="285.46" /><line stroke="blue" x1="10.63" x2="7.09" y1="289.71" y2="286.17" /><line stroke="blue" x1="9.92" x2="9.92" y1="246.77" y2="289.0" /><line stroke="blue" x1="7.44" x2="10.63" y1="246.8" y2="246.77" /><line stroke="blue" x1="4.96" x2="7.44" y1="245.07" y2="246.8" /><line stroke="blue" x1="0.0" x2="4.96" y1="200.42" y2="244.22" /><line stroke="blue" x1="7.09" x2="0.0" y1="201.13" y2="200.42" /><line stroke="blue" x1="10.63" x2="7.09" y1="204.68" y2="201.13" /><line stroke="blue" x1="9.92" x2="9.92" y1="175.62" y2="203.97" /><line stroke="blue" x1="15.27" x2="9.92" y1="177.51" y2="175.62" /><line stroke="blue" x1="23.97" x2="14.36" y1="170.07" y2="177.94" /><line stroke="blue" x1="43.29" x2="23.97" y1="176.9" y2="170.07" /><line stroke="blue" x1="40.26" x2="43.29" y1="183.34" y2="176.9" /><line stroke="blue" x1="35.74" x2="40.26" y1="185.5" y2="183.34" /><line stroke="blue" x1="76.46" x2="36.64" y1="199.15" y2="185.07" /><line stroke="blue" x1="77.26" x2="76.23" y1="196.8" y2="199.82" /><line stroke="blue" x1="79.72" x2="77.26" y1="195.04" y2="196.8" /><line stroke="blue" x1="123.46" x2="80.52" y1="205.24" y2="195.32" /><line stroke="blue" x1="120.43" x2="123.46" y1="211.69" y2="205.24" /><line stroke="blue" x1="115.91" x2="120.43" y1="213.85" y2="211.69" /><line stroke="blue" x1="143.54" x2="116.82" y1="222.86" y2="213.41" /><line stroke="blue" x1="143.54" x2="143.54" y1="228.53" y2="222.86" /><line stroke="blue" x1="153.46" x2="142.83" y1="234.26" y2="227.82" /><line stroke="blue" x1="153.46" x2="153.46" y1="254.75" y2="234.26" /><line stroke="blue" x1="146.37" x2="153.46" y1="254.04" y2="254.75" /><line stroke="blue" x1="142.83" x2="146.37" y1="250.5" y2="254.04" /><line stroke="blue" x1="143.54" x2="143.54" y1="293.44" y2="251.21" /><line stroke="blue" x1="146.02" x2="142.83" y1="293.41" y2="293.44" /><line stroke="blue" x1="148.5" x2="146.02" y1="295.14" y2="293.41" /><line stroke="blue" x1="153.46" x2="148.5" y1="339.78" y2="295.99" /><line stroke="blue" x1="146.37" x2="153.46" y1="339.07" y2="339.78" /><line stroke="blue" x1="142.83" x2="146.37" y1="335.53" y2="339.07" /><line stroke="blue" x1="143.54" x2="143.54" y1="364.58" y2="336.24" /><line stroke="blue" x1="138.19" x2="143.54" y1="362.69" y2="364.58" /><line stroke="blue" x1="129.49" x2="139.1" y1="370.14" y2="362.26" /><line stroke="blue" x1="110.17" x2="129.49" y1="363.31" y2="370.14" /><line stroke="blue" x1="113.2" x2="110.17" y1="356.86" y2="363.31" /><line stroke="blue" x1="117.72" x2="113.2" y1="354.7" y2="356.86" /><line stroke="blue" x1="77.0" x2="116.82" y1="341.06" y2="355.14" /><line stroke="blue" x1="76.2" x2="77.23" y1="343.41" y2="340.39" /><line stroke="blue" x1="73.74" x2="76.2" y1="345.17" y2="343.41" /><line stroke="blue" x1="30.0" x2="72.94" y1="334.97" y2="344.89" /><line stroke="blue" x1="33.03" x2="30.0" y1="328.52" y2="334.97" /><line stroke="blue" x1="37.55" x2="33.03" y1="326.36" y2="328.52" /><line stroke="blue" x1="9.92" x2="36.64" y1="317.35" y2="326.79" /><line stroke="blue" x1="162.98" x2="162.98" y1="311.68" y2="317.35" /><line stroke="blue" x1="153.06" x2="163.69" y1="305.95" y2="312.39" /><line stroke="blue" x1="153.06" x2="153.06" y1="285.46" y2="305.95" /><line stroke="blue" x1="160.15" x2="153.06" y1="286.17" y2="285.46" /><line stroke="blue" x1="163.69" x2="160.15" y1="289.71" y2="286.17" /><line stroke="blue" x1="162.98" x2="162.98" y1="246.77" y2="289.0" /><line stroke="blue" x1="160.5" x2="163.69" y1="246.8" y2="246.77" /><line stroke="blue" x1="158.02" x2="160.5" y1="245.07" y2="246.8" /><line stroke="blue" x1="153.06" x2="158.02" y1="200.42" y2="244.22" /><line stroke="blue" x1="160.15" x2="153.06" y1="201.13" y2="200.42" /><line stroke="blue" x1="163.69" x2="160.15" y1="204.68" y2="201.13" /><line stroke="blue" x1="162.98" x2="162.98" y1="175.62" y2="203.97" /><line stroke="blue" x1="168.33" x2="162.98" y1="177.51" y2="175.62" /><line stroke="blue" x1="177.03" x2="167.42" y1="170.07" y2="177.94" /><line stroke="blue" x1="196.35" x2="177.03" y1="176.9" y2="170.07" /><line stroke="blue" x1="193.32" x2="196.35" y1="183.34" y2="176.9" /><line stroke="blue" x1="188.8" x2="193.32" y1="185.5" y2="183.34" /><line stroke="blue" x1="229.52" x2="189.71" y1="199.15" y2="185.07" /><line stroke="blue" x1="230.32" x2="229.29" y1="196.8" y2="199.82" /><line stroke="blue" x1="232.78" x2="230.32" y1="195.04" y2="196.8" /><line stroke="blue" x1="276.52" x2="233.58" y1="205.24" y2="195.32" /><line stroke="blue" x1="273.49" x2="276.52" y1="211.69" y2="205.24" /><line stroke="blue" x1="268.97" x2="273.49" y1="213.85" y2="211.69" /><line stroke="blue" x1="296.6" x2="269.88" y1="222.86" y2="213.41" /><line stroke="blue" x1="296.6" x2="296.6" y1="228.53" y2="222.86" /><line stroke="blue" x1="306.52" x2="295.89" y1="234.26" y2="227.82" /><line stroke="blue" x1="306.52" x2="306.52" y1="254.75" y2="234.26" /><line stroke="blue" x1="299.44" x2="306.52" y1="254.04" y2="254.75" /><line stroke="blue" x1="295.89" x2="299.44" y1="250.5" y2="254.04" /><line stroke="blue" x1="296.6" x2="296.6" y1="293.44" y2="251.21" /><line stroke="blue" x1="299.08" x2="295.89" y1="293.41" y2="293.44" /><line stroke="blue" x1="301.56" x2="299.08" y1="295.14" y2="293.41" /><line stroke="blue" x1="306.52" x2="301.56" y1="339.78" y2="295.99" /><line stroke="blue" x1="299.44" x2="306.52" y1="339.07" y2="339.78" /><line stroke="blue" x1="295.89" x2="299.44" y1="335.53" y2="339.07" /><line stroke="blue" x1="296.6" x2="296.6" y1="364.58" y2="336.24" /><line stroke="blue" x1="291.26" x2="296.6" y1="362.69" y2="364.58" /><line stroke="blue" x1="282.55" x2="292.16" y1="370.14" y2="362.26" /><line stroke="blue" x1="263.23" x2="282.55" y1="363.31" y2="370.14" /><line stroke="blue" x1="266.26" x2="263.23" y1="356.86" y2="363.31" /><line stroke="blue" x1="270.78" x2="266.26" y1="354.7" y2="356.86" /><line stroke="blue" x1="230.06" x2="269.88" y1="341.06" y2="355.14" /><line stroke="blue" x1="229.26" x2="230.29" y1="343.41" y2="340.39" /><line stroke="blue" x1="226.8" x2="229.26" y1="345.17" y2="343.41" /><line stroke="blue" x1="183.06" x2="226.0" y1="334.97" y2="344.89" /><line stroke="blue" x1="186.09" x2="183.06" y1="328.52" y2="334.97" /><line stroke="blue" x1="190.61" x2="186.09" y1="326.36" y2="328.52" /><line stroke="blue" x1="162.98" x2="189.71" y1="317.35" y2="326.79" /><line stroke="blue" x1="316.04" x2="316.04" y1="311.68" y2="317.35" /><line stroke="blue" x1="306.12" x2="316.75" y1="305.95" y2="312.39" /><line stroke="blue" x1="306.12" x2="306.12" y1="285.46" y2="305.95" /><line stroke="blue" x1="313.21" x2="306.12" y1="286.17" y2="285.46" /><line stroke="blue" x1="316.75" x2="313.21" y1="289.71" y2="286.17" /><line stroke="blue" x1="316.04" x2="316.04" y1="246.77" y2="289.0" /><line stroke="blue" x1="313.56" x2="316.75" y1="246.8" y2="246.77" /><line stroke="blue" x1="311.08" x2="313.56" y1="245.07" y2="246.8" /><line stroke="blue" x1="306.12" x2="311.08" y1="200.42" y2="244.22" /><line stroke="blue" x1="313.21" x2="306.12" y1="201.13" y2="200.42" /><line stroke="blue" x1="316.75" x2="313.21" y1="204.68" y2="201.13" /><line stroke="blue" x1="316.04" x2="316.04" y1="175.62" y2="203.97" /><line stroke="blue" x1="321.39" x2="316.04" y1="177.51" y2="175.62" /><line stroke="blue" x1="330.09" x2="320.48" y1="170.07" y2="177.94" /><line stroke="blue" x1="349.41" x2="330.09" y1="176.9" y2="170.07" /><line stroke="blue" x1="346.38" x2="349.41" y1="183.34" y2="176.9" /><line stroke="blue" x1="341.86" x2="346.38" y1="185.5" y2="183.34" /><line stroke="blue" x1="382.59" x2="342.77" y1="199.15" y2="185.07" /><line stroke="blue" x1="383.39" x2="382.35" y1="196.8" y2="199.82" /><line stroke="blue" x1="385.84" x2="383.39" y1="195.04" y2="196.8" /><line stroke="blue" x1="429.59" x2="386.64" y1="205.24" y2="195.32" /><line stroke="blue" x1="426.56" x2="429.59" y1="211.69" y2="205.24" /><line stroke="blue" x1="422.03" x2="426.56" y1="213.85" y2="211.69" /><line stroke="blue" x1="449.66" x2="422.94" y1="222.86" y2="213.41" /><line stroke="blue" x1="449.66" x2="449.66" y1="228.53" y2="222.86" /><line stroke="blue" x1="459.58" x2="448.95" y1="234.26" y2="227.82" /><line stroke="blue" x1="459.58" x2="459.58" y1="254.75" y2="234.26" /><line stroke="blue" x1="452.5" x2="459.58" y1="254.04" y2="254.75" /><line stroke="blue" x1="448.95" x2="452.5" y1="250.5" y2="254.04" /><line stroke="blue" x1="449.66" x2="449.66" y1="293.44" y2="251.21" /><line stroke="blue" x1="452.14" x2="448.95" y1="293.41" y2="293.44" /><line stroke="blue" x1="454.62" x2="452.14" y1="295.14" y2="293.41" /><line stroke="blue" x1="459.58" x2="454.62" y1="339.78" y2="295.99" /><line stroke="blue" x1="452.5" x2="459.58" y1="339.07" y2="339.78" /><line stroke="blue" x1="448.95" x2="452.5" y1="335.53" y2="339.07" /><line stroke="blue" x1="449.66" x2="449.66" y1="364.58" y2="336.24" /><line stroke="blue" x1="444.32" x2="449.66" y1="362.69" y2="364.58" /><line stroke="blue" x1="435.61" x2="445.22" y1="370.14" y2="362.26" /><line stroke="blue" x1="416.29" x2="435.61" y1="363.31" y2="370.14" /><line stroke="blue" x1="419.32" x2="416.29" y1="356.86" y2="363.31" /><line stroke="blue" x1="423.84" x2="419.32" y1="354.7" y2="356.86" /><line stroke="blue" x1="383.12" x2="422.94" y1="341.06" y2="355.14" /><line stroke="blue" x1="382.32" x2="383.36" y1="343.41" y2="340.39" /><line stroke="blue" x1="379.86" x2="382.32" y1="345.17" y2="343.41" /><line stroke="blue" x1="336.12" x2="379.06" y1="334.97" y2="344.89" /><line stroke="blue" x1="339.15" x2="336.12" y1="328.52" y2="334.97" /><line stroke="blue" x1="343.67" x2="339.15" y1="326.36" y2="328.52" /><line stroke="blue" x1="316.04" x2="342.77" y1="317.35" y2="326.79" /><line stroke="blue" x1="9.92" x2="9.92" y1="481.75" y2="487.41" /><line stroke="blue" x1="0.0" x2="10.63" y1="476.02" y2="482.45" /><line stroke="blue" x1="0.0" x2="0.0" y1="455.53" y2="476.02" /><line stroke="blue" x1="7.09" x2="0.0" y1="456.23" y2="455.53" /><line stroke="blue" x1="10.63" x2="7.09" y1="459.78" y2="456.23" /><line stroke="blue" x1="9.92" x2="9.92" y1="416.84" y2="459.07" /><line stroke="blue" x1="7.44" x2="10.63" y1="416.86" y2="416.84" /><line stroke="blue" x1="4.96" x2="7.44" y1="415.14" y2="416.86" /><line stroke="blue" x1="0.0" x2="4.96" y1="370.49" y2="414.28" /><line stroke="blue" x1="7.09" x2="0.0" y1="371.2" y2="370.49" /><line stroke="blue" x1="10.63" x2="7.09" y1="374.74" y2="371.2" /><line stroke="blue" x1="9.92" x2="9.92" y1="345.69" y2="374.04" /><line stroke="blue" x1="15.27" x2="9.92" y1="347.58" y2="345.69" /><line stroke="blue" x1="23.97" x2="14.36" y1="340.14" y2="348.01" /><line stroke="blue" x1="43.29" x2="23.97" y1="346.97" y2="340.14" /><line stroke="blue" x1="40.26" x2="43.29" y1="353.41" y2="346.97" /><line stroke="blue" x1="35.74" x2="40.26" y1="355.57" y2="353.41" /><line stroke="blue" x1="76.46" x2="36.64" y1="369.22" y2="355.14" /><line stroke="blue" x1="77.26" x2="76.23" y1="366.87" y2="369.88" /><line stroke="blue" x1="79.72" x2="77.26" y1="365.11" y2="366.87" /><line stroke="blue" x1="123.46" x2="80.52" y1="375.31" y2="365.39" /><line stroke="blue" x1="120.43" x2="123.46" y1="381.75" y2="375.31" /><line stroke="blue" x1="115.91" x2="120.43" y1="383.91" y2="381.75" /><line stroke="blue" x1="143.54" x2="116.82" y1="392.93" y2="383.48" /><line stroke="blue" x1="143.54" x2="143.54" y1="398.6" y2="392.93" /><line stroke="blue" x1="153.46" x2="142.83" y1="404.33" y2="397.89" /><line stroke="blue" x1="153.46" x2="153.46" y1="424.82" y2="404.33" /><line stroke="blue" x1="146.37" x2="153.46" y1="424.11" y2="424.82" /><line stroke="blue" x1="142.83" x2="146.37" y1="420.57" y2="424.11" /><line stroke="blue" x1="143.54" x2="143.54" y1="463.51" y2="421.27" /><line stroke="blue" x1="146.02" x2="142.83" y1="463.48" y2="463.51" /><line stroke="blue" x1="148.5" x2="146.02" y1="465.21" y2="463.48" /><line stroke="blue" x1="153.46" x2="148.5" y1="509.85" y2="466.06" /><line stroke="blue" x1="146.37" x2="153.46" y1="509.14" y2="509.85" /><line stroke="blue" x1="142.83" x2="146.37" y1="505.6" y2="509.14" /><line stroke="blue" x1="143.54" x2="143.54" y1="534.65" y2="506.31" /><line stroke="blue" x1="138.19" x2="143.54" y1="532.76" y2="534.65" /><line stroke="blue" x1="129.49" x2="139.1" y1="540.21" y2="532.33" /><line stroke="blue" x1="110.17" x2="129.49" y1="533.38" y2="540.21" /><line stroke="blue" x1="113.2" x2="110.17" y1="526.93" y2="533.38" /><line stroke="blue" x1="117.72" x2="113.2" y1="524.77" y2="526.93" /><line stroke="blue" x1="77.0" x2="116.82" y1="511.13" y2="525.2" /><line stroke="blue" x1="76.2" x2="77.23" y1="513.48" y2="510.46" /><line stroke="blue" x1="73.74" x2="76.2" y1="515.24" y2="513.48" /><line stroke="blue" x1="30.0" x2="72.94" y1="505.03" y2="514.95" /><line stroke="blue" x1="33.03" x2="30.0" y1="498.59" y2="505.03" /><line stroke="blue" x1="37.55" x2="33.03" y1="496.43" y2="498.59" /><line stroke="blue" x1="9.92" x2="36.64" y1="487.41" y2="496.86" /><line stroke="blue" x1="162.98" x2="162.98" y1="481.75" y2="487.41" /><line stroke="blue" x1="153.06" x2="163.69" y1="476.02" y2="482.45" /><line stroke="blue" x1="153.06" x2="153.06" y1="455.53" y2="476.02" /><line stroke="blue" x1="160.15" x2="153.06" y1="456.23" y2="455.53" /><line stroke="blue" x1="163.69" x2="160.15" y1="459.78" y2="456.23" /><line stroke="blue" x1="162.98" x2="162.98" y1="416.84" y2="459.07" /><line stroke="blue" x1="160.5" x2="163.69" y1="416.86" y2="416.84" /><line stroke="blue" x1="158.02" x2="160.5" y1="415.14" y2="416.86" /><line stroke="blue" x1="153.06" x2="158.02" y1="370.49" y2="414.28" /><line stroke="blue" x1="160.15" x2="153.06" y1="371.2" y2="370.49" /><line stroke="blue" x1="163.69" x2="160.15" y1="374.74" y2="371.2" /><line stroke="blue" x1="162.98" x2="162.98" y1="345.69" y2="374.04" /><line stroke="blue" x1="168.33" x2="162.98" y1="347.58" y2="345.69" /><line stroke="blue" x1="177.03" x2="167.42" y1="340.14" y2="348.01" /><line stroke="blue" x1="196.35" x2="177.03" y1="346.97" y2="340.14" /><line stroke="blue" x1="193.32" x2="196.35" y1="353.41" y2="346.97" /><line stroke="blue" x1="188.8" x2="193.32" y1="355.57" y2="353.41" /><line stroke="blue" x1="229.52" x2="189.71" y1="369.22" y2="355.14" /><line stroke="blue" x1="230.32" x2="229.29" y1="366.87" y2="369.88" /><line stroke="blue" x1="232.78" x2="230.32" y1="365.11" y2="366.87" /><line stroke="blue" x1="276.52" x2="233.58" y1="375.31" y2="365.39" /><line stroke="blue" x1="273.49" x2="276.52" y1="381.75" y2="375.31" /><line stroke="blue" x1="268.97" x2="273.49" y1="383.91" y2="381.75" /><line stroke="blue" x1="296.6" x2="269.88" y1="392.93" y2="383.48" /><line stroke="blue" x1="296.6" x2="296.6" y1="398.6" y2="392.93" /><line stroke="blue" x1="306.52" x2="295.89" y1="404.33" y2="397.89" /><line stroke="blue" x1="306.52" x2="306.52" y1="424.82" y2="404.33" /><line stroke="blue" x1="299.44" x2="306.52" y1="424.11" y2="424.82" /><line stroke="blue" x1="295.89" x2="299.44" y1="420.57" y2="424.11" /><line stroke="blue" x1="296.6" x2="296.6" y1="463.51" y2="421.27" /><line stroke="blue" x1="299.08" x2="295.89" y1="463.48" y2="463.51" /><line stroke="blue" x1="301.56" x2="299.08" y1="465.21" y2="463.48" /><line stroke="blue" x1="306.52" x2="301.56" y1="509.85" y2="466.06" /><line stroke="blue" x1="299.44" x2="306.52" y1="509.14" y2="509.85" /><line stroke="blue" x1="295.89" x2="299.44" y1="505.6" y2="509.14" /><line stroke="blue" x1="296.6" x2="296.6" y1="534.65" y2="506.31" /><line stroke="blue" x1="291.26" x2="296.6" y1="532.76" y2="534.65" /><line stroke="blue" x1="282.55" x2="292.16" y1="540.21" y2="532.33" /><line stroke="blue" x1="263.23" x2="282.55" y1="533.38" y2="540.21" /><line stroke="blue" x1="266.26" x2="263.23" y1="526.93" y2="533.38" /><line stroke="blue" x1="270.78" x2="266.26" y1="524.77" y2="526.93" /><line stroke="blue" x1="230.06" x2="269.88" y1="511.13" y2="525.2" /><line stroke="blue" x1="229.26" x2="230.29" y1="513.48" y2="510.46" /><line stroke="blue" x1="226.8" x2="229.26" y1="515.24" y2="513.48" /><line stroke="blue" x1="183.06" x2="226.0" y1="505.03" y2="514.95" /><line stroke="blue" x1="186.09" x2="183.06" y1="498.59" y2="505.03" /><line stroke="blue" x1="190.61" x2="186.09" y1="496.43" y2="498.59" /><line stroke="blue" x1="162.98" x2="189.71" y1="487.41" y2="496.86" /><line stroke="blue" x1="316.04" x2="316.04" y1="481.75" y2="487.41" /><line stroke="blue" x1="306.12" x2="316.75" y1="476.02" y2="482.45" /><line stroke="blue" x1="306.12" x2="306.12" y1="455.53" y2="476.02" /><line stroke="blue" x1="313.21" x2="306.12" y1="456.23" y2="455.53" /><line stroke="blue" x1="316.75" x2="313.21" y1="459.78" y2="456.23" /><line stroke="blue" x1="316.04" x2="316.04" y1="416.84" y2="459.07" /><line stroke="blue" x1="313.56" x2="316.75" y1="416.86" y2="416.84" /><line stroke="blue" x1="311.08" x2="313.56" y1="415.14" y2="416.86" /><line stroke="blue" x1="306.12" x2="311.08" y1="370.49" y2="414.28" /><line stroke="blue" x1="313.21" x2="306.12" y1="371.2" y2="370.49" /><line stroke="blue" x1="316.75" x2="313.21" y1="374.74" y2="371.2" /><line stroke="blue" x1="316.04" x2="316.04" y1="345.69" y2="374.04" /><line stroke="blue" x1="321.39" x2="316.04" y1="347.58" y2="345.69" /><line stroke="blue" x1="330.09" x2="320.48" y1="340.14" y2="348.01" /><line stroke="blue" x1="349.41" x2="330.09" y1="346.97" y2="340.14" /><line stroke="blue" x1="346.38" x2="349.41" y1="353.41" y2="346.97" /><line stroke="blue" x1="341.86" x2="346.38" y1="355.57" y2="353.41" /><line stroke="blue" x1="382.59" x2="342.77" y1="369.22" y2="355.14" /><line stroke="blue" x1="383.39" x2="382.35" y1="366.87" y2="369.88" /><line stroke="blue" x1="385.84" x2="383.39" y1="365.11" y2="366.87" /><line stroke="blue" x1="429.59" x2="386.64" y1="375.31" y2="365.39" /><line stroke="blue" x1="426.56" x2="429.59" y1="381.75" y2="375.31" /><line stroke="blue" x1="422.03" x2="426.56" y1="383.91" y2="381.75" /><line stroke="blue" x1="449.66" x2="422.94" y1="392.93" y2="383.48" /><line stroke="blue" x1="449.66" x2="449.66" y1="398.6" y2="392.93" /><line stroke="blue" x1="459.58" x2="448.95" y1="404.33" y2="397.89" /><line stroke="blue" x1="459.58" x2="459.58" y1="424.82" y2="404.33" /><line stroke="blue" x1="452.5" x2="459.58" y1="424.11" y2="424.82" /><line stroke="blue" x1="448.95" x2="452.5" y1="420.57" y2="424.11" /><line stroke="blue" x1="449.66" x2="449.66" y1="463.51" y2="421.27" /><line stroke="blue" x1="452.14" x2="448.95" y1="463.48" y2="463.51" /><line stroke="blue" x1="454.62" x2="452.14" y1="465.21" y2="463.48" /><line stroke="blue" x1="459.58" x2="454.62" y1="509.85" y2="466.06" /><line stroke="blue" x1="452.5" x2="459.58" y1="509.14" y2="509.85" /><line stroke="blue" x1="448.95" x2="452.5" y1="505.6" y2="509.14" /><line stroke="blue" x1="449.66" x2="449.66" y1="534.65" y2="506.31" /><line stroke="blue" x1="444.32" x2="449.66" y1="532.76" y2="534.65" /><line stroke="blue" x1="435.61" x2="445.22" y1="540.21" y2="532.33" /><line stroke="blue" x1="416.29" x2="435.61" y1="533.38" y2="540.21" /><line stroke="blue" x1="419.32" x2="416.29" y1="526.93" y2="533.38" /><line stroke="blue" x1="423.84" x2="419.32" y1="524.77" y2="526.93" /><line stroke="blue" x1="383.12" x2="422.94" y1="511.13" y2="525.2" /><line stroke="blue" x1="382.32" x2="383.36" y1="513.48" y2="510.46" /><line stroke="blue" x1="379.86" x2="382.32" y1="515.24" y2="513.48" /><line stroke="blue" x1="336.12" x2="379.06" y1="505.03" y2="514.95" /><line stroke="blue" x1="339.15" x2="336.12" y1="498.59" y2="505.03" /><line stroke="blue" x1="343.67" x2="339.15" y1="496.43" y2="498.59" /><line stroke="blue" x1="316.04" x2="342.77" y1="487.41" y2="496.86" /><line stroke="blue" x1="9.92" x2="9.92" y1="651.81" y2="657.48" /><line stroke="blue" x1="0.0" x2="10.63" y1="646.09" y2="652.52" /><line stroke="blue" x1="0.0" x2="0.0" y1="625.59" y2="646.09" /><line stroke="blue" x1="7.09" x2="0.0" y1="626.3" y2="625.59" /><line stroke="blue" x1="10.63" x2="7.09" y1="629.85" y2="626.3" /><line stroke="blue" x1="9.92" x2="9.92" y1="586.9" y2="629.14" /><line stroke="blue" x1="7.44" x2="10.63" y1="586.93" y2="586.9" /><line stroke="blue" x1="4.96" x2="7.44" y1="585.2" y2="586.93" /><line stroke="blue" x1="0.0" x2="4.96" y1="540.56" y2="584.35" /><line stroke="blue" x1="7.09" x2="0.0" y1="541.27" y2="540.56" /><line stroke="blue" x1="10.63" x2="7.09" y1="544.81" y2="541.27" /><line stroke="blue" x1="9.92" x2="9.92" y1="515.76" y2="544.1" /><line stroke="blue" x1="15.27" x2="9.92" y1="517.65" y2="515.76" /><line stroke="blue" x1="23.97" x2="14.36" y1="510.2" y2="518.08" /><line stroke="blue" x1="43.29" x2="23.97" y1="517.03" y2="510.2" /><line stroke="blue" x1="40.26" x2="43.29" y1="523.48" y2="517.03" /><line stroke="blue" x1="35.74" x2="40.26" y1="525.64" y2="523.48" /><line stroke="blue" x1="76.46" x2="36.64" y1="539.28" y2="525.21" /><line stroke="blue" x1="77.26" x2="76.23" y1="536.94" y2="539.95" /><line stroke="blue" x1="79.72" x2="77.26" y1="535.17" y2="536.94" /><line stroke="blue" x1="123.46" x2="80.52" y1="545.38" y2="535.46" /><line stroke="blue" x1="120.43" x2="123.46" y1="551.82" y2="545.38" /><line stroke="blue" x1="115.91" x2="120.43" y1="553.98" y2="551.82" /><line stroke="blue" x1="143.54" x2="116.82" y1="563.0" y2="553.55" /><line stroke="blue" x1="143.54" x2="143.54" y1="568.67" y2="563.0" /><line stroke="blue" x1="153.46" x2="142.83" y1="574.39" y2="567.96" /><line stroke="blue" x1="153.46" x2="153.46" y1="594.88" y2="574.39" /><line stroke="blue" x1="146.37" x2="153.46" y1="594.18" y2="594.88" /><line stroke="blue" x1="142.83" x2="146.37" y1="590.63" y2="594.18" /><line stroke="blue" x1="143.54" x2="143.54" y1="633.58" y2="591.34" /><line stroke="blue" x1="146.02" x2="142.83" y1="633.55" y2="633.58" /><line stroke="blue" x1="148.5" x2="146.02" y1="635.28" y2="633.55" /><line stroke="blue" x1="153.46" x2="148.5" y1="679.92" y2="636.13" /><line stroke="blue" x1="146.37" x2="153.46" y1="679.21" y2="679.92" /><line stroke="blue" x1="142.83" x2="146.37" y1="675.67" y2="679.21" /><line stroke="blue" x1="143.54" x2="143.54" y1="704.72" y2="676.38" /><line stroke="blue" x1="138.19" x2="143.54" y1="702.83" y2="704.72" /><line stroke="blue" x1="129.49" x2="139.1" y1="710.28" y2="702.4" /><line stroke="blue" x1="110.17" x2="129.49" y1="703.45" y2="710.28" /><line stroke="blue" x1="113.2" x2="110.17" y1="697.0" y2="703.45" /><line stroke="blue" x1="117.72" x2="113.2" y1="694.84" y2="697.0" /><line stroke="blue" x1="77.0" x2="116.82" y1="681.2" y2="695.27" /><line stroke="blue" x1="76.2" x2="77.23" y1="683.54" y2="680.53" /><line stroke="blue" x1="73.74" x2="76.2" y1="685.31" y2="683.54" /><line stroke="blue" x1="30.0" x2="72.94" y1="675.1" y2="685.02" /><line stroke="blue" x1="33.03" x2="30.0" y1="668.66" y2="675.1" /><line stroke="blue" x1="37.55" x2="33.03" y1="666.5" y2="668.66" /><line stroke="blue" x1="9.92" x2="36.64" y1="657.48" y2="666.93" /><line stroke="blue" x1="162.98" x2="162.98" y1="651.81" y2="657.48" /><line stroke="blue" x1="153.06" x2="163.69" y1="646.09" y2="652.52" /><line stroke="blue" x1="153.06" x2="153.06" y1="625.59" y2="646.09" /><line stroke="blue" x1="160.15" x2="153.06" y1="626.3" y2="625.59" /><line stroke="blue" x1="163.69" x2="160.15" y1="629.85" y2="626.3" /><line stroke="blue" x1="162.98" x2="162.98" y1="586.9" y2="629.14" /><line stroke="blue" x1="160.5" x2="163.69" y1="586.93" y2="586.9" /><line stroke="blue" x1="158.02" x2="160.5" y1="585.2" y2="586.93" /><line stroke="blue" x1="153.06" x2="158.02" y1="540.56" y2="584.35" /><line stroke="blue" x1="160.15" x2="153.06" y1="541.27" y2="540.56" /><line stroke="blue" x1="163.69" x2="160.15" y1="544.81" y2="541.27" /><line stroke="blue" x1="162.98" x2="162.98" y1="515.76" y2="544.1" /><line stroke="blue" x1="168.33" x2="162.98" y1="517.65" y2="515.76" /><line stroke="blue" x1="177.03" x2="167.42" y1="510.2" y2="518.08" /><line stroke="blue" x1="196.35" x2="177.03" y1="517.03" y2="510.2" /><line stroke="blue" x1="193.32" x2="196.35" y1="523.48" y2="517.03" /><line stroke="blue" x1="188.8" x2="193.32" y1="525.64" y2="523.48" /><line stroke="blue" x1="229.52" x2="189.71" y1="539.28" y2="525.21" /><line stroke="blue" x1="230.32" x2="229.29" y1="536.94" y2="539.95" /><line stroke="blue" x1="232.78" x2="230.32" y1="535.17" y2="536.94" /><line stroke="blue" x1="276.52" x2="233.58" y1="545.38" y2="535.46" /><line stroke="blue" x1="273.49" x2="276.52" y1="551.82" y2="545.38" /><line stroke="blue" x1="268.97" x2="273.49" y1="553.98" y2="551.82" /><line stroke="blue" x1="296.6" x2="269.88" y1="563.0" y2="553.55" /><line stroke="blue" x1="296.6" x2="296.6" y1="568.67" y2="563.0" /><line stroke="blue" x1="306.52" x2="295.89" y1="574.39" y2="567.96" /><line stroke="blue" x1="306.52" x2="306.52" y1="594.88" y2="574.39" /><line stroke="blue" x1="299.44" x2="306.52" y1="594.18" y2="594.88" /><line stroke="blue" x1="295.89" x2="299.44" y1="590.63" y2="594.18" /><line stroke="blue" x1="296.6" x2="296.6" y1="633.58" y2="591.34" /><line stroke="blue" x1="299.08" x2="295.89" y1="633.55" y2="633.58" /><line stroke="blue" x1="301.56" x2="299.08" y1="635.28" y2="633.55" /><line stroke="blue" x1="306.52" x2="301.56" y1="679.92" y2="636.13" /><line stroke="blue" x1="299.44" x2="306.52" y1="679.21" y2="679.92" /><line stroke="blue" x1="295.89" x2="299.44" y1="675.67" y2="679.21" /><line stroke="blue" x1="296.6" x2="296.6" y1="704.72" y2="676.38" /><line stroke="blue" x1="291.26" x2="296.6" y1="702.83" y2="704.72" /><line stroke="blue" x1="282.55" x2="292.16" y1="710.28" y2="702.4" /><line stroke="blue" x1="263.23" x2="282.55" y1="703.45" y2="710.28" /><line stroke="blue" x1="266.26" x2="263.23" y1="697.0" y2="703.45" /><line stroke="blue" x1="270.78" x2="266.26" y1="694.84" y2="697.0" /><line stroke="blue" x1="230.06" x2="269.88" y1="681.2" y2="695.27" /><line stroke="blue" x1="229.26" x2="230.29" y1="683.54" y2="680.53" /><line stroke="blue" x1="226.8" x2="229.26" y1="685.31" y2="683.54" /><line stroke="blue" x1="183.06" x2="226.0" y1="675.1" y2="685.02" /><line stroke="blue" x1="186.09" x2="183.06" y1="668.66" y2="675.1" /><line stroke="blue" x1="190.61" x2="186.09" y1="666.5" y2="668.66" /><line stroke="blue" x1="162.98" x2="189.71" y1="657.48" y2="666.93" /><line stroke="blue" x1="316.04" x2="316.04" y1="651.81" y2="657.48" /><line stroke="blue" x1="306.12" x2="316.75" y1="646.09" y2="652.52" /><line stroke="blue" x1="306.12" x2="306.12" y1="625.59" y2="646.09" /><line stroke="blue" x1="313.21" x2="306.12" y1="626.3" y2="625.59" /><line stroke="blue" x1="316.75" x2="313.21" y1="629.85" y2="626.3" /><line stroke="blue" x1="316.04" x2="316.04" y1="586.9" y2="629.14" /><line stroke="blue" x1="313.56" x2="316.75" y1="586.93" y2="586.9" /><line stroke="blue" x1="311.08" x2="313.56" y1="585.2" y2="586.93" /><line stroke="blue" x1="306.12" x2="311.08" y1="540.56" y2="584.35" /><line stroke="blue" x1="313.21" x2="306.12" y1="541.27" y2="540.56" /><line stroke="blue" x1="316.75" x2="313.21" y1="544.81" y2="541.27" /><line stroke="blue" x1="316.04" x2="316.04" y1="515.76" y2="544.1" /><line stroke="blue" x1="321.39" x2="316.04" y1="517.65" y2="515.76" /><line stroke="blue" x1="330.09" x2="320.48" y1="510.2" y2="518.08" /><line stroke="blue" x1="349.41" x2="330.09" y1="517.03" y2="510.2" /><line stroke="blue" x1="346.38" x2="349.41" y1="523.48" y2="517.03" /><line stroke="blue" x1="341.86" x2="346.38" y1="525.64" y2="523.48" /><line stroke="blue" x1="382.59" x2="342.77" y1="539.28" y2="525.21" /><line stroke="blue" x1="383.39" x2="382.35" y1="536.94" y2="539.95" /><line stroke="blue" x1="385.84" x2="383.39" y1="535.17" y2="536.94" /><line stroke="blue" x1="429.59" x2="386.64" y1="545.38" y2="535.46" /><line stroke="blue" x1="426.56" x2="429.59" y1="551.82" y2="545.38" /><line stroke="blue" x1="422.03" x2="426.56" y1="553.98" y2="551.82" /><line stroke="blue" x1="449.66" x2="422.94" y1="563.0" y2="553.55" /><line stroke="blue" x1="449.66" x2="449.66" y1="568.67" y2="563.0" /><line stroke="blue" x1="459.58" x2="448.95" y1="574.39" y2="567.96" /><line stroke="blue" x1="459.58" x2="459.58" y1="594.88" y2="574.39" /><line stroke="blue" x1="452.5" x2="459.58" y1="594.18" y2="594.88" /><line stroke="blue" x1="448.95" x2="452.5" y1="590.63" y2="594.18" /><line stroke="blue" x1="449.66" x2="449.66" y1="633.58" y2="591.34" /><line stroke="blue" x1="452.14" x2="448.95" y1="633.55" y2="633.58" /><line stroke="blue" x1="454.62" x2="452.14" y1="635.28" y2="633.55" /><line stroke="blue" x1="459.58" x2="454.62" y1="679.92" y2="636.13" /><line stroke="blue" x1="452.5" x2="459.58" y1="679.21" y2="679.92" /><line stroke="blue" x1="448.95" x2="452.5" y1="675.67" y2="679.21" /><line stroke="blue" x1="449.66" x2="449.66" y1="704.72" y2="676.38" /><line stroke="blue" x1="444.32" x2="449.66" y1="702.83" y2="704.72" /><line stroke="blue" x1="435.61" x2="445.22" y1="710.28" y2="702.4" /><line stroke="blue" x1="416.29" x2="435.61" y1="703.45" y2="710.28" /><line stroke="blue" x1="419.32" x2="416.29" y1="697.0" y2="703.45" /><line stroke="blue" x1="423.84" x2="419.32" y1="694.84" y2="697.0" /><line stroke="blue" x1="383.12" x2="422.94" y1="681.2" y2="695.27" /><line stroke="blue" x1="382.32" x2="383.36" y1="683.54" y2="680.53" /><line stroke="blue" x1="379.86" x2="382.32" y1="685.31" y2="683.54" /><line stroke="blue" x1="336.12" x2="379.06" y1="675.1" y2="685.02" /><line stroke="blue" x1="339.15" x2="336.12" y1="668.66" y2="675.1" /><line stroke="blue" x1="343.67" x2="339.15" y1="666.5" y2="668.66" /><line stroke="blue" x1="316.04" x2="342.77" y1="657.48" y2="666.93" /></g><g id="scorelines"><line stroke="red" x1="10.63" x2="10.63" y1="121.48" y2="141.61" /><line stroke="red" x1="10.63" x2="10.63" y1="36.45" y2="73.58" /><line stroke="red" x1="34.0" x2="15.03" y1="14.82" y2="8.11" /><line stroke="red" x1="114.17" x2="79.17" y1="43.16" y2="30.79" /><line stroke="red" x1="142.83" x2="142.83" y1="78.59" y2="58.46" /><line stroke="red" x1="142.83" x2="142.83" y1="163.62" y2="126.49" /><line stroke="red" x1="119.46" x2="138.43" y1="185.25" y2="191.96" /><line stroke="red" x1="39.29" x2="74.29" y1="156.91" y2="169.28" /><line stroke="red" x1="163.69" x2="163.69" y1="121.48" y2="141.61" /><line stroke="red" x1="163.69" x2="163.69" y1="36.45" y2="73.58" /><line stroke="red" x1="187.06" x2="168.09" y1="14.82" y2="8.11" /><line stroke="red" x1="267.24" x2="232.23" y1="43.16" y2="30.79" /><line stroke="red" x1="295.89" x2="295.89" y1="78.59" y2="58.46" /><line stroke="red" x1="295.89" x2="295.89" y1="163.62" y2="126.49" /><line stroke="red" x1="272.52" x2="291.49" y1="185.25" y2="191.96" /><line stroke="red" x1="192.35" x2="227.36" y1="156.91" y2="169.28" /><line stroke="red" x1="316.75" x2="316.75" y1="121.48" y2="141.61" /><line stroke="red" x1="316.75" x2="316.75" y1="36.45" y2="73.58" /><line stroke="red" x1="340.13" x2="321.15" y1="14.82" y2="8.11" /><line stroke="red" x1="420.3" x2="385.29" y1="43.16" y2="30.79" /><line stroke="red" x1="448.95" x2="448.95" y1="78.59" y2="58.46" /><line stroke="red" x1="448.95" x2="448.95" y1="163.62" y2="126.49" /><line stroke="red" x1="425.58" x2="444.55" y1="185.25" y2="191.96" /><line stroke="red" x1="345.41" x2="380.42" y1="156.91" y2="169.28" /><line stroke="red" x1="10.63" x2="10.63" y1="291.55" y2="311.68" /><line stroke="red" x1="10.63" x2="10.63" y1="206.52" y2="243.65" /><line stroke="red" x1="34.0" x2="15.03" y1="184.89" y2="178.18" /><line stroke="red" x1="114.17" x2="79.17" y1="213.23" y2="200.85" /><line stroke="red" x1="142.83" x2="142.83" y1="248.65" y2="228.53" /><line stroke="red" x1="142.83" x2="142.83" y1="333.69" y2="296.56" /><line stroke="red" x1="119.46" x2="138.43" y1="355.32" y2="362.03" /><line stroke="red" x1="39.29" x2="74.29" y1="326.98" y2="339.35" /><line stroke="red" x1="163.69" x2="163.69" y1="291.55" y2="311.68" /><line stroke="red" x1="163.69" x2="163.69" y1="206.52" y2="243.65" /><line stroke="red" x1="187.06" x2="168.09" y1="184.89" y2="178.18" /><line stroke="red" x1="267.24" x2="232.23" y1="213.23" y2="200.85" /><line stroke="red" x1="295.89" x2="295.89" y1="248.65" y2="228.53" /><line stroke="red" x1="295.89" x2="295.89" y1="333.69" y2="296.56" /><line stroke="red" x1="272.52" x2="291.49" y1="355.32" y2="362.03" /><line stroke="red" x1="192.35" x2="227.36" y1="326.98" y2="339.35" /><line stroke="red" x1="316.75" x2="316.75" y1="291.55" y2="311.68" /><line stroke="red" x1="316.75" x2="316.75" y1="206.52" y2="243.65" /><line stroke="red" x1="340.13" x2="321.15" y1="184.89" y2="178.18" /><line stroke="red" x1="420.3" x2="385.29" y1="213.23" y2="200.85" /><line stroke="red" x1="448.95" x2="448.95" y1="248.65" y2="228.53" /><line stroke="red" x1="448.95" x2="448.95" y1="333.69" y2="296.56" /><line stroke="red" x1="425.58" x2="444.55" y1="355.32" y2="362.03" /><line stroke="red" x1="345.41" x2="380.42" y1="326.98" y2="339.35" /><line stroke="red" x1="10.63" x2="10.63" y1="461.62" y2="481.75" /><line stroke="red" x1="10.63" x2="10.63" y1="376.59" y2="413.72" /><line stroke="red" x1="34.0" x2="15.03" y1="354.96" y2="348.25" /><line stroke="red" x1="114.17" x2="79.17" y1="383.3" y2="370.92" /><line stroke="red" x1="142.83" x2="142.83" y1="418.72" y2="398.6" /><line stroke="red" x1="142.83" x2="142.83" y1="503.76" y2="466.63" /><line stroke="red" x1="119.46" x2="138.43" y1="525.39" y2="532.09" /><line stroke="red" x1="39.29" x2="74.29" y1="497.04" y2="509.42" /><line stroke="red" x1="163.69" x2="163.69" y1="461.62" y2="481.75" /><line stroke="red" x1="163.69" x2="163.69" y1="376.59" y2="413.72" /><line stroke="red" x1="187.06" x2="168.09" y1="354.96" y2="348.25" /><line stroke="red" x1="267.24" x2="232.23" y1="383.3" y2="370.92" /><line stroke="red" x1="295.89" x2="295.89" y1="418.72" y2="398.6" /><line stroke="red" x1="295.89" x2="295.89" y1="503.76" y2="466.63" /><line stroke="red" x1="272.52" x2="291.49" y1="525.39" y2="532.09" /><line stroke="red" x1="192.35" x2="227.36" y1="497.04" y2="509.42" /><line stroke="red" x1="316.75" x2="316.75" y1="461.62" y2="481.75" /><line stroke="red" x1="316.75" x2="316.75" y1="376.59" y2="413.72" /><line stroke="red" x1="340.13" x2="321.15" y1="354.96" y2="348.25" /><line stroke="red" x1="420.3" x2="385.29" y1="383.3" y2="370.92" /><line stroke="red" x1="448.95" x2="448.95" y1="418.72" y2="398.6" /><line stroke="red" x1="448.95" x2="448.95" y1="503.76" y2="466.63" /><line stroke="red" x1="425.58" x2="444.55" y1="525.39" y2="532.09" /><line stroke="red" x1="345.41" x2="380.42" y1="497.04" y2="509.42" /><line stroke="red" x1="10.63" x2="10.63" y1="631.69" y2="651.81" /><line stroke="red" x1="10.63" x2="10.63" y1="546.65" y2="583.79" /><line stroke="red" x1="34.0" x2="15.03" y1="525.02" y2="518.32" /><line stroke="red" x1="114.17" x2="79.17" y1="553.37" y2="540.99" /><line stroke="red" x1="142.83" x2="142.83" y1="588.79" y2="568.67" /><line stroke="red" x1="142.83" x2="142.83" y1="673.82" y2="636.69" /><line stroke="red" x1="119.46" x2="138.43" y1="695.45" y2="702.16" /><line stroke="red" x1="39.29" x2="74.29" y1="667.11" y2="679.49" /><line stroke="red" x1="163.69" x2="163.69" y1="631.69" y2="651.81" /><line stroke="red" x1="163.69" x2="163.69" y1="546.65" y2="583.79" /><line stroke="red" x1="187.06" x2="168.09" y1="525.02" y2="518.32" /><line stroke="red" x1="267.24" x2="232.23" y1="553.37" y2="540.99" /><line stroke="red" x1="295.89" x2="295.89" y1="588.79" y2="568.67" /><line stroke="red" x1="295.89" x2="295.89" y1="673.82" y2="636.69" /><line stroke="red" x1="272.52" x2="291.49" y1="695.45" y2="702.16" /><line stroke="red" x1="192.35" x2="227.36" y1="667.11" y2="679.49" /><line stroke="red" x1="316.75" x2="316.75" y1="631.69" y2="651.81" /><line stroke="red" x1="316.75" x2="316.75" y1="546.65" y2="583.79" /><line stroke="red" x1="340.13" x2="321.15" y1="525.02" y2="518.32" /><line stroke="red" x1="420.3" x2="385.29" y1="553.37" y2="540.99" /><line stroke="red" x1="448.95" x2="448.95" y1="588.79" y2="568.67" /><line stroke="red" x1="448.95" x2="448.95" y1="673.82" y2="636.69" /><line stroke="red" x1="425.58" x2="444.55" y1="695.45" y2="702.16" /><line stroke="red" x1="345.41" x2="380.42" y1="667.11" y2="679.49" /></g></svg>