<?xml version="1.0" encoding="utf-8" ?>
<svg baseProfile="full" height="28.4cm" version="1.1" width="20.4cm" xmlns="http://www.w3.org/2000/svg" xmlns:ev="http://www.w3.org/2001/xml-events" xmlns:xlink="http://www.w3.org/1999/xlink"><defs /><g id="cutlines"><line stroke="blue" x1="209.81" x2="215.48" y1="255.39" y2="255.39" /><line stroke="blue" x1="204.08" x2="210.52" y1="265.31" y2="254.68" /><line stroke="blue" x1="183.59" x2="204.08" y1="265.31" y2="265.31" /><line stroke="blue" x1="184.3" x2="183.59" y1="258.23" y2="265.31" /><line stroke="blue" x1="187.84" x2="184.3" y1="254.68" y2="258.23" /><line stroke="blue" x1="144.9" x2="187.13" y1="255.39" y2="255.39" /><line stroke="blue" x1="144.93" x2="144.9" y1="257.87" y2="254.68" /><line stroke="blue" x1="143.2" x2="144.93" y1="260.35" y2="257.87" /><line stroke="blue" x1="98.56" x2="142.35" y1="265.31" y2="260.35" /><line stroke="blue" x1="99.27" x2="98.56" y1="258.23" y2="265.31" /><line stroke="blue" x1="102.81" x2="99.27" y1="254.68" y2="258.23" /><line stroke="blue" x1="73.75" x2="102.1" y1="255.39" y2="255.39" /><line stroke="blue" x1="70.92" x2="73.75" y1="250.48" y2="255.39" /><line stroke="blue" x1="59.47" x2="71.89" y1="250.48" y2="250.74" /><line stroke="blue" x1="49.22" x2="59.47" y1="232.74" y2="250.48" /><line stroke="blue" x1="55.71" x2="49.22" y1="229.81" y2="232.74" /><line stroke="blue" x1="60.55" x2="55.71" y1="231.1" y2="229.81" /><line stroke="blue" x1="38.47" x2="59.58" y1="194.27" y2="230.85" /><line stroke="blue" x1="36.33" x2="39.08" y1="195.53" y2="193.92" /><line stroke="blue" x1="33.32" x2="36.33" y1="195.28" y2="195.53" /><line stroke="blue" x1="6.7" x2="32.89" y1="159.1" y2="194.54" /><line stroke="blue" x1="13.19" x2="6.7" y1="156.17" y2="159.1" /><line stroke="blue" x1="18.03" x2="13.19" y1="157.46" y2="156.17" /><line stroke="blue" x1="2.89" x2="17.07" y1="132.66" y2="157.2" /><line stroke="blue" x1="5.73" x2="2.89" y1="127.75" y2="132.66" /><line stroke="blue" x1="0.0" x2="5.99" y1="117.83" y2="128.72" /><line stroke="blue" x1="10.25" x2="0.0" y1="100.08" y2="117.83" /><line stroke="blue" x1="16.03" x2="10.25" y1="104.24" y2="100.08" /><line stroke="blue" x1="17.32" x2="16.03" y1="109.08" y2="104.24" /><line stroke="blue" x1="38.18" x2="17.07" y1="71.53" y2="108.11" /><line stroke="blue" x1="36.02" x2="38.8" y1="70.32" y2="71.89" /><line stroke="blue" x1="34.74" x2="36.02" y1="67.58" y2="70.32" /><line stroke="blue" x1="52.76" x2="35.16" y1="26.44" y2="66.84" /><line stroke="blue" x1="58.55" x2="52.76" y1="30.6" y2="26.44" /><line stroke="blue" x1="59.84" x2="58.55" y1="35.44" y2="30.6" /><line stroke="blue" x1="73.75" x2="59.58" y1="9.92" y2="34.47" /><line stroke="blue" x1="79.42" x2="73.75" y1="9.92" y2="9.92" /><line stroke="blue" x1="85.15" x2="78.72" y1="0.0" y2="10.63" /><line stroke="blue" x1="105.64" x2="85.15" y1="0.0" y2="0.0" /><line stroke="blue" x1="104.93" x2="105.64" y1="7.09" y2="0.0" /><line stroke="blue" x1="101.39" x2="104.93" y1="10.63" y2="7.09" /><line stroke="blue" x1="144.33" x2="102.1" y1="9.92" y2="9.92" /><line stroke="blue" x1="144.3" x2="144.33" y1="7.44" y2="10.63" /><line stroke="blue" x1="146.03" x2="144.3" y1="4.96" y2="7.44" /><line stroke="blue" x1="190.68" x2="146.88" y1="0.0" y2="4.96" /><line stroke="blue" x1="189.97" x2="190.68" y1="7.09" y2="0.0" /><line stroke="blue" x1="186.42" x2="189.97" y1="10.63" y2="7.09" /><line stroke="blue" x1="215.48" x2="187.13" y1="9.92" y2="9.92" /><line stroke="blue" x1="218.31" x2="215.48" y1="14.83" y2="9.92" /><line stroke="blue" x1="229.77" x2="217.34" y1="14.83" y2="14.57" /><line stroke="blue" x1="240.01" x2="229.77" y1="32.58" y2="14.83" /><line stroke="blue" x1="233.52" x2="240.01" y1="35.51" y2="32.58" /><line stroke="blue" x1="228.68" x2="233.52" y1="34.21" y2="35.51" /><line stroke="blue" x1="250.77" x2="229.65" y1="71.04" y2="34.47" /><line stroke="blue" x1="252.9" x2="250.15" y1="69.78" y2="71.4" /><line stroke="blue" x1="255.91" x2="252.9" y1="70.04" y2="69.78" /><line stroke="blue" x1="282.53" x2="256.34" y1="106.22" y2="70.77" /><line stroke="blue" x1="276.04" x2="282.53" y1="109.15" y2="106.22" /><line stroke="blue" x1="271.2" x2="276.04" y1="107.85" y2="109.15" /><line stroke="blue" x1="286.34" x2="272.17" y1="132.66" y2="108.11" /><line stroke="blue" x1="283.51" x2="286.34" y1="137.57" y2="132.66" /><line stroke="blue" x1="289.23" x2="283.25" y1="147.49" y2="136.6" /><line stroke="blue" x1="278.99" x2="289.23" y1="165.23" y2="147.49" /><line stroke="blue" x1="273.21" x2="278.99" y1="161.08" y2="165.23" /><line stroke="blue" x1="271.91" x2="273.21" y1="156.24" y2="161.08" /><line stroke="blue" x1="251.05" x2="272.17" y1="193.78" y2="157.2" /><line stroke="blue" x1="253.21" x2="250.44" y1="194.99" y2="193.42" /><line stroke="blue" x1="254.5" x2="253.21" y1="197.73" y2="194.99" /><line stroke="blue" x1="236.47" x2="254.07" y1="238.87" y2="198.47" /><line stroke="blue" x1="230.69" x2="236.47" y1="234.72" y2="238.87" /><line stroke="blue" x1="229.39" x2="230.69" y1="229.88" y2="234.72" /><line stroke="blue" x1="215.48" x2="229.65" y1="255.39" y2="230.85" /><line stroke="blue" x1="498.92" x2="504.59" y1="255.39" y2="255.39" /><line stroke="blue" x1="493.2" x2="499.63" y1="265.31" y2="254.68" /><line stroke="blue" x1="472.71" x2="493.2" y1="265.31" y2="265.31" /><line stroke="blue" x1="473.41" x2="472.71" y1="258.23" y2="265.31" /><line stroke="blue" x1="476.96" x2="473.41" y1="254.68" y2="258.23" /><line stroke="blue" x1="434.02" x2="476.25" y1="255.39" y2="255.39" /><line stroke="blue" x1="434.04" x2="434.02" y1="257.87" y2="254.68" /><line stroke="blue" x1="432.31" x2="434.04" y1="260.35" y2="257.87" /><line stroke="blue" x1="387.67" x2="431.46" y1="265.31" y2="260.35" /><line stroke="blue" x1="388.38" x2="387.67" y1="258.23" y2="265.31" /><line stroke="blue" x1="391.92" x2="388.38" y1="254.68" y2="258.23" /><line stroke="blue" x1="362.87" x2="391.22" y1="255.39" y2="255.39" /><line stroke="blue" x1="360.04" x2="362.87" y1="250.48" y2="255.39" /><line stroke="blue" x1="348.58" x2="361.0" y1="250.48" y2="250.74" /><line stroke="blue" x1="338.34" x2="348.58" y1="232.74" y2="250.48" /><line stroke="blue" x1="344.83" x2="338.34" y1="229.81" y2="232.74" /><line stroke="blue" x1="349.67" x2="344.83" y1="231.1" y2="229.81" /><line stroke="blue" x1="327.58" x2="348.7" y1="194.27" y2="230.85" /><line stroke="blue" x1="325.45" x2="328.2" y1="195.53" y2="193.92" /><line stroke="blue" x1="322.44" x2="325.45" y1="195.28" y2="195.53" /><line stroke="blue" x1="295.82" x2="322.01" y1="159.1" y2="194.54" /><line stroke="blue" x1="302.31" x2="295.82" y1="156.17" y2="159.1" /><line stroke="blue" x1="307.15" x2="302.31" y1="157.46" y2="156.17" /><line stroke="blue" x1="292.01" x2="306.18" y1="132.66" y2="157.2" /><line stroke="blue" x1="294.84" x2="292.01" y1="127.75" y2="132.66" /><line stroke="blue" x1="289.12" x2="295.1" y1="117.83" y2="128.72" /><line stroke="blue" x1="299.36" x2="289.12" y1="100.08" y2="117.83" /><line stroke="blue" x1="305.14" x2="299.36" y1="104.24" y2="100.08" /><line stroke="blue" x1="306.44" x2="305.14" y1="109.08" y2="104.24" /><line stroke="blue" x1="327.3" x2="306.18" y1="71.53" y2="108.11" /><line stroke="blue" x1="325.14" x2="327.91" y1="70.32" y2="71.89" /><line stroke="blue" x1="323.85" x2="325.14" y1="67.58" y2="70.32" /><line stroke="blue" x1="341.88" x2="324.28" y1="26.44" y2="66.84" /><line stroke="blue" x1="347.66" x2="341.88" y1="30.6" y2="26.44" /><line stroke="blue" x1="348.96" x2="347.66" y1="35.44" y2="30.6" /><line stroke="blue" x1="362.87" x2="348.7" y1="9.92" y2="34.47" /><line stroke="blue" x1="368.54" x2="362.87" y1="9.92" y2="9.92" /><line stroke="blue" x1="374.27" x2="367.83" y1="0.0" y2="10.63" /><line stroke="blue" x1="394.76" x2="374.27" y1="0.0" y2="0.0" /><line stroke="blue" x1="394.05" x2="394.76" y1="7.09" y2="0.0" /><line stroke="blue" x1="390.51" x2="394.05" y1="10.63" y2="7.09" /><line stroke="blue" x1="433.45" x2="391.22" y1="9.92" y2="9.92" /><line stroke="blue" x1="433.42" x2="433.45" y1="7.44" y2="10.63" /><line stroke="blue" x1="435.15" x2="433.42" y1="4.96" y2="7.44" /><line stroke="blue" x1="479.79" x2="436.0" y1="0.0" y2="4.96" /><line stroke="blue" x1="479.08" x2="479.79" y1="7.09" y2="0.0" /><line stroke="blue" x1="475.54" x2="479.08" y1="10.63" y2="7.09" /><line stroke="blue" x1="504.59" x2="476.25" y1="9.92" y2="9.92" /><line stroke="blue" x1="507.43" x2="504.59" y1="14.83" y2="9.92" /><line stroke="blue" x1="518.88" x2="506.46" y1="14.83" y2="14.57" /><line stroke="blue" x1="529.13" x2="518.88" y1="32.58" y2="14.83" /><line stroke="blue" x1="522.64" x2="529.13" y1="35.51" y2="32.58" /><line stroke="blue" x1="517.8" x2="522.64" y1="34.21" y2="35.51" /><line stroke="blue" x1="539.88" x2="518.77" y1="71.04" y2="34.47" /><line stroke="blue" x1="542.02" x2="539.27" y1="69.78" y2="71.4" /><line stroke="blue" x1="545.03" x2="542.02" y1="70.04" y2="69.78" /><line stroke="blue" x1="571.65" x2="545.45" y1="106.22" y2="70.77" /><line stroke="blue" x1="565.16" x2="571.65" y1="109.15" y2="106.22" /><line stroke="blue" x1="560.32" x2="565.16" y1="107.85" y2="109.15" /><line stroke="blue" x1="575.46" x2="561.28" y1="132.66" y2="108.11" /><line stroke="blue" x1="572.62" x2="575.46" y1="137.57" y2="132.66" /><line stroke="blue" x1="578.35" x2="572.36" y1="147.49" y2="136.6" /><line stroke="blue" x1="568.1" x2="578.35" y1="165.23" y2="147.49" /><line stroke="blue" x1="562.32" x2="568.1" y1="161.08" y2="165.23" /><line stroke="blue" x1="561.02" x2="562.32" y1="156.24" y2="161.08" /><line stroke="blue" x1="540.17" x2="561.28" y1="193.78" y2="157.2" /><line stroke="blue" x1="542.33" x2="539.55" y1="194.99" y2="193.42" /><line stroke="blue" x1="543.61" x2="542.33" y1="197.73" y2="194.99" /><line stroke="blue" x1="525.59" x2="543.19" y1="238.87" y2="198.47" /><line stroke="blue" x1="519.8" x2="525.59" y1="234.72" y2="238.87" /><line stroke="blue" x1="518.51" x2="519.8" y1="229.88" y2="234.72" /><line stroke="blue" x1="504.59" x2="518.77" y1="255.39" y2="230.85" /><line stroke="blue" x1="209.81" x2="215.48" y1="524.67" y2="524.67" /><line stroke="blue" x1="204.08" x2="210.52" y1="534.59" y2="523.96" /><line stroke="blue" x1="183.59" x2="204.08" y1="534.59" y2="534.59" /><line stroke="blue" x1="184.3" x2="183.59" y1="527.5" y2="534.59" /><line stroke="blue" x1="187.84" x2="184.3" y1="523.96" y2="527.5" /><line stroke="blue" x1="144.9" x2="187.13" y1="524.67" y2="524.67" /><line stroke="blue" x1="144.93" x2="144.9" y1="527.15" y2="523.96" /><line stroke="blue" x1="143.2" x2="144.93" y1="529.63" y2="527.15" /><line stroke="blue" x1="98.56" x2="142.35" y1="534.59" y2="529.63" /><line stroke="blue" x1="99.27" x2="98.56" y1="527.5" y2="534.59" /><line stroke="blue" x1="102.81" x2="99.27" y1="523.96" y2="527.5" /><line stroke="blue" x1="73.75" x2="102.1" y1="524.67" y2="524.67" /><line stroke="blue" x1="70.92" x2="73.75" y1="519.76" y2="524.67" /><line stroke="blue" x1="59.47" x2="71.89" y1="519.76" y2="520.02" /><line stroke="blue" x1="49.22" x2="59.47" y1="502.01" y2="519.76" /><line stroke="blue" x1="55.71" x2="49.22" y1="499.08" y2="502.01" /><line stroke="blue" x1="60.55" x2="55.71" y1="500.38" y2="499.08" /><line stroke="blue" x1="38.47" x2="59.58" y1="463.54" y2="500.12" /><line stroke="blue" x1="36.33" x2="39.08" y1="464.81" y2="463.19" /><line stroke="blue" x1="33.32" x2="36.33" y1="464.55" y2="464.81" /><line stroke="blue" x1="6.7" x2="32.89" y1="428.37" y2="463.82" /><line stroke="blue" x1="13.19" x2="6.7" y1="425.44" y2="428.37" /><line stroke="blue" x1="18.03" x2="13.19" y1="426.74" y2="425.44" /><line stroke="blue" x1="2.89" x2="17.07" y1="401.93" y2="426.48" /><line stroke="blue" x1="5.73" x2="2.89" y1="397.02" y2="401.93" /><line stroke="blue" x1="0.0" x2="5.99" y1="387.1" y2="397.99" /><line stroke="blue" x1="10.25" x2="0.0" y1="369.36" y2="387.1" /><line stroke="blue" x1="16.03" x2="10.25" y1="373.51" y2="369.36" /><line stroke="blue" x1="17.32" x2="16.03" y1="378.35" y2="373.51" /><line stroke="blue" x1="38.18" x2="17.07" y1="340.81" y2="377.38" /><line stroke="blue" x1="36.02" x2="38.8" y1="339.59" y2="341.16" /><line stroke="blue" x1="34.74" x2="36.02" y1="336.86" y2="339.59" /><line stroke="blue" x1="52.76" x2="35.16" y1="295.71" y2="336.12" /><line stroke="blue" x1="58.55" x2="52.76" y1="299.87" y2="295.71" /><line stroke="blue" x1="59.84" x2="58.55" y1="304.71" y2="299.87" /><line stroke="blue" x1="73.75" x2="59.58" y1="279.2" y2="303.74" /><line stroke="blue" x1="79.42" x2="73.75" y1="279.2" y2="279.2" /><line stroke="blue" x1="85.15" x2="78.72" y1="269.27" y2="279.9" /><line stroke="blue" x1="105.64" x2="85.15" y1="269.27" y2="269.27" /><line stroke="blue" x1="104.93" x2="105.64" y1="276.36" y2="269.27" /><line stroke="blue" x1="101.39" x2="104.93" y1="279.9" y2="276.36" /><line stroke="blue" x1="144.33" x2="102.1" y1="279.2" y2="279.2" /><line stroke="blue" x1="144.3" x2="144.33" y1="276.71" y2="279.9" /><line stroke="blue" x1="146.03" x2="144.3" y1="274.23" y2="276.71" /><line stroke="blue" x1="190.68" x2="146.88" y1="269.27" y2="274.23" /><line stroke="blue" x1="189.97" x2="190.68" y1="276.36" y2="269.27" /><line stroke="blue" x1="186.42" x2="189.97" y1="279.9" y2="276.36" /><line stroke="blue" x1="215.48" x2="187.13" y1="279.2" y2="279.2" /><line stroke="blue" x1="218.31" x2="215.48" y1="284.1" y2="279.2" /><line stroke="blue" x1="229.77" x2="217.34" y1="284.1" y2="283.85" /><line stroke="blue" x1="240.01" x2="229.77" y1="301.85" y2="284.1" /><line stroke="blue" x1="233.52" x2="240.01" y1="304.78" y2="301.85" /><line stroke="blue" x1="228.68" x2="233.52" y1="303.48" y2="304.78" /><line stroke="blue" x1="250.77" x2="229.65" y1="340.32" y2="303.74" /><line stroke="blue" x1="252.9" x2="250.15" y1="339.05" y2="340.67" /><line stroke="blue" x1="255.91" x2="252.9" y1="339.31" y2="339.05" /><line stroke="blue" x1="282.53" x2="256.34" y1="375.49" y2="340.05" /><line stroke="blue" x1="276.04" x2="282.53" y1="378.42" y2="375.49" /><line stroke="blue" x1="271.2" x2="276.04" y1="377.12" y2="378.42" /><line stroke="blue" x1="286.34" x2="272.17" y1="401.93" y2="377.38" /><line stroke="blue" x1="283.51" x2="286.34" y1="406.84" y2="401.93" /><line stroke="blue" x1="289.23" x2="283.25" y1="416.76" y2="405.87" /><line stroke="blue" x1="278.99" x2="289.23" y1="434.51" y2="416.76" /><line stroke="blue" x1="273.21" x2="278.99" y1="430.35" y2="434.51" /><line stroke="blue" x1="271.91" x2="273.21" y1="425.51" y2="430.35" /><line stroke="blue" x1="251.05" x2="272.17" y1="463.05" y2="426.48" /><line stroke="blue" x1="253.21" x2="250.44" y1="464.27" y2="462.7" /><line stroke="blue" x1="254.5" x2="253.21" y1="467.01" y2="464.27" /><line stroke="blue" x1="236.47" x2="254.07" y1="508.15" y2="467.74" /><line stroke="blue" x1="230.69" x2="236.47" y1="503.99" y2="508.15" /><line stroke="blue" x1="229.39" x2="230.69" y1="499.15" y2="503.99" /><line stroke="blue" x1="215.48" x2="229.65" y1="524.67" y2="500.12" /><line stroke="blue" x1="498.92" x2="504.59" y1="524.67" y2="524.67" /><line stroke="blue" x1="493.2" x2="499.63" y1="534.59" y2="523.96" /><line stroke="blue" x1="472.71" x2="493.2" y1="534.59" y2="534.59" /><line stroke="blue" x1="473.41" x2="472.71" y1="527.5" y2="534.59" /><line stroke="blue" x1="476.96" x2="473.41" y1="523.96" y2="527.5" /><line stroke="blue" x1="434.02" x2="476.25" y1="524.67" y2="524.67" /><line stroke="blue" x1="434.04" x2="434.02" y1="527.15" y2="523.96" /><line stroke="blue" x1="432.31" x2="434.04" y1="529.63" y2="527.15" /><line stroke="blue" x1="387.67" x2="431.46" y1="534.59" y2="529.63" /><line stroke="blue" x1="388.38" x2="387.67" y1="527.5" y2="534.59" /><line stroke="blue" x1="391.92" x2="388.38" y1="523.96" y2="527.5" /><line stroke="blue" x1="362.87" x2="391.22" y1="524.67" y2="524.67" /><line stroke="blue" x1="360.04" x2="362.87" y1="519.76" y2="524.67" /><line stroke="blue" x1="348.58" x2="361.0" y1="519.76" y2="520.02" /><line stroke="blue" x1="338.34" x2="348.58" y1="502.01" y2="519.76" /><line stroke="blue" x1="344.83" x2="338.34" y1="499.08" y2="502.01" /><line stroke="blue" x1="349.67" x2="344.83" y1="500.38" y2="499.08" /><line stroke="blue" x1="327.58" x2="348.7" y1="463.54" y2="500.12" /><line stroke="blue" x1="325.45" x2="328.2" y1="464.81" y2="463.19" /><line stroke="blue" x1="322.44" x2="325.45" y1="464.55" y2="464.81" /><line stroke="blue" x1="295.82" x2="322.01" y1="428.37" y2="463.82" /><line stroke="blue" x1="302.31" x2="295.82" y1="425.44" y2="428.37" /><line stroke="blue" x1="307.15" x2="302.31" y1="426.74" y2="425.44" /><line stroke="blue" x1="292.01" x2="306.18" y1="401.93" y2="426.48" /><line stroke="blue" x1="294.84" x2="292.01" y1="397.02" y2="401.93" /><line stroke="blue" x1="289.12" x2="295.1" y1="387.1" y2="397.99" /><line stroke="blue" x1="299.36" x2="289.12" y1="369.36" y2="387.1" /><line stroke="blue" x1="305.14" x2="299.36" y1="373.51" y2="369.36" /><line stroke="blue" x1="306.44" x2="305.14" y1="378.35" y2="373.51" /><line stroke="blue" x1="327.3" x2="306.18" y1="340.81" y2="377.38" /><line stroke="blue" x1="325.14" x2="327.91" y1="339.59" y2="341.16" /><line stroke="blue" x1="323.85" x2="325.14" y1="336.86" y2="339.59" /><line stroke="blue" x1="341.88" x2="324.28" y1="295.71" y2="336.12" /><line stroke="blue" x1="347.66" x2="341.88" y1="299.87" y2="295.71" /><line stroke="blue" x1="348.96" x2="347.66" y1="304.71" y2="299.87" /><line stroke="blue" x1="362.87" x2="348.7" y1="279.2" y2="303.74" /><line stroke="blue" x1="368.54" x2="362.87" y1="279.2" y2="279.2" /><line stroke="blue" x1="374.27" x2="367.83" y1="269.27" y2="279.9" /><line stroke="blue" x1="394.76" x2="374.27" y1="269.27" y2="269.27" /><line stroke="blue" x1="394.05" x2="394.76" y1="276.36" y2="269.27" /><line stroke="blue" x1="390.51" x2="394.05" y1="279.9" y2="276.36" /><line stroke="blue" x1="433.45" x2="391.22" y1="279.2" y2="279.2" /><line stroke="blue" x1="433.42" x2="433.45" y1="276.71" y2="279.9" /><line stroke="blue" x1="435.15" x2="433.42" y1="274.23" y2="276.71" /><line stroke="blue" x1="479.79" x2="436.0" y1="269.27" y2="274.23" /><line stroke="blue" x1="479.08" x2="479.79" y1="276.36" y2="269.27" /><line stroke="blue" x1="475.54" x2="479.08" y1="279.9" y2="276.36" /><line stroke="blue" x1="504.59" x2="476.25" y1="279.2" y2="279.2" /><line stroke="blue" x1="507.43" x2="504.59" y1="284.1" y2="279.2" /><line stroke="blue" x1="518.88" x2="506.46" y1="284.1" y2="283.85" /><line stroke="blue" x1="529.13" x2="518.88" y1="301.85" y2="284.1" /><line stroke="blue" x1="522.64" x2="529.13" y1="304.78" y2="301.85" /><line stroke="blue" x1="517.8" x2="522.64" y1="303.48" y2="304.78" /><line stroke="blue" x1="539.88" x2="518.77" y1="340.32" y2="303.74" /><line stroke="blue" x1="542.02" x2="539.27" y1="339.05" y2="340.67" /><line stroke="blue" x1="545.03" x2="542.02" y1="339.31" y2="339.05" /><line stroke="blue" x1="571.65" x2="545.45" y1="375.49" y2="340.05" /><line stroke="blue" x1="565.16" x2="571.65" y1="378.42" y2="375.49" /><line stroke="blue" x1="560.32" x2="565.16" y1="377.12" y2="378.42" /><line stroke="blue" x1="575.46" x2="561.28" y1="401.93" y2="377.38" /><line stroke="blue" x1="572.62" x2="575.46" y1="406.84" y2="401.93" /><line stroke="blue" x1="578.35" x2="572.36" y1="416.76" y2="405.87" /><line stroke="blue" x1="568.1" x2="578.35" y1="434.51" y2="416.76" /><line stroke="blue" x1="562.32" x2="568.1" y1="430.35" y2="434.51" /><line stroke="blue" x1="561.02" x2="562.32" y1="425.51" y2="430.35" /><line stroke="blue" x1="540.17" x2="561.28" y1="463.05" y2="426.48" /><line stroke="blue" x1="542.33" x2="539.55" y1="464.27" y2="462.7" /><line stroke="blue" x1="543.61" x2="542.33" y1="467.01" y2="464.27" /><line stroke="blue" x1="525.59" x2="543.19" y1="508.15" y2="467.74" /><line stroke="blue" x1="519.8" x2="525.59" y1="503.99" y2="508.15" /><line stroke="blue" x1="518.51" x2="519.8" y1="499.15" y2="503.99" /><line stroke="blue" x1="504.59" x2="518.77" y1="524.67" y2="500.12" /><line stroke="blue" x1="209.81" x2="215.48" y1="793.94" y2="793.94" /><line stroke="blue" x1="204.08" x2="210.52" y1="803.86" y2="793.23" /><line stroke="blue" x1="183.59" x2="204.08" y1="803.86" y2="803.86" /><line stroke="blue" x1="184.3" x2="183.59" y1="796.78" y2="803.86" /><line stroke="blue" x1="187.84" x2="184.3" y1="793.23" y2="796.78" /><line stroke="blue" x1="144.9" x2="187.13" y1="793.94" y2="793.94" /><line stroke="blue" x1="144.93" x2="144.9" y1="796.42" y2="793.23" /><line stroke="blue" x1="143.2" x2="144.93" y1="798.9" y2="796.42" /><line stroke="blue" x1="98.56" x2="142.35" y1="803.86" y2="798.9" /><line stroke="blue" x1="99.27" x2="98.56" y1="796.78" y2="803.86" /><line stroke="blue" x1="102.81" x2="99.27" y1="793.23" y2="796.78" /><line stroke="blue" x1="73.75" x2="102.1" y1="793.94" y2="793.94" /><line stroke="blue" x1="70.92" x2="73.75" y1="789.03" y2="793.94" /><line stroke="blue" x1="59.47" x2="71.89" y1="789.03" y2="789.29" /><line stroke="blue" x1="49.22" x2="59.47" y1="771.29" y2="789.03" /><line stroke="blue" x1="55.71" x2="49.22" y1="768.36" y2="771.29" /><line stroke="blue" x1="60.55" x2="55.71" y1="769.65" y2="768.36" /><line stroke="blue" x1="38.47" x2="59.58" y1="732.82" y2="769.39" /><line stroke="blue" x1="36.33" x2="39.08" y1="734.08" y2="732.46" /><line stroke="blue" x1="33.32" x2="36.33" y1="733.83" y2="734.08" /><line stroke="blue" x1="6.7" x2="32.89" y1="697.64" y2="733.09" /><line stroke="blue" x1="13.19" x2="6.7" y1="694.72" y2="697.64" /><line stroke="blue" x1="18.03" x2="13.19" y1="696.01" y2="694.72" /><line stroke="blue" x1="2.89" x2="17.07" y1="671.21" y2="695.75" /><line stroke="blue" x1="5.73" x2="2.89" y1="666.3" y2="671.21" /><line stroke="blue" x1="0.0" x2="5.99" y1="656.38" y2="667.26" /><line stroke="blue" x1="10.25" x2="0.0" y1="638.63" y2="656.38" /><line stroke="blue" x1="16.03" x2="10.25" y1="642.79" y2="638.63" /><line stroke="blue" x1="17.32" x2="16.03" y1="647.63" y2="642.79" /><line stroke="blue" x1="38.18" x2="17.07" y1="610.08" y2="646.66" /><line stroke="blue" x1="36.02" x2="38.8" y1="608.87" y2="610.44" /><line stroke="blue" x1="34.74" x2="36.02" y1="606.13" y2="608.87" /><line stroke="blue" x1="52.76" x2="35.16" y1="564.99" y2="605.39" /><line stroke="blue" x1="58.55" x2="52.76" y1="569.14" y2="564.99" /><line stroke="blue" x1="59.84" x2="58.55" y1="573.98" y2="569.14" /><line stroke="blue" x1="73.75" x2="59.58" y1="548.47" y2="573.02" /><line stroke="blue" x1="79.42" x2="73.75" y1="548.47" y2="548.47" /><line stroke="blue" x1="85.15" x2="78.72" y1="538.55" y2="549.18" /><line stroke="blue" x1="105.64" x2="85.15" y1="538.55" y2="538.55" /><line stroke="blue" x1="104.93" x2="105.64" y1="545.63" y2="538.55" /><line stroke="blue" x1="101.39" x2="104.93" y1="549.18" y2="545.63" /><line stroke="blue" x1="144.33" x2="102.1" y1="548.47" y2="548.47" /><line stroke="blue" x1="144.3" x2="144.33" y1="545.99" y2="549.18" /><line stroke="blue" x1="146.03" x2="144.3" y1="543.51" y2="545.99" /><line stroke="blue" x1="190.68" x2="146.88" y1="538.55" y2="543.51" /><line stroke="blue" x1="189.97" x2="190.68" y1="545.63" y2="538.55" /><line stroke="blue" x1="186.42" x2="189.97" y1="549.18" y2="545.63" /><line stroke="blue" x1="215.48" x2="187.13" y1="548.47" y2="548.47" /><line stroke="blue" x1="218.31" x2="215.48" y1="553.38" y2="548.47" /><line stroke="blue" x1="229.77" x2="217.34" y1="553.38" y2="553.12" /><line stroke="blue" x1="240.01" x2="229.77" y1="571.12" y2="553.38" /><line stroke="blue" x1="233.52" x2="240.01" y1="574.05" y2="571.12" /><line stroke="blue" x1="228.68" x2="233.52" y1="572.76" y2="574.05" /><line stroke="blue" x1="250.77" x2="229.65" y1="609.59" y2="573.02" /><line stroke="blue" x1="252.9" x2="250.15" y1="608.33" y2="609.95" /><line stroke="blue" x1="255.91" x2="252.9" y1="608.58" y2="608.33" /><line stroke="blue" x1="282.53" x2="256.34" y1="644.77" y2="609.32" /><line stroke="blue" x1="276.04" x2="282.53" y1="647.7" y2="644.77" /><line stroke="blue" x1="271.2" x2="276.04" y1="646.4" y2="647.7" /><line stroke="blue" x1="286.34" x2="272.17" y1="671.21" y2="646.66" /><line stroke="blue" x1="283.51" x2="286.34" y1="676.11" y2="671.21" /><line stroke="blue" x1="289.23" x2="283.25" y1="686.04" y2="675.15" /><line stroke="blue" x1="278.99" x2="289.23" y1="703.78" y2="686.04" /><line stroke="blue" x1="273.21" x2="278.99" y1="699.62" y2="703.78" /><line stroke="blue" x1="271.91" x2="273.21" y1="694.78" y2="699.62" /><line stroke="blue" x1="251.05" x2="272.17" y1="732.33" y2="695.75" /><line stroke="blue" x1="253.21" x2="250.44" y1="733.54" y2="731.97" /><line stroke="blue" x1="254.5" x2="253.21" y1="736.28" y2="733.54" /><line stroke="blue" x1="236.47" x2="254.07" y1="777.42" y2="737.02" /><line stroke="blue" x1="230.69" x2="236.47" y1="773.27" y2="777.42" /><line stroke="blue" x1="229.39" x2="230.69" y1="768.43" y2="773.27" /><line stroke="blue" x1="215.48" x2="229.65" y1="793.94" y2="769.39" /><line stroke="blue" x1="498.92" x2="504.59" y1="793.94" y2="793.94" /><line stroke="blue" x1="493.2" x2="499.63" y1="803.86" y2="793.23" /><line stroke="blue" x1="472.71" x2="493.2" y1="803.86" y2="803.86" /><line stroke="blue" x1="473.41" x2="472.71" y1="796.78" y2="803.86" /><line stroke="blue" x1="476.96" x2="473.41" y1="793.23" y2="796.78" /><line stroke="blue" x1="434.02" x2="476.25" y1="793.94" y2="793.94" /><line stroke="blue" x1="434.04" x2="434.02" y1="796.42" y2="793.23" /><line stroke="blue" x1="432.31" x2="434.04" y1="798.9" y2="796.42" /><line stroke="blue" x1="387.67" x2="431.46" y1="803.86" y2="798.9" /><line stroke="blue" x1="388.38" x2="387.67" y1="796.78" y2="803.86" /><line stroke="blue" x1="391.92" x2="388.38" y1="793.23" y2="796.78" /><line stroke="blue" x1="362.87" x2="391.22" y1="793.94" y2="793.94" /><line stroke="blue" x1="360.04" x2="362.87" y1="789.03" y2="793.94" /><line stroke="blue" x1="348.58" x2="361.0" y1="789.03" y2="789.29" /><line stroke="blue" x1="338.34" x2="348.58" y1="771.29" y2="789.03" /><line stroke="blue" x1="344.83" x2="338.34" y1="768.36" y2="771.29" /><line stroke="blue" x1="349.67" x2="344.83" y1="769.65" y2="768.36" /><line stroke="blue" x1="327.58" x2="348.7" y1="732.82" y2="769.39" /><line stroke="blue" x1="325.45" x2="328.2" y1="734.08" y2="732.46" /><line stroke="blue" x1="322.44" x2="325.45" y1="733.83" y2="734.08" /><line stroke="blue" x1="295.82" x2="322.01" y1="697.64" y2="733.09" /><line stroke="blue" x1="302.31" x2="295.82" y1="694.72" y2="697.64" /><line stroke="blue" x1="307.15" x2="302.31" y1="696.01" y2="694.72" /><line stroke="blue" x1="292.01" x2="306.18" y1="671.21" y2="695.75" /><line stroke="blue" x1="294.84" x2="292.01" y1="666.3" y2="671.21" /><line stroke="blue" x1="289.12" x2="295.1" y1="656.38" y2="667.26" /><line stroke="blue" x1="299.36" x2="289.12" y1="638.63" y2="656.38" /><line stroke="blue" x1="305.14" x2="299.36" y1="642.79" y2="638.63" /><line stroke="blue" x1="306.44" x2="305.14" y1="647.63" y2="642.79" /><line stroke="blue" x1="327.3" x2="306.18" y1="610.08" y2="646.66" /><line stroke="blue" x1="325.14" x2="327.91" y1="608.87" y2="610.44" /><line stroke="blue" x1="323.85" x2="325.14" y1="606.13" y2="608.87" /><line stroke="blue" x1="341.88" x2="324.28" y1="564.99" y2="605.39" /><line stroke="blue" x1="347.66" x2="341.88" y1="569.14" y2="564.99" /><line stroke="blue" x1="348.96" x2="347.66" y1="573.98" y2="569.14" /><line stroke="blue" x1="362.87" x2="348.7" y1="548.47" y2="573.02" /><line stroke="blue" x1="368.54" x2="362.87" y1="548.47" y2="548.47" /><line stroke="blue" x1="374.27" x2="367.83" y1="538.55" y2="549.18" /><line stroke="blue" x1="394.76" x2="374.27" y1="538.55" y2="538.55" /><line stroke="blue" x1="394.05" x2="394.76" y1="545.63" y2="538.55" /><line stroke="blue" x1="390.51" x2="394.05" y1="549.18" y2="545.63" /><line stroke="blue" x1="433.45" x2="391.22" y1="548.47" y2="548.47" /><line stroke="blue" x1="433.42" x2="433.45" y1="545.99" y2="549.18" /><line stroke="blue" x1="435.15" x2="433.42" y1="543.51" y2="545.99" /><line stroke="blue" x1="479.79" x2="436.0" y1="538.55" y2="543.51" /><line stroke="blue" x1="479.08" x2="479.79" y1="545.63" y2="538.55" /><line stroke="blue" x1="475.54" x2="479.08" y1="549.18" y2="545.63" /><line stroke="blue" x1="504.59" x2="476.25" y1="548.47" y2="548.47" /><line stroke="blue" x1="507.43" x2="504.59" y1="553.38" y2="548.47" /><line stroke="blue" x1="518.88" x2="506.46" y1="553.38" y2="553.12" /><line stroke="blue" x1="529.13" x2="518.88" y1="571.12" y2="553.38" /><line stroke="blue" x1="522.64" x2="529.13" y1="574.05" y2="571.12" /><line stroke="blue" x1="517.8" x2="522.64" y1="572.76" y2="574.05" /><line stroke="blue" x1="539.88" x2="518.77" y1="609.59" y2="573.02" /><line stroke="blue" x1="542.02" x2="539.27" y1="608.33" y2="609.95" /><line stroke="blue" x1="545.03" x2="542.02" y1="608.58" y2="608.33" /><line stroke="blue" x1="571.65" x2="545.45" y1="644.77" y2="609.32" /><line stroke="blue" x1="565.16" x2="571.65" y1="647.7" y2="644.77" /><line stroke="blue" x1="560.32" x2="565.16" y1="646.4" y2="647.7" /><line stroke="blue" x1="575.46" x2="561.28" y1="671.21" y2="646.66" /><line stroke="blue" x1="572.62" x2="575.46" y1="676.11" y2="671.21" /><line stroke="blue" x1="578.35" x2="572.36" y1="686.04" y2="675.15" /><line stroke="blue" x1="568.1" x2="578.35" y1="703.78" y2="686.04" /><line stroke="blue" x1="562.32" x2="568.1" y1="699.62" y2="703.78" /><line stroke="blue" x1="561.02" x2="562.32" y1="694.78" y2="699.62" /><line stroke="blue" x1="540.17" x2="561.28" y1="732.33" y2="695.75" /><line stroke="blue" x1="542.33" x2="539.55" y1="733.54" y2="731.97" /><line stroke="blue" x1="543.61" x2="542.33" y1="736.28" y2="733.54" /><line stroke="blue" x1="525.59" x2="543.19" y1="777.42" y2="737.02" /><line stroke="blue" x1="519.8" x2="525.59" y1="773.27" y2="777.42" /><line stroke="blue" x1="518.51" x2="519.8" y1="768.43" y2="773.27" /><line stroke="blue" x1="504.59" x2="518.77" y1="793.94" y2="769.39" /></g><g id="scorelines"><line stroke="red" x1="189.68" x2="209.81" y1="254.68" y2="254.68" /><line stroke="red" x1="104.65" x2="141.78" y1="254.68" y2="254.68" /><line stroke="red" x1="61.47" x2="71.53" y1="232.7" y2="250.13" /><line stroke="red" x1="18.95" x2="37.52" y1="159.06" y2="191.22" /><line stroke="red" x1="16.4" x2="6.34" y1="110.67" y2="128.1" /><line stroke="red" x1="58.92" x2="40.35" y1="37.03" y2="69.19" /><line stroke="red" x1="99.55" x2="79.42" y1="10.63" y2="10.63" /><line stroke="red" x1="184.58" x2="147.45" y1="10.63" y2="10.63" /><line stroke="red" x1="227.76" x2="217.7" y1="32.61" y2="15.18" /><line stroke="red" x1="270.28" x2="251.71" y1="106.25" y2="74.1" /><line stroke="red" x1="272.83" x2="282.89" y1="154.64" y2="137.21" /><line stroke="red" x1="230.31" x2="248.88" y1="228.28" y2="196.13" /><line stroke="red" x1="478.8" x2="498.92" y1="254.68" y2="254.68" /><line stroke="red" x1="393.77" x2="430.9" y1="254.68" y2="254.68" /><line stroke="red" x1="350.59" x2="360.65" y1="232.7" y2="250.13" /><line stroke="red" x1="308.07" x2="326.64" y1="159.06" y2="191.22" /><line stroke="red" x1="305.52" x2="295.46" y1="110.67" y2="128.1" /><line stroke="red" x1="348.04" x2="329.47" y1="37.03" y2="69.19" /><line stroke="red" x1="388.66" x2="368.54" y1="10.63" y2="10.63" /><line stroke="red" x1="473.7" x2="436.57" y1="10.63" y2="10.63" /><line stroke="red" x1="516.88" x2="506.81" y1="32.61" y2="15.18" /><line stroke="red" x1="559.39" x2="540.83" y1="106.25" y2="74.1" /><line stroke="red" x1="561.95" x2="572.01" y1="154.64" y2="137.21" /><line stroke="red" x1="519.43" x2="537.99" y1="228.28" y2="196.13" /><line stroke="red" x1="189.68" x2="209.81" y1="523.96" y2="523.96" /><line stroke="red" x1="104.65" x2="141.78" y1="523.96" y2="523.96" /><line stroke="red" x1="61.47" x2="71.53" y1="501.97" y2="519.4" /><line stroke="red" x1="18.95" x2="37.52" y1="428.33" y2="460.49" /><line stroke="red" x1="16.4" x2="6.34" y1="379.95" y2="397.38" /><line stroke="red" x1="58.92" x2="40.35" y1="306.31" y2="338.46" /><line stroke="red" x1="99.55" x2="79.42" y1="279.9" y2="279.9" /><line stroke="red" x1="184.58" x2="147.45" y1="279.9" y2="279.9" /><line stroke="red" x1="227.76" x2="217.7" y1="301.89" y2="284.46" /><line stroke="red" x1="270.28" x2="251.71" y1="375.53" y2="343.37" /><line stroke="red" x1="272.83" x2="282.89" y1="423.91" y2="406.49" /><line stroke="red" x1="230.31" x2="248.88" y1="497.56" y2="465.4" /><line stroke="red" x1="478.8" x2="498.92" y1="523.96" y2="523.96" /><line stroke="red" x1="393.77" x2="430.9" y1="523.96" y2="523.96" /><line stroke="red" x1="350.59" x2="360.65" y1="501.97" y2="519.4" /><line stroke="red" x1="308.07" x2="326.64" y1="428.33" y2="460.49" /><line stroke="red" x1="305.52" x2="295.46" y1="379.95" y2="397.38" /><line stroke="red" x1="348.04" x2="329.47" y1="306.31" y2="338.46" /><line stroke="red" x1="388.66" x2="368.54" y1="279.9" y2="279.9" /><line stroke="red" x1="473.7" x2="436.57" y1="279.9" y2="279.9" /><line stroke="red" x1="516.88" x2="506.81" y1="301.89" y2="284.46" /><line stroke="red" x1="559.39" x2="540.83" y1="375.53" y2="343.37" /><line stroke="red" x1="561.95" x2="572.01" y1="423.91" y2="406.49" /><line stroke="red" x1="519.43" x2="537.99" y1="497.56" y2="465.4" /><line stroke="red" x1="189.68" x2="209.81" y1="793.23" y2="793.23" /><line stroke="red" x1="104.65" x2="141.78" y1="793.23" y2="793.23" /><line stroke="red" x1="61.47" x2="71.53" y1="771.25" y2="788.68" /><line stroke="red" x1="18.95" x2="37.52" y1="697.61" y2="729.76" /><line stroke="red" x1="16.4" x2="6.34" y1="649.22" y2="666.65" /><line stroke="red" x1="58.92" x2="40.35" y1="575.58" y2="607.74" /><line stroke="red" x1="99.55" x2="79.42" y1="549.18" y2="549.18" /><line stroke="red" x1="184.58" x2="147.45" y1="549.18" y2="549.18" /><line stroke="red" x1="227.76" x2="217.7" y1="571.16" y2="553.73" /><line stroke="red" x1="270.28" x2="251.71" y1="644.8" y2="612.65" /><line stroke="red" x1="272.83" x2="282.89" y1="693.19" y2="675.76" /><line stroke="red" x1="230.31" x2="248.88" y1="766.83" y2="734.67" /><line stroke="red" x1="478.8" x2="498.92" y1="793.23" y2="793.23" /><line stroke="red" x1="393.77" x2="430.9" y1="793.23" y2="793.23" /><line stroke="red" x1="350.59" x2="360.65" y1="771.25" y2="788.68" /><line stroke="red" x1="308.07" x2="326.64" y1="697.61" y2="729.76" /><line stroke="red" x1="305.52" x2="295.46" y1="649.22" y2="666.65" /><line stroke="red" x1="348.04" x2="329.47" y1="575.58" y2="607.74" /><line stroke="red" x1="388.66" x2="368.54" y1="549.18" y2="549.18" /><line stroke="red" x1="473.7" x2="436.57" y1="549.18" y2="549.18" /><line stroke="red" x1="516.88" x2="506.81" y1="571.16" y2="553.73" /><line stroke="red" x1="559.39" x2="540.83" y1="644.8" y2="612.65" /><line stroke="red" x1="561.95" x2="572.01" y1="693.19" y2="675.76" /><line stroke="red" x1="519.43" x2="537.99" y1="766.83" y2="734.67" /></g></svg>