<?xml version="1.0" encoding="utf-8" ?>
<svg baseProfile="full" height="29.4cm" version="1.1" width="20.2cm" xmlns="http://www.w3.org/2000/svg" xmlns:ev="http://www.w3.org/2001/xml-events" xmlns:xlink="http://www.w3.org/1999/xlink"><defs /><g id="cutlines"><line stroke="blue" x1="352.87" x2="352.87" y1="181.62" y2="187.29" /><line stroke="blue" x1="342.95" x2="353.58" y1="175.89" y2="182.33" /><line stroke="blue" x1="342.95" x2="342.95" y1="155.4" y2="175.89" /><line stroke="blue" x1="350.04" x2="342.95" y1="156.11" y2="155.4" /><line stroke="blue" x1="353.58" x2="350.04" y1="159.65" y2="156.11" /><line stroke="blue" x1="352.87" x2="352.87" y1="116.71" y2="158.94" /><line stroke="blue" x1="350.39" x2="353.58" y1="116.74" y2="116.71" /><line stroke="blue" x1="347.91" x2="350.39" y1="115.01" y2="116.74" /><line stroke="blue" x1="342.95" x2="347.91" y1="70.37" y2="114.16" /><line stroke="blue" x1="350.04" x2="342.95" y1="71.08" y2="70.37" /><line stroke="blue" x1="353.58" x2="350.04" y1="74.62" y2="71.08" /><line stroke="blue" x1="352.87" x2="352.87" y1="45.57" y2="73.91" /><line stroke="blue" x1="358.26" x2="352.87" y1="43.81" y2="45.57" /><line stroke="blue" x1="360.64" x2="357.81" y1="32.61" y2="44.71" /><line stroke="blue" x1="380.13" x2="360.64" y1="26.28" y2="32.61" /><line stroke="blue" x1="381.65" x2="380.13" y1="33.24" y2="26.28" /><line stroke="blue" x1="379.37" x2="381.65" y1="37.7" y2="33.24" /><line stroke="blue" x1="419.99" x2="379.83" y1="23.76" y2="36.81" /><line stroke="blue" x1="419.2" x2="420.21" y1="21.41" y2="24.43" /><line stroke="blue" x1="420.08" x2="419.2" y1="18.51" y2="21.41" /><line stroke="blue" x1="461.0" x2="420.89" y1="0.0" y2="18.25" /><line stroke="blue" x1="462.52" x2="461.0" y1="6.96" y2="0.0" /><line stroke="blue" x1="460.25" x2="462.52" y1="11.42" y2="6.96" /><line stroke="blue" x1="487.66" x2="460.7" y1="1.77" y2="10.53" /><line stroke="blue" x1="490.99" x2="487.66" y1="6.36" y2="1.77" /><line stroke="blue" x1="502.38" x2="490.0" y1="5.16" y2="6.2" /><line stroke="blue" x1="514.43" x2="502.38" y1="21.74" y2="5.16" /><line stroke="blue" x1="508.28" x2="514.43" y1="25.33" y2="21.74" /><line stroke="blue" x1="503.33" x2="508.28" y1="24.55" y2="25.33" /><line stroke="blue" x1="529.14" x2="504.32" y1="58.87" y2="24.7" /><line stroke="blue" x1="531.13" x2="528.57" y1="57.39" y2="59.29" /><line stroke="blue" x1="534.16" x2="531.13" y1="57.33" y2="57.39" /><line stroke="blue" x1="564.41" x2="534.66" y1="90.53" y2="58.02" /><line stroke="blue" x1="558.26" x2="564.41" y1="94.12" y2="90.53" /><line stroke="blue" x1="553.31" x2="558.26" y1="93.34" y2="94.12" /><line stroke="blue" x1="570.96" x2="554.3" y1="116.43" y2="93.5" /><line stroke="blue" x1="567.63" x2="570.96" y1="121.01" y2="116.43" /><line stroke="blue" x1="572.29" x2="567.47" y1="131.48" y2="120.02" /><line stroke="blue" x1="560.24" x2="572.29" y1="148.06" y2="131.48" /><line stroke="blue" x1="554.93" x2="560.24" y1="143.32" y2="148.06" /><line stroke="blue" x1="554.14" x2="554.93" y1="138.37" y2="143.32" /><line stroke="blue" x1="529.48" x2="554.3" y1="173.53" y2="139.36" /><line stroke="blue" x1="531.5" x2="528.9" y1="174.96" y2="173.11" /><line stroke="blue" x1="532.49" x2="531.5" y1="177.82" y2="174.96" /><line stroke="blue" x1="510.26" x2="531.99" y1="216.85" y2="178.51" /><line stroke="blue" x1="504.95" x2="510.26" y1="212.11" y2="216.85" /><line stroke="blue" x1="504.16" x2="504.95" y1="207.16" y2="212.11" /><line stroke="blue" x1="487.66" x2="504.32" y1="231.08" y2="208.15" /><line stroke="blue" x1="482.27" x2="487.66" y1="229.33" y2="231.08" /><line stroke="blue" x1="473.75" x2="483.16" y1="237.0" y2="228.88" /><line stroke="blue" x1="454.27" x2="473.75" y1="230.67" y2="237.0" /><line stroke="blue" x1="457.13" x2="454.27" y1="224.15" y2="230.67" /><line stroke="blue" x1="461.59" x2="457.13" y1="221.87" y2="224.15" /><line stroke="blue" x1="420.53" x2="460.7" y1="209.27" y2="222.33" /><line stroke="blue" x1="419.79" x2="420.75" y1="211.64" y2="208.6" /><line stroke="blue" x1="417.38" x2="419.79" y1="213.47" y2="211.64" /><line stroke="blue" x1="373.39" x2="416.58" y1="204.39" y2="213.2" /><line stroke="blue" x1="376.26" x2="373.39" y1="197.87" y2="204.39" /><line stroke="blue" x1="380.72" x2="376.26" y1="195.59" y2="197.87" /><line stroke="blue" x1="352.87" x2="379.83" y1="187.29" y2="196.05" /><line stroke="blue" x1="448.73" x2="448.73" y1="249.65" y2="243.98" /><line stroke="blue" x1="458.65" x2="448.02" y1="255.38" y2="248.94" /><line stroke="blue" x1="458.65" x2="458.65" y1="275.87" y2="255.38" /><line stroke="blue" x1="451.56" x2="458.65" y1="275.16" y2="275.87" /><line stroke="blue" x1="448.02" x2="451.56" y1="271.61" y2="275.16" /><line stroke="blue" x1="448.73" x2="448.73" y1="314.56" y2="272.32" /><line stroke="blue" x1="451.21" x2="448.02" y1="314.53" y2="314.56" /><line stroke="blue" x1="453.69" x2="451.21" y1="316.26" y2="314.53" /><line stroke="blue" x1="458.65" x2="453.69" y1="360.9" y2="317.11" /><line stroke="blue" x1="451.56" x2="458.65" y1="360.19" y2="360.9" /><line stroke="blue" x1="448.02" x2="451.56" y1="356.65" y2="360.19" /><line stroke="blue" x1="448.73" x2="448.73" y1="385.7" y2="357.36" /><line stroke="blue" x1="443.34" x2="448.73" y1="387.45" y2="385.7" /><line stroke="blue" x1="440.96" x2="443.79" y1="398.66" y2="386.56" /><line stroke="blue" x1="421.47" x2="440.96" y1="404.99" y2="398.66" /><line stroke="blue" x1="419.95" x2="421.47" y1="398.03" y2="404.99" /><line stroke="blue" x1="422.23" x2="419.95" y1="393.57" y2="398.03" /><line stroke="blue" x1="381.61" x2="421.77" y1="407.51" y2="394.46" /><line stroke="blue" x1="382.4" x2="381.39" y1="409.86" y2="406.84" /><line stroke="blue" x1="381.52" x2="382.4" y1="412.75" y2="409.86" /><line stroke="blue" x1="340.6" x2="380.71" y1="431.27" y2="413.02" /><line stroke="blue" x1="339.08" x2="340.6" y1="424.31" y2="431.27" /><line stroke="blue" x1="341.36" x2="339.08" y1="419.84" y2="424.31" /><line stroke="blue" x1="313.94" x2="340.9" y1="429.5" y2="420.74" /><line stroke="blue" x1="310.61" x2="313.94" y1="424.91" y2="429.5" /><line stroke="blue" x1="299.22" x2="311.6" y1="426.11" y2="425.07" /><line stroke="blue" x1="287.17" x2="299.22" y1="409.53" y2="426.11" /><line stroke="blue" x1="293.32" x2="287.17" y1="405.94" y2="409.53" /><line stroke="blue" x1="298.27" x2="293.32" y1="406.72" y2="405.94" /><line stroke="blue" x1="272.46" x2="297.28" y1="372.4" y2="406.57" /><line stroke="blue" x1="270.47" x2="273.03" y1="373.88" y2="371.98" /><line stroke="blue" x1="267.45" x2="270.47" y1="373.94" y2="373.88" /><line stroke="blue" x1="237.19" x2="266.95" y1="340.74" y2="373.25" /><line stroke="blue" x1="243.34" x2="237.19" y1="337.14" y2="340.74" /><line stroke="blue" x1="248.29" x2="243.34" y1="337.93" y2="337.14" /><line stroke="blue" x1="230.64" x2="247.3" y1="314.84" y2="337.77" /><line stroke="blue" x1="233.97" x2="230.64" y1="310.25" y2="314.84" /><line stroke="blue" x1="229.31" x2="234.13" y1="299.79" y2="311.24" /><line stroke="blue" x1="241.36" x2="229.31" y1="283.21" y2="299.79" /><line stroke="blue" x1="246.67" x2="241.36" y1="287.95" y2="283.21" /><line stroke="blue" x1="247.46" x2="246.67" y1="292.9" y2="287.95" /><line stroke="blue" x1="272.13" x2="247.3" y1="257.74" y2="291.91" /><line stroke="blue" x1="270.1" x2="272.7" y1="256.31" y2="258.16" /><line stroke="blue" x1="269.11" x2="270.1" y1="253.45" y2="256.31" /><line stroke="blue" x1="291.34" x2="269.61" y1="214.42" y2="252.76" /><line stroke="blue" x1="296.66" x2="291.34" y1="219.16" y2="214.42" /><line stroke="blue" x1="297.44" x2="296.66" y1="224.1" y2="219.16" /><line stroke="blue" x1="313.94" x2="297.28" y1="200.18" y2="223.11" /><line stroke="blue" x1="319.33" x2="313.94" y1="201.94" y2="200.18" /><line stroke="blue" x1="327.85" x2="318.44" y1="194.27" y2="202.39" /><line stroke="blue" x1="347.34" x2="327.85" y1="200.6" y2="194.27" /><line stroke="blue" x1="344.47" x2="347.34" y1="207.12" y2="200.6" /><line stroke="blue" x1="340.01" x2="344.47" y1="209.4" y2="207.12" /><line stroke="blue" x1="381.07" x2="340.9" y1="221.99" y2="208.94" /><line stroke="blue" x1="381.81" x2="380.85" y1="219.63" y2="222.67" /><line stroke="blue" x1="384.22" x2="381.81" y1="217.8" y2="219.63" /><line stroke="blue" x1="428.21" x2="385.03" y1="226.88" y2="218.06" /><line stroke="blue" x1="425.34" x2="428.21" y1="233.4" y2="226.88" /><line stroke="blue" x1="420.88" x2="425.34" y1="235.67" y2="233.4" /><line stroke="blue" x1="448.73" x2="421.77" y1="243.98" y2="235.22" /><line stroke="blue" x1="123.56" x2="123.56" y1="181.62" y2="187.29" /><line stroke="blue" x1="113.64" x2="124.27" y1="175.89" y2="182.33" /><line stroke="blue" x1="113.64" x2="113.64" y1="155.4" y2="175.89" /><line stroke="blue" x1="120.72" x2="113.64" y1="156.11" y2="155.4" /><line stroke="blue" x1="124.27" x2="120.72" y1="159.65" y2="156.11" /><line stroke="blue" x1="123.56" x2="123.56" y1="116.71" y2="158.94" /><line stroke="blue" x1="121.08" x2="124.27" y1="116.74" y2="116.71" /><line stroke="blue" x1="118.6" x2="121.08" y1="115.01" y2="116.74" /><line stroke="blue" x1="113.64" x2="118.6" y1="70.37" y2="114.16" /><line stroke="blue" x1="120.72" x2="113.64" y1="71.08" y2="70.37" /><line stroke="blue" x1="124.27" x2="120.72" y1="74.62" y2="71.08" /><line stroke="blue" x1="123.56" x2="123.56" y1="45.57" y2="73.91" /><line stroke="blue" x1="128.95" x2="123.56" y1="43.81" y2="45.57" /><line stroke="blue" x1="131.33" x2="128.49" y1="32.61" y2="44.71" /><line stroke="blue" x1="150.82" x2="131.33" y1="26.28" y2="32.61" /><line stroke="blue" x1="152.34" x2="150.82" y1="33.24" y2="26.28" /><line stroke="blue" x1="150.06" x2="152.34" y1="37.7" y2="33.24" /><line stroke="blue" x1="190.68" x2="150.52" y1="23.76" y2="36.81" /><line stroke="blue" x1="189.89" x2="190.9" y1="21.41" y2="24.43" /><line stroke="blue" x1="190.77" x2="189.89" y1="18.51" y2="21.41" /><line stroke="blue" x1="231.69" x2="191.58" y1="0.0" y2="18.25" /><line stroke="blue" x1="233.21" x2="231.69" y1="6.96" y2="0.0" /><line stroke="blue" x1="230.93" x2="233.21" y1="11.42" y2="6.96" /><line stroke="blue" x1="258.34" x2="231.39" y1="1.77" y2="10.53" /><line stroke="blue" x1="261.68" x2="258.34" y1="6.36" y2="1.77" /><line stroke="blue" x1="273.07" x2="260.69" y1="5.16" y2="6.2" /><line stroke="blue" x1="285.11" x2="273.07" y1="21.74" y2="5.16" /><line stroke="blue" x1="278.96" x2="285.11" y1="25.33" y2="21.74" /><line stroke="blue" x1="274.02" x2="278.96" y1="24.55" y2="25.33" /><line stroke="blue" x1="299.83" x2="275.01" y1="58.87" y2="24.7" /><line stroke="blue" x1="301.82" x2="299.26" y1="57.39" y2="59.29" /><line stroke="blue" x1="304.84" x2="301.82" y1="57.33" y2="57.39" /><line stroke="blue" x1="335.1" x2="305.34" y1="90.53" y2="58.02" /><line stroke="blue" x1="328.95" x2="335.1" y1="94.12" y2="90.53" /><line stroke="blue" x1="324.0" x2="328.95" y1="93.34" y2="94.12" /><line stroke="blue" x1="341.65" x2="324.99" y1="116.43" y2="93.5" /><line stroke="blue" x1="338.32" x2="341.65" y1="121.01" y2="116.43" /><line stroke="blue" x1="342.97" x2="338.16" y1="131.48" y2="120.02" /><line stroke="blue" x1="330.93" x2="342.97" y1="148.06" y2="131.48" /><line stroke="blue" x1="325.61" x2="330.93" y1="143.32" y2="148.06" /><line stroke="blue" x1="324.83" x2="325.61" y1="138.37" y2="143.32" /><line stroke="blue" x1="300.16" x2="324.99" y1="173.53" y2="139.36" /><line stroke="blue" x1="302.19" x2="299.59" y1="174.96" y2="173.11" /><line stroke="blue" x1="303.18" x2="302.19" y1="177.82" y2="174.96" /><line stroke="blue" x1="280.95" x2="302.68" y1="216.85" y2="178.51" /><line stroke="blue" x1="275.63" x2="280.95" y1="212.11" y2="216.85" /><line stroke="blue" x1="274.85" x2="275.63" y1="207.16" y2="212.11" /><line stroke="blue" x1="258.34" x2="275.01" y1="231.08" y2="208.15" /><line stroke="blue" x1="252.95" x2="258.34" y1="229.33" y2="231.08" /><line stroke="blue" x1="244.44" x2="253.85" y1="237.0" y2="228.88" /><line stroke="blue" x1="224.95" x2="244.44" y1="230.67" y2="237.0" /><line stroke="blue" x1="227.82" x2="224.95" y1="224.15" y2="230.67" /><line stroke="blue" x1="232.28" x2="227.82" y1="221.87" y2="224.15" /><line stroke="blue" x1="191.22" x2="231.39" y1="209.27" y2="222.33" /><line stroke="blue" x1="190.48" x2="191.44" y1="211.64" y2="208.6" /><line stroke="blue" x1="188.07" x2="190.48" y1="213.47" y2="211.64" /><line stroke="blue" x1="144.08" x2="187.26" y1="204.39" y2="213.2" /><line stroke="blue" x1="146.94" x2="144.08" y1="197.87" y2="204.39" /><line stroke="blue" x1="151.41" x2="146.94" y1="195.59" y2="197.87" /><line stroke="blue" x1="123.56" x2="150.52" y1="187.29" y2="196.05" /><line stroke="blue" x1="219.42" x2="219.42" y1="249.65" y2="243.98" /><line stroke="blue" x1="229.34" x2="218.71" y1="255.38" y2="248.94" /><line stroke="blue" x1="229.34" x2="229.34" y1="275.87" y2="255.38" /><line stroke="blue" x1="222.25" x2="229.34" y1="275.16" y2="275.87" /><line stroke="blue" x1="218.71" x2="222.25" y1="271.61" y2="275.16" /><line stroke="blue" x1="219.42" x2="219.42" y1="314.56" y2="272.32" /><line stroke="blue" x1="221.9" x2="218.71" y1="314.53" y2="314.56" /><line stroke="blue" x1="224.38" x2="221.9" y1="316.26" y2="314.53" /><line stroke="blue" x1="229.34" x2="224.38" y1="360.9" y2="317.11" /><line stroke="blue" x1="222.25" x2="229.34" y1="360.19" y2="360.9" /><line stroke="blue" x1="218.71" x2="222.25" y1="356.65" y2="360.19" /><line stroke="blue" x1="219.42" x2="219.42" y1="385.7" y2="357.36" /><line stroke="blue" x1="214.03" x2="219.42" y1="387.45" y2="385.7" /><line stroke="blue" x1="211.64" x2="214.48" y1="398.66" y2="386.56" /><line stroke="blue" x1="192.16" x2="211.64" y1="404.99" y2="398.66" /><line stroke="blue" x1="190.64" x2="192.16" y1="398.03" y2="404.99" /><line stroke="blue" x1="192.91" x2="190.64" y1="393.57" y2="398.03" /><line stroke="blue" x1="152.29" x2="192.46" y1="407.51" y2="394.46" /><line stroke="blue" x1="153.09" x2="152.07" y1="409.86" y2="406.84" /><line stroke="blue" x1="152.21" x2="153.09" y1="412.75" y2="409.86" /><line stroke="blue" x1="111.28" x2="151.4" y1="431.27" y2="413.02" /><line stroke="blue" x1="109.77" x2="111.28" y1="424.31" y2="431.27" /><line stroke="blue" x1="112.04" x2="109.77" y1="419.84" y2="424.31" /><line stroke="blue" x1="84.63" x2="111.59" y1="429.5" y2="420.74" /><line stroke="blue" x1="81.3" x2="84.63" y1="424.91" y2="429.5" /><line stroke="blue" x1="69.91" x2="82.29" y1="426.11" y2="425.07" /><line stroke="blue" x1="57.86" x2="69.91" y1="409.53" y2="426.11" /><line stroke="blue" x1="64.01" x2="57.86" y1="405.94" y2="409.53" /><line stroke="blue" x1="68.96" x2="64.01" y1="406.72" y2="405.94" /><line stroke="blue" x1="43.15" x2="67.97" y1="372.4" y2="406.57" /><line stroke="blue" x1="41.16" x2="43.72" y1="373.88" y2="371.98" /><line stroke="blue" x1="38.13" x2="41.16" y1="373.94" y2="373.88" /><line stroke="blue" x1="7.88" x2="37.63" y1="340.74" y2="373.25" /><line stroke="blue" x1="14.03" x2="7.88" y1="337.14" y2="340.74" /><line stroke="blue" x1="18.98" x2="14.03" y1="337.93" y2="337.14" /><line stroke="blue" x1="1.33" x2="17.99" y1="314.84" y2="337.77" /><line stroke="blue" x1="4.66" x2="1.33" y1="310.25" y2="314.84" /><line stroke="blue" x1="0.0" x2="4.82" y1="299.79" y2="311.24" /><line stroke="blue" x1="12.04" x2="0.0" y1="283.21" y2="299.79" /><line stroke="blue" x1="17.36" x2="12.04" y1="287.95" y2="283.21" /><line stroke="blue" x1="18.14" x2="17.36" y1="292.9" y2="287.95" /><line stroke="blue" x1="42.81" x2="17.99" y1="257.74" y2="291.91" /><line stroke="blue" x1="40.79" x2="43.39" y1="256.31" y2="258.16" /><line stroke="blue" x1="39.8" x2="40.79" y1="253.45" y2="256.31" /><line stroke="blue" x1="62.03" x2="40.3" y1="214.42" y2="252.76" /><line stroke="blue" x1="67.34" x2="62.03" y1="219.16" y2="214.42" /><line stroke="blue" x1="68.13" x2="67.34" y1="224.1" y2="219.16" /><line stroke="blue" x1="84.63" x2="67.97" y1="200.18" y2="223.11" /><line stroke="blue" x1="90.02" x2="84.63" y1="201.94" y2="200.18" /><line stroke="blue" x1="98.53" x2="89.13" y1="194.27" y2="202.39" /><line stroke="blue" x1="118.02" x2="98.53" y1="200.6" y2="194.27" /><line stroke="blue" x1="115.16" x2="118.02" y1="207.12" y2="200.6" /><line stroke="blue" x1="110.69" x2="115.16" y1="209.4" y2="207.12" /><line stroke="blue" x1="151.75" x2="111.59" y1="221.99" y2="208.94" /><line stroke="blue" x1="152.49" x2="151.54" y1="219.63" y2="222.67" /><line stroke="blue" x1="154.9" x2="152.49" y1="217.8" y2="219.63" /><line stroke="blue" x1="198.89" x2="155.71" y1="226.88" y2="218.06" /><line stroke="blue" x1="196.03" x2="198.89" y1="233.4" y2="226.88" /><line stroke="blue" x1="191.57" x2="196.03" y1="235.67" y2="233.4" /><line stroke="blue" x1="219.42" x2="192.46" y1="243.98" y2="235.22" /><line stroke="blue" x1="352.87" x2="352.87" y1="584.54" y2="590.21" /><line stroke="blue" x1="342.95" x2="353.58" y1="578.82" y2="585.25" /><line stroke="blue" x1="342.95" x2="342.95" y1="558.32" y2="578.82" /><line stroke="blue" x1="350.04" x2="342.95" y1="559.03" y2="558.32" /><line stroke="blue" x1="353.58" x2="350.04" y1="562.58" y2="559.03" /><line stroke="blue" x1="352.87" x2="352.87" y1="519.63" y2="561.87" /><line stroke="blue" x1="350.39" x2="353.58" y1="519.66" y2="519.63" /><line stroke="blue" x1="347.91" x2="350.39" y1="517.93" y2="519.66" /><line stroke="blue" x1="342.95" x2="347.91" y1="473.29" y2="517.08" /><line stroke="blue" x1="350.04" x2="342.95" y1="474.0" y2="473.29" /><line stroke="blue" x1="353.58" x2="350.04" y1="477.54" y2="474.0" /><line stroke="blue" x1="352.87" x2="352.87" y1="448.49" y2="476.83" /><line stroke="blue" x1="358.26" x2="352.87" y1="446.74" y2="448.49" /><line stroke="blue" x1="360.64" x2="357.81" y1="435.53" y2="447.63" /><line stroke="blue" x1="380.13" x2="360.64" y1="429.2" y2="435.53" /><line stroke="blue" x1="381.65" x2="380.13" y1="436.16" y2="429.2" /><line stroke="blue" x1="379.37" x2="381.65" y1="440.62" y2="436.16" /><line stroke="blue" x1="419.99" x2="379.83" y1="426.68" y2="439.73" /><line stroke="blue" x1="419.2" x2="420.21" y1="424.33" y2="427.35" /><line stroke="blue" x1="420.08" x2="419.2" y1="421.44" y2="424.33" /><line stroke="blue" x1="461.0" x2="420.89" y1="402.92" y2="421.17" /><line stroke="blue" x1="462.52" x2="461.0" y1="409.88" y2="402.92" /><line stroke="blue" x1="460.25" x2="462.52" y1="414.35" y2="409.88" /><line stroke="blue" x1="487.66" x2="460.7" y1="404.69" y2="413.45" /><line stroke="blue" x1="490.99" x2="487.66" y1="409.28" y2="404.69" /><line stroke="blue" x1="502.38" x2="490.0" y1="408.08" y2="409.12" /><line stroke="blue" x1="514.43" x2="502.38" y1="424.66" y2="408.08" /><line stroke="blue" x1="508.28" x2="514.43" y1="428.25" y2="424.66" /><line stroke="blue" x1="503.33" x2="508.28" y1="427.47" y2="428.25" /><line stroke="blue" x1="529.14" x2="504.32" y1="461.79" y2="427.63" /><line stroke="blue" x1="531.13" x2="528.57" y1="460.31" y2="462.21" /><line stroke="blue" x1="534.16" x2="531.13" y1="460.25" y2="460.31" /><line stroke="blue" x1="564.41" x2="534.66" y1="493.45" y2="460.94" /><line stroke="blue" x1="558.26" x2="564.41" y1="497.05" y2="493.45" /><line stroke="blue" x1="553.31" x2="558.26" y1="496.26" y2="497.05" /><line stroke="blue" x1="570.96" x2="554.3" y1="519.35" y2="496.42" /><line stroke="blue" x1="567.63" x2="570.96" y1="523.94" y2="519.35" /><line stroke="blue" x1="572.29" x2="567.47" y1="534.4" y2="522.95" /><line stroke="blue" x1="560.24" x2="572.29" y1="550.98" y2="534.4" /><line stroke="blue" x1="554.93" x2="560.24" y1="546.24" y2="550.98" /><line stroke="blue" x1="554.14" x2="554.93" y1="541.29" y2="546.24" /><line stroke="blue" x1="529.48" x2="554.3" y1="576.45" y2="542.28" /><line stroke="blue" x1="531.5" x2="528.9" y1="577.88" y2="576.03" /><line stroke="blue" x1="532.49" x2="531.5" y1="580.74" y2="577.88" /><line stroke="blue" x1="510.26" x2="531.99" y1="619.77" y2="581.43" /><line stroke="blue" x1="504.95" x2="510.26" y1="615.04" y2="619.77" /><line stroke="blue" x1="504.16" x2="504.95" y1="610.09" y2="615.04" /><line stroke="blue" x1="487.66" x2="504.32" y1="634.01" y2="611.08" /><line stroke="blue" x1="482.27" x2="487.66" y1="632.26" y2="634.01" /><line stroke="blue" x1="473.75" x2="483.16" y1="639.92" y2="631.8" /><line stroke="blue" x1="454.27" x2="473.75" y1="633.59" y2="639.92" /><line stroke="blue" x1="457.13" x2="454.27" y1="627.07" y2="633.59" /><line stroke="blue" x1="461.59" x2="457.13" y1="624.79" y2="627.07" /><line stroke="blue" x1="420.53" x2="460.7" y1="612.2" y2="625.25" /><line stroke="blue" x1="419.79" x2="420.75" y1="614.57" y2="611.52" /><line stroke="blue" x1="417.38" x2="419.79" y1="616.39" y2="614.57" /><line stroke="blue" x1="373.39" x2="416.58" y1="607.31" y2="616.13" /><line stroke="blue" x1="376.26" x2="373.39" y1="600.79" y2="607.31" /><line stroke="blue" x1="380.72" x2="376.26" y1="598.52" y2="600.79" /><line stroke="blue" x1="352.87" x2="379.83" y1="590.21" y2="598.97" /><line stroke="blue" x1="448.73" x2="448.73" y1="652.57" y2="646.9" /><line stroke="blue" x1="458.65" x2="448.02" y1="658.3" y2="651.86" /><line stroke="blue" x1="458.65" x2="458.65" y1="678.79" y2="658.3" /><line stroke="blue" x1="451.56" x2="458.65" y1="678.08" y2="678.79" /><line stroke="blue" x1="448.02" x2="451.56" y1="674.54" y2="678.08" /><line stroke="blue" x1="448.73" x2="448.73" y1="717.48" y2="675.25" /><line stroke="blue" x1="451.21" x2="448.02" y1="717.45" y2="717.48" /><line stroke="blue" x1="453.69" x2="451.21" y1="719.18" y2="717.45" /><line stroke="blue" x1="458.65" x2="453.69" y1="763.82" y2="720.03" /><line stroke="blue" x1="451.56" x2="458.65" y1="763.11" y2="763.82" /><line stroke="blue" x1="448.02" x2="451.56" y1="759.57" y2="763.11" /><line stroke="blue" x1="448.73" x2="448.73" y1="788.63" y2="760.28" /><line stroke="blue" x1="443.34" x2="448.73" y1="790.38" y2="788.63" /><line stroke="blue" x1="440.96" x2="443.79" y1="801.58" y2="789.48" /><line stroke="blue" x1="421.47" x2="440.96" y1="807.91" y2="801.58" /><line stroke="blue" x1="419.95" x2="421.47" y1="800.96" y2="807.91" /><line stroke="blue" x1="422.23" x2="419.95" y1="796.49" y2="800.96" /><line stroke="blue" x1="381.61" x2="421.77" y1="810.44" y2="797.38" /><line stroke="blue" x1="382.4" x2="381.39" y1="812.79" y2="809.76" /><line stroke="blue" x1="381.52" x2="382.4" y1="815.68" y2="812.79" /><line stroke="blue" x1="340.6" x2="380.71" y1="834.19" y2="815.94" /><line stroke="blue" x1="339.08" x2="340.6" y1="827.23" y2="834.19" /><line stroke="blue" x1="341.36" x2="339.08" y1="822.77" y2="827.23" /><line stroke="blue" x1="313.94" x2="340.9" y1="832.42" y2="823.66" /><line stroke="blue" x1="310.61" x2="313.94" y1="827.83" y2="832.42" /><line stroke="blue" x1="299.22" x2="311.6" y1="829.03" y2="827.99" /><line stroke="blue" x1="287.17" x2="299.22" y1="812.45" y2="829.03" /><line stroke="blue" x1="293.32" x2="287.17" y1="808.86" y2="812.45" /><line stroke="blue" x1="298.27" x2="293.32" y1="809.65" y2="808.86" /><line stroke="blue" x1="272.46" x2="297.28" y1="775.32" y2="809.49" /><line stroke="blue" x1="270.47" x2="273.03" y1="776.8" y2="774.9" /><line stroke="blue" x1="267.45" x2="270.47" y1="776.86" y2="776.8" /><line stroke="blue" x1="237.19" x2="266.95" y1="743.66" y2="776.17" /><line stroke="blue" x1="243.34" x2="237.19" y1="740.07" y2="743.66" /><line stroke="blue" x1="248.29" x2="243.34" y1="740.85" y2="740.07" /><line stroke="blue" x1="230.64" x2="247.3" y1="717.76" y2="740.69" /><line stroke="blue" x1="233.97" x2="230.64" y1="713.18" y2="717.76" /><line stroke="blue" x1="229.31" x2="234.13" y1="702.71" y2="714.17" /><line stroke="blue" x1="241.36" x2="229.31" y1="686.13" y2="702.71" /><line stroke="blue" x1="246.67" x2="241.36" y1="690.87" y2="686.13" /><line stroke="blue" x1="247.46" x2="246.67" y1="695.82" y2="690.87" /><line stroke="blue" x1="272.13" x2="247.3" y1="660.66" y2="694.83" /><line stroke="blue" x1="270.1" x2="272.7" y1="659.23" y2="661.08" /><line stroke="blue" x1="269.11" x2="270.1" y1="656.37" y2="659.23" /><line stroke="blue" x1="291.34" x2="269.61" y1="617.34" y2="655.69" /><line stroke="blue" x1="296.66" x2="291.34" y1="622.08" y2="617.34" /><line stroke="blue" x1="297.44" x2="296.66" y1="627.03" y2="622.08" /><line stroke="blue" x1="313.94" x2="297.28" y1="603.11" y2="626.04" /><line stroke="blue" x1="319.33" x2="313.94" y1="604.86" y2="603.11" /><line stroke="blue" x1="327.85" x2="318.44" y1="597.19" y2="605.31" /><line stroke="blue" x1="347.34" x2="327.85" y1="603.53" y2="597.19" /><line stroke="blue" x1="344.47" x2="347.34" y1="610.05" y2="603.53" /><line stroke="blue" x1="340.01" x2="344.47" y1="612.32" y2="610.05" /><line stroke="blue" x1="381.07" x2="340.9" y1="624.92" y2="611.87" /><line stroke="blue" x1="381.81" x2="380.85" y1="622.55" y2="625.59" /><line stroke="blue" x1="384.22" x2="381.81" y1="620.72" y2="622.55" /><line stroke="blue" x1="428.21" x2="385.03" y1="629.8" y2="620.99" /><line stroke="blue" x1="425.34" x2="428.21" y1="636.32" y2="629.8" /><line stroke="blue" x1="420.88" x2="425.34" y1="638.6" y2="636.32" /><line stroke="blue" x1="448.73" x2="421.77" y1="646.9" y2="638.14" /><line stroke="blue" x1="123.56" x2="123.56" y1="584.54" y2="590.21" /><line stroke="blue" x1="113.64" x2="124.27" y1="578.82" y2="585.25" /><line stroke="blue" x1="113.64" x2="113.64" y1="558.32" y2="578.82" /><line stroke="blue" x1="120.72" x2="113.64" y1="559.03" y2="558.32" /><line stroke="blue" x1="124.27" x2="120.72" y1="562.58" y2="559.03" /><line stroke="blue" x1="123.56" x2="123.56" y1="519.63" y2="561.87" /><line stroke="blue" x1="121.08" x2="124.27" y1="519.66" y2="519.63" /><line stroke="blue" x1="118.6" x2="121.08" y1="517.93" y2="519.66" /><line stroke="blue" x1="113.64" x2="118.6" y1="473.29" y2="517.08" /><line stroke="blue" x1="120.72" x2="113.64" y1="474.0" y2="473.29" /><line stroke="blue" x1="124.27" x2="120.72" y1="477.54" y2="474.0" /><line stroke="blue" x1="123.56" x2="123.56" y1="448.49" y2="476.83" /><line stroke="blue" x1="128.95" x2="123.56" y1="446.74" y2="448.49" /><line stroke="blue" x1="131.33" x2="128.49" y1="435.53" y2="447.63" /><line stroke="blue" x1="150.82" x2="131.33" y1="429.2" y2="435.53" /><line stroke="blue" x1="152.34" x2="150.82" y1="436.16" y2="429.2" /><line stroke="blue" x1="150.06" x2="152.34" y1="440.62" y2="436.16" /><line stroke="blue" x1="190.68" x2="150.52" y1="426.68" y2="439.73" /><line stroke="blue" x1="189.89" x2="190.9" y1="424.33" y2="427.35" /><line stroke="blue" x1="190.77" x2="189.89" y1="421.44" y2="424.33" /><line stroke="blue" x1="231.69" x2="191.58" y1="402.92" y2="421.17" /><line stroke="blue" x1="233.21" x2="231.69" y1="409.88" y2="402.92" /><line stroke="blue" x1="230.93" x2="233.21" y1="414.35" y2="409.88" /><line stroke="blue" x1="258.34" x2="231.39" y1="404.69" y2="413.45" /><line stroke="blue" x1="261.68" x2="258.34" y1="409.28" y2="404.69" /><line stroke="blue" x1="273.07" x2="260.69" y1="408.08" y2="409.12" /><line stroke="blue" x1="285.11" x2="273.07" y1="424.66" y2="408.08" /><line stroke="blue" x1="278.96" x2="285.11" y1="428.25" y2="424.66" /><line stroke="blue" x1="274.02" x2="278.96" y1="427.47" y2="428.25" /><line stroke="blue" x1="299.83" x2="275.01" y1="461.79" y2="427.63" /><line stroke="blue" x1="301.82" x2="299.26" y1="460.31" y2="462.21" /><line stroke="blue" x1="304.84" x2="301.82" y1="460.25" y2="460.31" /><line stroke="blue" x1="335.1" x2="305.34" y1="493.45" y2="460.94" /><line stroke="blue" x1="328.95" x2="335.1" y1="497.05" y2="493.45" /><line stroke="blue" x1="324.0" x2="328.95" y1="496.26" y2="497.05" /><line stroke="blue" x1="341.65" x2="324.99" y1="519.35" y2="496.42" /><line stroke="blue" x1="338.32" x2="341.65" y1="523.94" y2="519.35" /><line stroke="blue" x1="342.97" x2="338.16" y1="534.4" y2="522.95" /><line stroke="blue" x1="330.93" x2="342.97" y1="550.98" y2="534.4" /><line stroke="blue" x1="325.61" x2="330.93" y1="546.24" y2="550.98" /><line stroke="blue" x1="324.83" x2="325.61" y1="541.29" y2="546.24" /><line stroke="blue" x1="300.16" x2="324.99" y1="576.45" y2="542.28" /><line stroke="blue" x1="302.19" x2="299.59" y1="577.88" y2="576.03" /><line stroke="blue" x1="303.18" x2="302.19" y1="580.74" y2="577.88" /><line stroke="blue" x1="280.95" x2="302.68" y1="619.77" y2="581.43" /><line stroke="blue" x1="275.63" x2="280.95" y1="615.04" y2="619.77" /><line stroke="blue" x1="274.85" x2="275.63" y1="610.09" y2="615.04" /><line stroke="blue" x1="258.34" x2="275.01" y1="634.01" y2="611.08" /><line stroke="blue" x1="252.95" x2="258.34" y1="632.26" y2="634.01" /><line stroke="blue" x1="244.44" x2="253.85" y1="639.92" y2="631.8" /><line stroke="blue" x1="224.95" x2="244.44" y1="633.59" y2="639.92" /><line stroke="blue" x1="227.82" x2="224.95" y1="627.07" y2="633.59" /><line stroke="blue" x1="232.28" x2="227.82" y1="624.79" y2="627.07" /><line stroke="blue" x1="191.22" x2="231.39" y1="612.2" y2="625.25" /><line stroke="blue" x1="190.48" x2="191.44" y1="614.57" y2="611.52" /><line stroke="blue" x1="188.07" x2="190.48" y1="616.39" y2="614.57" /><line stroke="blue" x1="144.08" x2="187.26" y1="607.31" y2="616.13" /><line stroke="blue" x1="146.94" x2="144.08" y1="600.79" y2="607.31" /><line stroke="blue" x1="151.41" x2="146.94" y1="598.52" y2="600.79" /><line stroke="blue" x1="123.56" x2="150.52" y1="590.21" y2="598.97" /><line stroke="blue" x1="219.42" x2="219.42" y1="652.57" y2="646.9" /><line stroke="blue" x1="229.34" x2="218.71" y1="658.3" y2="651.86" /><line stroke="blue" x1="229.34" x2="229.34" y1="678.79" y2="658.3" /><line stroke="blue" x1="222.25" x2="229.34" y1="678.08" y2="678.79" /><line stroke="blue" x1="218.71" x2="222.25" y1="674.54" y2="678.08" /><line stroke="blue" x1="219.42" x2="219.42" y1="717.48" y2="675.25" /><line stroke="blue" x1="221.9" x2="218.71" y1="717.45" y2="717.48" /><line stroke="blue" x1="224.38" x2="221.9" y1="719.18" y2="717.45" /><line stroke="blue" x1="229.34" x2="224.38" y1="763.82" y2="720.03" /><line stroke="blue" x1="222.25" x2="229.34" y1="763.11" y2="763.82" /><line stroke="blue" x1="218.71" x2="222.25" y1="759.57" y2="763.11" /><line stroke="blue" x1="219.42" x2="219.42" y1="788.63" y2="760.28" /><line stroke="blue" x1="214.03" x2="219.42" y1="790.38" y2="788.63" /><line stroke="blue" x1="211.64" x2="214.48" y1="801.58" y2="789.48" /><line stroke="blue" x1="192.16" x2="211.64" y1="807.91" y2="801.58" /><line stroke="blue" x1="190.64" x2="192.16" y1="800.96" y2="807.91" /><line stroke="blue" x1="192.91" x2="190.64" y1="796.49" y2="800.96" /><line stroke="blue" x1="152.29" x2="192.46" y1="810.44" y2="797.38" /><line stroke="blue" x1="153.09" x2="152.07" y1="812.79" y2="809.76" /><line stroke="blue" x1="152.21" x2="153.09" y1="815.68" y2="812.79" /><line stroke="blue" x1="111.28" x2="151.4" y1="834.19" y2="815.94" /><line stroke="blue" x1="109.77" x2="111.28" y1="827.23" y2="834.19" /><line stroke="blue" x1="112.04" x2="109.77" y1="822.77" y2="827.23" /><line stroke="blue" x1="84.63" x2="111.59" y1="832.42" y2="823.66" /><line stroke="blue" x1="81.3" x2="84.63" y1="827.83" y2="832.42" /><line stroke="blue" x1="69.91" x2="82.29" y1="829.03" y2="827.99" /><line stroke="blue" x1="57.86" x2="69.91" y1="812.45" y2="829.03" /><line stroke="blue" x1="64.01" x2="57.86" y1="808.86" y2="812.45" /><line stroke="blue" x1="68.96" x2="64.01" y1="809.65" y2="808.86" /><line stroke="blue" x1="43.15" x2="67.97" y1="775.32" y2="809.49" /><line stroke="blue" x1="41.16" x2="43.72" y1="776.8" y2="774.9" /><line stroke="blue" x1="38.13" x2="41.16" y1="776.86" y2="776.8" /><line stroke="blue" x1="7.88" x2="37.63" y1="743.66" y2="776.17" /><line stroke="blue" x1="14.03" x2="7.88" y1="740.07" y2="743.66" /><line stroke="blue" x1="18.98" x2="14.03" y1="740.85" y2="740.07" /><line stroke="blue" x1="1.33" x2="17.99" y1="717.76" y2="740.69" /><line stroke="blue" x1="4.66" x2="1.33" y1="713.18" y2="717.76" /><line stroke="blue" x1="0.0" x2="4.82" y1="702.71" y2="714.17" /><line stroke="blue" x1="12.04" x2="0.0" y1="686.13" y2="702.71" /><line stroke="blue" x1="17.36" x2="12.04" y1="690.87" y2="686.13" /><line stroke="blue" x1="18.14" x2="17.36" y1="695.82" y2="690.87" /><line stroke="blue" x1="42.81" x2="17.99" y1="660.66" y2="694.83" /><line stroke="blue" x1="40.79" x2="43.39" y1="659.23" y2="661.08" /><line stroke="blue" x1="39.8" x2="40.79" y1="656.37" y2="659.23" /><line stroke="blue" x1="62.03" x2="40.3" y1="617.34" y2="655.69" /><line stroke="blue" x1="67.34" x2="62.03" y1="622.08" y2="617.34" /><line stroke="blue" x1="68.13" x2="67.34" y1="627.03" y2="622.08" /><line stroke="blue" x1="84.63" x2="67.97" y1="603.11" y2="626.04" /><line stroke="blue" x1="90.02" x2="84.63" y1="604.86" y2="603.11" /><line stroke="blue" x1="98.53" x2="89.13" y1="597.19" y2="605.31" /><line stroke="blue" x1="118.02" x2="98.53" y1="603.53" y2="597.19" /><line stroke="blue" x1="115.16" x2="118.02" y1="610.05" y2="603.53" /><line stroke="blue" x1="110.69" x2="115.16" y1="612.32" y2="610.05" /><line stroke="blue" x1="151.75" x2="111.59" y1="624.92" y2="611.87" /><line stroke="blue" x1="152.49" x2="151.54" y1="622.55" y2="625.59" /><line stroke="blue" x1="154.9" x2="152.49" y1="620.72" y2="622.55" /><line stroke="blue" x1="198.89" x2="155.71" y1="629.8" y2="620.99" /><line stroke="blue" x1="196.03" x2="198.89" y1="636.32" y2="629.8" /><line stroke="blue" x1="191.57" x2="196.03" y1="638.6" y2="636.32" /><line stroke="blue" x1="219.42" x2="192.46" y1="646.9" y2="638.14" /></g><g id="scorelines"><line stroke="red" x1="353.58" x2="353.58" y1="161.5" y2="181.62" /><line stroke="red" x1="353.58" x2="353.58" y1="76.46" y2="113.59" /><line stroke="red" x1="377.62" x2="358.48" y1="38.27" y2="44.49" /><line stroke="red" x1="458.49" x2="423.18" y1="11.99" y2="23.47" /><line stroke="red" x1="502.25" x2="490.42" y1="23.05" y2="6.77" /><line stroke="red" x1="552.23" x2="530.4" y1="91.85" y2="61.81" /><line stroke="red" x1="555.23" x2="567.06" y1="136.88" y2="120.6" /><line stroke="red" x1="505.24" x2="527.07" y1="205.67" y2="175.63" /><line stroke="red" x1="463.35" x2="482.49" y1="222.44" y2="228.66" /><line stroke="red" x1="382.47" x2="417.79" y1="196.16" y2="207.64" /><line stroke="red" x1="448.02" x2="448.02" y1="269.77" y2="249.65" /><line stroke="red" x1="448.02" x2="448.02" y1="354.81" y2="317.67" /><line stroke="red" x1="423.98" x2="443.12" y1="393.0" y2="386.78" /><line stroke="red" x1="343.11" x2="378.42" y1="419.28" y2="407.8" /><line stroke="red" x1="299.36" x2="311.18" y1="408.21" y2="424.49" /><line stroke="red" x1="249.37" x2="271.2" y1="339.42" y2="369.46" /><line stroke="red" x1="246.37" x2="234.55" y1="294.39" y2="310.67" /><line stroke="red" x1="296.36" x2="274.53" y1="225.6" y2="255.64" /><line stroke="red" x1="338.26" x2="319.12" y1="208.83" y2="202.61" /><line stroke="red" x1="419.13" x2="383.81" y1="235.11" y2="223.63" /><line stroke="red" x1="124.27" x2="124.27" y1="161.5" y2="181.62" /><line stroke="red" x1="124.27" x2="124.27" y1="76.46" y2="113.59" /><line stroke="red" x1="148.31" x2="129.17" y1="38.27" y2="44.49" /><line stroke="red" x1="229.18" x2="193.87" y1="11.99" y2="23.47" /><line stroke="red" x1="272.93" x2="261.1" y1="23.05" y2="6.77" /><line stroke="red" x1="322.91" x2="301.09" y1="91.85" y2="61.81" /><line stroke="red" x1="325.91" x2="337.74" y1="136.88" y2="120.6" /><line stroke="red" x1="275.93" x2="297.76" y1="205.67" y2="175.63" /><line stroke="red" x1="234.03" x2="253.17" y1="222.44" y2="228.66" /><line stroke="red" x1="153.16" x2="188.47" y1="196.16" y2="207.64" /><line stroke="red" x1="218.71" x2="218.71" y1="269.77" y2="249.65" /><line stroke="red" x1="218.71" x2="218.71" y1="354.81" y2="317.67" /><line stroke="red" x1="194.67" x2="213.81" y1="393.0" y2="386.78" /><line stroke="red" x1="113.79" x2="149.11" y1="419.28" y2="407.8" /><line stroke="red" x1="70.04" x2="81.87" y1="408.21" y2="424.49" /><line stroke="red" x1="20.06" x2="41.89" y1="339.42" y2="369.46" /><line stroke="red" x1="17.06" x2="5.23" y1="294.39" y2="310.67" /><line stroke="red" x1="67.04" x2="45.22" y1="225.6" y2="255.64" /><line stroke="red" x1="108.94" x2="89.8" y1="208.83" y2="202.61" /><line stroke="red" x1="189.81" x2="154.5" y1="235.11" y2="223.63" /><line stroke="red" x1="353.58" x2="353.58" y1="564.42" y2="584.54" /><line stroke="red" x1="353.58" x2="353.58" y1="479.38" y2="516.52" /><line stroke="red" x1="377.62" x2="358.48" y1="441.19" y2="447.41" /><line stroke="red" x1="458.49" x2="423.18" y1="414.92" y2="426.39" /><line stroke="red" x1="502.25" x2="490.42" y1="425.98" y2="409.7" /><line stroke="red" x1="552.23" x2="530.4" y1="494.77" y2="464.73" /><line stroke="red" x1="555.23" x2="567.06" y1="539.8" y2="523.52" /><line stroke="red" x1="505.24" x2="527.07" y1="608.6" y2="578.56" /><line stroke="red" x1="463.35" x2="482.49" y1="625.36" y2="631.58" /><line stroke="red" x1="382.47" x2="417.79" y1="599.09" y2="610.56" /><line stroke="red" x1="448.02" x2="448.02" y1="672.7" y2="652.57" /><line stroke="red" x1="448.02" x2="448.02" y1="757.73" y2="720.6" /><line stroke="red" x1="423.98" x2="443.12" y1="795.92" y2="789.7" /><line stroke="red" x1="343.11" x2="378.42" y1="822.2" y2="810.72" /><line stroke="red" x1="299.36" x2="311.18" y1="811.14" y2="827.42" /><line stroke="red" x1="249.37" x2="271.2" y1="742.34" y2="772.38" /><line stroke="red" x1="246.37" x2="234.55" y1="697.31" y2="713.59" /><line stroke="red" x1="296.36" x2="274.53" y1="628.52" y2="658.56" /><line stroke="red" x1="338.26" x2="319.12" y1="611.75" y2="605.53" /><line stroke="red" x1="419.13" x2="383.81" y1="638.03" y2="626.55" /><line stroke="red" x1="124.27" x2="124.27" y1="564.42" y2="584.54" /><line stroke="red" x1="124.27" x2="124.27" y1="479.38" y2="516.52" /><line stroke="red" x1="148.31" x2="129.17" y1="441.19" y2="447.41" /><line stroke="red" x1="229.18" x2="193.87" y1="414.92" y2="426.39" /><line stroke="red" x1="272.93" x2="261.1" y1="425.98" y2="409.7" /><line stroke="red" x1="322.91" x2="301.09" y1="494.77" y2="464.73" /><line stroke="red" x1="325.91" x2="337.74" y1="539.8" y2="523.52" /><line stroke="red" x1="275.93" x2="297.76" y1="608.6" y2="578.56" /><line stroke="red" x1="234.03" x2="253.17" y1="625.36" y2="631.58" /><line stroke="red" x1="153.16" x2="188.47" y1="599.09" y2="610.56" /><line stroke="red" x1="218.71" x2="218.71" y1="672.7" y2="652.57" /><line stroke="red" x1="218.71" x2="218.71" y1="757.73" y2="720.6" /><line stroke="red" x1="194.67" x2="213.81" y1="795.92" y2="789.7" /><line stroke="red" x1="113.79" x2="149.11" y1="822.2" y2="810.72" /><line stroke="red" x1="70.04" x2="81.87" y1="811.14" y2="827.42" /><line stroke="red" x1="20.06" x2="41.89" y1="742.34" y2="772.38" /><line stroke="red" x1="17.06" x2="5.23" y1="697.31" y2="713.59" /><line stroke="red" x1="67.04" x2="45.22" y1="628.52" y2="658.56" /><line stroke="red" x1="108.94" x2="89.8" y1="611.75" y2="605.53" /><line stroke="red" x1="189.81" x2="154.5" y1="638.03" y2="626.55" /></g></svg>