<?xml version="1.0" encoding="utf-8" ?>
<svg baseProfile="full" height="14.1cm" version="1.1" width="20.6cm" xmlns="http://www.w3.org/2000/svg" xmlns:ev="http://www.w3.org/2001/xml-events" xmlns:xlink="http://www.w3.org/1999/xlink"><defs /><g id="cutlines"><line stroke="blue" x1="27.43" x2="18.29" y1="13.57" y2="12.31" /><line stroke="blue" x1="32.99" x2="27.43" y1="24.69" y2="13.57" /><line stroke="blue" x1="25.12" x2="32.99" y1="25.96" y2="24.69" /><line stroke="blue" x1="123.63" x2="1.98" y1="8.5" y2="8.5" /><line stroke="blue" x1="122.78" x2="123.63" y1="5.67" y2="8.5" /><line stroke="blue" x1="123.63" x2="122.78" y1="0.0" y2="5.67" /><line stroke="blue" x1="136.05" x2="123.63" y1="0.0" y2="0.0" /><line stroke="blue" x1="136.9" x2="136.05" y1="5.67" y2="0.0" /><line stroke="blue" x1="136.05" x2="136.9" y1="8.5" y2="5.67" /><line stroke="blue" x1="141.72" x2="136.05" y1="8.5" y2="8.5" /><line stroke="blue" x1="152.34" x2="141.72" y1="29.76" y2="8.5" /><line stroke="blue" x1="151.21" x2="152.34" y1="29.76" y2="29.76" /><line stroke="blue" x1="140.59" x2="151.21" y1="51.02" y2="29.76" /><line stroke="blue" x1="119.36" x2="127.23" y1="45.95" y2="47.22" /><line stroke="blue" x1="124.91" x2="119.36" y1="34.83" y2="45.95" /><line stroke="blue" x1="134.05" x2="124.91" y1="33.57" y2="34.83" /><line stroke="blue" x1="18.1" x2="139.74" y1="51.02" y2="51.02" /><line stroke="blue" x1="18.95" x2="18.1" y1="53.85" y2="51.02" /><line stroke="blue" x1="18.1" x2="18.95" y1="59.52" y2="53.85" /><line stroke="blue" x1="5.67" x2="18.1" y1="59.52" y2="59.52" /><line stroke="blue" x1="4.82" x2="5.67" y1="53.85" y2="59.52" /><line stroke="blue" x1="5.67" x2="4.82" y1="51.02" y2="53.85" /><line stroke="blue" x1="0.0" x2="5.67" y1="51.02" y2="51.02" /><line stroke="blue" x1="10.62" x2="0.0" y1="29.76" y2="51.02" /><line stroke="blue" x1="11.75" x2="10.62" y1="29.76" y2="29.76" /><line stroke="blue" x1="1.13" x2="11.75" y1="8.5" y2="29.76" /><line stroke="blue" x1="171.28" x2="162.14" y1="13.57" y2="12.31" /><line stroke="blue" x1="176.83" x2="171.28" y1="24.69" y2="13.57" /><line stroke="blue" x1="168.96" x2="176.83" y1="25.96" y2="24.69" /><line stroke="blue" x1="267.48" x2="145.83" y1="8.5" y2="8.5" /><line stroke="blue" x1="266.63" x2="267.48" y1="5.67" y2="8.5" /><line stroke="blue" x1="267.48" x2="266.63" y1="0.0" y2="5.67" /><line stroke="blue" x1="279.9" x2="267.48" y1="0.0" y2="0.0" /><line stroke="blue" x1="280.75" x2="279.9" y1="5.67" y2="0.0" /><line stroke="blue" x1="279.9" x2="280.75" y1="8.5" y2="5.67" /><line stroke="blue" x1="285.57" x2="279.9" y1="8.5" y2="8.5" /><line stroke="blue" x1="296.19" x2="285.57" y1="29.76" y2="8.5" /><line stroke="blue" x1="295.06" x2="296.19" y1="29.76" y2="29.76" /><line stroke="blue" x1="284.44" x2="295.06" y1="51.02" y2="29.76" /><line stroke="blue" x1="263.21" x2="271.08" y1="45.95" y2="47.22" /><line stroke="blue" x1="268.76" x2="263.21" y1="34.83" y2="45.95" /><line stroke="blue" x1="277.9" x2="268.76" y1="33.57" y2="34.83" /><line stroke="blue" x1="161.94" x2="283.59" y1="51.02" y2="51.02" /><line stroke="blue" x1="162.79" x2="161.94" y1="53.85" y2="51.02" /><line stroke="blue" x1="161.94" x2="162.79" y1="59.52" y2="53.85" /><line stroke="blue" x1="149.52" x2="161.94" y1="59.52" y2="59.52" /><line stroke="blue" x1="148.67" x2="149.52" y1="53.85" y2="59.52" /><line stroke="blue" x1="149.52" x2="148.67" y1="51.02" y2="53.85" /><line stroke="blue" x1="143.85" x2="149.52" y1="51.02" y2="51.02" /><line stroke="blue" x1="154.47" x2="143.85" y1="29.76" y2="51.02" /><line stroke="blue" x1="155.6" x2="154.47" y1="29.76" y2="29.76" /><line stroke="blue" x1="144.98" x2="155.6" y1="8.5" y2="29.76" /><line stroke="blue" x1="315.13" x2="305.99" y1="13.57" y2="12.31" /><line stroke="blue" x1="320.68" x2="315.13" y1="24.69" y2="13.57" /><line stroke="blue" x1="312.81" x2="320.68" y1="25.96" y2="24.69" /><line stroke="blue" x1="411.33" x2="289.68" y1="8.5" y2="8.5" /><line stroke="blue" x1="410.48" x2="411.33" y1="5.67" y2="8.5" /><line stroke="blue" x1="411.33" x2="410.48" y1="0.0" y2="5.67" /><line stroke="blue" x1="423.75" x2="411.33" y1="0.0" y2="0.0" /><line stroke="blue" x1="424.6" x2="423.75" y1="5.67" y2="0.0" /><line stroke="blue" x1="423.75" x2="424.6" y1="8.5" y2="5.67" /><line stroke="blue" x1="429.42" x2="423.75" y1="8.5" y2="8.5" /><line stroke="blue" x1="440.04" x2="429.42" y1="29.76" y2="8.5" /><line stroke="blue" x1="438.91" x2="440.04" y1="29.76" y2="29.76" /><line stroke="blue" x1="428.29" x2="438.91" y1="51.02" y2="29.76" /><line stroke="blue" x1="407.06" x2="414.93" y1="45.95" y2="47.22" /><line stroke="blue" x1="412.61" x2="407.06" y1="34.83" y2="45.95" /><line stroke="blue" x1="421.75" x2="412.61" y1="33.57" y2="34.83" /><line stroke="blue" x1="305.79" x2="427.44" y1="51.02" y2="51.02" /><line stroke="blue" x1="306.64" x2="305.79" y1="53.85" y2="51.02" /><line stroke="blue" x1="305.79" x2="306.64" y1="59.52" y2="53.85" /><line stroke="blue" x1="293.37" x2="305.79" y1="59.52" y2="59.52" /><line stroke="blue" x1="292.52" x2="293.37" y1="53.85" y2="59.52" /><line stroke="blue" x1="293.37" x2="292.52" y1="51.02" y2="53.85" /><line stroke="blue" x1="287.7" x2="293.37" y1="51.02" y2="51.02" /><line stroke="blue" x1="298.32" x2="287.7" y1="29.76" y2="51.02" /><line stroke="blue" x1="299.45" x2="298.32" y1="29.76" y2="29.76" /><line stroke="blue" x1="288.83" x2="299.45" y1="8.5" y2="29.76" /><line stroke="blue" x1="458.98" x2="449.84" y1="13.57" y2="12.31" /><line stroke="blue" x1="464.53" x2="458.98" y1="24.69" y2="13.57" /><line stroke="blue" x1="456.66" x2="464.53" y1="25.96" y2="24.69" /><line stroke="blue" x1="555.18" x2="433.53" y1="8.5" y2="8.5" /><line stroke="blue" x1="554.33" x2="555.18" y1="5.67" y2="8.5" /><line stroke="blue" x1="555.18" x2="554.33" y1="0.0" y2="5.67" /><line stroke="blue" x1="567.6" x2="555.18" y1="0.0" y2="0.0" /><line stroke="blue" x1="568.45" x2="567.6" y1="5.67" y2="0.0" /><line stroke="blue" x1="567.6" x2="568.45" y1="8.5" y2="5.67" /><line stroke="blue" x1="573.27" x2="567.6" y1="8.5" y2="8.5" /><line stroke="blue" x1="583.89" x2="573.27" y1="29.76" y2="8.5" /><line stroke="blue" x1="582.76" x2="583.89" y1="29.76" y2="29.76" /><line stroke="blue" x1="572.14" x2="582.76" y1="51.02" y2="29.76" /><line stroke="blue" x1="550.91" x2="558.78" y1="45.95" y2="47.22" /><line stroke="blue" x1="556.46" x2="550.91" y1="34.83" y2="45.95" /><line stroke="blue" x1="565.6" x2="556.46" y1="33.57" y2="34.83" /><line stroke="blue" x1="449.64" x2="571.29" y1="51.02" y2="51.02" /><line stroke="blue" x1="450.49" x2="449.64" y1="53.85" y2="51.02" /><line stroke="blue" x1="449.64" x2="450.49" y1="59.52" y2="53.85" /><line stroke="blue" x1="437.22" x2="449.64" y1="59.52" y2="59.52" /><line stroke="blue" x1="436.37" x2="437.22" y1="53.85" y2="59.52" /><line stroke="blue" x1="437.22" x2="436.37" y1="51.02" y2="53.85" /><line stroke="blue" x1="431.55" x2="437.22" y1="51.02" y2="51.02" /><line stroke="blue" x1="442.17" x2="431.55" y1="29.76" y2="51.02" /><line stroke="blue" x1="443.3" x2="442.17" y1="29.76" y2="29.76" /><line stroke="blue" x1="432.68" x2="443.3" y1="8.5" y2="29.76" /><line stroke="blue" x1="27.43" x2="18.29" y1="66.01" y2="64.74" /><line stroke="blue" x1="32.99" x2="27.43" y1="77.13" y2="66.01" /><line stroke="blue" x1="25.12" x2="32.99" y1="78.4" y2="77.13" /><line stroke="blue" x1="123.63" x2="1.98" y1="60.94" y2="60.94" /><line stroke="blue" x1="122.78" x2="123.63" y1="58.11" y2="60.94" /><line stroke="blue" x1="123.63" x2="122.78" y1="52.44" y2="58.11" /><line stroke="blue" x1="136.05" x2="123.63" y1="52.44" y2="52.44" /><line stroke="blue" x1="136.9" x2="136.05" y1="58.11" y2="52.44" /><line stroke="blue" x1="136.05" x2="136.9" y1="60.94" y2="58.11" /><line stroke="blue" x1="141.72" x2="136.05" y1="60.94" y2="60.94" /><line stroke="blue" x1="152.34" x2="141.72" y1="82.2" y2="60.94" /><line stroke="blue" x1="151.21" x2="152.34" y1="82.2" y2="82.2" /><line stroke="blue" x1="140.59" x2="151.21" y1="103.46" y2="82.2" /><line stroke="blue" x1="119.36" x2="127.23" y1="98.39" y2="99.65" /><line stroke="blue" x1="124.91" x2="119.36" y1="87.27" y2="98.39" /><line stroke="blue" x1="134.05" x2="124.91" y1="86.0" y2="87.27" /><line stroke="blue" x1="18.1" x2="139.74" y1="103.46" y2="103.46" /><line stroke="blue" x1="18.95" x2="18.1" y1="106.29" y2="103.46" /><line stroke="blue" x1="18.1" x2="18.95" y1="111.96" y2="106.29" /><line stroke="blue" x1="5.67" x2="18.1" y1="111.96" y2="111.96" /><line stroke="blue" x1="4.82" x2="5.67" y1="106.29" y2="111.96" /><line stroke="blue" x1="5.67" x2="4.82" y1="103.46" y2="106.29" /><line stroke="blue" x1="0.0" x2="5.67" y1="103.46" y2="103.46" /><line stroke="blue" x1="10.62" x2="0.0" y1="82.2" y2="103.46" /><line stroke="blue" x1="11.75" x2="10.62" y1="82.2" y2="82.2" /><line stroke="blue" x1="1.13" x2="11.75" y1="60.94" y2="82.2" /><line stroke="blue" x1="171.28" x2="162.14" y1="66.01" y2="64.74" /><line stroke="blue" x1="176.83" x2="171.28" y1="77.13" y2="66.01" /><line stroke="blue" x1="168.96" x2="176.83" y1="78.4" y2="77.13" /><line stroke="blue" x1="267.48" x2="145.83" y1="60.94" y2="60.94" /><line stroke="blue" x1="266.63" x2="267.48" y1="58.11" y2="60.94" /><line stroke="blue" x1="267.48" x2="266.63" y1="52.44" y2="58.11" /><line stroke="blue" x1="279.9" x2="267.48" y1="52.44" y2="52.44" /><line stroke="blue" x1="280.75" x2="279.9" y1="58.11" y2="52.44" /><line stroke="blue" x1="279.9" x2="280.75" y1="60.94" y2="58.11" /><line stroke="blue" x1="285.57" x2="279.9" y1="60.94" y2="60.94" /><line stroke="blue" x1="296.19" x2="285.57" y1="82.2" y2="60.94" /><line stroke="blue" x1="295.06" x2="296.19" y1="82.2" y2="82.2" /><line stroke="blue" x1="284.44" x2="295.06" y1="103.46" y2="82.2" /><line stroke="blue" x1="263.21" x2="271.08" y1="98.39" y2="99.65" /><line stroke="blue" x1="268.76" x2="263.21" y1="87.27" y2="98.39" /><line stroke="blue" x1="277.9" x2="268.76" y1="86.0" y2="87.27" /><line stroke="blue" x1="161.94" x2="283.59" y1="103.46" y2="103.46" /><line stroke="blue" x1="162.79" x2="161.94" y1="106.29" y2="103.46" /><line stroke="blue" x1="161.94" x2="162.79" y1="111.96" y2="106.29" /><line stroke="blue" x1="149.52" x2="161.94" y1="111.96" y2="111.96" /><line stroke="blue" x1="148.67" x2="149.52" y1="106.29" y2="111.96" /><line stroke="blue" x1="149.52" x2="148.67" y1="103.46" y2="106.29" /><line stroke="blue" x1="143.85" x2="149.52" y1="103.46" y2="103.46" /><line stroke="blue" x1="154.47" x2="143.85" y1="82.2" y2="103.46" /><line stroke="blue" x1="155.6" x2="154.47" y1="82.2" y2="82.2" /><line stroke="blue" x1="144.98" x2="155.6" y1="60.94" y2="82.2" /><line stroke="blue" x1="315.13" x2="305.99" y1="66.01" y2="64.74" /><line stroke="blue" x1="320.68" x2="315.13" y1="77.13" y2="66.01" /><line stroke="blue" x1="312.81" x2="320.68" y1="78.4" y2="77.13" /><line stroke="blue" x1="411.33" x2="289.68" y1="60.94" y2="60.94" /><line stroke="blue" x1="410.48" x2="411.33" y1="58.11" y2="60.94" /><line stroke="blue" x1="411.33" x2="410.48" y1="52.44" y2="58.11" /><line stroke="blue" x1="423.75" x2="411.33" y1="52.44" y2="52.44" /><line stroke="blue" x1="424.6" x2="423.75" y1="58.11" y2="52.44" /><line stroke="blue" x1="423.75" x2="424.6" y1="60.94" y2="58.11" /><line stroke="blue" x1="429.42" x2="423.75" y1="60.94" y2="60.94" /><line stroke="blue" x1="440.04" x2="429.42" y1="82.2" y2="60.94" /><line stroke="blue" x1="438.91" x2="440.04" y1="82.2" y2="82.2" /><line stroke="blue" x1="428.29" x2="438.91" y1="103.46" y2="82.2" /><line stroke="blue" x1="407.06" x2="414.93" y1="98.39" y2="99.65" /><line stroke="blue" x1="412.61" x2="407.06" y1="87.27" y2="98.39" /><line stroke="blue" x1="421.75" x2="412.61" y1="86.0" y2="87.27" /><line stroke="blue" x1="305.79" x2="427.44" y1="103.46" y2="103.46" /><line stroke="blue" x1="306.64" x2="305.79" y1="106.29" y2="103.46" /><line stroke="blue" x1="305.79" x2="306.64" y1="111.96" y2="106.29" /><line stroke="blue" x1="293.37" x2="305.79" y1="111.96" y2="111.96" /><line stroke="blue" x1="292.52" x2="293.37" y1="106.29" y2="111.96" /><line stroke="blue" x1="293.37" x2="292.52" y1="103.46" y2="106.29" /><line stroke="blue" x1="287.7" x2="293.37" y1="103.46" y2="103.46" /><line stroke="blue" x1="298.32" x2="287.7" y1="82.2" y2="103.46" /><line stroke="blue" x1="299.45" x2="298.32" y1="82.2" y2="82.2" /><line stroke="blue" x1="288.83" x2="299.45" y1="60.94" y2="82.2" /><line stroke="blue" x1="458.98" x2="449.84" y1="66.01" y2="64.74" /><line stroke="blue" x1="464.53" x2="458.98" y1="77.13" y2="66.01" /><line stroke="blue" x1="456.66" x2="464.53" y1="78.4" y2="77.13" /><line stroke="blue" x1="555.18" x2="433.53" y1="60.94" y2="60.94" /><line stroke="blue" x1="554.33" x2="555.18" y1="58.11" y2="60.94" /><line stroke="blue" x1="555.18" x2="554.33" y1="52.44" y2="58.11" /><line stroke="blue" x1="567.6" x2="555.18" y1="52.44" y2="52.44" /><line stroke="blue" x1="568.45" x2="567.6" y1="58.11" y2="52.44" /><line stroke="blue" x1="567.6" x2="568.45" y1="60.94" y2="58.11" /><line stroke="blue" x1="573.27" x2="567.6" y1="60.94" y2="60.94" /><line stroke="blue" x1="583.89" x2="573.27" y1="82.2" y2="60.94" /><line stroke="blue" x1="582.76" x2="583.89" y1="82.2" y2="82.2" /><line stroke="blue" x1="572.14" x2="582.76" y1="103.46" y2="82.2" /><line stroke="blue" x1="550.91" x2="558.78" y1="98.39" y2="99.65" /><line stroke="blue" x1="556.46" x2="550.91" y1="87.27" y2="98.39" /><line stroke="blue" x1="565.6" x2="556.46" y1="86.0" y2="87.27" /><line stroke="blue" x1="449.64" x2="571.29" y1="103.46" y2="103.46" /><line stroke="blue" x1="450.49" x2="449.64" y1="106.29" y2="103.46" /><line stroke="blue" x1="449.64" x2="450.49" y1="111.96" y2="106.29" /><line stroke="blue" x1="437.22" x2="449.64" y1="111.96" y2="111.96" /><line stroke="blue" x1="436.37" x2="437.22" y1="106.29" y2="111.96" /><line stroke="blue" x1="437.22" x2="436.37" y1="103.46" y2="106.29" /><line stroke="blue" x1="431.55" x2="437.22" y1="103.46" y2="103.46" /><line stroke="blue" x1="442.17" x2="431.55" y1="82.2" y2="103.46" /><line stroke="blue" x1="443.3" x2="442.17" y1="82.2" y2="82.2" /><line stroke="blue" x1="432.68" x2="443.3" y1="60.94" y2="82.2" /><line stroke="blue" x1="27.43" x2="18.29" y1="118.45" y2="117.18" /><line stroke="blue" x1="32.99" x2="27.43" y1="129.57" y2="118.45" /><line stroke="blue" x1="25.12" x2="32.99" y1="130.83" y2="129.57" /><line stroke="blue" x1="123.63" x2="1.98" y1="113.38" y2="113.38" /><line stroke="blue" x1="122.78" x2="123.63" y1="110.54" y2="113.38" /><line stroke="blue" x1="123.63" x2="122.78" y1="104.88" y2="110.54" /><line stroke="blue" x1="136.05" x2="123.63" y1="104.88" y2="104.88" /><line stroke="blue" x1="136.9" x2="136.05" y1="110.54" y2="104.88" /><line stroke="blue" x1="136.05" x2="136.9" y1="113.38" y2="110.54" /><line stroke="blue" x1="141.72" x2="136.05" y1="113.38" y2="113.38" /><line stroke="blue" x1="152.34" x2="141.72" y1="134.64" y2="113.38" /><line stroke="blue" x1="151.21" x2="152.34" y1="134.64" y2="134.64" /><line stroke="blue" x1="140.59" x2="151.21" y1="155.9" y2="134.64" /><line stroke="blue" x1="119.36" x2="127.23" y1="150.82" y2="152.09" /><line stroke="blue" x1="124.91" x2="119.36" y1="139.71" y2="150.82" /><line stroke="blue" x1="134.05" x2="124.91" y1="138.44" y2="139.71" /><line stroke="blue" x1="18.1" x2="139.74" y1="155.9" y2="155.9" /><line stroke="blue" x1="18.95" x2="18.1" y1="158.73" y2="155.9" /><line stroke="blue" x1="18.1" x2="18.95" y1="164.4" y2="158.73" /><line stroke="blue" x1="5.67" x2="18.1" y1="164.4" y2="164.4" /><line stroke="blue" x1="4.82" x2="5.67" y1="158.73" y2="164.4" /><line stroke="blue" x1="5.67" x2="4.82" y1="155.9" y2="158.73" /><line stroke="blue" x1="0.0" x2="5.67" y1="155.9" y2="155.9" /><line stroke="blue" x1="10.62" x2="0.0" y1="134.64" y2="155.9" /><line stroke="blue" x1="11.75" x2="10.62" y1="134.64" y2="134.64" /><line stroke="blue" x1="1.13" x2="11.75" y1="113.38" y2="134.64" /><line stroke="blue" x1="171.28" x2="162.14" y1="118.45" y2="117.18" /><line stroke="blue" x1="176.83" x2="171.28" y1="129.57" y2="118.45" /><line stroke="blue" x1="168.96" x2="176.83" y1="130.83" y2="129.57" /><line stroke="blue" x1="267.48" x2="145.83" y1="113.38" y2="113.38" /><line stroke="blue" x1="266.63" x2="267.48" y1="110.54" y2="113.38" /><line stroke="blue" x1="267.48" x2="266.63" y1="104.88" y2="110.54" /><line stroke="blue" x1="279.9" x2="267.48" y1="104.88" y2="104.88" /><line stroke="blue" x1="280.75" x2="279.9" y1="110.54" y2="104.88" /><line stroke="blue" x1="279.9" x2="280.75" y1="113.38" y2="110.54" /><line stroke="blue" x1="285.57" x2="279.9" y1="113.38" y2="113.38" /><line stroke="blue" x1="296.19" x2="285.57" y1="134.64" y2="113.38" /><line stroke="blue" x1="295.06" x2="296.19" y1="134.64" y2="134.64" /><line stroke="blue" x1="284.44" x2="295.06" y1="155.9" y2="134.64" /><line stroke="blue" x1="263.21" x2="271.08" y1="150.82" y2="152.09" /><line stroke="blue" x1="268.76" x2="263.21" y1="139.71" y2="150.82" /><line stroke="blue" x1="277.9" x2="268.76" y1="138.44" y2="139.71" /><line stroke="blue" x1="161.94" x2="283.59" y1="155.9" y2="155.9" /><line stroke="blue" x1="162.79" x2="161.94" y1="158.73" y2="155.9" /><line stroke="blue" x1="161.94" x2="162.79" y1="164.4" y2="158.73" /><line stroke="blue" x1="149.52" x2="161.94" y1="164.4" y2="164.4" /><line stroke="blue" x1="148.67" x2="149.52" y1="158.73" y2="164.4" /><line stroke="blue" x1="149.52" x2="148.67" y1="155.9" y2="158.73" /><line stroke="blue" x1="143.85" x2="149.52" y1="155.9" y2="155.9" /><line stroke="blue" x1="154.47" x2="143.85" y1="134.64" y2="155.9" /><line stroke="blue" x1="155.6" x2="154.47" y1="134.64" y2="134.64" /><line stroke="blue" x1="144.98" x2="155.6" y1="113.38" y2="134.64" /><line stroke="blue" x1="315.13" x2="305.99" y1="118.45" y2="117.18" /><line stroke="blue" x1="320.68" x2="315.13" y1="129.57" y2="118.45" /><line stroke="blue" x1="312.81" x2="320.68" y1="130.83" y2="129.57" /><line stroke="blue" x1="411.33" x2="289.68" y1="113.38" y2="113.38" /><line stroke="blue" x1="410.48" x2="411.33" y1="110.54" y2="113.38" /><line stroke="blue" x1="411.33" x2="410.48" y1="104.88" y2="110.54" /><line stroke="blue" x1="423.75" x2="411.33" y1="104.88" y2="104.88" /><line stroke="blue" x1="424.6" x2="423.75" y1="110.54" y2="104.88" /><line stroke="blue" x1="423.75" x2="424.6" y1="113.38" y2="110.54" /><line stroke="blue" x1="429.42" x2="423.75" y1="113.38" y2="113.38" /><line stroke="blue" x1="440.04" x2="429.42" y1="134.64" y2="113.38" /><line stroke="blue" x1="438.91" x2="440.04" y1="134.64" y2="134.64" /><line stroke="blue" x1="428.29" x2="438.91" y1="155.9" y2="134.64" /><line stroke="blue" x1="407.06" x2="414.93" y1="150.82" y2="152.09" /><line stroke="blue" x1="412.61" x2="407.06" y1="139.71" y2="150.82" /><line stroke="blue" x1="421.75" x2="412.61" y1="138.44" y2="139.71" /><line stroke="blue" x1="305.79" x2="427.44" y1="155.9" y2="155.9" /><line stroke="blue" x1="306.64" x2="305.79" y1="158.73" y2="155.9" /><line stroke="blue" x1="305.79" x2="306.64" y1="164.4" y2="158.73" /><line stroke="blue" x1="293.37" x2="305.79" y1="164.4" y2="164.4" /><line stroke="blue" x1="292.52" x2="293.37" y1="158.73" y2="164.4" /><line stroke="blue" x1="293.37" x2="292.52" y1="155.9" y2="158.73" /><line stroke="blue" x1="287.7" x2="293.37" y1="155.9" y2="155.9" /><line stroke="blue" x1="298.32" x2="287.7" y1="134.64" y2="155.9" /><line stroke="blue" x1="299.45" x2="298.32" y1="134.64" y2="134.64" /><line stroke="blue" x1="288.83" x2="299.45" y1="113.38" y2="134.64" /><line stroke="blue" x1="458.98" x2="449.84" y1="118.45" y2="117.18" /><line stroke="blue" x1="464.53" x2="458.98" y1="129.57" y2="118.45" /><line stroke="blue" x1="456.66" x2="464.53" y1="130.83" y2="129.57" /><line stroke="blue" x1="555.18" x2="433.53" y1="113.38" y2="113.38" /><line stroke="blue" x1="554.33" x2="555.18" y1="110.54" y2="113.38" /><line stroke="blue" x1="555.18" x2="554.33" y1="104.88" y2="110.54" /><line stroke="blue" x1="567.6" x2="555.18" y1="104.88" y2="104.88" /><line stroke="blue" x1="568.45" x2="567.6" y1="110.54" y2="104.88" /><line stroke="blue" x1="567.6" x2="568.45" y1="113.38" y2="110.54" /><line stroke="blue" x1="573.27" x2="567.6" y1="113.38" y2="113.38" /><line stroke="blue" x1="583.89" x2="573.27" y1="134.64" y2="113.38" /><line stroke="blue" x1="582.76" x2="583.89" y1="134.64" y2="134.64" /><line stroke="blue" x1="572.14" x2="582.76" y1="155.9" y2="134.64" /><line stroke="blue" x1="550.91" x2="558.78" y1="150.82" y2="152.09" /><line stroke="blue" x1="556.46" x2="550.91" y1="139.71" y2="150.82" /><line stroke="blue" x1="565.6" x2="556.46" y1="138.44" y2="139.71" /><line stroke="blue" x1="449.64" x2="571.29" y1="155.9" y2="155.9" /><line stroke="blue" x1="450.49" x2="449.64" y1="158.73" y2="155.9" /><line stroke="blue" x1="449.64" x2="450.49" y1="164.4" y2="158.73" /><line stroke="blue" x1="437.22" x2="449.64" y1="164.4" y2="164.4" /><line stroke="blue" x1="436.37" x2="437.22" y1="158.73" y2="164.4" /><line stroke="blue" x1="437.22" x2="436.37" y1="155.9" y2="158.73" /><line stroke="blue" x1="431.55" x2="437.22" y1="155.9" y2="155.9" /><line stroke="blue" x1="442.17" x2="431.55" y1="134.64" y2="155.9" /><line stroke="blue" x1="443.3" x2="442.17" y1="134.64" y2="134.64" /><line stroke="blue" x1="432.68" x2="443.3" y1="113.38" y2="134.64" /><line stroke="blue" x1="43.61" x2="35.74" y1="183.64" y2="182.37" /><line stroke="blue" x1="38.05" x2="43.61" y1="194.76" y2="183.64" /><line stroke="blue" x1="28.92" x2="38.05" y1="196.03" y2="194.76" /><line stroke="blue" x1="144.87" x2="23.23" y1="178.57" y2="178.57" /><line stroke="blue" x1="144.02" x2="144.87" y1="175.74" y2="178.57" /><line stroke="blue" x1="144.87" x2="144.02" y1="170.07" y2="175.74" /><line stroke="blue" x1="157.3" x2="144.87" y1="170.07" y2="170.07" /><line stroke="blue" x1="158.15" x2="157.3" y1="175.74" y2="170.07" /><line stroke="blue" x1="157.3" x2="158.15" y1="178.57" y2="175.74" /><line stroke="blue" x1="162.97" x2="157.3" y1="178.57" y2="178.57" /><line stroke="blue" x1="152.34" x2="162.97" y1="199.83" y2="178.57" /><line stroke="blue" x1="151.21" x2="152.34" y1="199.83" y2="199.83" /><line stroke="blue" x1="140.59" x2="151.21" y1="221.09" y2="199.83" /><line stroke="blue" x1="119.36" x2="127.23" y1="216.02" y2="217.28" /><line stroke="blue" x1="124.91" x2="119.36" y1="204.9" y2="216.02" /><line stroke="blue" x1="134.05" x2="124.91" y1="203.63" y2="204.9" /><line stroke="blue" x1="18.1" x2="139.74" y1="221.09" y2="221.09" /><line stroke="blue" x1="18.95" x2="18.1" y1="223.92" y2="221.09" /><line stroke="blue" x1="18.1" x2="18.95" y1="229.59" y2="223.92" /><line stroke="blue" x1="5.67" x2="18.1" y1="229.59" y2="229.59" /><line stroke="blue" x1="4.82" x2="5.67" y1="223.92" y2="229.59" /><line stroke="blue" x1="5.67" x2="4.82" y1="221.09" y2="223.92" /><line stroke="blue" x1="0.0" x2="5.67" y1="221.09" y2="221.09" /><line stroke="blue" x1="10.62" x2="0.0" y1="199.83" y2="221.09" /><line stroke="blue" x1="11.75" x2="10.62" y1="199.83" y2="199.83" /><line stroke="blue" x1="22.38" x2="11.75" y1="178.57" y2="199.83" /><line stroke="blue" x1="187.46" x2="179.59" y1="183.64" y2="182.37" /><line stroke="blue" x1="181.9" x2="187.46" y1="194.76" y2="183.64" /><line stroke="blue" x1="172.76" x2="181.9" y1="196.03" y2="194.76" /><line stroke="blue" x1="288.72" x2="167.08" y1="178.57" y2="178.57" /><line stroke="blue" x1="287.87" x2="288.72" y1="175.74" y2="178.57" /><line stroke="blue" x1="288.72" x2="287.87" y1="170.07" y2="175.74" /><line stroke="blue" x1="301.15" x2="288.72" y1="170.07" y2="170.07" /><line stroke="blue" x1="302.0" x2="301.15" y1="175.74" y2="170.07" /><line stroke="blue" x1="301.15" x2="302.0" y1="178.57" y2="175.74" /><line stroke="blue" x1="306.81" x2="301.15" y1="178.57" y2="178.57" /><line stroke="blue" x1="296.19" x2="306.81" y1="199.83" y2="178.57" /><line stroke="blue" x1="295.06" x2="296.19" y1="199.83" y2="199.83" /><line stroke="blue" x1="284.44" x2="295.06" y1="221.09" y2="199.83" /><line stroke="blue" x1="263.21" x2="271.08" y1="216.02" y2="217.28" /><line stroke="blue" x1="268.76" x2="263.21" y1="204.9" y2="216.02" /><line stroke="blue" x1="277.9" x2="268.76" y1="203.63" y2="204.9" /><line stroke="blue" x1="161.94" x2="283.59" y1="221.09" y2="221.09" /><line stroke="blue" x1="162.79" x2="161.94" y1="223.92" y2="221.09" /><line stroke="blue" x1="161.94" x2="162.79" y1="229.59" y2="223.92" /><line stroke="blue" x1="149.52" x2="161.94" y1="229.59" y2="229.59" /><line stroke="blue" x1="148.67" x2="149.52" y1="223.92" y2="229.59" /><line stroke="blue" x1="149.52" x2="148.67" y1="221.09" y2="223.92" /><line stroke="blue" x1="143.85" x2="149.52" y1="221.09" y2="221.09" /><line stroke="blue" x1="154.47" x2="143.85" y1="199.83" y2="221.09" /><line stroke="blue" x1="155.6" x2="154.47" y1="199.83" y2="199.83" /><line stroke="blue" x1="166.22" x2="155.6" y1="178.57" y2="199.83" /><line stroke="blue" x1="331.3" x2="323.43" y1="183.64" y2="182.37" /><line stroke="blue" x1="325.75" x2="331.3" y1="194.76" y2="183.64" /><line stroke="blue" x1="316.61" x2="325.75" y1="196.03" y2="194.76" /><line stroke="blue" x1="432.57" x2="310.92" y1="178.57" y2="178.57" /><line stroke="blue" x1="431.72" x2="432.57" y1="175.74" y2="178.57" /><line stroke="blue" x1="432.57" x2="431.72" y1="170.07" y2="175.74" /><line stroke="blue" x1="444.99" x2="432.57" y1="170.07" y2="170.07" /><line stroke="blue" x1="445.84" x2="444.99" y1="175.74" y2="170.07" /><line stroke="blue" x1="444.99" x2="445.84" y1="178.57" y2="175.74" /><line stroke="blue" x1="450.66" x2="444.99" y1="178.57" y2="178.57" /><line stroke="blue" x1="440.04" x2="450.66" y1="199.83" y2="178.57" /><line stroke="blue" x1="438.91" x2="440.04" y1="199.83" y2="199.83" /><line stroke="blue" x1="428.29" x2="438.91" y1="221.09" y2="199.83" /><line stroke="blue" x1="407.06" x2="414.93" y1="216.02" y2="217.28" /><line stroke="blue" x1="412.61" x2="407.06" y1="204.9" y2="216.02" /><line stroke="blue" x1="421.75" x2="412.61" y1="203.63" y2="204.9" /><line stroke="blue" x1="305.79" x2="427.44" y1="221.09" y2="221.09" /><line stroke="blue" x1="306.64" x2="305.79" y1="223.92" y2="221.09" /><line stroke="blue" x1="305.79" x2="306.64" y1="229.59" y2="223.92" /><line stroke="blue" x1="293.37" x2="305.79" y1="229.59" y2="229.59" /><line stroke="blue" x1="292.52" x2="293.37" y1="223.92" y2="229.59" /><line stroke="blue" x1="293.37" x2="292.52" y1="221.09" y2="223.92" /><line stroke="blue" x1="287.7" x2="293.37" y1="221.09" y2="221.09" /><line stroke="blue" x1="298.32" x2="287.7" y1="199.83" y2="221.09" /><line stroke="blue" x1="299.45" x2="298.32" y1="199.83" y2="199.83" /><line stroke="blue" x1="310.07" x2="299.45" y1="178.57" y2="199.83" /><line stroke="blue" x1="43.61" x2="35.74" y1="236.08" y2="234.81" /><line stroke="blue" x1="38.05" x2="43.61" y1="247.2" y2="236.08" /><line stroke="blue" x1="28.92" x2="38.05" y1="248.46" y2="247.2" /><line stroke="blue" x1="144.87" x2="23.23" y1="231.01" y2="231.01" /><line stroke="blue" x1="144.02" x2="144.87" y1="228.17" y2="231.01" /><line stroke="blue" x1="144.87" x2="144.02" y1="222.51" y2="228.17" /><line stroke="blue" x1="157.3" x2="144.87" y1="222.51" y2="222.51" /><line stroke="blue" x1="158.15" x2="157.3" y1="228.17" y2="222.51" /><line stroke="blue" x1="157.3" x2="158.15" y1="231.01" y2="228.17" /><line stroke="blue" x1="162.97" x2="157.3" y1="231.01" y2="231.01" /><line stroke="blue" x1="152.34" x2="162.97" y1="252.27" y2="231.01" /><line stroke="blue" x1="151.21" x2="152.34" y1="252.27" y2="252.27" /><line stroke="blue" x1="140.59" x2="151.21" y1="273.53" y2="252.27" /><line stroke="blue" x1="119.36" x2="127.23" y1="268.45" y2="269.72" /><line stroke="blue" x1="124.91" x2="119.36" y1="257.34" y2="268.45" /><line stroke="blue" x1="134.05" x2="124.91" y1="256.07" y2="257.34" /><line stroke="blue" x1="18.1" x2="139.74" y1="273.53" y2="273.53" /><line stroke="blue" x1="18.95" x2="18.1" y1="276.36" y2="273.53" /><line stroke="blue" x1="18.1" x2="18.95" y1="282.03" y2="276.36" /><line stroke="blue" x1="5.67" x2="18.1" y1="282.03" y2="282.03" /><line stroke="blue" x1="4.82" x2="5.67" y1="276.36" y2="282.03" /><line stroke="blue" x1="5.67" x2="4.82" y1="273.53" y2="276.36" /><line stroke="blue" x1="0.0" x2="5.67" y1="273.53" y2="273.53" /><line stroke="blue" x1="10.62" x2="0.0" y1="252.27" y2="273.53" /><line stroke="blue" x1="11.75" x2="10.62" y1="252.27" y2="252.27" /><line stroke="blue" x1="22.38" x2="11.75" y1="231.01" y2="252.27" /><line stroke="blue" x1="187.46" x2="179.59" y1="236.08" y2="234.81" /><line stroke="blue" x1="181.9" x2="187.46" y1="247.2" y2="236.08" /><line stroke="blue" x1="172.76" x2="181.9" y1="248.46" y2="247.2" /><line stroke="blue" x1="288.72" x2="167.08" y1="231.01" y2="231.01" /><line stroke="blue" x1="287.87" x2="288.72" y1="228.17" y2="231.01" /><line stroke="blue" x1="288.72" x2="287.87" y1="222.51" y2="228.17" /><line stroke="blue" x1="301.15" x2="288.72" y1="222.51" y2="222.51" /><line stroke="blue" x1="302.0" x2="301.15" y1="228.17" y2="222.51" /><line stroke="blue" x1="301.15" x2="302.0" y1="231.01" y2="228.17" /><line stroke="blue" x1="306.81" x2="301.15" y1="231.01" y2="231.01" /><line stroke="blue" x1="296.19" x2="306.81" y1="252.27" y2="231.01" /><line stroke="blue" x1="295.06" x2="296.19" y1="252.27" y2="252.27" /><line stroke="blue" x1="284.44" x2="295.06" y1="273.53" y2="252.27" /><line stroke="blue" x1="263.21" x2="271.08" y1="268.45" y2="269.72" /><line stroke="blue" x1="268.76" x2="263.21" y1="257.34" y2="268.45" /><line stroke="blue" x1="277.9" x2="268.76" y1="256.07" y2="257.34" /><line stroke="blue" x1="161.94" x2="283.59" y1="273.53" y2="273.53" /><line stroke="blue" x1="162.79" x2="161.94" y1="276.36" y2="273.53" /><line stroke="blue" x1="161.94" x2="162.79" y1="282.03" y2="276.36" /><line stroke="blue" x1="149.52" x2="161.94" y1="282.03" y2="282.03" /><line stroke="blue" x1="148.67" x2="149.52" y1="276.36" y2="282.03" /><line stroke="blue" x1="149.52" x2="148.67" y1="273.53" y2="276.36" /><line stroke="blue" x1="143.85" x2="149.52" y1="273.53" y2="273.53" /><line stroke="blue" x1="154.47" x2="143.85" y1="252.27" y2="273.53" /><line stroke="blue" x1="155.6" x2="154.47" y1="252.27" y2="252.27" /><line stroke="blue" x1="166.22" x2="155.6" y1="231.01" y2="252.27" /><line stroke="blue" x1="331.3" x2="323.43" y1="236.08" y2="234.81" /><line stroke="blue" x1="325.75" x2="331.3" y1="247.2" y2="236.08" /><line stroke="blue" x1="316.61" x2="325.75" y1="248.46" y2="247.2" /><line stroke="blue" x1="432.57" x2="310.92" y1="231.01" y2="231.01" /><line stroke="blue" x1="431.72" x2="432.57" y1="228.17" y2="231.01" /><line stroke="blue" x1="432.57" x2="431.72" y1="222.51" y2="228.17" /><line stroke="blue" x1="444.99" x2="432.57" y1="222.51" y2="222.51" /><line stroke="blue" x1="445.84" x2="444.99" y1="228.17" y2="222.51" /><line stroke="blue" x1="444.99" x2="445.84" y1="231.01" y2="228.17" /><line stroke="blue" x1="450.66" x2="444.99" y1="231.01" y2="231.01" /><line stroke="blue" x1="440.04" x2="450.66" y1="252.27" y2="231.01" /><line stroke="blue" x1="438.91" x2="440.04" y1="252.27" y2="252.27" /><line stroke="blue" x1="428.29" x2="438.91" y1="273.53" y2="252.27" /><line stroke="blue" x1="407.06" x2="414.93" y1="268.45" y2="269.72" /><line stroke="blue" x1="412.61" x2="407.06" y1="257.34" y2="268.45" /><line stroke="blue" x1="421.75" x2="412.61" y1="256.07" y2="257.34" /><line stroke="blue" x1="305.79" x2="427.44" y1="273.53" y2="273.53" /><line stroke="blue" x1="306.64" x2="305.79" y1="276.36" y2="273.53" /><line stroke="blue" x1="305.79" x2="306.64" y1="282.03" y2="276.36" /><line stroke="blue" x1="293.37" x2="305.79" y1="282.03" y2="282.03" /><line stroke="blue" x1="292.52" x2="293.37" y1="276.36" y2="282.03" /><line stroke="blue" x1="293.37" x2="292.52" y1="273.53" y2="276.36" /><line stroke="blue" x1="287.7" x2="293.37" y1="273.53" y2="273.53" /><line stroke="blue" x1="298.32" x2="287.7" y1="252.27" y2="273.53" /><line stroke="blue" x1="299.45" x2="298.32" y1="252.27" y2="252.27" /><line stroke="blue" x1="310.07" x2="299.45" y1="231.01" y2="252.27" /><line stroke="blue" x1="26.3" x2="17.16" y1="301.27" y2="300.01" /><line stroke="blue" x1="31.85" x2="26.3" y1="312.39" y2="301.27" /><line stroke="blue" x1="23.98" x2="31.85" y1="313.66" y2="312.39" /><line stroke="blue" x1="122.49" x2="0.85" y1="296.2" y2="296.2" /><line stroke="blue" x1="121.64" x2="122.49" y1="293.37" y2="296.2" /><line stroke="blue" x1="122.49" x2="121.64" y1="287.7" y2="293.37" /><line stroke="blue" x1="134.92" x2="122.49" y1="287.7" y2="287.7" /><line stroke="blue" x1="135.77" x2="134.92" y1="293.37" y2="287.7" /><line stroke="blue" x1="134.92" x2="135.77" y1="296.2" y2="293.37" /><line stroke="blue" x1="140.59" x2="134.92" y1="296.2" y2="296.2" /><line stroke="blue" x1="151.21" x2="140.59" y1="317.46" y2="296.2" /><line stroke="blue" x1="150.08" x2="151.21" y1="317.46" y2="317.46" /><line stroke="blue" x1="160.7" x2="150.08" y1="338.72" y2="317.46" /><line stroke="blue" x1="134.4" x2="143.54" y1="333.65" y2="334.92" /><line stroke="blue" x1="128.85" x2="134.4" y1="322.53" y2="333.65" /><line stroke="blue" x1="136.72" x2="128.85" y1="321.26" y2="322.53" /><line stroke="blue" x1="38.2" x2="159.85" y1="338.72" y2="338.72" /><line stroke="blue" x1="39.05" x2="38.2" y1="341.55" y2="338.72" /><line stroke="blue" x1="38.2" x2="39.05" y1="347.22" y2="341.55" /><line stroke="blue" x1="25.78" x2="38.2" y1="347.22" y2="347.22" /><line stroke="blue" x1="24.93" x2="25.78" y1="341.55" y2="347.22" /><line stroke="blue" x1="25.78" x2="24.93" y1="338.72" y2="341.55" /><line stroke="blue" x1="20.11" x2="25.78" y1="338.72" y2="338.72" /><line stroke="blue" x1="9.49" x2="20.11" y1="317.46" y2="338.72" /><line stroke="blue" x1="10.62" x2="9.49" y1="317.46" y2="317.46" /><line stroke="blue" x1="0.0" x2="10.62" y1="296.2" y2="317.46" /><line stroke="blue" x1="170.15" x2="161.01" y1="301.27" y2="300.01" /><line stroke="blue" x1="175.7" x2="170.15" y1="312.39" y2="301.27" /><line stroke="blue" x1="167.83" x2="175.7" y1="313.66" y2="312.39" /><line stroke="blue" x1="266.34" x2="144.7" y1="296.2" y2="296.2" /><line stroke="blue" x1="265.49" x2="266.34" y1="293.37" y2="296.2" /><line stroke="blue" x1="266.34" x2="265.49" y1="287.7" y2="293.37" /><line stroke="blue" x1="278.77" x2="266.34" y1="287.7" y2="287.7" /><line stroke="blue" x1="279.62" x2="278.77" y1="293.37" y2="287.7" /><line stroke="blue" x1="278.77" x2="279.62" y1="296.2" y2="293.37" /><line stroke="blue" x1="284.44" x2="278.77" y1="296.2" y2="296.2" /><line stroke="blue" x1="295.06" x2="284.44" y1="317.46" y2="296.2" /><line stroke="blue" x1="293.93" x2="295.06" y1="317.46" y2="317.46" /><line stroke="blue" x1="304.55" x2="293.93" y1="338.72" y2="317.46" /><line stroke="blue" x1="278.25" x2="287.39" y1="333.65" y2="334.92" /><line stroke="blue" x1="272.7" x2="278.25" y1="322.53" y2="333.65" /><line stroke="blue" x1="280.57" x2="272.7" y1="321.26" y2="322.53" /><line stroke="blue" x1="182.05" x2="303.7" y1="338.72" y2="338.72" /><line stroke="blue" x1="182.9" x2="182.05" y1="341.55" y2="338.72" /><line stroke="blue" x1="182.05" x2="182.9" y1="347.22" y2="341.55" /><line stroke="blue" x1="169.63" x2="182.05" y1="347.22" y2="347.22" /><line stroke="blue" x1="168.78" x2="169.63" y1="341.55" y2="347.22" /><line stroke="blue" x1="169.63" x2="168.78" y1="338.72" y2="341.55" /><line stroke="blue" x1="163.96" x2="169.63" y1="338.72" y2="338.72" /><line stroke="blue" x1="153.34" x2="163.96" y1="317.46" y2="338.72" /><line stroke="blue" x1="154.47" x2="153.34" y1="317.46" y2="317.46" /><line stroke="blue" x1="143.85" x2="154.47" y1="296.2" y2="317.46" /><line stroke="blue" x1="314.0" x2="304.86" y1="301.27" y2="300.01" /><line stroke="blue" x1="319.55" x2="314.0" y1="312.39" y2="301.27" /><line stroke="blue" x1="311.68" x2="319.55" y1="313.66" y2="312.39" /><line stroke="blue" x1="410.19" x2="288.55" y1="296.2" y2="296.2" /><line stroke="blue" x1="409.34" x2="410.19" y1="293.37" y2="296.2" /><line stroke="blue" x1="410.19" x2="409.34" y1="287.7" y2="293.37" /><line stroke="blue" x1="422.62" x2="410.19" y1="287.7" y2="287.7" /><line stroke="blue" x1="423.47" x2="422.62" y1="293.37" y2="287.7" /><line stroke="blue" x1="422.62" x2="423.47" y1="296.2" y2="293.37" /><line stroke="blue" x1="428.29" x2="422.62" y1="296.2" y2="296.2" /><line stroke="blue" x1="438.91" x2="428.29" y1="317.46" y2="296.2" /><line stroke="blue" x1="437.78" x2="438.91" y1="317.46" y2="317.46" /><line stroke="blue" x1="448.4" x2="437.78" y1="338.72" y2="317.46" /><line stroke="blue" x1="422.1" x2="431.24" y1="333.65" y2="334.92" /><line stroke="blue" x1="416.54" x2="422.1" y1="322.53" y2="333.65" /><line stroke="blue" x1="424.41" x2="416.54" y1="321.26" y2="322.53" /><line stroke="blue" x1="325.9" x2="447.55" y1="338.72" y2="338.72" /><line stroke="blue" x1="326.75" x2="325.9" y1="341.55" y2="338.72" /><line stroke="blue" x1="325.9" x2="326.75" y1="347.22" y2="341.55" /><line stroke="blue" x1="313.48" x2="325.9" y1="347.22" y2="347.22" /><line stroke="blue" x1="312.62" x2="313.48" y1="341.55" y2="347.22" /><line stroke="blue" x1="313.48" x2="312.62" y1="338.72" y2="341.55" /><line stroke="blue" x1="307.81" x2="313.48" y1="338.72" y2="338.72" /><line stroke="blue" x1="297.19" x2="307.81" y1="317.46" y2="338.72" /><line stroke="blue" x1="298.32" x2="297.19" y1="317.46" y2="317.46" /><line stroke="blue" x1="287.7" x2="298.32" y1="296.2" y2="317.46" /><line stroke="blue" x1="26.3" x2="17.16" y1="353.71" y2="352.44" /><line stroke="blue" x1="31.85" x2="26.3" y1="364.83" y2="353.71" /><line stroke="blue" x1="23.98" x2="31.85" y1="366.09" y2="364.83" /><line stroke="blue" x1="122.49" x2="0.85" y1="348.64" y2="348.64" /><line stroke="blue" x1="121.64" x2="122.49" y1="345.8" y2="348.64" /><line stroke="blue" x1="122.49" x2="121.64" y1="340.14" y2="345.8" /><line stroke="blue" x1="134.92" x2="122.49" y1="340.14" y2="340.14" /><line stroke="blue" x1="135.77" x2="134.92" y1="345.8" y2="340.14" /><line stroke="blue" x1="134.92" x2="135.77" y1="348.64" y2="345.8" /><line stroke="blue" x1="140.59" x2="134.92" y1="348.64" y2="348.64" /><line stroke="blue" x1="151.21" x2="140.59" y1="369.9" y2="348.64" /><line stroke="blue" x1="150.08" x2="151.21" y1="369.9" y2="369.9" /><line stroke="blue" x1="160.7" x2="150.08" y1="391.16" y2="369.9" /><line stroke="blue" x1="134.4" x2="143.54" y1="386.09" y2="387.35" /><line stroke="blue" x1="128.85" x2="134.4" y1="374.97" y2="386.09" /><line stroke="blue" x1="136.72" x2="128.85" y1="373.7" y2="374.97" /><line stroke="blue" x1="38.2" x2="159.85" y1="391.16" y2="391.16" /><line stroke="blue" x1="39.05" x2="38.2" y1="393.99" y2="391.16" /><line stroke="blue" x1="38.2" x2="39.05" y1="399.66" y2="393.99" /><line stroke="blue" x1="25.78" x2="38.2" y1="399.66" y2="399.66" /><line stroke="blue" x1="24.93" x2="25.78" y1="393.99" y2="399.66" /><line stroke="blue" x1="25.78" x2="24.93" y1="391.16" y2="393.99" /><line stroke="blue" x1="20.11" x2="25.78" y1="391.16" y2="391.16" /><line stroke="blue" x1="9.49" x2="20.11" y1="369.9" y2="391.16" /><line stroke="blue" x1="10.62" x2="9.49" y1="369.9" y2="369.9" /><line stroke="blue" x1="0.0" x2="10.62" y1="348.64" y2="369.9" /><line stroke="blue" x1="170.15" x2="161.01" y1="353.71" y2="352.44" /><line stroke="blue" x1="175.7" x2="170.15" y1="364.83" y2="353.71" /><line stroke="blue" x1="167.83" x2="175.7" y1="366.09" y2="364.83" /><line stroke="blue" x1="266.34" x2="144.7" y1="348.64" y2="348.64" /><line stroke="blue" x1="265.49" x2="266.34" y1="345.8" y2="348.64" /><line stroke="blue" x1="266.34" x2="265.49" y1="340.14" y2="345.8" /><line stroke="blue" x1="278.77" x2="266.34" y1="340.14" y2="340.14" /><line stroke="blue" x1="279.62" x2="278.77" y1="345.8" y2="340.14" /><line stroke="blue" x1="278.77" x2="279.62" y1="348.64" y2="345.8" /><line stroke="blue" x1="284.44" x2="278.77" y1="348.64" y2="348.64" /><line stroke="blue" x1="295.06" x2="284.44" y1="369.9" y2="348.64" /><line stroke="blue" x1="293.93" x2="295.06" y1="369.9" y2="369.9" /><line stroke="blue" x1="304.55" x2="293.93" y1="391.16" y2="369.9" /><line stroke="blue" x1="278.25" x2="287.39" y1="386.09" y2="387.35" /><line stroke="blue" x1="272.7" x2="278.25" y1="374.97" y2="386.09" /><line stroke="blue" x1="280.57" x2="272.7" y1="373.7" y2="374.97" /><line stroke="blue" x1="182.05" x2="303.7" y1="391.16" y2="391.16" /><line stroke="blue" x1="182.9" x2="182.05" y1="393.99" y2="391.16" /><line stroke="blue" x1="182.05" x2="182.9" y1="399.66" y2="393.99" /><line stroke="blue" x1="169.63" x2="182.05" y1="399.66" y2="399.66" /><line stroke="blue" x1="168.78" x2="169.63" y1="393.99" y2="399.66" /><line stroke="blue" x1="169.63" x2="168.78" y1="391.16" y2="393.99" /><line stroke="blue" x1="163.96" x2="169.63" y1="391.16" y2="391.16" /><line stroke="blue" x1="153.34" x2="163.96" y1="369.9" y2="391.16" /><line stroke="blue" x1="154.47" x2="153.34" y1="369.9" y2="369.9" /><line stroke="blue" x1="143.85" x2="154.47" y1="348.64" y2="369.9" /><line stroke="blue" x1="314.0" x2="304.86" y1="353.71" y2="352.44" /><line stroke="blue" x1="319.55" x2="314.0" y1="364.83" y2="353.71" /><line stroke="blue" x1="311.68" x2="319.55" y1="366.09" y2="364.83" /><line stroke="blue" x1="410.19" x2="288.55" y1="348.64" y2="348.64" /><line stroke="blue" x1="409.34" x2="410.19" y1="345.8" y2="348.64" /><line stroke="blue" x1="410.19" x2="409.34" y1="340.14" y2="345.8" /><line stroke="blue" x1="422.62" x2="410.19" y1="340.14" y2="340.14" /><line stroke="blue" x1="423.47" x2="422.62" y1="345.8" y2="340.14" /><line stroke="blue" x1="422.62" x2="423.47" y1="348.64" y2="345.8" /><line stroke="blue" x1="428.29" x2="422.62" y1="348.64" y2="348.64" /><line stroke="blue" x1="438.91" x2="428.29" y1="369.9" y2="348.64" /><line stroke="blue" x1="437.78" x2="438.91" y1="369.9" y2="369.9" /><line stroke="blue" x1="448.4" x2="437.78" y1="391.16" y2="369.9" /><line stroke="blue" x1="422.1" x2="431.24" y1="386.09" y2="387.35" /><line stroke="blue" x1="416.54" x2="422.1" y1="374.97" y2="386.09" /><line stroke="blue" x1="424.41" x2="416.54" y1="373.7" y2="374.97" /><line stroke="blue" x1="325.9" x2="447.55" y1="391.16" y2="391.16" /><line stroke="blue" x1="326.75" x2="325.9" y1="393.99" y2="391.16" /><line stroke="blue" x1="325.9" x2="326.75" y1="399.66" y2="393.99" /><line stroke="blue" x1="313.48" x2="325.9" y1="399.66" y2="399.66" /><line stroke="blue" x1="312.62" x2="313.48" y1="393.99" y2="399.66" /><line stroke="blue" x1="313.48" x2="312.62" y1="391.16" y2="393.99" /><line stroke="blue" x1="307.81" x2="313.48" y1="391.16" y2="391.16" /><line stroke="blue" x1="297.19" x2="307.81" y1="369.9" y2="391.16" /><line stroke="blue" x1="298.32" x2="297.19" y1="369.9" y2="369.9" /><line stroke="blue" x1="287.7" x2="298.32" y1="348.64" y2="369.9" /></g><g id="scorelines"><line stroke="red" x1="18.1" x2="5.67" y1="51.02" y2="51.02" /><line stroke="red" x1="136.05" x2="123.63" y1="8.5" y2="8.5" /><line stroke="red" x1="10.62" x2="152.34" y1="29.76" y2="29.76" /><line stroke="red" x1="161.94" x2="149.52" y1="51.02" y2="51.02" /><line stroke="red" x1="279.9" x2="267.48" y1="8.5" y2="8.5" /><line stroke="red" x1="154.47" x2="296.19" y1="29.76" y2="29.76" /><line stroke="red" x1="305.79" x2="293.37" y1="51.02" y2="51.02" /><line stroke="red" x1="423.75" x2="411.33" y1="8.5" y2="8.5" /><line stroke="red" x1="298.32" x2="440.04" y1="29.76" y2="29.76" /><line stroke="red" x1="449.64" x2="437.22" y1="51.02" y2="51.02" /><line stroke="red" x1="567.6" x2="555.18" y1="8.5" y2="8.5" /><line stroke="red" x1="442.17" x2="583.89" y1="29.76" y2="29.76" /><line stroke="red" x1="18.1" x2="5.67" y1="103.46" y2="103.46" /><line stroke="red" x1="136.05" x2="123.63" y1="60.94" y2="60.94" /><line stroke="red" x1="10.62" x2="152.34" y1="82.2" y2="82.2" /><line stroke="red" x1="161.94" x2="149.52" y1="103.46" y2="103.46" /><line stroke="red" x1="279.9" x2="267.48" y1="60.94" y2="60.94" /><line stroke="red" x1="154.47" x2="296.19" y1="82.2" y2="82.2" /><line stroke="red" x1="305.79" x2="293.37" y1="103.46" y2="103.46" /><line stroke="red" x1="423.75" x2="411.33" y1="60.94" y2="60.94" /><line stroke="red" x1="298.32" x2="440.04" y1="82.2" y2="82.2" /><line stroke="red" x1="449.64" x2="437.22" y1="103.46" y2="103.46" /><line stroke="red" x1="567.6" x2="555.18" y1="60.94" y2="60.94" /><line stroke="red" x1="442.17" x2="583.89" y1="82.2" y2="82.2" /><line stroke="red" x1="18.1" x2="5.67" y1="155.9" y2="155.9" /><line stroke="red" x1="136.05" x2="123.63" y1="113.38" y2="113.38" /><line stroke="red" x1="10.62" x2="152.34" y1="134.64" y2="134.64" /><line stroke="red" x1="161.94" x2="149.52" y1="155.9" y2="155.9" /><line stroke="red" x1="279.9" x2="267.48" y1="113.38" y2="113.38" /><line stroke="red" x1="154.47" x2="296.19" y1="134.64" y2="134.64" /><line stroke="red" x1="305.79" x2="293.37" y1="155.9" y2="155.9" /><line stroke="red" x1="423.75" x2="411.33" y1="113.38" y2="113.38" /><line stroke="red" x1="298.32" x2="440.04" y1="134.64" y2="134.64" /><line stroke="red" x1="449.64" x2="437.22" y1="155.9" y2="155.9" /><line stroke="red" x1="567.6" x2="555.18" y1="113.38" y2="113.38" /><line stroke="red" x1="442.17" x2="583.89" y1="134.64" y2="134.64" /><line stroke="red" x1="18.1" x2="5.67" y1="221.09" y2="221.09" /><line stroke="red" x1="144.87" x2="157.3" y1="178.57" y2="178.57" /><line stroke="red" x1="10.62" x2="152.34" y1="199.83" y2="199.83" /><line stroke="red" x1="161.94" x2="149.52" y1="221.09" y2="221.09" /><line stroke="red" x1="288.72" x2="301.15" y1="178.57" y2="178.57" /><line stroke="red" x1="154.47" x2="296.19" y1="199.83" y2="199.83" /><line stroke="red" x1="305.79" x2="293.37" y1="221.09" y2="221.09" /><line stroke="red" x1="432.57" x2="444.99" y1="178.57" y2="178.57" /><line stroke="red" x1="298.32" x2="440.04" y1="199.83" y2="199.83" /><line stroke="red" x1="18.1" x2="5.67" y1="273.53" y2="273.53" /><line stroke="red" x1="144.87" x2="157.3" y1="231.01" y2="231.01" /><line stroke="red" x1="10.62" x2="152.34" y1="252.27" y2="252.27" /><line stroke="red" x1="161.94" x2="149.52" y1="273.53" y2="273.53" /><line stroke="red" x1="288.72" x2="301.15" y1="231.01" y2="231.01" /><line stroke="red" x1="154.47" x2="296.19" y1="252.27" y2="252.27" /><line stroke="red" x1="305.79" x2="293.37" y1="273.53" y2="273.53" /><line stroke="red" x1="432.57" x2="444.99" y1="231.01" y2="231.01" /><line stroke="red" x1="298.32" x2="440.04" y1="252.27" y2="252.27" /><line stroke="red" x1="38.2" x2="25.78" y1="338.72" y2="338.72" /><line stroke="red" x1="122.49" x2="134.92" y1="296.2" y2="296.2" /><line stroke="red" x1="9.49" x2="151.21" y1="317.46" y2="317.46" /><line stroke="red" x1="182.05" x2="169.63" y1="338.72" y2="338.72" /><line stroke="red" x1="266.34" x2="278.77" y1="296.2" y2="296.2" /><line stroke="red" x1="153.34" x2="295.06" y1="317.46" y2="317.46" /><line stroke="red" x1="325.9" x2="313.48" y1="338.72" y2="338.72" /><line stroke="red" x1="410.19" x2="422.62" y1="296.2" y2="296.2" /><line stroke="red" x1="297.19" x2="438.91" y1="317.46" y2="317.46" /><line stroke="red" x1="38.2" x2="25.78" y1="391.16" y2="391.16" /><line stroke="red" x1="122.49" x2="134.92" y1="348.64" y2="348.64" /><line stroke="red" x1="9.49" x2="151.21" y1="369.9" y2="369.9" /><line stroke="red" x1="182.05" x2="169.63" y1="391.16" y2="391.16" /><line stroke="red" x1="266.34" x2="278.77" y1="348.64" y2="348.64" /><line stroke="red" x1="153.34" x2="295.06" y1="369.9" y2="369.9" /><line stroke="red" x1="325.9" x2="313.48" y1="391.16" y2="391.16" /><line stroke="red" x1="410.19" x2="422.62" y1="348.64" y2="348.64" /><line stroke="red" x1="297.19" x2="438.91" y1="369.9" y2="369.9" /></g></svg>