<?xml version="1.0" encoding="utf-8" ?>
<svg baseProfile="full" height="4.8cm" version="1.1" width="18.6cm" xmlns="http://www.w3.org/2000/svg" xmlns:ev="http://www.w3.org/2001/xml-events" xmlns:xlink="http://www.w3.org/1999/xlink"><defs /><g id="cutlines"><line stroke="blue" x1="138.95" x2="144.62" y1="127.18" y2="127.18" /><line stroke="blue" x1="133.22" x2="139.66" y1="137.1" y2="126.47" /><line stroke="blue" x1="112.73" x2="133.22" y1="137.1" y2="137.1" /><line stroke="blue" x1="113.44" x2="112.73" y1="130.01" y2="137.1" /><line stroke="blue" x1="116.98" x2="113.44" y1="126.47" y2="130.01" /><line stroke="blue" x1="74.04" x2="116.27" y1="127.18" y2="127.18" /><line stroke="blue" x1="74.07" x2="74.04" y1="129.66" y2="126.47" /><line stroke="blue" x1="72.34" x2="74.07" y1="132.14" y2="129.66" /><line stroke="blue" x1="27.69" x2="71.49" y1="137.1" y2="132.14" /><line stroke="blue" x1="28.4" x2="27.69" y1="130.01" y2="137.1" /><line stroke="blue" x1="31.95" x2="28.4" y1="126.47" y2="130.01" /><line stroke="blue" x1="2.89" x2="31.24" y1="127.18" y2="127.18" /><line stroke="blue" x1="5.73" x2="2.89" y1="122.27" y2="127.18" /><line stroke="blue" x1="0.0" x2="5.99" y1="112.35" y2="123.23" /><line stroke="blue" x1="10.25" x2="0.0" y1="94.6" y2="112.35" /><line stroke="blue" x1="16.03" x2="10.25" y1="98.76" y2="94.6" /><line stroke="blue" x1="17.32" x2="16.03" y1="103.6" y2="98.76" /><line stroke="blue" x1="38.18" x2="17.07" y1="66.05" y2="102.63" /><line stroke="blue" x1="36.02" x2="38.8" y1="64.84" y2="66.41" /><line stroke="blue" x1="34.74" x2="36.02" y1="62.1" y2="64.84" /><line stroke="blue" x1="52.76" x2="35.16" y1="20.96" y2="61.36" /><line stroke="blue" x1="58.55" x2="52.76" y1="25.11" y2="20.96" /><line stroke="blue" x1="59.84" x2="58.55" y1="29.95" y2="25.11" /><line stroke="blue" x1="73.75" x2="59.58" y1="4.44" y2="28.99" /><line stroke="blue" x1="76.59" x2="73.75" y1="9.35" y2="4.44" /><line stroke="blue" x1="88.04" x2="75.62" y1="9.35" y2="9.09" /><line stroke="blue" x1="98.29" x2="88.04" y1="27.09" y2="9.35" /><line stroke="blue" x1="91.8" x2="98.29" y1="30.02" y2="27.09" /><line stroke="blue" x1="86.96" x2="91.8" y1="28.73" y2="30.02" /><line stroke="blue" x1="109.04" x2="87.93" y1="65.56" y2="28.99" /><line stroke="blue" x1="111.18" x2="108.43" y1="64.3" y2="65.92" /><line stroke="blue" x1="114.19" x2="111.18" y1="64.55" y2="64.3" /><line stroke="blue" x1="140.81" x2="114.62" y1="100.74" y2="65.29" /><line stroke="blue" x1="134.32" x2="140.81" y1="103.67" y2="100.74" /><line stroke="blue" x1="129.48" x2="134.32" y1="102.37" y2="103.67" /><line stroke="blue" x1="144.62" x2="130.44" y1="127.18" y2="102.63" /><line stroke="blue" x1="97.85" x2="92.18" y1="9.92" y2="9.92" /><line stroke="blue" x1="103.58" x2="97.14" y1="0.0" y2="10.63" /><line stroke="blue" x1="124.07" x2="103.58" y1="0.0" y2="0.0" /><line stroke="blue" x1="123.36" x2="124.07" y1="7.09" y2="0.0" /><line stroke="blue" x1="119.81" x2="123.36" y1="10.63" y2="7.09" /><line stroke="blue" x1="162.76" x2="120.52" y1="9.92" y2="9.92" /><line stroke="blue" x1="162.73" x2="162.76" y1="7.44" y2="10.63" /><line stroke="blue" x1="164.46" x2="162.73" y1="4.96" y2="7.44" /><line stroke="blue" x1="209.1" x2="165.31" y1="0.0" y2="4.96" /><line stroke="blue" x1="208.39" x2="209.1" y1="7.09" y2="0.0" /><line stroke="blue" x1="204.85" x2="208.39" y1="10.63" y2="7.09" /><line stroke="blue" x1="233.9" x2="205.56" y1="9.92" y2="9.92" /><line stroke="blue" x1="231.07" x2="233.9" y1="14.83" y2="9.92" /><line stroke="blue" x1="236.8" x2="230.81" y1="24.75" y2="13.86" /><line stroke="blue" x1="226.55" x2="236.8" y1="42.5" y2="24.75" /><line stroke="blue" x1="220.77" x2="226.55" y1="38.34" y2="42.5" /><line stroke="blue" x1="219.47" x2="220.77" y1="33.5" y2="38.34" /><line stroke="blue" x1="198.61" x2="219.73" y1="71.04" y2="34.47" /><line stroke="blue" x1="200.78" x2="198.0" y1="72.26" y2="70.69" /><line stroke="blue" x1="202.06" x2="200.78" y1="75.0" y2="72.26" /><line stroke="blue" x1="184.03" x2="201.63" y1="116.14" y2="75.73" /><line stroke="blue" x1="178.25" x2="184.03" y1="111.98" y2="116.14" /><line stroke="blue" x1="176.95" x2="178.25" y1="107.14" y2="111.98" /><line stroke="blue" x1="163.04" x2="177.21" y1="132.66" y2="108.11" /><line stroke="blue" x1="160.21" x2="163.04" y1="127.75" y2="132.66" /><line stroke="blue" x1="148.75" x2="161.17" y1="127.75" y2="128.01" /><line stroke="blue" x1="138.51" x2="148.75" y1="110.0" y2="127.75" /><line stroke="blue" x1="145.0" x2="138.51" y1="107.07" y2="110.0" /><line stroke="blue" x1="149.84" x2="145.0" y1="108.37" y2="107.07" /><line stroke="blue" x1="127.75" x2="148.87" y1="71.53" y2="108.11" /><line stroke="blue" x1="125.62" x2="128.37" y1="72.8" y2="71.18" /><line stroke="blue" x1="122.61" x2="125.62" y1="72.54" y2="72.8" /><line stroke="blue" x1="95.99" x2="122.18" y1="36.36" y2="71.81" /><line stroke="blue" x1="102.48" x2="95.99" y1="33.43" y2="36.36" /><line stroke="blue" x1="107.32" x2="102.48" y1="34.73" y2="33.43" /><line stroke="blue" x1="92.18" x2="106.35" y1="9.92" y2="34.47" /><line stroke="blue" x1="330.27" x2="335.94" y1="127.18" y2="127.18" /><line stroke="blue" x1="324.55" x2="330.98" y1="137.1" y2="126.47" /><line stroke="blue" x1="304.06" x2="324.55" y1="137.1" y2="137.1" /><line stroke="blue" x1="304.76" x2="304.06" y1="130.01" y2="137.1" /><line stroke="blue" x1="308.31" x2="304.76" y1="126.47" y2="130.01" /><line stroke="blue" x1="265.36" x2="307.6" y1="127.18" y2="127.18" /><line stroke="blue" x1="265.39" x2="265.36" y1="129.66" y2="126.47" /><line stroke="blue" x1="263.66" x2="265.39" y1="132.14" y2="129.66" /><line stroke="blue" x1="219.02" x2="262.81" y1="137.1" y2="132.14" /><line stroke="blue" x1="219.73" x2="219.02" y1="130.01" y2="137.1" /><line stroke="blue" x1="223.27" x2="219.73" y1="126.47" y2="130.01" /><line stroke="blue" x1="194.22" x2="222.56" y1="127.18" y2="127.18" /><line stroke="blue" x1="197.05" x2="194.22" y1="122.27" y2="127.18" /><line stroke="blue" x1="191.33" x2="197.31" y1="112.35" y2="123.23" /><line stroke="blue" x1="201.57" x2="191.33" y1="94.6" y2="112.35" /><line stroke="blue" x1="207.35" x2="201.57" y1="98.76" y2="94.6" /><line stroke="blue" x1="208.65" x2="207.35" y1="103.6" y2="98.76" /><line stroke="blue" x1="229.51" x2="208.39" y1="66.05" y2="102.63" /><line stroke="blue" x1="227.35" x2="230.12" y1="64.84" y2="66.41" /><line stroke="blue" x1="226.06" x2="227.35" y1="62.1" y2="64.84" /><line stroke="blue" x1="244.09" x2="226.49" y1="20.96" y2="61.36" /><line stroke="blue" x1="249.87" x2="244.09" y1="25.11" y2="20.96" /><line stroke="blue" x1="251.17" x2="249.87" y1="29.95" y2="25.11" /><line stroke="blue" x1="265.08" x2="250.91" y1="4.44" y2="28.99" /><line stroke="blue" x1="267.92" x2="265.08" y1="9.35" y2="4.44" /><line stroke="blue" x1="279.37" x2="266.95" y1="9.35" y2="9.09" /><line stroke="blue" x1="289.62" x2="279.37" y1="27.09" y2="9.35" /><line stroke="blue" x1="283.13" x2="289.62" y1="30.02" y2="27.09" /><line stroke="blue" x1="278.29" x2="283.13" y1="28.73" y2="30.02" /><line stroke="blue" x1="300.37" x2="279.25" y1="65.56" y2="28.99" /><line stroke="blue" x1="302.5" x2="299.76" y1="64.3" y2="65.92" /><line stroke="blue" x1="305.52" x2="302.5" y1="64.55" y2="64.3" /><line stroke="blue" x1="332.13" x2="305.94" y1="100.74" y2="65.29" /><line stroke="blue" x1="325.64" x2="332.13" y1="103.67" y2="100.74" /><line stroke="blue" x1="320.8" x2="325.64" y1="102.37" y2="103.67" /><line stroke="blue" x1="335.94" x2="321.77" y1="127.18" y2="102.63" /><line stroke="blue" x1="289.17" x2="283.51" y1="9.92" y2="9.92" /><line stroke="blue" x1="294.9" x2="288.47" y1="0.0" y2="10.63" /><line stroke="blue" x1="315.39" x2="294.9" y1="0.0" y2="0.0" /><line stroke="blue" x1="314.68" x2="315.39" y1="7.09" y2="0.0" /><line stroke="blue" x1="311.14" x2="314.68" y1="10.63" y2="7.09" /><line stroke="blue" x1="354.08" x2="311.85" y1="9.92" y2="9.92" /><line stroke="blue" x1="354.06" x2="354.08" y1="7.44" y2="10.63" /><line stroke="blue" x1="355.78" x2="354.06" y1="4.96" y2="7.44" /><line stroke="blue" x1="400.43" x2="356.63" y1="0.0" y2="4.96" /><line stroke="blue" x1="399.72" x2="400.43" y1="7.09" y2="0.0" /><line stroke="blue" x1="396.18" x2="399.72" y1="10.63" y2="7.09" /><line stroke="blue" x1="425.23" x2="396.88" y1="9.92" y2="9.92" /><line stroke="blue" x1="422.39" x2="425.23" y1="14.83" y2="9.92" /><line stroke="blue" x1="428.12" x2="422.13" y1="24.75" y2="13.86" /><line stroke="blue" x1="417.88" x2="428.12" y1="42.5" y2="24.75" /><line stroke="blue" x1="412.09" x2="417.88" y1="38.34" y2="42.5" /><line stroke="blue" x1="410.8" x2="412.09" y1="33.5" y2="38.34" /><line stroke="blue" x1="389.94" x2="411.06" y1="71.04" y2="34.47" /><line stroke="blue" x1="392.1" x2="389.33" y1="72.26" y2="70.69" /><line stroke="blue" x1="393.39" x2="392.1" y1="75.0" y2="72.26" /><line stroke="blue" x1="375.36" x2="392.96" y1="116.14" y2="75.73" /><line stroke="blue" x1="369.58" x2="375.36" y1="111.98" y2="116.14" /><line stroke="blue" x1="368.28" x2="369.58" y1="107.14" y2="111.98" /><line stroke="blue" x1="354.37" x2="368.54" y1="132.66" y2="108.11" /><line stroke="blue" x1="351.53" x2="354.37" y1="127.75" y2="132.66" /><line stroke="blue" x1="340.08" x2="352.5" y1="127.75" y2="128.01" /><line stroke="blue" x1="329.83" x2="340.08" y1="110.0" y2="127.75" /><line stroke="blue" x1="336.32" x2="329.83" y1="107.07" y2="110.0" /><line stroke="blue" x1="341.16" x2="336.32" y1="108.37" y2="107.07" /><line stroke="blue" x1="319.08" x2="340.19" y1="71.53" y2="108.11" /><line stroke="blue" x1="316.94" x2="319.69" y1="72.8" y2="71.18" /><line stroke="blue" x1="313.93" x2="316.94" y1="72.54" y2="72.8" /><line stroke="blue" x1="287.31" x2="313.51" y1="36.36" y2="71.81" /><line stroke="blue" x1="293.81" x2="287.31" y1="33.43" y2="36.36" /><line stroke="blue" x1="298.65" x2="293.81" y1="34.73" y2="33.43" /><line stroke="blue" x1="283.51" x2="297.68" y1="9.92" y2="34.47" /><line stroke="blue" x1="521.6" x2="527.27" y1="127.18" y2="127.18" /><line stroke="blue" x1="515.87" x2="522.31" y1="137.1" y2="126.47" /><line stroke="blue" x1="495.38" x2="515.87" y1="137.1" y2="137.1" /><line stroke="blue" x1="496.09" x2="495.38" y1="130.01" y2="137.1" /><line stroke="blue" x1="499.63" x2="496.09" y1="126.47" y2="130.01" /><line stroke="blue" x1="456.69" x2="498.92" y1="127.18" y2="127.18" /><line stroke="blue" x1="456.72" x2="456.69" y1="129.66" y2="126.47" /><line stroke="blue" x1="454.99" x2="456.72" y1="132.14" y2="129.66" /><line stroke="blue" x1="410.35" x2="454.14" y1="137.1" y2="132.14" /><line stroke="blue" x1="411.06" x2="410.35" y1="130.01" y2="137.1" /><line stroke="blue" x1="414.6" x2="411.06" y1="126.47" y2="130.01" /><line stroke="blue" x1="385.55" x2="413.89" y1="127.18" y2="127.18" /><line stroke="blue" x1="388.38" x2="385.55" y1="122.27" y2="127.18" /><line stroke="blue" x1="382.65" x2="388.64" y1="112.35" y2="123.23" /><line stroke="blue" x1="392.9" x2="382.65" y1="94.6" y2="112.35" /><line stroke="blue" x1="398.68" x2="392.9" y1="98.76" y2="94.6" /><line stroke="blue" x1="399.98" x2="398.68" y1="103.6" y2="98.76" /><line stroke="blue" x1="420.84" x2="399.72" y1="66.05" y2="102.63" /><line stroke="blue" x1="418.67" x2="421.45" y1="64.84" y2="66.41" /><line stroke="blue" x1="417.39" x2="418.67" y1="62.1" y2="64.84" /><line stroke="blue" x1="435.42" x2="417.82" y1="20.96" y2="61.36" /><line stroke="blue" x1="441.2" x2="435.42" y1="25.11" y2="20.96" /><line stroke="blue" x1="442.49" x2="441.2" y1="29.95" y2="25.11" /><line stroke="blue" x1="456.41" x2="442.24" y1="4.44" y2="28.99" /><line stroke="blue" x1="459.24" x2="456.41" y1="9.35" y2="4.44" /><line stroke="blue" x1="470.7" x2="458.27" y1="9.35" y2="9.09" /><line stroke="blue" x1="480.94" x2="470.7" y1="27.09" y2="9.35" /><line stroke="blue" x1="474.45" x2="480.94" y1="30.02" y2="27.09" /><line stroke="blue" x1="469.61" x2="474.45" y1="28.73" y2="30.02" /><line stroke="blue" x1="491.7" x2="470.58" y1="65.56" y2="28.99" /><line stroke="blue" x1="493.83" x2="491.08" y1="64.3" y2="65.92" /><line stroke="blue" x1="496.84" x2="493.83" y1="64.55" y2="64.3" /><line stroke="blue" x1="523.46" x2="497.27" y1="100.74" y2="65.29" /><line stroke="blue" x1="516.97" x2="523.46" y1="103.67" y2="100.74" /><line stroke="blue" x1="512.13" x2="516.97" y1="102.37" y2="103.67" /><line stroke="blue" x1="527.27" x2="513.1" y1="127.18" y2="102.63" /></g><g id="scorelines"><line stroke="red" x1="118.82" x2="138.95" y1="126.47" y2="126.47" /><line stroke="red" x1="33.79" x2="70.92" y1="126.47" y2="126.47" /><line stroke="red" x1="16.4" x2="6.34" y1="105.19" y2="122.62" /><line stroke="red" x1="58.92" x2="40.35" y1="31.55" y2="63.71" /><line stroke="red" x1="86.04" x2="75.98" y1="27.13" y2="9.7" /><line stroke="red" x1="128.56" x2="109.99" y1="100.77" y2="68.62" /><line stroke="red" x1="117.97" x2="97.85" y1="10.63" y2="10.63" /><line stroke="red" x1="203.01" x2="165.88" y1="10.63" y2="10.63" /><line stroke="red" x1="220.39" x2="230.45" y1="31.9" y2="14.48" /><line stroke="red" x1="177.87" x2="196.44" y1="105.55" y2="73.39" /><line stroke="red" x1="150.76" x2="160.82" y1="109.96" y2="127.39" /><line stroke="red" x1="108.24" x2="126.81" y1="36.32" y2="68.48" /><line stroke="red" x1="310.15" x2="330.27" y1="126.47" y2="126.47" /><line stroke="red" x1="225.12" x2="262.25" y1="126.47" y2="126.47" /><line stroke="red" x1="207.73" x2="197.67" y1="105.19" y2="122.62" /><line stroke="red" x1="250.25" x2="231.68" y1="31.55" y2="63.71" /><line stroke="red" x1="277.36" x2="267.3" y1="27.13" y2="9.7" /><line stroke="red" x1="319.88" x2="301.32" y1="100.77" y2="68.62" /><line stroke="red" x1="309.3" x2="289.17" y1="10.63" y2="10.63" /><line stroke="red" x1="394.33" x2="357.2" y1="10.63" y2="10.63" /><line stroke="red" x1="411.72" x2="421.78" y1="31.9" y2="14.48" /><line stroke="red" x1="369.2" x2="387.77" y1="105.55" y2="73.39" /><line stroke="red" x1="342.08" x2="352.15" y1="109.96" y2="127.39" /><line stroke="red" x1="299.57" x2="318.13" y1="36.32" y2="68.48" /><line stroke="red" x1="501.48" x2="521.6" y1="126.47" y2="126.47" /><line stroke="red" x1="416.44" x2="453.57" y1="126.47" y2="126.47" /><line stroke="red" x1="399.06" x2="388.99" y1="105.19" y2="122.62" /><line stroke="red" x1="441.57" x2="423.01" y1="31.55" y2="63.71" /><line stroke="red" x1="468.69" x2="458.63" y1="27.13" y2="9.7" /><line stroke="red" x1="511.21" x2="492.64" y1="100.77" y2="68.62" /></g></svg>