<?xml version="1.0" encoding="utf-8" ?>
<svg baseProfile="full" height="11.3cm" version="1.1" width="20.4cm" xmlns="http://www.w3.org/2000/svg" xmlns:ev="http://www.w3.org/2001/xml-events" xmlns:xlink="http://www.w3.org/1999/xlink"><defs /><g id="cutlines"><line stroke="blue" x1="29.31" x2="21.28" y1="13.85" y2="12.51" /><line stroke="blue" x1="25.57" x2="29.31" y1="24.42" y2="13.85" /><line stroke="blue" x1="16.6" x2="25.57" y1="25.75" y2="24.42" /><line stroke="blue" x1="132.36" x2="9.5" y1="8.5" y2="8.5" /><line stroke="blue" x1="131.51" x2="132.36" y1="5.67" y2="8.5" /><line stroke="blue" x1="132.36" x2="131.51" y1="0.0" y2="5.67" /><line stroke="blue" x1="143.57" x2="132.36" y1="0.0" y2="0.0" /><line stroke="blue" x1="144.42" x2="143.57" y1="5.67" y2="0.0" /><line stroke="blue" x1="143.57" x2="144.42" y1="8.5" y2="5.67" /><line stroke="blue" x1="149.24" x2="143.57" y1="8.5" y2="8.5" /><line stroke="blue" x1="141.72" x2="149.24" y1="29.76" y2="8.5" /><line stroke="blue" x1="140.59" x2="141.72" y1="29.76" y2="29.76" /><line stroke="blue" x1="148.11" x2="140.59" y1="51.02" y2="29.76" /><line stroke="blue" x1="123.67" x2="132.64" y1="45.68" y2="47.01" /><line stroke="blue" x1="119.93" x2="123.67" y1="35.11" y2="45.68" /><line stroke="blue" x1="127.96" x2="119.93" y1="33.77" y2="35.11" /><line stroke="blue" x1="24.39" x2="147.25" y1="51.02" y2="51.02" /><line stroke="blue" x1="25.24" x2="24.39" y1="53.85" y2="51.02" /><line stroke="blue" x1="24.39" x2="25.24" y1="59.52" y2="53.85" /><line stroke="blue" x1="13.18" x2="24.39" y1="59.52" y2="59.52" /><line stroke="blue" x1="12.33" x2="13.18" y1="53.85" y2="59.52" /><line stroke="blue" x1="13.18" x2="12.33" y1="51.02" y2="53.85" /><line stroke="blue" x1="7.52" x2="13.18" y1="51.02" y2="51.02" /><line stroke="blue" x1="0.0" x2="7.52" y1="29.76" y2="51.02" /><line stroke="blue" x1="1.13" x2="0.0" y1="29.76" y2="29.76" /><line stroke="blue" x1="8.65" x2="1.13" y1="8.5" y2="29.76" /><line stroke="blue" x1="172.45" x2="164.42" y1="13.85" y2="12.51" /><line stroke="blue" x1="168.71" x2="172.45" y1="24.42" y2="13.85" /><line stroke="blue" x1="159.74" x2="168.71" y1="25.75" y2="24.42" /><line stroke="blue" x1="275.5" x2="152.64" y1="8.5" y2="8.5" /><line stroke="blue" x1="274.65" x2="275.5" y1="5.67" y2="8.5" /><line stroke="blue" x1="275.5" x2="274.65" y1="0.0" y2="5.67" /><line stroke="blue" x1="286.71" x2="275.5" y1="0.0" y2="0.0" /><line stroke="blue" x1="287.56" x2="286.71" y1="5.67" y2="0.0" /><line stroke="blue" x1="286.71" x2="287.56" y1="8.5" y2="5.67" /><line stroke="blue" x1="292.38" x2="286.71" y1="8.5" y2="8.5" /><line stroke="blue" x1="284.86" x2="292.38" y1="29.76" y2="8.5" /><line stroke="blue" x1="283.73" x2="284.86" y1="29.76" y2="29.76" /><line stroke="blue" x1="291.25" x2="283.73" y1="51.02" y2="29.76" /><line stroke="blue" x1="266.81" x2="275.78" y1="45.68" y2="47.01" /><line stroke="blue" x1="263.07" x2="266.81" y1="35.11" y2="45.68" /><line stroke="blue" x1="271.1" x2="263.07" y1="33.77" y2="35.11" /><line stroke="blue" x1="167.54" x2="290.4" y1="51.02" y2="51.02" /><line stroke="blue" x1="168.39" x2="167.54" y1="53.85" y2="51.02" /><line stroke="blue" x1="167.54" x2="168.39" y1="59.52" y2="53.85" /><line stroke="blue" x1="156.33" x2="167.54" y1="59.52" y2="59.52" /><line stroke="blue" x1="155.47" x2="156.33" y1="53.85" y2="59.52" /><line stroke="blue" x1="156.33" x2="155.47" y1="51.02" y2="53.85" /><line stroke="blue" x1="150.66" x2="156.33" y1="51.02" y2="51.02" /><line stroke="blue" x1="143.14" x2="150.66" y1="29.76" y2="51.02" /><line stroke="blue" x1="144.27" x2="143.14" y1="29.76" y2="29.76" /><line stroke="blue" x1="151.79" x2="144.27" y1="8.5" y2="29.76" /><line stroke="blue" x1="315.59" x2="307.56" y1="13.85" y2="12.51" /><line stroke="blue" x1="311.85" x2="315.59" y1="24.42" y2="13.85" /><line stroke="blue" x1="302.88" x2="311.85" y1="25.75" y2="24.42" /><line stroke="blue" x1="418.64" x2="295.78" y1="8.5" y2="8.5" /><line stroke="blue" x1="417.79" x2="418.64" y1="5.67" y2="8.5" /><line stroke="blue" x1="418.64" x2="417.79" y1="0.0" y2="5.67" /><line stroke="blue" x1="429.85" x2="418.64" y1="0.0" y2="0.0" /><line stroke="blue" x1="430.7" x2="429.85" y1="5.67" y2="0.0" /><line stroke="blue" x1="429.85" x2="430.7" y1="8.5" y2="5.67" /><line stroke="blue" x1="435.52" x2="429.85" y1="8.5" y2="8.5" /><line stroke="blue" x1="428.0" x2="435.52" y1="29.76" y2="8.5" /><line stroke="blue" x1="426.87" x2="428.0" y1="29.76" y2="29.76" /><line stroke="blue" x1="434.39" x2="426.87" y1="51.02" y2="29.76" /><line stroke="blue" x1="409.95" x2="418.92" y1="45.68" y2="47.01" /><line stroke="blue" x1="406.21" x2="409.95" y1="35.11" y2="45.68" /><line stroke="blue" x1="414.24" x2="406.21" y1="33.77" y2="35.11" /><line stroke="blue" x1="310.68" x2="433.54" y1="51.02" y2="51.02" /><line stroke="blue" x1="311.53" x2="310.68" y1="53.85" y2="51.02" /><line stroke="blue" x1="310.68" x2="311.53" y1="59.52" y2="53.85" /><line stroke="blue" x1="299.47" x2="310.68" y1="59.52" y2="59.52" /><line stroke="blue" x1="298.62" x2="299.47" y1="53.85" y2="59.52" /><line stroke="blue" x1="299.47" x2="298.62" y1="51.02" y2="53.85" /><line stroke="blue" x1="293.8" x2="299.47" y1="51.02" y2="51.02" /><line stroke="blue" x1="286.28" x2="293.8" y1="29.76" y2="51.02" /><line stroke="blue" x1="287.41" x2="286.28" y1="29.76" y2="29.76" /><line stroke="blue" x1="294.93" x2="287.41" y1="8.5" y2="29.76" /><line stroke="blue" x1="458.73" x2="450.7" y1="13.85" y2="12.51" /><line stroke="blue" x1="454.99" x2="458.73" y1="24.42" y2="13.85" /><line stroke="blue" x1="446.02" x2="454.99" y1="25.75" y2="24.42" /><line stroke="blue" x1="561.78" x2="438.92" y1="8.5" y2="8.5" /><line stroke="blue" x1="560.93" x2="561.78" y1="5.67" y2="8.5" /><line stroke="blue" x1="561.78" x2="560.93" y1="0.0" y2="5.67" /><line stroke="blue" x1="572.99" x2="561.78" y1="0.0" y2="0.0" /><line stroke="blue" x1="573.84" x2="572.99" y1="5.67" y2="0.0" /><line stroke="blue" x1="572.99" x2="573.84" y1="8.5" y2="5.67" /><line stroke="blue" x1="578.66" x2="572.99" y1="8.5" y2="8.5" /><line stroke="blue" x1="571.15" x2="578.66" y1="29.76" y2="8.5" /><line stroke="blue" x1="570.01" x2="571.15" y1="29.76" y2="29.76" /><line stroke="blue" x1="577.53" x2="570.01" y1="51.02" y2="29.76" /><line stroke="blue" x1="553.09" x2="562.07" y1="45.68" y2="47.01" /><line stroke="blue" x1="549.35" x2="553.09" y1="35.11" y2="45.68" /><line stroke="blue" x1="557.38" x2="549.35" y1="33.77" y2="35.11" /><line stroke="blue" x1="453.82" x2="576.68" y1="51.02" y2="51.02" /><line stroke="blue" x1="454.67" x2="453.82" y1="53.85" y2="51.02" /><line stroke="blue" x1="453.82" x2="454.67" y1="59.52" y2="53.85" /><line stroke="blue" x1="442.61" x2="453.82" y1="59.52" y2="59.52" /><line stroke="blue" x1="441.76" x2="442.61" y1="53.85" y2="59.52" /><line stroke="blue" x1="442.61" x2="441.76" y1="51.02" y2="53.85" /><line stroke="blue" x1="436.94" x2="442.61" y1="51.02" y2="51.02" /><line stroke="blue" x1="429.42" x2="436.94" y1="29.76" y2="51.02" /><line stroke="blue" x1="430.56" x2="429.42" y1="29.76" y2="29.76" /><line stroke="blue" x1="438.07" x2="430.56" y1="8.5" y2="29.76" /><line stroke="blue" x1="29.31" x2="21.28" y1="66.29" y2="64.95" /><line stroke="blue" x1="25.57" x2="29.31" y1="76.85" y2="66.29" /><line stroke="blue" x1="16.6" x2="25.57" y1="78.19" y2="76.85" /><line stroke="blue" x1="132.36" x2="9.5" y1="60.94" y2="60.94" /><line stroke="blue" x1="131.51" x2="132.36" y1="58.11" y2="60.94" /><line stroke="blue" x1="132.36" x2="131.51" y1="52.44" y2="58.11" /><line stroke="blue" x1="143.57" x2="132.36" y1="52.44" y2="52.44" /><line stroke="blue" x1="144.42" x2="143.57" y1="58.11" y2="52.44" /><line stroke="blue" x1="143.57" x2="144.42" y1="60.94" y2="58.11" /><line stroke="blue" x1="149.24" x2="143.57" y1="60.94" y2="60.94" /><line stroke="blue" x1="141.72" x2="149.24" y1="82.2" y2="60.94" /><line stroke="blue" x1="140.59" x2="141.72" y1="82.2" y2="82.2" /><line stroke="blue" x1="148.11" x2="140.59" y1="103.46" y2="82.2" /><line stroke="blue" x1="123.67" x2="132.64" y1="98.11" y2="99.45" /><line stroke="blue" x1="119.93" x2="123.67" y1="87.54" y2="98.11" /><line stroke="blue" x1="127.96" x2="119.93" y1="86.21" y2="87.54" /><line stroke="blue" x1="24.39" x2="147.25" y1="103.46" y2="103.46" /><line stroke="blue" x1="25.24" x2="24.39" y1="106.29" y2="103.46" /><line stroke="blue" x1="24.39" x2="25.24" y1="111.96" y2="106.29" /><line stroke="blue" x1="13.18" x2="24.39" y1="111.96" y2="111.96" /><line stroke="blue" x1="12.33" x2="13.18" y1="106.29" y2="111.96" /><line stroke="blue" x1="13.18" x2="12.33" y1="103.46" y2="106.29" /><line stroke="blue" x1="7.52" x2="13.18" y1="103.46" y2="103.46" /><line stroke="blue" x1="0.0" x2="7.52" y1="82.2" y2="103.46" /><line stroke="blue" x1="1.13" x2="0.0" y1="82.2" y2="82.2" /><line stroke="blue" x1="8.65" x2="1.13" y1="60.94" y2="82.2" /><line stroke="blue" x1="172.45" x2="164.42" y1="66.29" y2="64.95" /><line stroke="blue" x1="168.71" x2="172.45" y1="76.85" y2="66.29" /><line stroke="blue" x1="159.74" x2="168.71" y1="78.19" y2="76.85" /><line stroke="blue" x1="275.5" x2="152.64" y1="60.94" y2="60.94" /><line stroke="blue" x1="274.65" x2="275.5" y1="58.11" y2="60.94" /><line stroke="blue" x1="275.5" x2="274.65" y1="52.44" y2="58.11" /><line stroke="blue" x1="286.71" x2="275.5" y1="52.44" y2="52.44" /><line stroke="blue" x1="287.56" x2="286.71" y1="58.11" y2="52.44" /><line stroke="blue" x1="286.71" x2="287.56" y1="60.94" y2="58.11" /><line stroke="blue" x1="292.38" x2="286.71" y1="60.94" y2="60.94" /><line stroke="blue" x1="284.86" x2="292.38" y1="82.2" y2="60.94" /><line stroke="blue" x1="283.73" x2="284.86" y1="82.2" y2="82.2" /><line stroke="blue" x1="291.25" x2="283.73" y1="103.46" y2="82.2" /><line stroke="blue" x1="266.81" x2="275.78" y1="98.11" y2="99.45" /><line stroke="blue" x1="263.07" x2="266.81" y1="87.54" y2="98.11" /><line stroke="blue" x1="271.1" x2="263.07" y1="86.21" y2="87.54" /><line stroke="blue" x1="167.54" x2="290.4" y1="103.46" y2="103.46" /><line stroke="blue" x1="168.39" x2="167.54" y1="106.29" y2="103.46" /><line stroke="blue" x1="167.54" x2="168.39" y1="111.96" y2="106.29" /><line stroke="blue" x1="156.33" x2="167.54" y1="111.96" y2="111.96" /><line stroke="blue" x1="155.47" x2="156.33" y1="106.29" y2="111.96" /><line stroke="blue" x1="156.33" x2="155.47" y1="103.46" y2="106.29" /><line stroke="blue" x1="150.66" x2="156.33" y1="103.46" y2="103.46" /><line stroke="blue" x1="143.14" x2="150.66" y1="82.2" y2="103.46" /><line stroke="blue" x1="144.27" x2="143.14" y1="82.2" y2="82.2" /><line stroke="blue" x1="151.79" x2="144.27" y1="60.94" y2="82.2" /><line stroke="blue" x1="315.59" x2="307.56" y1="66.29" y2="64.95" /><line stroke="blue" x1="311.85" x2="315.59" y1="76.85" y2="66.29" /><line stroke="blue" x1="302.88" x2="311.85" y1="78.19" y2="76.85" /><line stroke="blue" x1="418.64" x2="295.78" y1="60.94" y2="60.94" /><line stroke="blue" x1="417.79" x2="418.64" y1="58.11" y2="60.94" /><line stroke="blue" x1="418.64" x2="417.79" y1="52.44" y2="58.11" /><line stroke="blue" x1="429.85" x2="418.64" y1="52.44" y2="52.44" /><line stroke="blue" x1="430.7" x2="429.85" y1="58.11" y2="52.44" /><line stroke="blue" x1="429.85" x2="430.7" y1="60.94" y2="58.11" /><line stroke="blue" x1="435.52" x2="429.85" y1="60.94" y2="60.94" /><line stroke="blue" x1="428.0" x2="435.52" y1="82.2" y2="60.94" /><line stroke="blue" x1="426.87" x2="428.0" y1="82.2" y2="82.2" /><line stroke="blue" x1="434.39" x2="426.87" y1="103.46" y2="82.2" /><line stroke="blue" x1="409.95" x2="418.92" y1="98.11" y2="99.45" /><line stroke="blue" x1="406.21" x2="409.95" y1="87.54" y2="98.11" /><line stroke="blue" x1="414.24" x2="406.21" y1="86.21" y2="87.54" /><line stroke="blue" x1="310.68" x2="433.54" y1="103.46" y2="103.46" /><line stroke="blue" x1="311.53" x2="310.68" y1="106.29" y2="103.46" /><line stroke="blue" x1="310.68" x2="311.53" y1="111.96" y2="106.29" /><line stroke="blue" x1="299.47" x2="310.68" y1="111.96" y2="111.96" /><line stroke="blue" x1="298.62" x2="299.47" y1="106.29" y2="111.96" /><line stroke="blue" x1="299.47" x2="298.62" y1="103.46" y2="106.29" /><line stroke="blue" x1="293.8" x2="299.47" y1="103.46" y2="103.46" /><line stroke="blue" x1="286.28" x2="293.8" y1="82.2" y2="103.46" /><line stroke="blue" x1="287.41" x2="286.28" y1="82.2" y2="82.2" /><line stroke="blue" x1="294.93" x2="287.41" y1="60.94" y2="82.2" /><line stroke="blue" x1="458.73" x2="450.7" y1="66.29" y2="64.95" /><line stroke="blue" x1="454.99" x2="458.73" y1="76.85" y2="66.29" /><line stroke="blue" x1="446.02" x2="454.99" y1="78.19" y2="76.85" /><line stroke="blue" x1="561.78" x2="438.92" y1="60.94" y2="60.94" /><line stroke="blue" x1="560.93" x2="561.78" y1="58.11" y2="60.94" /><line stroke="blue" x1="561.78" x2="560.93" y1="52.44" y2="58.11" /><line stroke="blue" x1="572.99" x2="561.78" y1="52.44" y2="52.44" /><line stroke="blue" x1="573.84" x2="572.99" y1="58.11" y2="52.44" /><line stroke="blue" x1="572.99" x2="573.84" y1="60.94" y2="58.11" /><line stroke="blue" x1="578.66" x2="572.99" y1="60.94" y2="60.94" /><line stroke="blue" x1="571.15" x2="578.66" y1="82.2" y2="60.94" /><line stroke="blue" x1="570.01" x2="571.15" y1="82.2" y2="82.2" /><line stroke="blue" x1="577.53" x2="570.01" y1="103.46" y2="82.2" /><line stroke="blue" x1="553.09" x2="562.07" y1="98.11" y2="99.45" /><line stroke="blue" x1="549.35" x2="553.09" y1="87.54" y2="98.11" /><line stroke="blue" x1="557.38" x2="549.35" y1="86.21" y2="87.54" /><line stroke="blue" x1="453.82" x2="576.68" y1="103.46" y2="103.46" /><line stroke="blue" x1="454.67" x2="453.82" y1="106.29" y2="103.46" /><line stroke="blue" x1="453.82" x2="454.67" y1="111.96" y2="106.29" /><line stroke="blue" x1="442.61" x2="453.82" y1="111.96" y2="111.96" /><line stroke="blue" x1="441.76" x2="442.61" y1="106.29" y2="111.96" /><line stroke="blue" x1="442.61" x2="441.76" y1="103.46" y2="106.29" /><line stroke="blue" x1="436.94" x2="442.61" y1="103.46" y2="103.46" /><line stroke="blue" x1="429.42" x2="436.94" y1="82.2" y2="103.46" /><line stroke="blue" x1="430.56" x2="429.42" y1="82.2" y2="82.2" /><line stroke="blue" x1="438.07" x2="430.56" y1="60.94" y2="82.2" /><line stroke="blue" x1="29.31" x2="21.28" y1="118.72" y2="117.39" /><line stroke="blue" x1="25.57" x2="29.31" y1="129.29" y2="118.72" /><line stroke="blue" x1="16.6" x2="25.57" y1="130.63" y2="129.29" /><line stroke="blue" x1="132.36" x2="9.5" y1="113.38" y2="113.38" /><line stroke="blue" x1="131.51" x2="132.36" y1="110.54" y2="113.38" /><line stroke="blue" x1="132.36" x2="131.51" y1="104.88" y2="110.54" /><line stroke="blue" x1="143.57" x2="132.36" y1="104.88" y2="104.88" /><line stroke="blue" x1="144.42" x2="143.57" y1="110.54" y2="104.88" /><line stroke="blue" x1="143.57" x2="144.42" y1="113.38" y2="110.54" /><line stroke="blue" x1="149.24" x2="143.57" y1="113.38" y2="113.38" /><line stroke="blue" x1="141.72" x2="149.24" y1="134.64" y2="113.38" /><line stroke="blue" x1="140.59" x2="141.72" y1="134.64" y2="134.64" /><line stroke="blue" x1="148.11" x2="140.59" y1="155.9" y2="134.64" /><line stroke="blue" x1="123.67" x2="132.64" y1="150.55" y2="151.89" /><line stroke="blue" x1="119.93" x2="123.67" y1="139.98" y2="150.55" /><line stroke="blue" x1="127.96" x2="119.93" y1="138.65" y2="139.98" /><line stroke="blue" x1="24.39" x2="147.25" y1="155.9" y2="155.9" /><line stroke="blue" x1="25.24" x2="24.39" y1="158.73" y2="155.9" /><line stroke="blue" x1="24.39" x2="25.24" y1="164.4" y2="158.73" /><line stroke="blue" x1="13.18" x2="24.39" y1="164.4" y2="164.4" /><line stroke="blue" x1="12.33" x2="13.18" y1="158.73" y2="164.4" /><line stroke="blue" x1="13.18" x2="12.33" y1="155.9" y2="158.73" /><line stroke="blue" x1="7.52" x2="13.18" y1="155.9" y2="155.9" /><line stroke="blue" x1="0.0" x2="7.52" y1="134.64" y2="155.9" /><line stroke="blue" x1="1.13" x2="0.0" y1="134.64" y2="134.64" /><line stroke="blue" x1="8.65" x2="1.13" y1="113.38" y2="134.64" /><line stroke="blue" x1="172.45" x2="164.42" y1="118.72" y2="117.39" /><line stroke="blue" x1="168.71" x2="172.45" y1="129.29" y2="118.72" /><line stroke="blue" x1="159.74" x2="168.71" y1="130.63" y2="129.29" /><line stroke="blue" x1="275.5" x2="152.64" y1="113.38" y2="113.38" /><line stroke="blue" x1="274.65" x2="275.5" y1="110.54" y2="113.38" /><line stroke="blue" x1="275.5" x2="274.65" y1="104.88" y2="110.54" /><line stroke="blue" x1="286.71" x2="275.5" y1="104.88" y2="104.88" /><line stroke="blue" x1="287.56" x2="286.71" y1="110.54" y2="104.88" /><line stroke="blue" x1="286.71" x2="287.56" y1="113.38" y2="110.54" /><line stroke="blue" x1="292.38" x2="286.71" y1="113.38" y2="113.38" /><line stroke="blue" x1="284.86" x2="292.38" y1="134.64" y2="113.38" /><line stroke="blue" x1="283.73" x2="284.86" y1="134.64" y2="134.64" /><line stroke="blue" x1="291.25" x2="283.73" y1="155.9" y2="134.64" /><line stroke="blue" x1="266.81" x2="275.78" y1="150.55" y2="151.89" /><line stroke="blue" x1="263.07" x2="266.81" y1="139.98" y2="150.55" /><line stroke="blue" x1="271.1" x2="263.07" y1="138.65" y2="139.98" /><line stroke="blue" x1="167.54" x2="290.4" y1="155.9" y2="155.9" /><line stroke="blue" x1="168.39" x2="167.54" y1="158.73" y2="155.9" /><line stroke="blue" x1="167.54" x2="168.39" y1="164.4" y2="158.73" /><line stroke="blue" x1="156.33" x2="167.54" y1="164.4" y2="164.4" /><line stroke="blue" x1="155.47" x2="156.33" y1="158.73" y2="164.4" /><line stroke="blue" x1="156.33" x2="155.47" y1="155.9" y2="158.73" /><line stroke="blue" x1="150.66" x2="156.33" y1="155.9" y2="155.9" /><line stroke="blue" x1="143.14" x2="150.66" y1="134.64" y2="155.9" /><line stroke="blue" x1="144.27" x2="143.14" y1="134.64" y2="134.64" /><line stroke="blue" x1="151.79" x2="144.27" y1="113.38" y2="134.64" /><line stroke="blue" x1="315.59" x2="307.56" y1="118.72" y2="117.39" /><line stroke="blue" x1="311.85" x2="315.59" y1="129.29" y2="118.72" /><line stroke="blue" x1="302.88" x2="311.85" y1="130.63" y2="129.29" /><line stroke="blue" x1="418.64" x2="295.78" y1="113.38" y2="113.38" /><line stroke="blue" x1="417.79" x2="418.64" y1="110.54" y2="113.38" /><line stroke="blue" x1="418.64" x2="417.79" y1="104.88" y2="110.54" /><line stroke="blue" x1="429.85" x2="418.64" y1="104.88" y2="104.88" /><line stroke="blue" x1="430.7" x2="429.85" y1="110.54" y2="104.88" /><line stroke="blue" x1="429.85" x2="430.7" y1="113.38" y2="110.54" /><line stroke="blue" x1="435.52" x2="429.85" y1="113.38" y2="113.38" /><line stroke="blue" x1="428.0" x2="435.52" y1="134.64" y2="113.38" /><line stroke="blue" x1="426.87" x2="428.0" y1="134.64" y2="134.64" /><line stroke="blue" x1="434.39" x2="426.87" y1="155.9" y2="134.64" /><line stroke="blue" x1="409.95" x2="418.92" y1="150.55" y2="151.89" /><line stroke="blue" x1="406.21" x2="409.95" y1="139.98" y2="150.55" /><line stroke="blue" x1="414.24" x2="406.21" y1="138.65" y2="139.98" /><line stroke="blue" x1="310.68" x2="433.54" y1="155.9" y2="155.9" /><line stroke="blue" x1="311.53" x2="310.68" y1="158.73" y2="155.9" /><line stroke="blue" x1="310.68" x2="311.53" y1="164.4" y2="158.73" /><line stroke="blue" x1="299.47" x2="310.68" y1="164.4" y2="164.4" /><line stroke="blue" x1="298.62" x2="299.47" y1="158.73" y2="164.4" /><line stroke="blue" x1="299.47" x2="298.62" y1="155.9" y2="158.73" /><line stroke="blue" x1="293.8" x2="299.47" y1="155.9" y2="155.9" /><line stroke="blue" x1="286.28" x2="293.8" y1="134.64" y2="155.9" /><line stroke="blue" x1="287.41" x2="286.28" y1="134.64" y2="134.64" /><line stroke="blue" x1="294.93" x2="287.41" y1="113.38" y2="134.64" /><line stroke="blue" x1="458.73" x2="450.7" y1="118.72" y2="117.39" /><line stroke="blue" x1="454.99" x2="458.73" y1="129.29" y2="118.72" /><line stroke="blue" x1="446.02" x2="454.99" y1="130.63" y2="129.29" /><line stroke="blue" x1="561.78" x2="438.92" y1="113.38" y2="113.38" /><line stroke="blue" x1="560.93" x2="561.78" y1="110.54" y2="113.38" /><line stroke="blue" x1="561.78" x2="560.93" y1="104.88" y2="110.54" /><line stroke="blue" x1="572.99" x2="561.78" y1="104.88" y2="104.88" /><line stroke="blue" x1="573.84" x2="572.99" y1="110.54" y2="104.88" /><line stroke="blue" x1="572.99" x2="573.84" y1="113.38" y2="110.54" /><line stroke="blue" x1="578.66" x2="572.99" y1="113.38" y2="113.38" /><line stroke="blue" x1="571.15" x2="578.66" y1="134.64" y2="113.38" /><line stroke="blue" x1="570.01" x2="571.15" y1="134.64" y2="134.64" /><line stroke="blue" x1="577.53" x2="570.01" y1="155.9" y2="134.64" /><line stroke="blue" x1="553.09" x2="562.07" y1="150.55" y2="151.89" /><line stroke="blue" x1="549.35" x2="553.09" y1="139.98" y2="150.55" /><line stroke="blue" x1="557.38" x2="549.35" y1="138.65" y2="139.98" /><line stroke="blue" x1="453.82" x2="576.68" y1="155.9" y2="155.9" /><line stroke="blue" x1="454.67" x2="453.82" y1="158.73" y2="155.9" /><line stroke="blue" x1="453.82" x2="454.67" y1="164.4" y2="158.73" /><line stroke="blue" x1="442.61" x2="453.82" y1="164.4" y2="164.4" /><line stroke="blue" x1="441.76" x2="442.61" y1="158.73" y2="164.4" /><line stroke="blue" x1="442.61" x2="441.76" y1="155.9" y2="158.73" /><line stroke="blue" x1="436.94" x2="442.61" y1="155.9" y2="155.9" /><line stroke="blue" x1="429.42" x2="436.94" y1="134.64" y2="155.9" /><line stroke="blue" x1="430.56" x2="429.42" y1="134.64" y2="134.64" /><line stroke="blue" x1="438.07" x2="430.56" y1="113.38" y2="134.64" /><line stroke="blue" x1="29.31" x2="21.28" y1="171.16" y2="169.82" /><line stroke="blue" x1="25.57" x2="29.31" y1="181.73" y2="171.16" /><line stroke="blue" x1="16.6" x2="25.57" y1="183.07" y2="181.73" /><line stroke="blue" x1="132.36" x2="9.5" y1="165.82" y2="165.82" /><line stroke="blue" x1="131.51" x2="132.36" y1="162.98" y2="165.82" /><line stroke="blue" x1="132.36" x2="131.51" y1="157.31" y2="162.98" /><line stroke="blue" x1="143.57" x2="132.36" y1="157.31" y2="157.31" /><line stroke="blue" x1="144.42" x2="143.57" y1="162.98" y2="157.31" /><line stroke="blue" x1="143.57" x2="144.42" y1="165.82" y2="162.98" /><line stroke="blue" x1="149.24" x2="143.57" y1="165.82" y2="165.82" /><line stroke="blue" x1="141.72" x2="149.24" y1="187.07" y2="165.82" /><line stroke="blue" x1="140.59" x2="141.72" y1="187.07" y2="187.07" /><line stroke="blue" x1="148.11" x2="140.59" y1="208.33" y2="187.07" /><line stroke="blue" x1="123.67" x2="132.64" y1="202.99" y2="204.32" /><line stroke="blue" x1="119.93" x2="123.67" y1="192.42" y2="202.99" /><line stroke="blue" x1="127.96" x2="119.93" y1="191.08" y2="192.42" /><line stroke="blue" x1="24.39" x2="147.25" y1="208.33" y2="208.33" /><line stroke="blue" x1="25.24" x2="24.39" y1="211.17" y2="208.33" /><line stroke="blue" x1="24.39" x2="25.24" y1="216.84" y2="211.17" /><line stroke="blue" x1="13.18" x2="24.39" y1="216.84" y2="216.84" /><line stroke="blue" x1="12.33" x2="13.18" y1="211.17" y2="216.84" /><line stroke="blue" x1="13.18" x2="12.33" y1="208.33" y2="211.17" /><line stroke="blue" x1="7.52" x2="13.18" y1="208.33" y2="208.33" /><line stroke="blue" x1="0.0" x2="7.52" y1="187.07" y2="208.33" /><line stroke="blue" x1="1.13" x2="0.0" y1="187.07" y2="187.07" /><line stroke="blue" x1="8.65" x2="1.13" y1="165.82" y2="187.07" /><line stroke="blue" x1="172.45" x2="164.42" y1="171.16" y2="169.82" /><line stroke="blue" x1="168.71" x2="172.45" y1="181.73" y2="171.16" /><line stroke="blue" x1="159.74" x2="168.71" y1="183.07" y2="181.73" /><line stroke="blue" x1="275.5" x2="152.64" y1="165.82" y2="165.82" /><line stroke="blue" x1="274.65" x2="275.5" y1="162.98" y2="165.82" /><line stroke="blue" x1="275.5" x2="274.65" y1="157.31" y2="162.98" /><line stroke="blue" x1="286.71" x2="275.5" y1="157.31" y2="157.31" /><line stroke="blue" x1="287.56" x2="286.71" y1="162.98" y2="157.31" /><line stroke="blue" x1="286.71" x2="287.56" y1="165.82" y2="162.98" /><line stroke="blue" x1="292.38" x2="286.71" y1="165.82" y2="165.82" /><line stroke="blue" x1="284.86" x2="292.38" y1="187.07" y2="165.82" /><line stroke="blue" x1="283.73" x2="284.86" y1="187.07" y2="187.07" /><line stroke="blue" x1="291.25" x2="283.73" y1="208.33" y2="187.07" /><line stroke="blue" x1="266.81" x2="275.78" y1="202.99" y2="204.32" /><line stroke="blue" x1="263.07" x2="266.81" y1="192.42" y2="202.99" /><line stroke="blue" x1="271.1" x2="263.07" y1="191.08" y2="192.42" /><line stroke="blue" x1="167.54" x2="290.4" y1="208.33" y2="208.33" /><line stroke="blue" x1="168.39" x2="167.54" y1="211.17" y2="208.33" /><line stroke="blue" x1="167.54" x2="168.39" y1="216.84" y2="211.17" /><line stroke="blue" x1="156.33" x2="167.54" y1="216.84" y2="216.84" /><line stroke="blue" x1="155.47" x2="156.33" y1="211.17" y2="216.84" /><line stroke="blue" x1="156.33" x2="155.47" y1="208.33" y2="211.17" /><line stroke="blue" x1="150.66" x2="156.33" y1="208.33" y2="208.33" /><line stroke="blue" x1="143.14" x2="150.66" y1="187.07" y2="208.33" /><line stroke="blue" x1="144.27" x2="143.14" y1="187.07" y2="187.07" /><line stroke="blue" x1="151.79" x2="144.27" y1="165.82" y2="187.07" /><line stroke="blue" x1="315.59" x2="307.56" y1="171.16" y2="169.82" /><line stroke="blue" x1="311.85" x2="315.59" y1="181.73" y2="171.16" /><line stroke="blue" x1="302.88" x2="311.85" y1="183.07" y2="181.73" /><line stroke="blue" x1="418.64" x2="295.78" y1="165.82" y2="165.82" /><line stroke="blue" x1="417.79" x2="418.64" y1="162.98" y2="165.82" /><line stroke="blue" x1="418.64" x2="417.79" y1="157.31" y2="162.98" /><line stroke="blue" x1="429.85" x2="418.64" y1="157.31" y2="157.31" /><line stroke="blue" x1="430.7" x2="429.85" y1="162.98" y2="157.31" /><line stroke="blue" x1="429.85" x2="430.7" y1="165.82" y2="162.98" /><line stroke="blue" x1="435.52" x2="429.85" y1="165.82" y2="165.82" /><line stroke="blue" x1="428.0" x2="435.52" y1="187.07" y2="165.82" /><line stroke="blue" x1="426.87" x2="428.0" y1="187.07" y2="187.07" /><line stroke="blue" x1="434.39" x2="426.87" y1="208.33" y2="187.07" /><line stroke="blue" x1="409.95" x2="418.92" y1="202.99" y2="204.32" /><line stroke="blue" x1="406.21" x2="409.95" y1="192.42" y2="202.99" /><line stroke="blue" x1="414.24" x2="406.21" y1="191.08" y2="192.42" /><line stroke="blue" x1="310.68" x2="433.54" y1="208.33" y2="208.33" /><line stroke="blue" x1="311.53" x2="310.68" y1="211.17" y2="208.33" /><line stroke="blue" x1="310.68" x2="311.53" y1="216.84" y2="211.17" /><line stroke="blue" x1="299.47" x2="310.68" y1="216.84" y2="216.84" /><line stroke="blue" x1="298.62" x2="299.47" y1="211.17" y2="216.84" /><line stroke="blue" x1="299.47" x2="298.62" y1="208.33" y2="211.17" /><line stroke="blue" x1="293.8" x2="299.47" y1="208.33" y2="208.33" /><line stroke="blue" x1="286.28" x2="293.8" y1="187.07" y2="208.33" /><line stroke="blue" x1="287.41" x2="286.28" y1="187.07" y2="187.07" /><line stroke="blue" x1="294.93" x2="287.41" y1="165.82" y2="187.07" /><line stroke="blue" x1="458.73" x2="450.7" y1="171.16" y2="169.82" /><line stroke="blue" x1="454.99" x2="458.73" y1="181.73" y2="171.16" /><line stroke="blue" x1="446.02" x2="454.99" y1="183.07" y2="181.73" /><line stroke="blue" x1="561.78" x2="438.92" y1="165.82" y2="165.82" /><line stroke="blue" x1="560.93" x2="561.78" y1="162.98" y2="165.82" /><line stroke="blue" x1="561.78" x2="560.93" y1="157.31" y2="162.98" /><line stroke="blue" x1="572.99" x2="561.78" y1="157.31" y2="157.31" /><line stroke="blue" x1="573.84" x2="572.99" y1="162.98" y2="157.31" /><line stroke="blue" x1="572.99" x2="573.84" y1="165.82" y2="162.98" /><line stroke="blue" x1="578.66" x2="572.99" y1="165.82" y2="165.82" /><line stroke="blue" x1="571.15" x2="578.66" y1="187.07" y2="165.82" /><line stroke="blue" x1="570.01" x2="571.15" y1="187.07" y2="187.07" /><line stroke="blue" x1="577.53" x2="570.01" y1="208.33" y2="187.07" /><line stroke="blue" x1="553.09" x2="562.07" y1="202.99" y2="204.32" /><line stroke="blue" x1="549.35" x2="553.09" y1="192.42" y2="202.99" /><line stroke="blue" x1="557.38" x2="549.35" y1="191.08" y2="192.42" /><line stroke="blue" x1="453.82" x2="576.68" y1="208.33" y2="208.33" /><line stroke="blue" x1="454.67" x2="453.82" y1="211.17" y2="208.33" /><line stroke="blue" x1="453.82" x2="454.67" y1="216.84" y2="211.17" /><line stroke="blue" x1="442.61" x2="453.82" y1="216.84" y2="216.84" /><line stroke="blue" x1="441.76" x2="442.61" y1="211.17" y2="216.84" /><line stroke="blue" x1="442.61" x2="441.76" y1="208.33" y2="211.17" /><line stroke="blue" x1="436.94" x2="442.61" y1="208.33" y2="208.33" /><line stroke="blue" x1="429.42" x2="436.94" y1="187.07" y2="208.33" /><line stroke="blue" x1="430.56" x2="429.42" y1="187.07" y2="187.07" /><line stroke="blue" x1="438.07" x2="430.56" y1="165.82" y2="187.07" /><line stroke="blue" x1="29.31" x2="21.28" y1="223.6" y2="222.26" /><line stroke="blue" x1="25.57" x2="29.31" y1="234.17" y2="223.6" /><line stroke="blue" x1="16.6" x2="25.57" y1="235.5" y2="234.17" /><line stroke="blue" x1="132.36" x2="9.5" y1="218.25" y2="218.25" /><line stroke="blue" x1="131.51" x2="132.36" y1="215.42" y2="218.25" /><line stroke="blue" x1="132.36" x2="131.51" y1="209.75" y2="215.42" /><line stroke="blue" x1="143.57" x2="132.36" y1="209.75" y2="209.75" /><line stroke="blue" x1="144.42" x2="143.57" y1="215.42" y2="209.75" /><line stroke="blue" x1="143.57" x2="144.42" y1="218.25" y2="215.42" /><line stroke="blue" x1="149.24" x2="143.57" y1="218.25" y2="218.25" /><line stroke="blue" x1="141.72" x2="149.24" y1="239.51" y2="218.25" /><line stroke="blue" x1="140.59" x2="141.72" y1="239.51" y2="239.51" /><line stroke="blue" x1="148.11" x2="140.59" y1="260.77" y2="239.51" /><line stroke="blue" x1="123.67" x2="132.64" y1="255.43" y2="256.76" /><line stroke="blue" x1="119.93" x2="123.67" y1="244.86" y2="255.43" /><line stroke="blue" x1="127.96" x2="119.93" y1="243.52" y2="244.86" /><line stroke="blue" x1="24.39" x2="147.25" y1="260.77" y2="260.77" /><line stroke="blue" x1="25.24" x2="24.39" y1="263.61" y2="260.77" /><line stroke="blue" x1="24.39" x2="25.24" y1="269.27" y2="263.61" /><line stroke="blue" x1="13.18" x2="24.39" y1="269.27" y2="269.27" /><line stroke="blue" x1="12.33" x2="13.18" y1="263.61" y2="269.27" /><line stroke="blue" x1="13.18" x2="12.33" y1="260.77" y2="263.61" /><line stroke="blue" x1="7.52" x2="13.18" y1="260.77" y2="260.77" /><line stroke="blue" x1="0.0" x2="7.52" y1="239.51" y2="260.77" /><line stroke="blue" x1="1.13" x2="0.0" y1="239.51" y2="239.51" /><line stroke="blue" x1="8.65" x2="1.13" y1="218.25" y2="239.51" /><line stroke="blue" x1="172.45" x2="164.42" y1="223.6" y2="222.26" /><line stroke="blue" x1="168.71" x2="172.45" y1="234.17" y2="223.6" /><line stroke="blue" x1="159.74" x2="168.71" y1="235.5" y2="234.17" /><line stroke="blue" x1="275.5" x2="152.64" y1="218.25" y2="218.25" /><line stroke="blue" x1="274.65" x2="275.5" y1="215.42" y2="218.25" /><line stroke="blue" x1="275.5" x2="274.65" y1="209.75" y2="215.42" /><line stroke="blue" x1="286.71" x2="275.5" y1="209.75" y2="209.75" /><line stroke="blue" x1="287.56" x2="286.71" y1="215.42" y2="209.75" /><line stroke="blue" x1="286.71" x2="287.56" y1="218.25" y2="215.42" /><line stroke="blue" x1="292.38" x2="286.71" y1="218.25" y2="218.25" /><line stroke="blue" x1="284.86" x2="292.38" y1="239.51" y2="218.25" /><line stroke="blue" x1="283.73" x2="284.86" y1="239.51" y2="239.51" /><line stroke="blue" x1="291.25" x2="283.73" y1="260.77" y2="239.51" /><line stroke="blue" x1="266.81" x2="275.78" y1="255.43" y2="256.76" /><line stroke="blue" x1="263.07" x2="266.81" y1="244.86" y2="255.43" /><line stroke="blue" x1="271.1" x2="263.07" y1="243.52" y2="244.86" /><line stroke="blue" x1="167.54" x2="290.4" y1="260.77" y2="260.77" /><line stroke="blue" x1="168.39" x2="167.54" y1="263.61" y2="260.77" /><line stroke="blue" x1="167.54" x2="168.39" y1="269.27" y2="263.61" /><line stroke="blue" x1="156.33" x2="167.54" y1="269.27" y2="269.27" /><line stroke="blue" x1="155.47" x2="156.33" y1="263.61" y2="269.27" /><line stroke="blue" x1="156.33" x2="155.47" y1="260.77" y2="263.61" /><line stroke="blue" x1="150.66" x2="156.33" y1="260.77" y2="260.77" /><line stroke="blue" x1="143.14" x2="150.66" y1="239.51" y2="260.77" /><line stroke="blue" x1="144.27" x2="143.14" y1="239.51" y2="239.51" /><line stroke="blue" x1="151.79" x2="144.27" y1="218.25" y2="239.51" /><line stroke="blue" x1="315.59" x2="307.56" y1="223.6" y2="222.26" /><line stroke="blue" x1="311.85" x2="315.59" y1="234.17" y2="223.6" /><line stroke="blue" x1="302.88" x2="311.85" y1="235.5" y2="234.17" /><line stroke="blue" x1="418.64" x2="295.78" y1="218.25" y2="218.25" /><line stroke="blue" x1="417.79" x2="418.64" y1="215.42" y2="218.25" /><line stroke="blue" x1="418.64" x2="417.79" y1="209.75" y2="215.42" /><line stroke="blue" x1="429.85" x2="418.64" y1="209.75" y2="209.75" /><line stroke="blue" x1="430.7" x2="429.85" y1="215.42" y2="209.75" /><line stroke="blue" x1="429.85" x2="430.7" y1="218.25" y2="215.42" /><line stroke="blue" x1="435.52" x2="429.85" y1="218.25" y2="218.25" /><line stroke="blue" x1="428.0" x2="435.52" y1="239.51" y2="218.25" /><line stroke="blue" x1="426.87" x2="428.0" y1="239.51" y2="239.51" /><line stroke="blue" x1="434.39" x2="426.87" y1="260.77" y2="239.51" /><line stroke="blue" x1="409.95" x2="418.92" y1="255.43" y2="256.76" /><line stroke="blue" x1="406.21" x2="409.95" y1="244.86" y2="255.43" /><line stroke="blue" x1="414.24" x2="406.21" y1="243.52" y2="244.86" /><line stroke="blue" x1="310.68" x2="433.54" y1="260.77" y2="260.77" /><line stroke="blue" x1="311.53" x2="310.68" y1="263.61" y2="260.77" /><line stroke="blue" x1="310.68" x2="311.53" y1="269.27" y2="263.61" /><line stroke="blue" x1="299.47" x2="310.68" y1="269.27" y2="269.27" /><line stroke="blue" x1="298.62" x2="299.47" y1="263.61" y2="269.27" /><line stroke="blue" x1="299.47" x2="298.62" y1="260.77" y2="263.61" /><line stroke="blue" x1="293.8" x2="299.47" y1="260.77" y2="260.77" /><line stroke="blue" x1="286.28" x2="293.8" y1="239.51" y2="260.77" /><line stroke="blue" x1="287.41" x2="286.28" y1="239.51" y2="239.51" /><line stroke="blue" x1="294.93" x2="287.41" y1="218.25" y2="239.51" /><line stroke="blue" x1="458.73" x2="450.7" y1="223.6" y2="222.26" /><line stroke="blue" x1="454.99" x2="458.73" y1="234.17" y2="223.6" /><line stroke="blue" x1="446.02" x2="454.99" y1="235.5" y2="234.17" /><line stroke="blue" x1="561.78" x2="438.92" y1="218.25" y2="218.25" /><line stroke="blue" x1="560.93" x2="561.78" y1="215.42" y2="218.25" /><line stroke="blue" x1="561.78" x2="560.93" y1="209.75" y2="215.42" /><line stroke="blue" x1="572.99" x2="561.78" y1="209.75" y2="209.75" /><line stroke="blue" x1="573.84" x2="572.99" y1="215.42" y2="209.75" /><line stroke="blue" x1="572.99" x2="573.84" y1="218.25" y2="215.42" /><line stroke="blue" x1="578.66" x2="572.99" y1="218.25" y2="218.25" /><line stroke="blue" x1="571.15" x2="578.66" y1="239.51" y2="218.25" /><line stroke="blue" x1="570.01" x2="571.15" y1="239.51" y2="239.51" /><line stroke="blue" x1="577.53" x2="570.01" y1="260.77" y2="239.51" /><line stroke="blue" x1="553.09" x2="562.07" y1="255.43" y2="256.76" /><line stroke="blue" x1="549.35" x2="553.09" y1="244.86" y2="255.43" /><line stroke="blue" x1="557.38" x2="549.35" y1="243.52" y2="244.86" /><line stroke="blue" x1="453.82" x2="576.68" y1="260.77" y2="260.77" /><line stroke="blue" x1="454.67" x2="453.82" y1="263.61" y2="260.77" /><line stroke="blue" x1="453.82" x2="454.67" y1="269.27" y2="263.61" /><line stroke="blue" x1="442.61" x2="453.82" y1="269.27" y2="269.27" /><line stroke="blue" x1="441.76" x2="442.61" y1="263.61" y2="269.27" /><line stroke="blue" x1="442.61" x2="441.76" y1="260.77" y2="263.61" /><line stroke="blue" x1="436.94" x2="442.61" y1="260.77" y2="260.77" /><line stroke="blue" x1="429.42" x2="436.94" y1="239.51" y2="260.77" /><line stroke="blue" x1="430.56" x2="429.42" y1="239.51" y2="239.51" /><line stroke="blue" x1="438.07" x2="430.56" y1="218.25" y2="239.51" /><line stroke="blue" x1="29.31" x2="21.28" y1="276.04" y2="274.7" /><line stroke="blue" x1="25.57" x2="29.31" y1="286.61" y2="276.04" /><line stroke="blue" x1="16.6" x2="25.57" y1="287.94" y2="286.61" /><line stroke="blue" x1="132.36" x2="9.5" y1="270.69" y2="270.69" /><line stroke="blue" x1="131.51" x2="132.36" y1="267.86" y2="270.69" /><line stroke="blue" x1="132.36" x2="131.51" y1="262.19" y2="267.86" /><line stroke="blue" x1="143.57" x2="132.36" y1="262.19" y2="262.19" /><line stroke="blue" x1="144.42" x2="143.57" y1="267.86" y2="262.19" /><line stroke="blue" x1="143.57" x2="144.42" y1="270.69" y2="267.86" /><line stroke="blue" x1="149.24" x2="143.57" y1="270.69" y2="270.69" /><line stroke="blue" x1="141.72" x2="149.24" y1="291.95" y2="270.69" /><line stroke="blue" x1="140.59" x2="141.72" y1="291.95" y2="291.95" /><line stroke="blue" x1="148.11" x2="140.59" y1="313.21" y2="291.95" /><line stroke="blue" x1="123.67" x2="132.64" y1="307.86" y2="309.2" /><line stroke="blue" x1="119.93" x2="123.67" y1="297.29" y2="307.86" /><line stroke="blue" x1="127.96" x2="119.93" y1="295.96" y2="297.29" /><line stroke="blue" x1="24.39" x2="147.25" y1="313.21" y2="313.21" /><line stroke="blue" x1="25.24" x2="24.39" y1="316.04" y2="313.21" /><line stroke="blue" x1="24.39" x2="25.24" y1="321.71" y2="316.04" /><line stroke="blue" x1="13.18" x2="24.39" y1="321.71" y2="321.71" /><line stroke="blue" x1="12.33" x2="13.18" y1="316.04" y2="321.71" /><line stroke="blue" x1="13.18" x2="12.33" y1="313.21" y2="316.04" /><line stroke="blue" x1="7.52" x2="13.18" y1="313.21" y2="313.21" /><line stroke="blue" x1="0.0" x2="7.52" y1="291.95" y2="313.21" /><line stroke="blue" x1="1.13" x2="0.0" y1="291.95" y2="291.95" /><line stroke="blue" x1="8.65" x2="1.13" y1="270.69" y2="291.95" /><line stroke="blue" x1="172.45" x2="164.42" y1="276.04" y2="274.7" /><line stroke="blue" x1="168.71" x2="172.45" y1="286.61" y2="276.04" /><line stroke="blue" x1="159.74" x2="168.71" y1="287.94" y2="286.61" /><line stroke="blue" x1="275.5" x2="152.64" y1="270.69" y2="270.69" /><line stroke="blue" x1="274.65" x2="275.5" y1="267.86" y2="270.69" /><line stroke="blue" x1="275.5" x2="274.65" y1="262.19" y2="267.86" /><line stroke="blue" x1="286.71" x2="275.5" y1="262.19" y2="262.19" /><line stroke="blue" x1="287.56" x2="286.71" y1="267.86" y2="262.19" /><line stroke="blue" x1="286.71" x2="287.56" y1="270.69" y2="267.86" /><line stroke="blue" x1="292.38" x2="286.71" y1="270.69" y2="270.69" /><line stroke="blue" x1="284.86" x2="292.38" y1="291.95" y2="270.69" /><line stroke="blue" x1="283.73" x2="284.86" y1="291.95" y2="291.95" /><line stroke="blue" x1="291.25" x2="283.73" y1="313.21" y2="291.95" /><line stroke="blue" x1="266.81" x2="275.78" y1="307.86" y2="309.2" /><line stroke="blue" x1="263.07" x2="266.81" y1="297.29" y2="307.86" /><line stroke="blue" x1="271.1" x2="263.07" y1="295.96" y2="297.29" /><line stroke="blue" x1="167.54" x2="290.4" y1="313.21" y2="313.21" /><line stroke="blue" x1="168.39" x2="167.54" y1="316.04" y2="313.21" /><line stroke="blue" x1="167.54" x2="168.39" y1="321.71" y2="316.04" /><line stroke="blue" x1="156.33" x2="167.54" y1="321.71" y2="321.71" /><line stroke="blue" x1="155.47" x2="156.33" y1="316.04" y2="321.71" /><line stroke="blue" x1="156.33" x2="155.47" y1="313.21" y2="316.04" /><line stroke="blue" x1="150.66" x2="156.33" y1="313.21" y2="313.21" /><line stroke="blue" x1="143.14" x2="150.66" y1="291.95" y2="313.21" /><line stroke="blue" x1="144.27" x2="143.14" y1="291.95" y2="291.95" /><line stroke="blue" x1="151.79" x2="144.27" y1="270.69" y2="291.95" /><line stroke="blue" x1="315.59" x2="307.56" y1="276.04" y2="274.7" /><line stroke="blue" x1="311.85" x2="315.59" y1="286.61" y2="276.04" /><line stroke="blue" x1="302.88" x2="311.85" y1="287.94" y2="286.61" /><line stroke="blue" x1="418.64" x2="295.78" y1="270.69" y2="270.69" /><line stroke="blue" x1="417.79" x2="418.64" y1="267.86" y2="270.69" /><line stroke="blue" x1="418.64" x2="417.79" y1="262.19" y2="267.86" /><line stroke="blue" x1="429.85" x2="418.64" y1="262.19" y2="262.19" /><line stroke="blue" x1="430.7" x2="429.85" y1="267.86" y2="262.19" /><line stroke="blue" x1="429.85" x2="430.7" y1="270.69" y2="267.86" /><line stroke="blue" x1="435.52" x2="429.85" y1="270.69" y2="270.69" /><line stroke="blue" x1="428.0" x2="435.52" y1="291.95" y2="270.69" /><line stroke="blue" x1="426.87" x2="428.0" y1="291.95" y2="291.95" /><line stroke="blue" x1="434.39" x2="426.87" y1="313.21" y2="291.95" /><line stroke="blue" x1="409.95" x2="418.92" y1="307.86" y2="309.2" /><line stroke="blue" x1="406.21" x2="409.95" y1="297.29" y2="307.86" /><line stroke="blue" x1="414.24" x2="406.21" y1="295.96" y2="297.29" /><line stroke="blue" x1="310.68" x2="433.54" y1="313.21" y2="313.21" /><line stroke="blue" x1="311.53" x2="310.68" y1="316.04" y2="313.21" /><line stroke="blue" x1="310.68" x2="311.53" y1="321.71" y2="316.04" /><line stroke="blue" x1="299.47" x2="310.68" y1="321.71" y2="321.71" /><line stroke="blue" x1="298.62" x2="299.47" y1="316.04" y2="321.71" /><line stroke="blue" x1="299.47" x2="298.62" y1="313.21" y2="316.04" /><line stroke="blue" x1="293.8" x2="299.47" y1="313.21" y2="313.21" /><line stroke="blue" x1="286.28" x2="293.8" y1="291.95" y2="313.21" /><line stroke="blue" x1="287.41" x2="286.28" y1="291.95" y2="291.95" /><line stroke="blue" x1="294.93" x2="287.41" y1="270.69" y2="291.95" /><line stroke="blue" x1="458.73" x2="450.7" y1="276.04" y2="274.7" /><line stroke="blue" x1="454.99" x2="458.73" y1="286.61" y2="276.04" /><line stroke="blue" x1="446.02" x2="454.99" y1="287.94" y2="286.61" /><line stroke="blue" x1="561.78" x2="438.92" y1="270.69" y2="270.69" /><line stroke="blue" x1="560.93" x2="561.78" y1="267.86" y2="270.69" /><line stroke="blue" x1="561.78" x2="560.93" y1="262.19" y2="267.86" /><line stroke="blue" x1="572.99" x2="561.78" y1="262.19" y2="262.19" /><line stroke="blue" x1="573.84" x2="572.99" y1="267.86" y2="262.19" /><line stroke="blue" x1="572.99" x2="573.84" y1="270.69" y2="267.86" /><line stroke="blue" x1="578.66" x2="572.99" y1="270.69" y2="270.69" /><line stroke="blue" x1="571.15" x2="578.66" y1="291.95" y2="270.69" /><line stroke="blue" x1="570.01" x2="571.15" y1="291.95" y2="291.95" /><line stroke="blue" x1="577.53" x2="570.01" y1="313.21" y2="291.95" /><line stroke="blue" x1="553.09" x2="562.07" y1="307.86" y2="309.2" /><line stroke="blue" x1="549.35" x2="553.09" y1="297.29" y2="307.86" /><line stroke="blue" x1="557.38" x2="549.35" y1="295.96" y2="297.29" /><line stroke="blue" x1="453.82" x2="576.68" y1="313.21" y2="313.21" /><line stroke="blue" x1="454.67" x2="453.82" y1="316.04" y2="313.21" /><line stroke="blue" x1="453.82" x2="454.67" y1="321.71" y2="316.04" /><line stroke="blue" x1="442.61" x2="453.82" y1="321.71" y2="321.71" /><line stroke="blue" x1="441.76" x2="442.61" y1="316.04" y2="321.71" /><line stroke="blue" x1="442.61" x2="441.76" y1="313.21" y2="316.04" /><line stroke="blue" x1="436.94" x2="442.61" y1="313.21" y2="313.21" /><line stroke="blue" x1="429.42" x2="436.94" y1="291.95" y2="313.21" /><line stroke="blue" x1="430.56" x2="429.42" y1="291.95" y2="291.95" /><line stroke="blue" x1="438.07" x2="430.56" y1="270.69" y2="291.95" /></g><g id="scorelines"><line stroke="red" x1="24.39" x2="13.18" y1="51.02" y2="51.02" /><line stroke="red" x1="143.57" x2="132.36" y1="8.5" y2="8.5" /><line stroke="red" x1="0.0" x2="141.72" y1="29.76" y2="29.76" /><line stroke="red" x1="167.54" x2="156.33" y1="51.02" y2="51.02" /><line stroke="red" x1="286.71" x2="275.5" y1="8.5" y2="8.5" /><line stroke="red" x1="143.14" x2="284.86" y1="29.76" y2="29.76" /><line stroke="red" x1="310.68" x2="299.47" y1="51.02" y2="51.02" /><line stroke="red" x1="429.85" x2="418.64" y1="8.5" y2="8.5" /><line stroke="red" x1="286.28" x2="428.0" y1="29.76" y2="29.76" /><line stroke="red" x1="453.82" x2="442.61" y1="51.02" y2="51.02" /><line stroke="red" x1="572.99" x2="561.78" y1="8.5" y2="8.5" /><line stroke="red" x1="429.42" x2="571.15" y1="29.76" y2="29.76" /><line stroke="red" x1="24.39" x2="13.18" y1="103.46" y2="103.46" /><line stroke="red" x1="143.57" x2="132.36" y1="60.94" y2="60.94" /><line stroke="red" x1="0.0" x2="141.72" y1="82.2" y2="82.2" /><line stroke="red" x1="167.54" x2="156.33" y1="103.46" y2="103.46" /><line stroke="red" x1="286.71" x2="275.5" y1="60.94" y2="60.94" /><line stroke="red" x1="143.14" x2="284.86" y1="82.2" y2="82.2" /><line stroke="red" x1="310.68" x2="299.47" y1="103.46" y2="103.46" /><line stroke="red" x1="429.85" x2="418.64" y1="60.94" y2="60.94" /><line stroke="red" x1="286.28" x2="428.0" y1="82.2" y2="82.2" /><line stroke="red" x1="453.82" x2="442.61" y1="103.46" y2="103.46" /><line stroke="red" x1="572.99" x2="561.78" y1="60.94" y2="60.94" /><line stroke="red" x1="429.42" x2="571.15" y1="82.2" y2="82.2" /><line stroke="red" x1="24.39" x2="13.18" y1="155.9" y2="155.9" /><line stroke="red" x1="143.57" x2="132.36" y1="113.38" y2="113.38" /><line stroke="red" x1="0.0" x2="141.72" y1="134.64" y2="134.64" /><line stroke="red" x1="167.54" x2="156.33" y1="155.9" y2="155.9" /><line stroke="red" x1="286.71" x2="275.5" y1="113.38" y2="113.38" /><line stroke="red" x1="143.14" x2="284.86" y1="134.64" y2="134.64" /><line stroke="red" x1="310.68" x2="299.47" y1="155.9" y2="155.9" /><line stroke="red" x1="429.85" x2="418.64" y1="113.38" y2="113.38" /><line stroke="red" x1="286.28" x2="428.0" y1="134.64" y2="134.64" /><line stroke="red" x1="453.82" x2="442.61" y1="155.9" y2="155.9" /><line stroke="red" x1="572.99" x2="561.78" y1="113.38" y2="113.38" /><line stroke="red" x1="429.42" x2="571.15" y1="134.64" y2="134.64" /><line stroke="red" x1="24.39" x2="13.18" y1="208.33" y2="208.33" /><line stroke="red" x1="143.57" x2="132.36" y1="165.82" y2="165.82" /><line stroke="red" x1="0.0" x2="141.72" y1="187.07" y2="187.07" /><line stroke="red" x1="167.54" x2="156.33" y1="208.33" y2="208.33" /><line stroke="red" x1="286.71" x2="275.5" y1="165.82" y2="165.82" /><line stroke="red" x1="143.14" x2="284.86" y1="187.07" y2="187.07" /><line stroke="red" x1="310.68" x2="299.47" y1="208.33" y2="208.33" /><line stroke="red" x1="429.85" x2="418.64" y1="165.82" y2="165.82" /><line stroke="red" x1="286.28" x2="428.0" y1="187.07" y2="187.07" /><line stroke="red" x1="453.82" x2="442.61" y1="208.33" y2="208.33" /><line stroke="red" x1="572.99" x2="561.78" y1="165.82" y2="165.82" /><line stroke="red" x1="429.42" x2="571.15" y1="187.07" y2="187.07" /><line stroke="red" x1="24.39" x2="13.18" y1="260.77" y2="260.77" /><line stroke="red" x1="143.57" x2="132.36" y1="218.25" y2="218.25" /><line stroke="red" x1="0.0" x2="141.72" y1="239.51" y2="239.51" /><line stroke="red" x1="167.54" x2="156.33" y1="260.77" y2="260.77" /><line stroke="red" x1="286.71" x2="275.5" y1="218.25" y2="218.25" /><line stroke="red" x1="143.14" x2="284.86" y1="239.51" y2="239.51" /><line stroke="red" x1="310.68" x2="299.47" y1="260.77" y2="260.77" /><line stroke="red" x1="429.85" x2="418.64" y1="218.25" y2="218.25" /><line stroke="red" x1="286.28" x2="428.0" y1="239.51" y2="239.51" /><line stroke="red" x1="453.82" x2="442.61" y1="260.77" y2="260.77" /><line stroke="red" x1="572.99" x2="561.78" y1="218.25" y2="218.25" /><line stroke="red" x1="429.42" x2="571.15" y1="239.51" y2="239.51" /><line stroke="red" x1="24.39" x2="13.18" y1="313.21" y2="313.21" /><line stroke="red" x1="143.57" x2="132.36" y1="270.69" y2="270.69" /><line stroke="red" x1="0.0" x2="141.72" y1="291.95" y2="291.95" /><line stroke="red" x1="167.54" x2="156.33" y1="313.21" y2="313.21" /><line stroke="red" x1="286.71" x2="275.5" y1="270.69" y2="270.69" /><line stroke="red" x1="143.14" x2="284.86" y1="291.95" y2="291.95" /><line stroke="red" x1="310.68" x2="299.47" y1="313.21" y2="313.21" /><line stroke="red" x1="429.85" x2="418.64" y1="270.69" y2="270.69" /><line stroke="red" x1="286.28" x2="428.0" y1="291.95" y2="291.95" /><line stroke="red" x1="453.82" x2="442.61" y1="313.21" y2="313.21" /><line stroke="red" x1="572.99" x2="561.78" y1="270.69" y2="270.69" /><line stroke="red" x1="429.42" x2="571.15" y1="291.95" y2="291.95" /></g></svg>