<?xml version="1.0" encoding="utf-8" ?>
<svg baseProfile="full" height="26.9cm" version="1.1" width="20.2cm" xmlns="http://www.w3.org/2000/svg" xmlns:ev="http://www.w3.org/2001/xml-events" xmlns:xlink="http://www.w3.org/1999/xlink"><defs /><g id="cutlines"><line stroke="blue" x1="145.98" x2="151.64" y1="151.64" y2="151.64" /><line stroke="blue" x1="140.25" x2="146.68" y1="161.56" y2="150.94" /><line stroke="blue" x1="119.76" x2="140.25" y1="161.56" y2="161.56" /><line stroke="blue" x1="120.46" x2="119.76" y1="154.48" y2="161.56" /><line stroke="blue" x1="124.01" x2="120.46" y1="150.94" y2="154.48" /><line stroke="blue" x1="81.07" x2="123.3" y1="151.64" y2="151.64" /><line stroke="blue" x1="81.09" x2="81.07" y1="154.12" y2="150.94" /><line stroke="blue" x1="79.37" x2="81.09" y1="156.6" y2="154.12" /><line stroke="blue" x1="34.72" x2="78.51" y1="161.56" y2="156.6" /><line stroke="blue" x1="35.43" x2="34.72" y1="154.48" y2="161.56" /><line stroke="blue" x1="38.97" x2="35.43" y1="150.94" y2="154.48" /><line stroke="blue" x1="9.92" x2="38.27" y1="151.64" y2="151.64" /><line stroke="blue" x1="9.92" x2="9.92" y1="145.98" y2="151.64" /><line stroke="blue" x1="0.0" x2="10.63" y1="140.25" y2="146.68" /><line stroke="blue" x1="0.0" x2="0.0" y1="119.76" y2="140.25" /><line stroke="blue" x1="7.09" x2="0.0" y1="120.46" y2="119.76" /><line stroke="blue" x1="10.63" x2="7.09" y1="124.01" y2="120.46" /><line stroke="blue" x1="9.92" x2="9.92" y1="81.07" y2="123.3" /><line stroke="blue" x1="7.44" x2="10.63" y1="81.09" y2="81.07" /><line stroke="blue" x1="4.96" x2="7.44" y1="79.37" y2="81.09" /><line stroke="blue" x1="0.0" x2="4.96" y1="34.72" y2="78.51" /><line stroke="blue" x1="7.09" x2="0.0" y1="35.43" y2="34.72" /><line stroke="blue" x1="10.63" x2="7.09" y1="38.97" y2="35.43" /><line stroke="blue" x1="9.92" x2="9.92" y1="9.92" y2="38.27" /><line stroke="blue" x1="15.59" x2="9.92" y1="9.92" y2="9.92" /><line stroke="blue" x1="21.32" x2="14.88" y1="0.0" y2="10.63" /><line stroke="blue" x1="41.81" x2="21.32" y1="0.0" y2="0.0" /><line stroke="blue" x1="41.1" x2="41.81" y1="7.09" y2="0.0" /><line stroke="blue" x1="37.56" x2="41.1" y1="10.63" y2="7.09" /><line stroke="blue" x1="80.5" x2="38.27" y1="9.92" y2="9.92" /><line stroke="blue" x1="80.47" x2="80.5" y1="7.44" y2="10.63" /><line stroke="blue" x1="82.2" x2="80.47" y1="4.96" y2="7.44" /><line stroke="blue" x1="126.84" x2="83.05" y1="0.0" y2="4.96" /><line stroke="blue" x1="126.13" x2="126.84" y1="7.09" y2="0.0" /><line stroke="blue" x1="122.59" x2="126.13" y1="10.63" y2="7.09" /><line stroke="blue" x1="151.64" x2="123.3" y1="9.92" y2="9.92" /><line stroke="blue" x1="151.64" x2="151.64" y1="15.59" y2="9.92" /><line stroke="blue" x1="161.56" x2="150.94" y1="21.32" y2="14.88" /><line stroke="blue" x1="161.56" x2="161.56" y1="41.81" y2="21.32" /><line stroke="blue" x1="154.48" x2="161.56" y1="41.1" y2="41.81" /><line stroke="blue" x1="150.94" x2="154.48" y1="37.56" y2="41.1" /><line stroke="blue" x1="151.64" x2="151.64" y1="80.5" y2="38.27" /><line stroke="blue" x1="154.12" x2="150.94" y1="80.47" y2="80.5" /><line stroke="blue" x1="156.6" x2="154.12" y1="82.2" y2="80.47" /><line stroke="blue" x1="161.56" x2="156.6" y1="126.84" y2="83.05" /><line stroke="blue" x1="154.48" x2="161.56" y1="126.13" y2="126.84" /><line stroke="blue" x1="150.94" x2="154.48" y1="122.59" y2="126.13" /><line stroke="blue" x1="151.64" x2="151.64" y1="151.64" y2="123.3" /><line stroke="blue" x1="310.37" x2="316.04" y1="151.64" y2="151.64" /><line stroke="blue" x1="304.65" x2="311.08" y1="161.56" y2="150.94" /><line stroke="blue" x1="284.16" x2="304.65" y1="161.56" y2="161.56" /><line stroke="blue" x1="284.86" x2="284.16" y1="154.48" y2="161.56" /><line stroke="blue" x1="288.41" x2="284.86" y1="150.94" y2="154.48" /><line stroke="blue" x1="245.46" x2="287.7" y1="151.64" y2="151.64" /><line stroke="blue" x1="245.49" x2="245.46" y1="154.12" y2="150.94" /><line stroke="blue" x1="243.76" x2="245.49" y1="156.6" y2="154.12" /><line stroke="blue" x1="199.12" x2="242.91" y1="161.56" y2="156.6" /><line stroke="blue" x1="199.83" x2="199.12" y1="154.48" y2="161.56" /><line stroke="blue" x1="203.37" x2="199.83" y1="150.94" y2="154.48" /><line stroke="blue" x1="174.32" x2="202.66" y1="151.64" y2="151.64" /><line stroke="blue" x1="174.32" x2="174.32" y1="145.98" y2="151.64" /><line stroke="blue" x1="164.4" x2="175.03" y1="140.25" y2="146.68" /><line stroke="blue" x1="164.4" x2="164.4" y1="119.76" y2="140.25" /><line stroke="blue" x1="171.49" x2="164.4" y1="120.46" y2="119.76" /><line stroke="blue" x1="175.03" x2="171.49" y1="124.01" y2="120.46" /><line stroke="blue" x1="174.32" x2="174.32" y1="81.07" y2="123.3" /><line stroke="blue" x1="171.84" x2="175.03" y1="81.09" y2="81.07" /><line stroke="blue" x1="169.36" x2="171.84" y1="79.37" y2="81.09" /><line stroke="blue" x1="164.4" x2="169.36" y1="34.72" y2="78.51" /><line stroke="blue" x1="171.49" x2="164.4" y1="35.43" y2="34.72" /><line stroke="blue" x1="175.03" x2="171.49" y1="38.97" y2="35.43" /><line stroke="blue" x1="174.32" x2="174.32" y1="9.92" y2="38.27" /><line stroke="blue" x1="179.99" x2="174.32" y1="9.92" y2="9.92" /><line stroke="blue" x1="185.72" x2="179.28" y1="0.0" y2="10.63" /><line stroke="blue" x1="206.21" x2="185.72" y1="0.0" y2="0.0" /><line stroke="blue" x1="205.5" x2="206.21" y1="7.09" y2="0.0" /><line stroke="blue" x1="201.96" x2="205.5" y1="10.63" y2="7.09" /><line stroke="blue" x1="244.9" x2="202.66" y1="9.92" y2="9.92" /><line stroke="blue" x1="244.87" x2="244.9" y1="7.44" y2="10.63" /><line stroke="blue" x1="246.6" x2="244.87" y1="4.96" y2="7.44" /><line stroke="blue" x1="291.24" x2="247.45" y1="0.0" y2="4.96" /><line stroke="blue" x1="290.53" x2="291.24" y1="7.09" y2="0.0" /><line stroke="blue" x1="286.99" x2="290.53" y1="10.63" y2="7.09" /><line stroke="blue" x1="316.04" x2="287.7" y1="9.92" y2="9.92" /><line stroke="blue" x1="316.04" x2="316.04" y1="15.59" y2="9.92" /><line stroke="blue" x1="325.96" x2="315.33" y1="21.32" y2="14.88" /><line stroke="blue" x1="325.96" x2="325.96" y1="41.81" y2="21.32" /><line stroke="blue" x1="318.88" x2="325.96" y1="41.1" y2="41.81" /><line stroke="blue" x1="315.33" x2="318.88" y1="37.56" y2="41.1" /><line stroke="blue" x1="316.04" x2="316.04" y1="80.5" y2="38.27" /><line stroke="blue" x1="318.52" x2="315.33" y1="80.47" y2="80.5" /><line stroke="blue" x1="321.0" x2="318.52" y1="82.2" y2="80.47" /><line stroke="blue" x1="325.96" x2="321.0" y1="126.84" y2="83.05" /><line stroke="blue" x1="318.88" x2="325.96" y1="126.13" y2="126.84" /><line stroke="blue" x1="315.33" x2="318.88" y1="122.59" y2="126.13" /><line stroke="blue" x1="316.04" x2="316.04" y1="151.64" y2="123.3" /><line stroke="blue" x1="474.77" x2="480.44" y1="151.64" y2="151.64" /><line stroke="blue" x1="469.05" x2="475.48" y1="161.56" y2="150.94" /><line stroke="blue" x1="448.55" x2="469.05" y1="161.56" y2="161.56" /><line stroke="blue" x1="449.26" x2="448.55" y1="154.48" y2="161.56" /><line stroke="blue" x1="452.81" x2="449.26" y1="150.94" y2="154.48" /><line stroke="blue" x1="409.86" x2="452.1" y1="151.64" y2="151.64" /><line stroke="blue" x1="409.89" x2="409.86" y1="154.12" y2="150.94" /><line stroke="blue" x1="408.16" x2="409.89" y1="156.6" y2="154.12" /><line stroke="blue" x1="363.52" x2="407.31" y1="161.56" y2="156.6" /><line stroke="blue" x1="364.23" x2="363.52" y1="154.48" y2="161.56" /><line stroke="blue" x1="367.77" x2="364.23" y1="150.94" y2="154.48" /><line stroke="blue" x1="338.72" x2="367.06" y1="151.64" y2="151.64" /><line stroke="blue" x1="338.72" x2="338.72" y1="145.98" y2="151.64" /><line stroke="blue" x1="328.8" x2="339.43" y1="140.25" y2="146.68" /><line stroke="blue" x1="328.8" x2="328.8" y1="119.76" y2="140.25" /><line stroke="blue" x1="335.88" x2="328.8" y1="120.46" y2="119.76" /><line stroke="blue" x1="339.43" x2="335.88" y1="124.01" y2="120.46" /><line stroke="blue" x1="338.72" x2="338.72" y1="81.07" y2="123.3" /><line stroke="blue" x1="336.24" x2="339.43" y1="81.09" y2="81.07" /><line stroke="blue" x1="333.76" x2="336.24" y1="79.37" y2="81.09" /><line stroke="blue" x1="328.8" x2="333.76" y1="34.72" y2="78.51" /><line stroke="blue" x1="335.88" x2="328.8" y1="35.43" y2="34.72" /><line stroke="blue" x1="339.43" x2="335.88" y1="38.97" y2="35.43" /><line stroke="blue" x1="338.72" x2="338.72" y1="9.92" y2="38.27" /><line stroke="blue" x1="344.39" x2="338.72" y1="9.92" y2="9.92" /><line stroke="blue" x1="350.12" x2="343.68" y1="0.0" y2="10.63" /><line stroke="blue" x1="370.61" x2="350.12" y1="0.0" y2="0.0" /><line stroke="blue" x1="369.9" x2="370.61" y1="7.09" y2="0.0" /><line stroke="blue" x1="366.35" x2="369.9" y1="10.63" y2="7.09" /><line stroke="blue" x1="409.3" x2="367.06" y1="9.92" y2="9.92" /><line stroke="blue" x1="409.27" x2="409.3" y1="7.44" y2="10.63" /><line stroke="blue" x1="411.0" x2="409.27" y1="4.96" y2="7.44" /><line stroke="blue" x1="455.64" x2="411.85" y1="0.0" y2="4.96" /><line stroke="blue" x1="454.93" x2="455.64" y1="7.09" y2="0.0" /><line stroke="blue" x1="451.39" x2="454.93" y1="10.63" y2="7.09" /><line stroke="blue" x1="480.44" x2="452.1" y1="9.92" y2="9.92" /><line stroke="blue" x1="480.44" x2="480.44" y1="15.59" y2="9.92" /><line stroke="blue" x1="490.36" x2="479.73" y1="21.32" y2="14.88" /><line stroke="blue" x1="490.36" x2="490.36" y1="41.81" y2="21.32" /><line stroke="blue" x1="483.28" x2="490.36" y1="41.1" y2="41.81" /><line stroke="blue" x1="479.73" x2="483.28" y1="37.56" y2="41.1" /><line stroke="blue" x1="480.44" x2="480.44" y1="80.5" y2="38.27" /><line stroke="blue" x1="482.92" x2="479.73" y1="80.47" y2="80.5" /><line stroke="blue" x1="485.4" x2="482.92" y1="82.2" y2="80.47" /><line stroke="blue" x1="490.36" x2="485.4" y1="126.84" y2="83.05" /><line stroke="blue" x1="483.28" x2="490.36" y1="126.13" y2="126.84" /><line stroke="blue" x1="479.73" x2="483.28" y1="122.59" y2="126.13" /><line stroke="blue" x1="480.44" x2="480.44" y1="151.64" y2="123.3" /><line stroke="blue" x1="145.98" x2="151.64" y1="316.04" y2="316.04" /><line stroke="blue" x1="140.25" x2="146.68" y1="325.96" y2="315.33" /><line stroke="blue" x1="119.76" x2="140.25" y1="325.96" y2="325.96" /><line stroke="blue" x1="120.46" x2="119.76" y1="318.88" y2="325.96" /><line stroke="blue" x1="124.01" x2="120.46" y1="315.33" y2="318.88" /><line stroke="blue" x1="81.07" x2="123.3" y1="316.04" y2="316.04" /><line stroke="blue" x1="81.09" x2="81.07" y1="318.52" y2="315.33" /><line stroke="blue" x1="79.37" x2="81.09" y1="321.0" y2="318.52" /><line stroke="blue" x1="34.72" x2="78.51" y1="325.96" y2="321.0" /><line stroke="blue" x1="35.43" x2="34.72" y1="318.88" y2="325.96" /><line stroke="blue" x1="38.97" x2="35.43" y1="315.33" y2="318.88" /><line stroke="blue" x1="9.92" x2="38.27" y1="316.04" y2="316.04" /><line stroke="blue" x1="9.92" x2="9.92" y1="310.37" y2="316.04" /><line stroke="blue" x1="0.0" x2="10.63" y1="304.65" y2="311.08" /><line stroke="blue" x1="0.0" x2="0.0" y1="284.16" y2="304.65" /><line stroke="blue" x1="7.09" x2="0.0" y1="284.86" y2="284.16" /><line stroke="blue" x1="10.63" x2="7.09" y1="288.41" y2="284.86" /><line stroke="blue" x1="9.92" x2="9.92" y1="245.46" y2="287.7" /><line stroke="blue" x1="7.44" x2="10.63" y1="245.49" y2="245.46" /><line stroke="blue" x1="4.96" x2="7.44" y1="243.76" y2="245.49" /><line stroke="blue" x1="0.0" x2="4.96" y1="199.12" y2="242.91" /><line stroke="blue" x1="7.09" x2="0.0" y1="199.83" y2="199.12" /><line stroke="blue" x1="10.63" x2="7.09" y1="203.37" y2="199.83" /><line stroke="blue" x1="9.92" x2="9.92" y1="174.32" y2="202.66" /><line stroke="blue" x1="15.59" x2="9.92" y1="174.32" y2="174.32" /><line stroke="blue" x1="21.32" x2="14.88" y1="164.4" y2="175.03" /><line stroke="blue" x1="41.81" x2="21.32" y1="164.4" y2="164.4" /><line stroke="blue" x1="41.1" x2="41.81" y1="171.49" y2="164.4" /><line stroke="blue" x1="37.56" x2="41.1" y1="175.03" y2="171.49" /><line stroke="blue" x1="80.5" x2="38.27" y1="174.32" y2="174.32" /><line stroke="blue" x1="80.47" x2="80.5" y1="171.84" y2="175.03" /><line stroke="blue" x1="82.2" x2="80.47" y1="169.36" y2="171.84" /><line stroke="blue" x1="126.84" x2="83.05" y1="164.4" y2="169.36" /><line stroke="blue" x1="126.13" x2="126.84" y1="171.49" y2="164.4" /><line stroke="blue" x1="122.59" x2="126.13" y1="175.03" y2="171.49" /><line stroke="blue" x1="151.64" x2="123.3" y1="174.32" y2="174.32" /><line stroke="blue" x1="151.64" x2="151.64" y1="179.99" y2="174.32" /><line stroke="blue" x1="161.56" x2="150.94" y1="185.72" y2="179.28" /><line stroke="blue" x1="161.56" x2="161.56" y1="206.21" y2="185.72" /><line stroke="blue" x1="154.48" x2="161.56" y1="205.5" y2="206.21" /><line stroke="blue" x1="150.94" x2="154.48" y1="201.96" y2="205.5" /><line stroke="blue" x1="151.64" x2="151.64" y1="244.9" y2="202.66" /><line stroke="blue" x1="154.12" x2="150.94" y1="244.87" y2="244.9" /><line stroke="blue" x1="156.6" x2="154.12" y1="246.6" y2="244.87" /><line stroke="blue" x1="161.56" x2="156.6" y1="291.24" y2="247.45" /><line stroke="blue" x1="154.48" x2="161.56" y1="290.53" y2="291.24" /><line stroke="blue" x1="150.94" x2="154.48" y1="286.99" y2="290.53" /><line stroke="blue" x1="151.64" x2="151.64" y1="316.04" y2="287.7" /><line stroke="blue" x1="310.37" x2="316.04" y1="316.04" y2="316.04" /><line stroke="blue" x1="304.65" x2="311.08" y1="325.96" y2="315.33" /><line stroke="blue" x1="284.16" x2="304.65" y1="325.96" y2="325.96" /><line stroke="blue" x1="284.86" x2="284.16" y1="318.88" y2="325.96" /><line stroke="blue" x1="288.41" x2="284.86" y1="315.33" y2="318.88" /><line stroke="blue" x1="245.46" x2="287.7" y1="316.04" y2="316.04" /><line stroke="blue" x1="245.49" x2="245.46" y1="318.52" y2="315.33" /><line stroke="blue" x1="243.76" x2="245.49" y1="321.0" y2="318.52" /><line stroke="blue" x1="199.12" x2="242.91" y1="325.96" y2="321.0" /><line stroke="blue" x1="199.83" x2="199.12" y1="318.88" y2="325.96" /><line stroke="blue" x1="203.37" x2="199.83" y1="315.33" y2="318.88" /><line stroke="blue" x1="174.32" x2="202.66" y1="316.04" y2="316.04" /><line stroke="blue" x1="174.32" x2="174.32" y1="310.37" y2="316.04" /><line stroke="blue" x1="164.4" x2="175.03" y1="304.65" y2="311.08" /><line stroke="blue" x1="164.4" x2="164.4" y1="284.16" y2="304.65" /><line stroke="blue" x1="171.49" x2="164.4" y1="284.86" y2="284.16" /><line stroke="blue" x1="175.03" x2="171.49" y1="288.41" y2="284.86" /><line stroke="blue" x1="174.32" x2="174.32" y1="245.46" y2="287.7" /><line stroke="blue" x1="171.84" x2="175.03" y1="245.49" y2="245.46" /><line stroke="blue" x1="169.36" x2="171.84" y1="243.76" y2="245.49" /><line stroke="blue" x1="164.4" x2="169.36" y1="199.12" y2="242.91" /><line stroke="blue" x1="171.49" x2="164.4" y1="199.83" y2="199.12" /><line stroke="blue" x1="175.03" x2="171.49" y1="203.37" y2="199.83" /><line stroke="blue" x1="174.32" x2="174.32" y1="174.32" y2="202.66" /><line stroke="blue" x1="179.99" x2="174.32" y1="174.32" y2="174.32" /><line stroke="blue" x1="185.72" x2="179.28" y1="164.4" y2="175.03" /><line stroke="blue" x1="206.21" x2="185.72" y1="164.4" y2="164.4" /><line stroke="blue" x1="205.5" x2="206.21" y1="171.49" y2="164.4" /><line stroke="blue" x1="201.96" x2="205.5" y1="175.03" y2="171.49" /><line stroke="blue" x1="244.9" x2="202.66" y1="174.32" y2="174.32" /><line stroke="blue" x1="244.87" x2="244.9" y1="171.84" y2="175.03" /><line stroke="blue" x1="246.6" x2="244.87" y1="169.36" y2="171.84" /><line stroke="blue" x1="291.24" x2="247.45" y1="164.4" y2="169.36" /><line stroke="blue" x1="290.53" x2="291.24" y1="171.49" y2="164.4" /><line stroke="blue" x1="286.99" x2="290.53" y1="175.03" y2="171.49" /><line stroke="blue" x1="316.04" x2="287.7" y1="174.32" y2="174.32" /><line stroke="blue" x1="316.04" x2="316.04" y1="179.99" y2="174.32" /><line stroke="blue" x1="325.96" x2="315.33" y1="185.72" y2="179.28" /><line stroke="blue" x1="325.96" x2="325.96" y1="206.21" y2="185.72" /><line stroke="blue" x1="318.88" x2="325.96" y1="205.5" y2="206.21" /><line stroke="blue" x1="315.33" x2="318.88" y1="201.96" y2="205.5" /><line stroke="blue" x1="316.04" x2="316.04" y1="244.9" y2="202.66" /><line stroke="blue" x1="318.52" x2="315.33" y1="244.87" y2="244.9" /><line stroke="blue" x1="321.0" x2="318.52" y1="246.6" y2="244.87" /><line stroke="blue" x1="325.96" x2="321.0" y1="291.24" y2="247.45" /><line stroke="blue" x1="318.88" x2="325.96" y1="290.53" y2="291.24" /><line stroke="blue" x1="315.33" x2="318.88" y1="286.99" y2="290.53" /><line stroke="blue" x1="316.04" x2="316.04" y1="316.04" y2="287.7" /><line stroke="blue" x1="474.77" x2="480.44" y1="316.04" y2="316.04" /><line stroke="blue" x1="469.05" x2="475.48" y1="325.96" y2="315.33" /><line stroke="blue" x1="448.55" x2="469.05" y1="325.96" y2="325.96" /><line stroke="blue" x1="449.26" x2="448.55" y1="318.88" y2="325.96" /><line stroke="blue" x1="452.81" x2="449.26" y1="315.33" y2="318.88" /><line stroke="blue" x1="409.86" x2="452.1" y1="316.04" y2="316.04" /><line stroke="blue" x1="409.89" x2="409.86" y1="318.52" y2="315.33" /><line stroke="blue" x1="408.16" x2="409.89" y1="321.0" y2="318.52" /><line stroke="blue" x1="363.52" x2="407.31" y1="325.96" y2="321.0" /><line stroke="blue" x1="364.23" x2="363.52" y1="318.88" y2="325.96" /><line stroke="blue" x1="367.77" x2="364.23" y1="315.33" y2="318.88" /><line stroke="blue" x1="338.72" x2="367.06" y1="316.04" y2="316.04" /><line stroke="blue" x1="338.72" x2="338.72" y1="310.37" y2="316.04" /><line stroke="blue" x1="328.8" x2="339.43" y1="304.65" y2="311.08" /><line stroke="blue" x1="328.8" x2="328.8" y1="284.16" y2="304.65" /><line stroke="blue" x1="335.88" x2="328.8" y1="284.86" y2="284.16" /><line stroke="blue" x1="339.43" x2="335.88" y1="288.41" y2="284.86" /><line stroke="blue" x1="338.72" x2="338.72" y1="245.46" y2="287.7" /><line stroke="blue" x1="336.24" x2="339.43" y1="245.49" y2="245.46" /><line stroke="blue" x1="333.76" x2="336.24" y1="243.76" y2="245.49" /><line stroke="blue" x1="328.8" x2="333.76" y1="199.12" y2="242.91" /><line stroke="blue" x1="335.88" x2="328.8" y1="199.83" y2="199.12" /><line stroke="blue" x1="339.43" x2="335.88" y1="203.37" y2="199.83" /><line stroke="blue" x1="338.72" x2="338.72" y1="174.32" y2="202.66" /><line stroke="blue" x1="344.39" x2="338.72" y1="174.32" y2="174.32" /><line stroke="blue" x1="350.12" x2="343.68" y1="164.4" y2="175.03" /><line stroke="blue" x1="370.61" x2="350.12" y1="164.4" y2="164.4" /><line stroke="blue" x1="369.9" x2="370.61" y1="171.49" y2="164.4" /><line stroke="blue" x1="366.35" x2="369.9" y1="175.03" y2="171.49" /><line stroke="blue" x1="409.3" x2="367.06" y1="174.32" y2="174.32" /><line stroke="blue" x1="409.27" x2="409.3" y1="171.84" y2="175.03" /><line stroke="blue" x1="411.0" x2="409.27" y1="169.36" y2="171.84" /><line stroke="blue" x1="455.64" x2="411.85" y1="164.4" y2="169.36" /><line stroke="blue" x1="454.93" x2="455.64" y1="171.49" y2="164.4" /><line stroke="blue" x1="451.39" x2="454.93" y1="175.03" y2="171.49" /><line stroke="blue" x1="480.44" x2="452.1" y1="174.32" y2="174.32" /><line stroke="blue" x1="480.44" x2="480.44" y1="179.99" y2="174.32" /><line stroke="blue" x1="490.36" x2="479.73" y1="185.72" y2="179.28" /><line stroke="blue" x1="490.36" x2="490.36" y1="206.21" y2="185.72" /><line stroke="blue" x1="483.28" x2="490.36" y1="205.5" y2="206.21" /><line stroke="blue" x1="479.73" x2="483.28" y1="201.96" y2="205.5" /><line stroke="blue" x1="480.44" x2="480.44" y1="244.9" y2="202.66" /><line stroke="blue" x1="482.92" x2="479.73" y1="244.87" y2="244.9" /><line stroke="blue" x1="485.4" x2="482.92" y1="246.6" y2="244.87" /><line stroke="blue" x1="490.36" x2="485.4" y1="291.24" y2="247.45" /><line stroke="blue" x1="483.28" x2="490.36" y1="290.53" y2="291.24" /><line stroke="blue" x1="479.73" x2="483.28" y1="286.99" y2="290.53" /><line stroke="blue" x1="480.44" x2="480.44" y1="316.04" y2="287.7" /><line stroke="blue" x1="352.87" x2="352.87" y1="513.25" y2="518.92" /><line stroke="blue" x1="342.95" x2="353.58" y1="507.53" y2="513.96" /><line stroke="blue" x1="342.95" x2="342.95" y1="487.03" y2="507.53" /><line stroke="blue" x1="350.04" x2="342.95" y1="487.74" y2="487.03" /><line stroke="blue" x1="353.58" x2="350.04" y1="491.29" y2="487.74" /><line stroke="blue" x1="352.87" x2="352.87" y1="448.34" y2="490.58" /><line stroke="blue" x1="350.39" x2="353.58" y1="448.37" y2="448.34" /><line stroke="blue" x1="347.91" x2="350.39" y1="446.64" y2="448.37" /><line stroke="blue" x1="342.95" x2="347.91" y1="402.0" y2="445.79" /><line stroke="blue" x1="350.04" x2="342.95" y1="402.71" y2="402.0" /><line stroke="blue" x1="353.58" x2="350.04" y1="406.25" y2="402.71" /><line stroke="blue" x1="352.87" x2="352.87" y1="377.2" y2="405.54" /><line stroke="blue" x1="358.26" x2="352.87" y1="375.45" y2="377.2" /><line stroke="blue" x1="360.64" x2="357.81" y1="364.24" y2="376.34" /><line stroke="blue" x1="380.13" x2="360.64" y1="357.91" y2="364.24" /><line stroke="blue" x1="381.65" x2="380.13" y1="364.87" y2="357.91" /><line stroke="blue" x1="379.37" x2="381.65" y1="369.33" y2="364.87" /><line stroke="blue" x1="419.99" x2="379.83" y1="355.39" y2="368.44" /><line stroke="blue" x1="419.2" x2="420.21" y1="353.04" y2="356.06" /><line stroke="blue" x1="420.08" x2="419.2" y1="350.15" y2="353.04" /><line stroke="blue" x1="461.0" x2="420.89" y1="331.63" y2="349.88" /><line stroke="blue" x1="462.52" x2="461.0" y1="338.59" y2="331.63" /><line stroke="blue" x1="460.25" x2="462.52" y1="343.06" y2="338.59" /><line stroke="blue" x1="487.66" x2="460.7" y1="333.4" y2="342.16" /><line stroke="blue" x1="490.99" x2="487.66" y1="337.99" y2="333.4" /><line stroke="blue" x1="502.38" x2="490.0" y1="336.79" y2="337.83" /><line stroke="blue" x1="514.43" x2="502.38" y1="353.37" y2="336.79" /><line stroke="blue" x1="508.28" x2="514.43" y1="356.96" y2="353.37" /><line stroke="blue" x1="503.33" x2="508.28" y1="356.18" y2="356.96" /><line stroke="blue" x1="529.14" x2="504.32" y1="390.5" y2="356.33" /><line stroke="blue" x1="531.13" x2="528.57" y1="389.02" y2="390.92" /><line stroke="blue" x1="534.16" x2="531.13" y1="388.96" y2="389.02" /><line stroke="blue" x1="564.41" x2="534.66" y1="422.16" y2="389.65" /><line stroke="blue" x1="558.26" x2="564.41" y1="425.76" y2="422.16" /><line stroke="blue" x1="553.31" x2="558.26" y1="424.97" y2="425.76" /><line stroke="blue" x1="570.96" x2="554.3" y1="448.06" y2="425.13" /><line stroke="blue" x1="567.63" x2="570.96" y1="452.65" y2="448.06" /><line stroke="blue" x1="572.29" x2="567.47" y1="463.11" y2="451.66" /><line stroke="blue" x1="560.24" x2="572.29" y1="479.69" y2="463.11" /><line stroke="blue" x1="554.93" x2="560.24" y1="474.95" y2="479.69" /><line stroke="blue" x1="554.14" x2="554.93" y1="470.0" y2="474.95" /><line stroke="blue" x1="529.48" x2="554.3" y1="505.16" y2="470.99" /><line stroke="blue" x1="531.5" x2="528.9" y1="506.59" y2="504.74" /><line stroke="blue" x1="532.49" x2="531.5" y1="509.45" y2="506.59" /><line stroke="blue" x1="510.26" x2="531.99" y1="548.48" y2="510.14" /><line stroke="blue" x1="504.95" x2="510.26" y1="543.74" y2="548.48" /><line stroke="blue" x1="504.16" x2="504.95" y1="538.8" y2="543.74" /><line stroke="blue" x1="487.66" x2="504.32" y1="562.72" y2="539.79" /><line stroke="blue" x1="482.27" x2="487.66" y1="560.97" y2="562.72" /><line stroke="blue" x1="473.75" x2="483.16" y1="568.63" y2="560.51" /><line stroke="blue" x1="454.27" x2="473.75" y1="562.3" y2="568.63" /><line stroke="blue" x1="457.13" x2="454.27" y1="555.78" y2="562.3" /><line stroke="blue" x1="461.59" x2="457.13" y1="553.5" y2="555.78" /><line stroke="blue" x1="420.53" x2="460.7" y1="540.91" y2="553.96" /><line stroke="blue" x1="419.79" x2="420.75" y1="543.27" y2="540.23" /><line stroke="blue" x1="417.38" x2="419.79" y1="545.1" y2="543.27" /><line stroke="blue" x1="373.39" x2="416.58" y1="536.02" y2="544.84" /><line stroke="blue" x1="376.26" x2="373.39" y1="529.5" y2="536.02" /><line stroke="blue" x1="380.72" x2="376.26" y1="527.23" y2="529.5" /><line stroke="blue" x1="352.87" x2="379.83" y1="518.92" y2="527.68" /><line stroke="blue" x1="448.73" x2="448.73" y1="581.28" y2="575.61" /><line stroke="blue" x1="458.65" x2="448.02" y1="587.01" y2="580.57" /><line stroke="blue" x1="458.65" x2="458.65" y1="607.5" y2="587.01" /><line stroke="blue" x1="451.56" x2="458.65" y1="606.79" y2="607.5" /><line stroke="blue" x1="448.02" x2="451.56" y1="603.25" y2="606.79" /><line stroke="blue" x1="448.73" x2="448.73" y1="646.19" y2="603.96" /><line stroke="blue" x1="451.21" x2="448.02" y1="646.16" y2="646.19" /><line stroke="blue" x1="453.69" x2="451.21" y1="647.89" y2="646.16" /><line stroke="blue" x1="458.65" x2="453.69" y1="692.53" y2="648.74" /><line stroke="blue" x1="451.56" x2="458.65" y1="691.82" y2="692.53" /><line stroke="blue" x1="448.02" x2="451.56" y1="688.28" y2="691.82" /><line stroke="blue" x1="448.73" x2="448.73" y1="717.33" y2="688.99" /><line stroke="blue" x1="443.34" x2="448.73" y1="719.09" y2="717.33" /><line stroke="blue" x1="440.96" x2="443.79" y1="730.29" y2="718.19" /><line stroke="blue" x1="421.47" x2="440.96" y1="736.62" y2="730.29" /><line stroke="blue" x1="419.95" x2="421.47" y1="729.67" y2="736.62" /><line stroke="blue" x1="422.23" x2="419.95" y1="725.2" y2="729.67" /><line stroke="blue" x1="381.61" x2="421.77" y1="739.14" y2="726.09" /><line stroke="blue" x1="382.4" x2="381.39" y1="741.49" y2="738.47" /><line stroke="blue" x1="381.52" x2="382.4" y1="744.39" y2="741.49" /><line stroke="blue" x1="340.6" x2="380.71" y1="762.9" y2="744.65" /><line stroke="blue" x1="339.08" x2="340.6" y1="755.94" y2="762.9" /><line stroke="blue" x1="341.36" x2="339.08" y1="751.48" y2="755.94" /><line stroke="blue" x1="313.94" x2="340.9" y1="761.13" y2="752.37" /><line stroke="blue" x1="310.61" x2="313.94" y1="756.54" y2="761.13" /><line stroke="blue" x1="299.22" x2="311.6" y1="757.74" y2="756.7" /><line stroke="blue" x1="287.17" x2="299.22" y1="741.16" y2="757.74" /><line stroke="blue" x1="293.32" x2="287.17" y1="737.57" y2="741.16" /><line stroke="blue" x1="298.27" x2="293.32" y1="738.35" y2="737.57" /><line stroke="blue" x1="272.46" x2="297.28" y1="704.03" y2="738.2" /><line stroke="blue" x1="270.47" x2="273.03" y1="705.51" y2="703.61" /><line stroke="blue" x1="267.45" x2="270.47" y1="705.57" y2="705.51" /><line stroke="blue" x1="237.19" x2="266.95" y1="672.37" y2="704.88" /><line stroke="blue" x1="243.34" x2="237.19" y1="668.78" y2="672.37" /><line stroke="blue" x1="248.29" x2="243.34" y1="669.56" y2="668.78" /><line stroke="blue" x1="230.64" x2="247.3" y1="646.47" y2="669.4" /><line stroke="blue" x1="233.97" x2="230.64" y1="641.89" y2="646.47" /><line stroke="blue" x1="229.31" x2="234.13" y1="631.42" y2="642.88" /><line stroke="blue" x1="241.36" x2="229.31" y1="614.84" y2="631.42" /><line stroke="blue" x1="246.67" x2="241.36" y1="619.58" y2="614.84" /><line stroke="blue" x1="247.46" x2="246.67" y1="624.53" y2="619.58" /><line stroke="blue" x1="272.13" x2="247.3" y1="589.37" y2="623.54" /><line stroke="blue" x1="270.1" x2="272.7" y1="587.94" y2="589.79" /><line stroke="blue" x1="269.11" x2="270.1" y1="585.08" y2="587.94" /><line stroke="blue" x1="291.34" x2="269.61" y1="546.05" y2="584.39" /><line stroke="blue" x1="296.66" x2="291.34" y1="550.79" y2="546.05" /><line stroke="blue" x1="297.44" x2="296.66" y1="555.74" y2="550.79" /><line stroke="blue" x1="313.94" x2="297.28" y1="531.82" y2="554.75" /><line stroke="blue" x1="319.33" x2="313.94" y1="533.57" y2="531.82" /><line stroke="blue" x1="327.85" x2="318.44" y1="525.9" y2="534.02" /><line stroke="blue" x1="347.34" x2="327.85" y1="532.24" y2="525.9" /><line stroke="blue" x1="344.47" x2="347.34" y1="538.76" y2="532.24" /><line stroke="blue" x1="340.01" x2="344.47" y1="541.03" y2="538.76" /><line stroke="blue" x1="381.07" x2="340.9" y1="553.63" y2="540.58" /><line stroke="blue" x1="381.81" x2="380.85" y1="551.26" y2="554.3" /><line stroke="blue" x1="384.22" x2="381.81" y1="549.43" y2="551.26" /><line stroke="blue" x1="428.21" x2="385.03" y1="558.51" y2="549.7" /><line stroke="blue" x1="425.34" x2="428.21" y1="565.03" y2="558.51" /><line stroke="blue" x1="420.88" x2="425.34" y1="567.31" y2="565.03" /><line stroke="blue" x1="448.73" x2="421.77" y1="575.61" y2="566.85" /><line stroke="blue" x1="123.56" x2="123.56" y1="513.25" y2="518.92" /><line stroke="blue" x1="113.64" x2="124.27" y1="507.53" y2="513.96" /><line stroke="blue" x1="113.64" x2="113.64" y1="487.03" y2="507.53" /><line stroke="blue" x1="120.72" x2="113.64" y1="487.74" y2="487.03" /><line stroke="blue" x1="124.27" x2="120.72" y1="491.29" y2="487.74" /><line stroke="blue" x1="123.56" x2="123.56" y1="448.34" y2="490.58" /><line stroke="blue" x1="121.08" x2="124.27" y1="448.37" y2="448.34" /><line stroke="blue" x1="118.6" x2="121.08" y1="446.64" y2="448.37" /><line stroke="blue" x1="113.64" x2="118.6" y1="402.0" y2="445.79" /><line stroke="blue" x1="120.72" x2="113.64" y1="402.71" y2="402.0" /><line stroke="blue" x1="124.27" x2="120.72" y1="406.25" y2="402.71" /><line stroke="blue" x1="123.56" x2="123.56" y1="377.2" y2="405.54" /><line stroke="blue" x1="128.95" x2="123.56" y1="375.45" y2="377.2" /><line stroke="blue" x1="131.33" x2="128.49" y1="364.24" y2="376.34" /><line stroke="blue" x1="150.82" x2="131.33" y1="357.91" y2="364.24" /><line stroke="blue" x1="152.34" x2="150.82" y1="364.87" y2="357.91" /><line stroke="blue" x1="150.06" x2="152.34" y1="369.33" y2="364.87" /><line stroke="blue" x1="190.68" x2="150.52" y1="355.39" y2="368.44" /><line stroke="blue" x1="189.89" x2="190.9" y1="353.04" y2="356.06" /><line stroke="blue" x1="190.77" x2="189.89" y1="350.15" y2="353.04" /><line stroke="blue" x1="231.69" x2="191.58" y1="331.63" y2="349.88" /><line stroke="blue" x1="233.21" x2="231.69" y1="338.59" y2="331.63" /><line stroke="blue" x1="230.93" x2="233.21" y1="343.06" y2="338.59" /><line stroke="blue" x1="258.34" x2="231.39" y1="333.4" y2="342.16" /><line stroke="blue" x1="261.68" x2="258.34" y1="337.99" y2="333.4" /><line stroke="blue" x1="273.07" x2="260.69" y1="336.79" y2="337.83" /><line stroke="blue" x1="285.11" x2="273.07" y1="353.37" y2="336.79" /><line stroke="blue" x1="278.96" x2="285.11" y1="356.96" y2="353.37" /><line stroke="blue" x1="274.02" x2="278.96" y1="356.18" y2="356.96" /><line stroke="blue" x1="299.83" x2="275.01" y1="390.5" y2="356.33" /><line stroke="blue" x1="301.82" x2="299.26" y1="389.02" y2="390.92" /><line stroke="blue" x1="304.84" x2="301.82" y1="388.96" y2="389.02" /><line stroke="blue" x1="335.1" x2="305.34" y1="422.16" y2="389.65" /><line stroke="blue" x1="328.95" x2="335.1" y1="425.76" y2="422.16" /><line stroke="blue" x1="324.0" x2="328.95" y1="424.97" y2="425.76" /><line stroke="blue" x1="341.65" x2="324.99" y1="448.06" y2="425.13" /><line stroke="blue" x1="338.32" x2="341.65" y1="452.65" y2="448.06" /><line stroke="blue" x1="342.97" x2="338.16" y1="463.11" y2="451.66" /><line stroke="blue" x1="330.93" x2="342.97" y1="479.69" y2="463.11" /><line stroke="blue" x1="325.61" x2="330.93" y1="474.95" y2="479.69" /><line stroke="blue" x1="324.83" x2="325.61" y1="470.0" y2="474.95" /><line stroke="blue" x1="300.16" x2="324.99" y1="505.16" y2="470.99" /><line stroke="blue" x1="302.19" x2="299.59" y1="506.59" y2="504.74" /><line stroke="blue" x1="303.18" x2="302.19" y1="509.45" y2="506.59" /><line stroke="blue" x1="280.95" x2="302.68" y1="548.48" y2="510.14" /><line stroke="blue" x1="275.63" x2="280.95" y1="543.74" y2="548.48" /><line stroke="blue" x1="274.85" x2="275.63" y1="538.8" y2="543.74" /><line stroke="blue" x1="258.34" x2="275.01" y1="562.72" y2="539.79" /><line stroke="blue" x1="252.95" x2="258.34" y1="560.97" y2="562.72" /><line stroke="blue" x1="244.44" x2="253.85" y1="568.63" y2="560.51" /><line stroke="blue" x1="224.95" x2="244.44" y1="562.3" y2="568.63" /><line stroke="blue" x1="227.82" x2="224.95" y1="555.78" y2="562.3" /><line stroke="blue" x1="232.28" x2="227.82" y1="553.5" y2="555.78" /><line stroke="blue" x1="191.22" x2="231.39" y1="540.91" y2="553.96" /><line stroke="blue" x1="190.48" x2="191.44" y1="543.27" y2="540.23" /><line stroke="blue" x1="188.07" x2="190.48" y1="545.1" y2="543.27" /><line stroke="blue" x1="144.08" x2="187.26" y1="536.02" y2="544.84" /><line stroke="blue" x1="146.94" x2="144.08" y1="529.5" y2="536.02" /><line stroke="blue" x1="151.41" x2="146.94" y1="527.23" y2="529.5" /><line stroke="blue" x1="123.56" x2="150.52" y1="518.92" y2="527.68" /><line stroke="blue" x1="219.42" x2="219.42" y1="581.28" y2="575.61" /><line stroke="blue" x1="229.34" x2="218.71" y1="587.01" y2="580.57" /><line stroke="blue" x1="229.34" x2="229.34" y1="607.5" y2="587.01" /><line stroke="blue" x1="222.25" x2="229.34" y1="606.79" y2="607.5" /><line stroke="blue" x1="218.71" x2="222.25" y1="603.25" y2="606.79" /><line stroke="blue" x1="219.42" x2="219.42" y1="646.19" y2="603.96" /><line stroke="blue" x1="221.9" x2="218.71" y1="646.16" y2="646.19" /><line stroke="blue" x1="224.38" x2="221.9" y1="647.89" y2="646.16" /><line stroke="blue" x1="229.34" x2="224.38" y1="692.53" y2="648.74" /><line stroke="blue" x1="222.25" x2="229.34" y1="691.82" y2="692.53" /><line stroke="blue" x1="218.71" x2="222.25" y1="688.28" y2="691.82" /><line stroke="blue" x1="219.42" x2="219.42" y1="717.33" y2="688.99" /><line stroke="blue" x1="214.03" x2="219.42" y1="719.09" y2="717.33" /><line stroke="blue" x1="211.64" x2="214.48" y1="730.29" y2="718.19" /><line stroke="blue" x1="192.16" x2="211.64" y1="736.62" y2="730.29" /><line stroke="blue" x1="190.64" x2="192.16" y1="729.67" y2="736.62" /><line stroke="blue" x1="192.91" x2="190.64" y1="725.2" y2="729.67" /><line stroke="blue" x1="152.29" x2="192.46" y1="739.14" y2="726.09" /><line stroke="blue" x1="153.09" x2="152.07" y1="741.49" y2="738.47" /><line stroke="blue" x1="152.21" x2="153.09" y1="744.39" y2="741.49" /><line stroke="blue" x1="111.28" x2="151.4" y1="762.9" y2="744.65" /><line stroke="blue" x1="109.77" x2="111.28" y1="755.94" y2="762.9" /><line stroke="blue" x1="112.04" x2="109.77" y1="751.48" y2="755.94" /><line stroke="blue" x1="84.63" x2="111.59" y1="761.13" y2="752.37" /><line stroke="blue" x1="81.3" x2="84.63" y1="756.54" y2="761.13" /><line stroke="blue" x1="69.91" x2="82.29" y1="757.74" y2="756.7" /><line stroke="blue" x1="57.86" x2="69.91" y1="741.16" y2="757.74" /><line stroke="blue" x1="64.01" x2="57.86" y1="737.57" y2="741.16" /><line stroke="blue" x1="68.96" x2="64.01" y1="738.35" y2="737.57" /><line stroke="blue" x1="43.15" x2="67.97" y1="704.03" y2="738.2" /><line stroke="blue" x1="41.16" x2="43.72" y1="705.51" y2="703.61" /><line stroke="blue" x1="38.13" x2="41.16" y1="705.57" y2="705.51" /><line stroke="blue" x1="7.88" x2="37.63" y1="672.37" y2="704.88" /><line stroke="blue" x1="14.03" x2="7.88" y1="668.78" y2="672.37" /><line stroke="blue" x1="18.98" x2="14.03" y1="669.56" y2="668.78" /><line stroke="blue" x1="1.33" x2="17.99" y1="646.47" y2="669.4" /><line stroke="blue" x1="4.66" x2="1.33" y1="641.89" y2="646.47" /><line stroke="blue" x1="0.0" x2="4.82" y1="631.42" y2="642.88" /><line stroke="blue" x1="12.04" x2="0.0" y1="614.84" y2="631.42" /><line stroke="blue" x1="17.36" x2="12.04" y1="619.58" y2="614.84" /><line stroke="blue" x1="18.14" x2="17.36" y1="624.53" y2="619.58" /><line stroke="blue" x1="42.81" x2="17.99" y1="589.37" y2="623.54" /><line stroke="blue" x1="40.79" x2="43.39" y1="587.94" y2="589.79" /><line stroke="blue" x1="39.8" x2="40.79" y1="585.08" y2="587.94" /><line stroke="blue" x1="62.03" x2="40.3" y1="546.05" y2="584.39" /><line stroke="blue" x1="67.34" x2="62.03" y1="550.79" y2="546.05" /><line stroke="blue" x1="68.13" x2="67.34" y1="555.74" y2="550.79" /><line stroke="blue" x1="84.63" x2="67.97" y1="531.82" y2="554.75" /><line stroke="blue" x1="90.02" x2="84.63" y1="533.57" y2="531.82" /><line stroke="blue" x1="98.53" x2="89.13" y1="525.9" y2="534.02" /><line stroke="blue" x1="118.02" x2="98.53" y1="532.24" y2="525.9" /><line stroke="blue" x1="115.16" x2="118.02" y1="538.76" y2="532.24" /><line stroke="blue" x1="110.69" x2="115.16" y1="541.03" y2="538.76" /><line stroke="blue" x1="151.75" x2="111.59" y1="553.63" y2="540.58" /><line stroke="blue" x1="152.49" x2="151.54" y1="551.26" y2="554.3" /><line stroke="blue" x1="154.9" x2="152.49" y1="549.43" y2="551.26" /><line stroke="blue" x1="198.89" x2="155.71" y1="558.51" y2="549.7" /><line stroke="blue" x1="196.03" x2="198.89" y1="565.03" y2="558.51" /><line stroke="blue" x1="191.57" x2="196.03" y1="567.31" y2="565.03" /><line stroke="blue" x1="219.42" x2="192.46" y1="575.61" y2="566.85" /></g><g id="scorelines"><line stroke="red" x1="125.85" x2="145.98" y1="150.94" y2="150.94" /><line stroke="red" x1="40.82" x2="77.95" y1="150.94" y2="150.94" /><line stroke="red" x1="10.63" x2="10.63" y1="125.85" y2="145.98" /><line stroke="red" x1="10.63" x2="10.63" y1="40.82" y2="77.95" /><line stroke="red" x1="35.71" x2="15.59" y1="10.63" y2="10.63" /><line stroke="red" x1="120.75" x2="83.62" y1="10.63" y2="10.63" /><line stroke="red" x1="150.94" x2="150.94" y1="35.71" y2="15.59" /><line stroke="red" x1="150.94" x2="150.94" y1="120.75" y2="83.62" /><line stroke="red" x1="290.25" x2="310.37" y1="150.94" y2="150.94" /><line stroke="red" x1="205.22" x2="242.35" y1="150.94" y2="150.94" /><line stroke="red" x1="175.03" x2="175.03" y1="125.85" y2="145.98" /><line stroke="red" x1="175.03" x2="175.03" y1="40.82" y2="77.95" /><line stroke="red" x1="200.11" x2="179.99" y1="10.63" y2="10.63" /><line stroke="red" x1="285.15" x2="248.02" y1="10.63" y2="10.63" /><line stroke="red" x1="315.33" x2="315.33" y1="35.71" y2="15.59" /><line stroke="red" x1="315.33" x2="315.33" y1="120.75" y2="83.62" /><line stroke="red" x1="454.65" x2="474.77" y1="150.94" y2="150.94" /><line stroke="red" x1="369.61" x2="406.75" y1="150.94" y2="150.94" /><line stroke="red" x1="339.43" x2="339.43" y1="125.85" y2="145.98" /><line stroke="red" x1="339.43" x2="339.43" y1="40.82" y2="77.95" /><line stroke="red" x1="364.51" x2="344.39" y1="10.63" y2="10.63" /><line stroke="red" x1="449.55" x2="412.41" y1="10.63" y2="10.63" /><line stroke="red" x1="479.73" x2="479.73" y1="35.71" y2="15.59" /><line stroke="red" x1="479.73" x2="479.73" y1="120.75" y2="83.62" /><line stroke="red" x1="125.85" x2="145.98" y1="315.33" y2="315.33" /><line stroke="red" x1="40.82" x2="77.95" y1="315.33" y2="315.33" /><line stroke="red" x1="10.63" x2="10.63" y1="290.25" y2="310.37" /><line stroke="red" x1="10.63" x2="10.63" y1="205.22" y2="242.35" /><line stroke="red" x1="35.71" x2="15.59" y1="175.03" y2="175.03" /><line stroke="red" x1="120.75" x2="83.62" y1="175.03" y2="175.03" /><line stroke="red" x1="150.94" x2="150.94" y1="200.11" y2="179.99" /><line stroke="red" x1="150.94" x2="150.94" y1="285.15" y2="248.02" /><line stroke="red" x1="290.25" x2="310.37" y1="315.33" y2="315.33" /><line stroke="red" x1="205.22" x2="242.35" y1="315.33" y2="315.33" /><line stroke="red" x1="175.03" x2="175.03" y1="290.25" y2="310.37" /><line stroke="red" x1="175.03" x2="175.03" y1="205.22" y2="242.35" /><line stroke="red" x1="200.11" x2="179.99" y1="175.03" y2="175.03" /><line stroke="red" x1="285.15" x2="248.02" y1="175.03" y2="175.03" /><line stroke="red" x1="315.33" x2="315.33" y1="200.11" y2="179.99" /><line stroke="red" x1="315.33" x2="315.33" y1="285.15" y2="248.02" /><line stroke="red" x1="454.65" x2="474.77" y1="315.33" y2="315.33" /><line stroke="red" x1="369.61" x2="406.75" y1="315.33" y2="315.33" /><line stroke="red" x1="339.43" x2="339.43" y1="290.25" y2="310.37" /><line stroke="red" x1="339.43" x2="339.43" y1="205.22" y2="242.35" /><line stroke="red" x1="364.51" x2="344.39" y1="175.03" y2="175.03" /><line stroke="red" x1="449.55" x2="412.41" y1="175.03" y2="175.03" /><line stroke="red" x1="479.73" x2="479.73" y1="200.11" y2="179.99" /><line stroke="red" x1="479.73" x2="479.73" y1="285.15" y2="248.02" /><line stroke="red" x1="353.58" x2="353.58" y1="493.13" y2="513.25" /><line stroke="red" x1="353.58" x2="353.58" y1="408.09" y2="445.23" /><line stroke="red" x1="377.62" x2="358.48" y1="369.9" y2="376.12" /><line stroke="red" x1="458.49" x2="423.18" y1="343.62" y2="355.1" /><line stroke="red" x1="502.25" x2="490.42" y1="354.69" y2="338.41" /><line stroke="red" x1="552.23" x2="530.4" y1="423.48" y2="393.44" /><line stroke="red" x1="555.23" x2="567.06" y1="468.51" y2="452.23" /><line stroke="red" x1="505.24" x2="527.07" y1="537.31" y2="507.27" /><line stroke="red" x1="463.35" x2="482.49" y1="554.07" y2="560.29" /><line stroke="red" x1="382.47" x2="417.79" y1="527.8" y2="539.27" /><line stroke="red" x1="448.02" x2="448.02" y1="601.4" y2="581.28" /><line stroke="red" x1="448.02" x2="448.02" y1="686.44" y2="649.31" /><line stroke="red" x1="423.98" x2="443.12" y1="724.63" y2="718.41" /><line stroke="red" x1="343.11" x2="378.42" y1="750.91" y2="739.43" /><line stroke="red" x1="299.36" x2="311.18" y1="739.85" y2="756.13" /><line stroke="red" x1="249.37" x2="271.2" y1="671.05" y2="701.09" /><line stroke="red" x1="246.37" x2="234.55" y1="626.02" y2="642.3" /><line stroke="red" x1="296.36" x2="274.53" y1="557.23" y2="587.27" /><line stroke="red" x1="338.26" x2="319.12" y1="540.46" y2="534.24" /><line stroke="red" x1="419.13" x2="383.81" y1="566.74" y2="555.26" /><line stroke="red" x1="124.27" x2="124.27" y1="493.13" y2="513.25" /><line stroke="red" x1="124.27" x2="124.27" y1="408.09" y2="445.23" /><line stroke="red" x1="148.31" x2="129.17" y1="369.9" y2="376.12" /><line stroke="red" x1="229.18" x2="193.87" y1="343.62" y2="355.1" /><line stroke="red" x1="272.93" x2="261.1" y1="354.69" y2="338.41" /><line stroke="red" x1="322.91" x2="301.09" y1="423.48" y2="393.44" /><line stroke="red" x1="325.91" x2="337.74" y1="468.51" y2="452.23" /><line stroke="red" x1="275.93" x2="297.76" y1="537.31" y2="507.27" /><line stroke="red" x1="234.03" x2="253.17" y1="554.07" y2="560.29" /><line stroke="red" x1="153.16" x2="188.47" y1="527.8" y2="539.27" /><line stroke="red" x1="218.71" x2="218.71" y1="601.4" y2="581.28" /><line stroke="red" x1="218.71" x2="218.71" y1="686.44" y2="649.31" /><line stroke="red" x1="194.67" x2="213.81" y1="724.63" y2="718.41" /><line stroke="red" x1="113.79" x2="149.11" y1="750.91" y2="739.43" /><line stroke="red" x1="70.04" x2="81.87" y1="739.85" y2="756.13" /><line stroke="red" x1="20.06" x2="41.89" y1="671.05" y2="701.09" /><line stroke="red" x1="17.06" x2="5.23" y1="626.02" y2="642.3" /><line stroke="red" x1="67.04" x2="45.22" y1="557.23" y2="587.27" /><line stroke="red" x1="108.94" x2="89.8" y1="540.46" y2="534.24" /><line stroke="red" x1="189.81" x2="154.5" y1="566.74" y2="555.26" /></g></svg>