<?xml version="1.0" encoding="utf-8" ?>
<svg baseProfile="full" height="22.9cm" version="1.1" width="21.0cm" xmlns="http://www.w3.org/2000/svg" xmlns:ev="http://www.w3.org/2001/xml-events" xmlns:xlink="http://www.w3.org/1999/xlink"><defs /><g id="cutlines"><line stroke="blue" x1="199.83" x2="199.83" y1="197.65" y2="203.32" /><line stroke="blue" x1="189.91" x2="200.54" y1="191.92" y2="198.36" /><line stroke="blue" x1="189.91" x2="189.91" y1="160.09" y2="191.92" /><line stroke="blue" x1="197.0" x2="189.91" y1="160.8" y2="160.09" /><line stroke="blue" x1="200.54" x2="197.0" y1="164.34" y2="160.8" /><line stroke="blue" x1="199.83" x2="199.83" y1="103.39" y2="163.64" /><line stroke="blue" x1="197.35" x2="200.54" y1="103.42" y2="103.39" /><line stroke="blue" x1="194.87" x2="197.35" y1="101.69" y2="103.42" /><line stroke="blue" x1="189.91" x2="194.87" y1="39.03" y2="100.84" /><line stroke="blue" x1="197.0" x2="189.91" y1="39.74" y2="39.03" /><line stroke="blue" x1="200.54" x2="197.0" y1="43.28" y2="39.74" /><line stroke="blue" x1="199.83" x2="199.83" y1="2.89" y2="42.58" /><line stroke="blue" x1="204.74" x2="199.83" y1="5.73" y2="2.89" /><line stroke="blue" x1="214.66" x2="203.77" y1="0.0" y2="5.99" /><line stroke="blue" x1="242.22" x2="214.66" y1="15.91" y2="0.0" /><line stroke="blue" x1="238.07" x2="242.22" y1="21.7" y2="15.91" /><line stroke="blue" x1="233.23" x2="238.07" y1="22.99" y2="21.7" /><line stroke="blue" x1="286.37" x2="234.2" y1="52.86" y2="22.73" /><line stroke="blue" x1="287.59" x2="286.02" y1="50.7" y2="53.47" /><line stroke="blue" x1="290.32" x2="287.59" y1="49.41" y2="50.7" /><line stroke="blue" x1="347.07" x2="291.06" y1="76.44" y2="49.84" /><line stroke="blue" x1="342.91" x2="347.07" y1="82.23" y2="76.44" /><line stroke="blue" x1="338.07" x2="342.91" y1="83.52" y2="82.23" /><line stroke="blue" x1="373.4" x2="339.04" y1="103.11" y2="83.26" /><line stroke="blue" x1="368.49" x2="373.4" y1="105.94" y2="103.11" /><line stroke="blue" x1="368.49" x2="368.75" y1="117.4" y2="104.97" /><line stroke="blue" x1="340.93" x2="368.49" y1="133.31" y2="117.4" /><line stroke="blue" x1="338.0" x2="340.93" y1="126.82" y2="133.31" /><line stroke="blue" x1="339.3" x2="338.0" y1="121.98" y2="126.82" /><line stroke="blue" x1="286.86" x2="339.04" y1="153.07" y2="122.95" /><line stroke="blue" x1="288.13" x2="286.51" y1="155.2" y2="152.46" /><line stroke="blue" x1="287.87" x2="288.13" y1="158.22" y2="155.2" /><line stroke="blue" x1="236.09" x2="287.13" y1="193.84" y2="158.64" /><line stroke="blue" x1="233.16" x2="236.09" y1="187.35" y2="193.84" /><line stroke="blue" x1="234.46" x2="233.16" y1="182.51" y2="187.35" /><line stroke="blue" x1="199.83" x2="234.2" y1="203.32" y2="183.48" /><line stroke="blue" x1="365.65" x2="365.65" y1="134.83" y2="129.16" /><line stroke="blue" x1="375.57" x2="364.94" y1="140.56" y2="134.12" /><line stroke="blue" x1="375.57" x2="375.57" y1="172.39" y2="140.56" /><line stroke="blue" x1="368.49" x2="375.57" y1="171.68" y2="172.39" /><line stroke="blue" x1="364.94" x2="368.49" y1="168.13" y2="171.68" /><line stroke="blue" x1="365.65" x2="365.65" y1="229.09" y2="168.84" /><line stroke="blue" x1="368.13" x2="364.94" y1="229.06" y2="229.09" /><line stroke="blue" x1="370.61" x2="368.13" y1="230.79" y2="229.06" /><line stroke="blue" x1="375.57" x2="370.61" y1="293.45" y2="231.64" /><line stroke="blue" x1="368.49" x2="375.57" y1="292.74" y2="293.45" /><line stroke="blue" x1="364.94" x2="368.49" y1="289.2" y2="292.74" /><line stroke="blue" x1="365.65" x2="365.65" y1="329.59" y2="289.9" /><line stroke="blue" x1="360.74" x2="365.65" y1="326.75" y2="329.59" /><line stroke="blue" x1="350.82" x2="361.71" y1="332.48" y2="326.49" /><line stroke="blue" x1="323.26" x2="350.82" y1="316.56" y2="332.48" /><line stroke="blue" x1="327.41" x2="323.26" y1="310.78" y2="316.56" /><line stroke="blue" x1="332.25" x2="327.41" y1="309.49" y2="310.78" /><line stroke="blue" x1="279.11" x2="331.29" y1="279.62" y2="309.74" /><line stroke="blue" x1="277.9" x2="279.46" y1="281.78" y2="279.01" /><line stroke="blue" x1="275.16" x2="277.9" y1="283.07" y2="281.78" /><line stroke="blue" x1="218.42" x2="274.42" y1="256.03" y2="282.64" /><line stroke="blue" x1="222.57" x2="218.42" y1="250.25" y2="256.03" /><line stroke="blue" x1="227.41" x2="222.57" y1="248.96" y2="250.25" /><line stroke="blue" x1="192.08" x2="226.44" y1="229.37" y2="249.21" /><line stroke="blue" x1="196.99" x2="192.08" y1="226.54" y2="229.37" /><line stroke="blue" x1="196.99" x2="196.73" y1="215.08" y2="227.51" /><line stroke="blue" x1="224.55" x2="196.99" y1="199.17" y2="215.08" /><line stroke="blue" x1="227.48" x2="224.55" y1="205.66" y2="199.17" /><line stroke="blue" x1="226.19" x2="227.48" y1="210.5" y2="205.66" /><line stroke="blue" x1="278.62" x2="226.44" y1="179.41" y2="209.53" /><line stroke="blue" x1="277.36" x2="278.97" y1="177.28" y2="180.02" /><line stroke="blue" x1="277.61" x2="277.36" y1="174.26" y2="177.28" /><line stroke="blue" x1="329.39" x2="278.35" y1="138.64" y2="173.84" /><line stroke="blue" x1="332.32" x2="329.39" y1="145.13" y2="138.64" /><line stroke="blue" x1="331.03" x2="332.32" y1="149.97" y2="145.13" /><line stroke="blue" x1="365.65" x2="331.29" y1="129.16" y2="149.0" /><line stroke="blue" x1="199.83" x2="199.83" y1="452.75" y2="458.42" /><line stroke="blue" x1="189.91" x2="200.54" y1="447.02" y2="453.46" /><line stroke="blue" x1="189.91" x2="189.91" y1="415.19" y2="447.02" /><line stroke="blue" x1="197.0" x2="189.91" y1="415.9" y2="415.19" /><line stroke="blue" x1="200.54" x2="197.0" y1="419.45" y2="415.9" /><line stroke="blue" x1="199.83" x2="199.83" y1="358.49" y2="418.74" /><line stroke="blue" x1="197.35" x2="200.54" y1="358.52" y2="358.49" /><line stroke="blue" x1="194.87" x2="197.35" y1="356.79" y2="358.52" /><line stroke="blue" x1="189.91" x2="194.87" y1="294.13" y2="355.94" /><line stroke="blue" x1="197.0" x2="189.91" y1="294.84" y2="294.13" /><line stroke="blue" x1="200.54" x2="197.0" y1="298.39" y2="294.84" /><line stroke="blue" x1="199.83" x2="199.83" y1="258.0" y2="297.68" /><line stroke="blue" x1="204.74" x2="199.83" y1="260.83" y2="258.0" /><line stroke="blue" x1="214.66" x2="203.77" y1="255.1" y2="261.09" /><line stroke="blue" x1="242.22" x2="214.66" y1="271.02" y2="255.1" /><line stroke="blue" x1="238.07" x2="242.22" y1="276.8" y2="271.02" /><line stroke="blue" x1="233.23" x2="238.07" y1="278.1" y2="276.8" /><line stroke="blue" x1="286.37" x2="234.2" y1="307.96" y2="277.84" /><line stroke="blue" x1="287.59" x2="286.02" y1="305.8" y2="308.57" /><line stroke="blue" x1="290.32" x2="287.59" y1="304.51" y2="305.8" /><line stroke="blue" x1="347.07" x2="291.06" y1="331.55" y2="304.94" /><line stroke="blue" x1="342.91" x2="347.07" y1="337.33" y2="331.55" /><line stroke="blue" x1="338.07" x2="342.91" y1="338.63" y2="337.33" /><line stroke="blue" x1="373.4" x2="339.04" y1="358.21" y2="338.37" /><line stroke="blue" x1="368.49" x2="373.4" y1="361.04" y2="358.21" /><line stroke="blue" x1="368.49" x2="368.75" y1="372.5" y2="360.07" /><line stroke="blue" x1="340.93" x2="368.49" y1="388.41" y2="372.5" /><line stroke="blue" x1="338.0" x2="340.93" y1="381.92" y2="388.41" /><line stroke="blue" x1="339.3" x2="338.0" y1="377.08" y2="381.92" /><line stroke="blue" x1="286.86" x2="339.04" y1="408.17" y2="378.05" /><line stroke="blue" x1="288.13" x2="286.51" y1="410.31" y2="407.56" /><line stroke="blue" x1="287.87" x2="288.13" y1="413.32" y2="410.31" /><line stroke="blue" x1="236.09" x2="287.13" y1="448.94" y2="413.74" /><line stroke="blue" x1="233.16" x2="236.09" y1="442.45" y2="448.94" /><line stroke="blue" x1="234.46" x2="233.16" y1="437.61" y2="442.45" /><line stroke="blue" x1="199.83" x2="234.2" y1="458.42" y2="438.58" /><line stroke="blue" x1="365.65" x2="365.65" y1="389.93" y2="384.26" /><line stroke="blue" x1="375.57" x2="364.94" y1="395.66" y2="389.22" /><line stroke="blue" x1="375.57" x2="375.57" y1="427.49" y2="395.66" /><line stroke="blue" x1="368.49" x2="375.57" y1="426.78" y2="427.49" /><line stroke="blue" x1="364.94" x2="368.49" y1="423.24" y2="426.78" /><line stroke="blue" x1="365.65" x2="365.65" y1="484.19" y2="423.95" /><line stroke="blue" x1="368.13" x2="364.94" y1="484.16" y2="484.19" /><line stroke="blue" x1="370.61" x2="368.13" y1="485.89" y2="484.16" /><line stroke="blue" x1="375.57" x2="370.61" y1="548.55" y2="486.74" /><line stroke="blue" x1="368.49" x2="375.57" y1="547.84" y2="548.55" /><line stroke="blue" x1="364.94" x2="368.49" y1="544.3" y2="547.84" /><line stroke="blue" x1="365.65" x2="365.65" y1="584.69" y2="545.01" /><line stroke="blue" x1="360.74" x2="365.65" y1="581.85" y2="584.69" /><line stroke="blue" x1="350.82" x2="361.71" y1="587.58" y2="581.59" /><line stroke="blue" x1="323.26" x2="350.82" y1="571.67" y2="587.58" /><line stroke="blue" x1="327.41" x2="323.26" y1="565.88" y2="571.67" /><line stroke="blue" x1="332.25" x2="327.41" y1="564.59" y2="565.88" /><line stroke="blue" x1="279.11" x2="331.29" y1="534.72" y2="564.85" /><line stroke="blue" x1="277.9" x2="279.46" y1="536.89" y2="534.11" /><line stroke="blue" x1="275.16" x2="277.9" y1="538.17" y2="536.89" /><line stroke="blue" x1="218.42" x2="274.42" y1="511.14" y2="537.74" /><line stroke="blue" x1="222.57" x2="218.42" y1="505.35" y2="511.14" /><line stroke="blue" x1="227.41" x2="222.57" y1="504.06" y2="505.35" /><line stroke="blue" x1="192.08" x2="226.44" y1="484.48" y2="504.32" /><line stroke="blue" x1="196.99" x2="192.08" y1="481.64" y2="484.48" /><line stroke="blue" x1="196.99" x2="196.73" y1="470.19" y2="482.61" /><line stroke="blue" x1="224.55" x2="196.99" y1="454.27" y2="470.19" /><line stroke="blue" x1="227.48" x2="224.55" y1="460.76" y2="454.27" /><line stroke="blue" x1="226.19" x2="227.48" y1="465.6" y2="460.76" /><line stroke="blue" x1="278.62" x2="226.44" y1="434.51" y2="464.63" /><line stroke="blue" x1="277.36" x2="278.97" y1="432.38" y2="435.12" /><line stroke="blue" x1="277.61" x2="277.36" y1="429.37" y2="432.38" /><line stroke="blue" x1="329.39" x2="278.35" y1="393.74" y2="428.94" /><line stroke="blue" x1="332.32" x2="329.39" y1="400.23" y2="393.74" /><line stroke="blue" x1="331.03" x2="332.32" y1="405.07" y2="400.23" /><line stroke="blue" x1="365.65" x2="331.29" y1="384.26" y2="404.1" /><line stroke="blue" x1="9.92" x2="9.92" y1="197.65" y2="203.32" /><line stroke="blue" x1="0.0" x2="10.63" y1="191.92" y2="198.36" /><line stroke="blue" x1="0.0" x2="0.0" y1="160.09" y2="191.92" /><line stroke="blue" x1="7.09" x2="0.0" y1="160.8" y2="160.09" /><line stroke="blue" x1="10.63" x2="7.09" y1="164.34" y2="160.8" /><line stroke="blue" x1="9.92" x2="9.92" y1="103.39" y2="163.64" /><line stroke="blue" x1="7.44" x2="10.63" y1="103.42" y2="103.39" /><line stroke="blue" x1="4.96" x2="7.44" y1="101.69" y2="103.42" /><line stroke="blue" x1="0.0" x2="4.96" y1="39.03" y2="100.84" /><line stroke="blue" x1="7.09" x2="0.0" y1="39.74" y2="39.03" /><line stroke="blue" x1="10.63" x2="7.09" y1="43.28" y2="39.74" /><line stroke="blue" x1="9.92" x2="9.92" y1="2.89" y2="42.58" /><line stroke="blue" x1="14.83" x2="9.92" y1="5.73" y2="2.89" /><line stroke="blue" x1="24.75" x2="13.86" y1="0.0" y2="5.99" /><line stroke="blue" x1="52.32" x2="24.75" y1="15.91" y2="0.0" /><line stroke="blue" x1="48.16" x2="52.32" y1="21.7" y2="15.91" /><line stroke="blue" x1="43.32" x2="48.16" y1="22.99" y2="21.7" /><line stroke="blue" x1="96.46" x2="44.29" y1="52.86" y2="22.73" /><line stroke="blue" x1="97.68" x2="96.11" y1="50.7" y2="53.47" /><line stroke="blue" x1="100.41" x2="97.68" y1="49.41" y2="50.7" /><line stroke="blue" x1="157.16" x2="101.15" y1="76.44" y2="49.84" /><line stroke="blue" x1="153.0" x2="157.16" y1="82.23" y2="76.44" /><line stroke="blue" x1="148.16" x2="153.0" y1="83.52" y2="82.23" /><line stroke="blue" x1="183.49" x2="149.13" y1="103.11" y2="83.26" /><line stroke="blue" x1="178.58" x2="183.49" y1="105.94" y2="103.11" /><line stroke="blue" x1="178.58" x2="178.84" y1="117.4" y2="104.97" /><line stroke="blue" x1="151.02" x2="178.58" y1="133.31" y2="117.4" /><line stroke="blue" x1="148.09" x2="151.02" y1="126.82" y2="133.31" /><line stroke="blue" x1="149.39" x2="148.09" y1="121.98" y2="126.82" /><line stroke="blue" x1="96.95" x2="149.13" y1="153.07" y2="122.95" /><line stroke="blue" x1="98.22" x2="96.6" y1="155.2" y2="152.46" /><line stroke="blue" x1="97.96" x2="98.22" y1="158.22" y2="155.2" /><line stroke="blue" x1="46.18" x2="97.22" y1="193.84" y2="158.64" /><line stroke="blue" x1="43.25" x2="46.18" y1="187.35" y2="193.84" /><line stroke="blue" x1="44.55" x2="43.25" y1="182.51" y2="187.35" /><line stroke="blue" x1="9.92" x2="44.29" y1="203.32" y2="183.48" /><line stroke="blue" x1="175.74" x2="175.74" y1="134.83" y2="129.16" /><line stroke="blue" x1="185.66" x2="175.03" y1="140.56" y2="134.12" /><line stroke="blue" x1="185.66" x2="185.66" y1="172.39" y2="140.56" /><line stroke="blue" x1="178.58" x2="185.66" y1="171.68" y2="172.39" /><line stroke="blue" x1="175.03" x2="178.58" y1="168.13" y2="171.68" /><line stroke="blue" x1="175.74" x2="175.74" y1="229.09" y2="168.84" /><line stroke="blue" x1="178.22" x2="175.03" y1="229.06" y2="229.09" /><line stroke="blue" x1="180.7" x2="178.22" y1="230.79" y2="229.06" /><line stroke="blue" x1="185.66" x2="180.7" y1="293.45" y2="231.64" /><line stroke="blue" x1="178.58" x2="185.66" y1="292.74" y2="293.45" /><line stroke="blue" x1="175.03" x2="178.58" y1="289.2" y2="292.74" /><line stroke="blue" x1="175.74" x2="175.74" y1="329.59" y2="289.9" /><line stroke="blue" x1="170.83" x2="175.74" y1="326.75" y2="329.59" /><line stroke="blue" x1="160.91" x2="171.8" y1="332.48" y2="326.49" /><line stroke="blue" x1="133.35" x2="160.91" y1="316.56" y2="332.48" /><line stroke="blue" x1="137.5" x2="133.35" y1="310.78" y2="316.56" /><line stroke="blue" x1="142.34" x2="137.5" y1="309.49" y2="310.78" /><line stroke="blue" x1="89.2" x2="141.38" y1="279.62" y2="309.74" /><line stroke="blue" x1="87.99" x2="89.56" y1="281.78" y2="279.01" /><line stroke="blue" x1="85.25" x2="87.99" y1="283.07" y2="281.78" /><line stroke="blue" x1="28.51" x2="84.51" y1="256.03" y2="282.64" /><line stroke="blue" x1="32.66" x2="28.51" y1="250.25" y2="256.03" /><line stroke="blue" x1="37.5" x2="32.66" y1="248.96" y2="250.25" /><line stroke="blue" x1="2.17" x2="36.54" y1="229.37" y2="249.21" /><line stroke="blue" x1="7.08" x2="2.17" y1="226.54" y2="229.37" /><line stroke="blue" x1="7.08" x2="6.82" y1="215.08" y2="227.51" /><line stroke="blue" x1="34.64" x2="7.08" y1="199.17" y2="215.08" /><line stroke="blue" x1="37.57" x2="34.64" y1="205.66" y2="199.17" /><line stroke="blue" x1="36.28" x2="37.57" y1="210.5" y2="205.66" /><line stroke="blue" x1="88.71" x2="36.54" y1="179.41" y2="209.53" /><line stroke="blue" x1="87.45" x2="89.06" y1="177.28" y2="180.02" /><line stroke="blue" x1="87.7" x2="87.45" y1="174.26" y2="177.28" /><line stroke="blue" x1="139.48" x2="88.44" y1="138.64" y2="173.84" /><line stroke="blue" x1="142.41" x2="139.48" y1="145.13" y2="138.64" /><line stroke="blue" x1="141.12" x2="142.41" y1="149.97" y2="145.13" /><line stroke="blue" x1="175.74" x2="141.38" y1="129.16" y2="149.0" /><line stroke="blue" x1="9.92" x2="9.92" y1="452.75" y2="458.42" /><line stroke="blue" x1="0.0" x2="10.63" y1="447.02" y2="453.46" /><line stroke="blue" x1="0.0" x2="0.0" y1="415.19" y2="447.02" /><line stroke="blue" x1="7.09" x2="0.0" y1="415.9" y2="415.19" /><line stroke="blue" x1="10.63" x2="7.09" y1="419.45" y2="415.9" /><line stroke="blue" x1="9.92" x2="9.92" y1="358.49" y2="418.74" /><line stroke="blue" x1="7.44" x2="10.63" y1="358.52" y2="358.49" /><line stroke="blue" x1="4.96" x2="7.44" y1="356.79" y2="358.52" /><line stroke="blue" x1="0.0" x2="4.96" y1="294.13" y2="355.94" /><line stroke="blue" x1="7.09" x2="0.0" y1="294.84" y2="294.13" /><line stroke="blue" x1="10.63" x2="7.09" y1="298.39" y2="294.84" /><line stroke="blue" x1="9.92" x2="9.92" y1="258.0" y2="297.68" /><line stroke="blue" x1="14.83" x2="9.92" y1="260.83" y2="258.0" /><line stroke="blue" x1="24.75" x2="13.86" y1="255.1" y2="261.09" /><line stroke="blue" x1="52.32" x2="24.75" y1="271.02" y2="255.1" /><line stroke="blue" x1="48.16" x2="52.32" y1="276.8" y2="271.02" /><line stroke="blue" x1="43.32" x2="48.16" y1="278.1" y2="276.8" /><line stroke="blue" x1="96.46" x2="44.29" y1="307.96" y2="277.84" /><line stroke="blue" x1="97.68" x2="96.11" y1="305.8" y2="308.57" /><line stroke="blue" x1="100.41" x2="97.68" y1="304.51" y2="305.8" /><line stroke="blue" x1="157.16" x2="101.15" y1="331.55" y2="304.94" /><line stroke="blue" x1="153.0" x2="157.16" y1="337.33" y2="331.55" /><line stroke="blue" x1="148.16" x2="153.0" y1="338.63" y2="337.33" /><line stroke="blue" x1="183.49" x2="149.13" y1="358.21" y2="338.37" /><line stroke="blue" x1="178.58" x2="183.49" y1="361.04" y2="358.21" /><line stroke="blue" x1="178.58" x2="178.84" y1="372.5" y2="360.07" /><line stroke="blue" x1="151.02" x2="178.58" y1="388.41" y2="372.5" /><line stroke="blue" x1="148.09" x2="151.02" y1="381.92" y2="388.41" /><line stroke="blue" x1="149.39" x2="148.09" y1="377.08" y2="381.92" /><line stroke="blue" x1="96.95" x2="149.13" y1="408.17" y2="378.05" /><line stroke="blue" x1="98.22" x2="96.6" y1="410.31" y2="407.56" /><line stroke="blue" x1="97.96" x2="98.22" y1="413.32" y2="410.31" /><line stroke="blue" x1="46.18" x2="97.22" y1="448.94" y2="413.74" /><line stroke="blue" x1="43.25" x2="46.18" y1="442.45" y2="448.94" /><line stroke="blue" x1="44.55" x2="43.25" y1="437.61" y2="442.45" /><line stroke="blue" x1="9.92" x2="44.29" y1="458.42" y2="438.58" /><line stroke="blue" x1="175.74" x2="175.74" y1="389.93" y2="384.26" /><line stroke="blue" x1="185.66" x2="175.03" y1="395.66" y2="389.22" /><line stroke="blue" x1="185.66" x2="185.66" y1="427.49" y2="395.66" /><line stroke="blue" x1="178.58" x2="185.66" y1="426.78" y2="427.49" /><line stroke="blue" x1="175.03" x2="178.58" y1="423.24" y2="426.78" /><line stroke="blue" x1="175.74" x2="175.74" y1="484.19" y2="423.95" /><line stroke="blue" x1="178.22" x2="175.03" y1="484.16" y2="484.19" /><line stroke="blue" x1="180.7" x2="178.22" y1="485.89" y2="484.16" /><line stroke="blue" x1="185.66" x2="180.7" y1="548.55" y2="486.74" /><line stroke="blue" x1="178.58" x2="185.66" y1="547.84" y2="548.55" /><line stroke="blue" x1="175.03" x2="178.58" y1="544.3" y2="547.84" /><line stroke="blue" x1="175.74" x2="175.74" y1="584.69" y2="545.01" /><line stroke="blue" x1="170.83" x2="175.74" y1="581.85" y2="584.69" /><line stroke="blue" x1="160.91" x2="171.8" y1="587.58" y2="581.59" /><line stroke="blue" x1="133.35" x2="160.91" y1="571.67" y2="587.58" /><line stroke="blue" x1="137.5" x2="133.35" y1="565.88" y2="571.67" /><line stroke="blue" x1="142.34" x2="137.5" y1="564.59" y2="565.88" /><line stroke="blue" x1="89.2" x2="141.38" y1="534.72" y2="564.85" /><line stroke="blue" x1="87.99" x2="89.56" y1="536.89" y2="534.11" /><line stroke="blue" x1="85.25" x2="87.99" y1="538.17" y2="536.89" /><line stroke="blue" x1="28.51" x2="84.51" y1="511.14" y2="537.74" /><line stroke="blue" x1="32.66" x2="28.51" y1="505.35" y2="511.14" /><line stroke="blue" x1="37.5" x2="32.66" y1="504.06" y2="505.35" /><line stroke="blue" x1="2.17" x2="36.54" y1="484.48" y2="504.32" /><line stroke="blue" x1="7.08" x2="2.17" y1="481.64" y2="484.48" /><line stroke="blue" x1="7.08" x2="6.82" y1="470.19" y2="482.61" /><line stroke="blue" x1="34.64" x2="7.08" y1="454.27" y2="470.19" /><line stroke="blue" x1="37.57" x2="34.64" y1="460.76" y2="454.27" /><line stroke="blue" x1="36.28" x2="37.57" y1="465.6" y2="460.76" /><line stroke="blue" x1="88.71" x2="36.54" y1="434.51" y2="464.63" /><line stroke="blue" x1="87.45" x2="89.06" y1="432.38" y2="435.12" /><line stroke="blue" x1="87.7" x2="87.45" y1="429.37" y2="432.38" /><line stroke="blue" x1="139.48" x2="88.44" y1="393.74" y2="428.94" /><line stroke="blue" x1="142.41" x2="139.48" y1="400.23" y2="393.74" /><line stroke="blue" x1="141.12" x2="142.41" y1="405.07" y2="400.23" /><line stroke="blue" x1="175.74" x2="141.38" y1="384.26" y2="404.1" /><line stroke="blue" x1="416.36" x2="408.57" y1="13.41" y2="12.19" /><line stroke="blue" x1="409.76" x2="416.36" y1="24.85" y2="13.41" /><line stroke="blue" x1="400.54" x2="409.76" y1="26.08" y2="24.85" /><line stroke="blue" x1="550.51" x2="395.5" y1="8.5" y2="8.5" /><line stroke="blue" x1="549.66" x2="550.51" y1="5.67" y2="8.5" /><line stroke="blue" x1="550.51" x2="549.66" y1="0.0" y2="5.67" /><line stroke="blue" x1="563.72" x2="550.51" y1="0.0" y2="0.0" /><line stroke="blue" x1="564.57" x2="563.72" y1="5.67" y2="0.0" /><line stroke="blue" x1="563.72" x2="564.57" y1="8.5" y2="5.67" /><line stroke="blue" x1="569.39" x2="563.72" y1="8.5" y2="8.5" /><line stroke="blue" x1="581.67" x2="569.39" y1="29.76" y2="8.5" /><line stroke="blue" x1="580.53" x2="581.67" y1="29.76" y2="29.76" /><line stroke="blue" x1="568.26" x2="580.53" y1="51.02" y2="29.76" /><line stroke="blue" x1="546.55" x2="554.34" y1="46.11" y2="47.34" /><line stroke="blue" x1="553.15" x2="546.55" y1="34.67" y2="46.11" /><line stroke="blue" x1="562.36" x2="553.15" y1="33.44" y2="34.67" /><line stroke="blue" x1="412.39" x2="567.41" y1="51.02" y2="51.02" /><line stroke="blue" x1="413.24" x2="412.39" y1="53.85" y2="51.02" /><line stroke="blue" x1="412.39" x2="413.24" y1="59.52" y2="53.85" /><line stroke="blue" x1="399.18" x2="412.39" y1="59.52" y2="59.52" /><line stroke="blue" x1="398.33" x2="399.18" y1="53.85" y2="59.52" /><line stroke="blue" x1="399.18" x2="398.33" y1="51.02" y2="53.85" /><line stroke="blue" x1="393.51" x2="399.18" y1="51.02" y2="51.02" /><line stroke="blue" x1="381.24" x2="393.51" y1="29.76" y2="51.02" /><line stroke="blue" x1="382.38" x2="381.24" y1="29.76" y2="29.76" /><line stroke="blue" x1="394.65" x2="382.38" y1="8.5" y2="29.76" /><line stroke="blue" x1="416.36" x2="408.57" y1="65.85" y2="64.62" /><line stroke="blue" x1="409.76" x2="416.36" y1="77.29" y2="65.85" /><line stroke="blue" x1="400.54" x2="409.76" y1="78.52" y2="77.29" /><line stroke="blue" x1="550.51" x2="395.5" y1="60.94" y2="60.94" /><line stroke="blue" x1="549.66" x2="550.51" y1="58.11" y2="60.94" /><line stroke="blue" x1="550.51" x2="549.66" y1="52.44" y2="58.11" /><line stroke="blue" x1="563.72" x2="550.51" y1="52.44" y2="52.44" /><line stroke="blue" x1="564.57" x2="563.72" y1="58.11" y2="52.44" /><line stroke="blue" x1="563.72" x2="564.57" y1="60.94" y2="58.11" /><line stroke="blue" x1="569.39" x2="563.72" y1="60.94" y2="60.94" /><line stroke="blue" x1="581.67" x2="569.39" y1="82.2" y2="60.94" /><line stroke="blue" x1="580.53" x2="581.67" y1="82.2" y2="82.2" /><line stroke="blue" x1="568.26" x2="580.53" y1="103.46" y2="82.2" /><line stroke="blue" x1="546.55" x2="554.34" y1="98.55" y2="99.78" /><line stroke="blue" x1="553.15" x2="546.55" y1="87.11" y2="98.55" /><line stroke="blue" x1="562.36" x2="553.15" y1="85.88" y2="87.11" /><line stroke="blue" x1="412.39" x2="567.41" y1="103.46" y2="103.46" /><line stroke="blue" x1="413.24" x2="412.39" y1="106.29" y2="103.46" /><line stroke="blue" x1="412.39" x2="413.24" y1="111.96" y2="106.29" /><line stroke="blue" x1="399.18" x2="412.39" y1="111.96" y2="111.96" /><line stroke="blue" x1="398.33" x2="399.18" y1="106.29" y2="111.96" /><line stroke="blue" x1="399.18" x2="398.33" y1="103.46" y2="106.29" /><line stroke="blue" x1="393.51" x2="399.18" y1="103.46" y2="103.46" /><line stroke="blue" x1="381.24" x2="393.51" y1="82.2" y2="103.46" /><line stroke="blue" x1="382.38" x2="381.24" y1="82.2" y2="82.2" /><line stroke="blue" x1="394.65" x2="382.38" y1="60.94" y2="82.2" /><line stroke="blue" x1="416.36" x2="408.57" y1="118.29" y2="117.06" /><line stroke="blue" x1="409.76" x2="416.36" y1="129.73" y2="118.29" /><line stroke="blue" x1="400.54" x2="409.76" y1="130.96" y2="129.73" /><line stroke="blue" x1="550.51" x2="395.5" y1="113.38" y2="113.38" /><line stroke="blue" x1="549.66" x2="550.51" y1="110.54" y2="113.38" /><line stroke="blue" x1="550.51" x2="549.66" y1="104.88" y2="110.54" /><line stroke="blue" x1="563.72" x2="550.51" y1="104.88" y2="104.88" /><line stroke="blue" x1="564.57" x2="563.72" y1="110.54" y2="104.88" /><line stroke="blue" x1="563.72" x2="564.57" y1="113.38" y2="110.54" /><line stroke="blue" x1="569.39" x2="563.72" y1="113.38" y2="113.38" /><line stroke="blue" x1="581.67" x2="569.39" y1="134.64" y2="113.38" /><line stroke="blue" x1="580.53" x2="581.67" y1="134.64" y2="134.64" /><line stroke="blue" x1="568.26" x2="580.53" y1="155.9" y2="134.64" /><line stroke="blue" x1="546.55" x2="554.34" y1="150.99" y2="152.21" /><line stroke="blue" x1="553.15" x2="546.55" y1="139.55" y2="150.99" /><line stroke="blue" x1="562.36" x2="553.15" y1="138.32" y2="139.55" /><line stroke="blue" x1="412.39" x2="567.41" y1="155.9" y2="155.9" /><line stroke="blue" x1="413.24" x2="412.39" y1="158.73" y2="155.9" /><line stroke="blue" x1="412.39" x2="413.24" y1="164.4" y2="158.73" /><line stroke="blue" x1="399.18" x2="412.39" y1="164.4" y2="164.4" /><line stroke="blue" x1="398.33" x2="399.18" y1="158.73" y2="164.4" /><line stroke="blue" x1="399.18" x2="398.33" y1="155.9" y2="158.73" /><line stroke="blue" x1="393.51" x2="399.18" y1="155.9" y2="155.9" /><line stroke="blue" x1="381.24" x2="393.51" y1="134.64" y2="155.9" /><line stroke="blue" x1="382.38" x2="381.24" y1="134.64" y2="134.64" /><line stroke="blue" x1="394.65" x2="382.38" y1="113.38" y2="134.64" /><line stroke="blue" x1="416.36" x2="408.57" y1="170.73" y2="169.5" /><line stroke="blue" x1="409.76" x2="416.36" y1="182.17" y2="170.73" /><line stroke="blue" x1="400.54" x2="409.76" y1="183.39" y2="182.17" /><line stroke="blue" x1="550.51" x2="395.5" y1="165.82" y2="165.82" /><line stroke="blue" x1="549.66" x2="550.51" y1="162.98" y2="165.82" /><line stroke="blue" x1="550.51" x2="549.66" y1="157.31" y2="162.98" /><line stroke="blue" x1="563.72" x2="550.51" y1="157.31" y2="157.31" /><line stroke="blue" x1="564.57" x2="563.72" y1="162.98" y2="157.31" /><line stroke="blue" x1="563.72" x2="564.57" y1="165.82" y2="162.98" /><line stroke="blue" x1="569.39" x2="563.72" y1="165.82" y2="165.82" /><line stroke="blue" x1="581.67" x2="569.39" y1="187.07" y2="165.82" /><line stroke="blue" x1="580.53" x2="581.67" y1="187.07" y2="187.07" /><line stroke="blue" x1="568.26" x2="580.53" y1="208.33" y2="187.07" /><line stroke="blue" x1="546.55" x2="554.34" y1="203.42" y2="204.65" /><line stroke="blue" x1="553.15" x2="546.55" y1="191.98" y2="203.42" /><line stroke="blue" x1="562.36" x2="553.15" y1="190.76" y2="191.98" /><line stroke="blue" x1="412.39" x2="567.41" y1="208.33" y2="208.33" /><line stroke="blue" x1="413.24" x2="412.39" y1="211.17" y2="208.33" /><line stroke="blue" x1="412.39" x2="413.24" y1="216.84" y2="211.17" /><line stroke="blue" x1="399.18" x2="412.39" y1="216.84" y2="216.84" /><line stroke="blue" x1="398.33" x2="399.18" y1="211.17" y2="216.84" /><line stroke="blue" x1="399.18" x2="398.33" y1="208.33" y2="211.17" /><line stroke="blue" x1="393.51" x2="399.18" y1="208.33" y2="208.33" /><line stroke="blue" x1="381.24" x2="393.51" y1="187.07" y2="208.33" /><line stroke="blue" x1="382.38" x2="381.24" y1="187.07" y2="187.07" /><line stroke="blue" x1="394.65" x2="382.38" y1="165.82" y2="187.07" /><line stroke="blue" x1="416.36" x2="408.57" y1="223.16" y2="221.94" /><line stroke="blue" x1="409.76" x2="416.36" y1="234.6" y2="223.16" /><line stroke="blue" x1="400.54" x2="409.76" y1="235.83" y2="234.6" /><line stroke="blue" x1="550.51" x2="395.5" y1="218.25" y2="218.25" /><line stroke="blue" x1="549.66" x2="550.51" y1="215.42" y2="218.25" /><line stroke="blue" x1="550.51" x2="549.66" y1="209.75" y2="215.42" /><line stroke="blue" x1="563.72" x2="550.51" y1="209.75" y2="209.75" /><line stroke="blue" x1="564.57" x2="563.72" y1="215.42" y2="209.75" /><line stroke="blue" x1="563.72" x2="564.57" y1="218.25" y2="215.42" /><line stroke="blue" x1="569.39" x2="563.72" y1="218.25" y2="218.25" /><line stroke="blue" x1="581.67" x2="569.39" y1="239.51" y2="218.25" /><line stroke="blue" x1="580.53" x2="581.67" y1="239.51" y2="239.51" /><line stroke="blue" x1="568.26" x2="580.53" y1="260.77" y2="239.51" /><line stroke="blue" x1="546.55" x2="554.34" y1="255.86" y2="257.09" /><line stroke="blue" x1="553.15" x2="546.55" y1="244.42" y2="255.86" /><line stroke="blue" x1="562.36" x2="553.15" y1="243.19" y2="244.42" /><line stroke="blue" x1="412.39" x2="567.41" y1="260.77" y2="260.77" /><line stroke="blue" x1="413.24" x2="412.39" y1="263.61" y2="260.77" /><line stroke="blue" x1="412.39" x2="413.24" y1="269.27" y2="263.61" /><line stroke="blue" x1="399.18" x2="412.39" y1="269.27" y2="269.27" /><line stroke="blue" x1="398.33" x2="399.18" y1="263.61" y2="269.27" /><line stroke="blue" x1="399.18" x2="398.33" y1="260.77" y2="263.61" /><line stroke="blue" x1="393.51" x2="399.18" y1="260.77" y2="260.77" /><line stroke="blue" x1="381.24" x2="393.51" y1="239.51" y2="260.77" /><line stroke="blue" x1="382.38" x2="381.24" y1="239.51" y2="239.51" /><line stroke="blue" x1="394.65" x2="382.38" y1="218.25" y2="239.51" /><line stroke="blue" x1="416.36" x2="408.57" y1="275.6" y2="274.37" /><line stroke="blue" x1="409.76" x2="416.36" y1="287.04" y2="275.6" /><line stroke="blue" x1="400.54" x2="409.76" y1="288.27" y2="287.04" /><line stroke="blue" x1="550.51" x2="395.5" y1="270.69" y2="270.69" /><line stroke="blue" x1="549.66" x2="550.51" y1="267.86" y2="270.69" /><line stroke="blue" x1="550.51" x2="549.66" y1="262.19" y2="267.86" /><line stroke="blue" x1="563.72" x2="550.51" y1="262.19" y2="262.19" /><line stroke="blue" x1="564.57" x2="563.72" y1="267.86" y2="262.19" /><line stroke="blue" x1="563.72" x2="564.57" y1="270.69" y2="267.86" /><line stroke="blue" x1="569.39" x2="563.72" y1="270.69" y2="270.69" /><line stroke="blue" x1="581.67" x2="569.39" y1="291.95" y2="270.69" /><line stroke="blue" x1="580.53" x2="581.67" y1="291.95" y2="291.95" /><line stroke="blue" x1="568.26" x2="580.53" y1="313.21" y2="291.95" /><line stroke="blue" x1="546.55" x2="554.34" y1="308.3" y2="309.53" /><line stroke="blue" x1="553.15" x2="546.55" y1="296.86" y2="308.3" /><line stroke="blue" x1="562.36" x2="553.15" y1="295.63" y2="296.86" /><line stroke="blue" x1="412.39" x2="567.41" y1="313.21" y2="313.21" /><line stroke="blue" x1="413.24" x2="412.39" y1="316.04" y2="313.21" /><line stroke="blue" x1="412.39" x2="413.24" y1="321.71" y2="316.04" /><line stroke="blue" x1="399.18" x2="412.39" y1="321.71" y2="321.71" /><line stroke="blue" x1="398.33" x2="399.18" y1="316.04" y2="321.71" /><line stroke="blue" x1="399.18" x2="398.33" y1="313.21" y2="316.04" /><line stroke="blue" x1="393.51" x2="399.18" y1="313.21" y2="313.21" /><line stroke="blue" x1="381.24" x2="393.51" y1="291.95" y2="313.21" /><line stroke="blue" x1="382.38" x2="381.24" y1="291.95" y2="291.95" /><line stroke="blue" x1="394.65" x2="382.38" y1="270.69" y2="291.95" /><line stroke="blue" x1="416.36" x2="408.57" y1="328.04" y2="326.81" /><line stroke="blue" x1="409.76" x2="416.36" y1="339.48" y2="328.04" /><line stroke="blue" x1="400.54" x2="409.76" y1="340.71" y2="339.48" /><line stroke="blue" x1="550.51" x2="395.5" y1="323.13" y2="323.13" /><line stroke="blue" x1="549.66" x2="550.51" y1="320.29" y2="323.13" /><line stroke="blue" x1="550.51" x2="549.66" y1="314.63" y2="320.29" /><line stroke="blue" x1="563.72" x2="550.51" y1="314.63" y2="314.63" /><line stroke="blue" x1="564.57" x2="563.72" y1="320.29" y2="314.63" /><line stroke="blue" x1="563.72" x2="564.57" y1="323.13" y2="320.29" /><line stroke="blue" x1="569.39" x2="563.72" y1="323.13" y2="323.13" /><line stroke="blue" x1="581.67" x2="569.39" y1="344.39" y2="323.13" /><line stroke="blue" x1="580.53" x2="581.67" y1="344.39" y2="344.39" /><line stroke="blue" x1="568.26" x2="580.53" y1="365.65" y2="344.39" /><line stroke="blue" x1="546.55" x2="554.34" y1="360.74" y2="361.96" /><line stroke="blue" x1="553.15" x2="546.55" y1="349.3" y2="360.74" /><line stroke="blue" x1="562.36" x2="553.15" y1="348.07" y2="349.3" /><line stroke="blue" x1="412.39" x2="567.41" y1="365.65" y2="365.65" /><line stroke="blue" x1="413.24" x2="412.39" y1="368.48" y2="365.65" /><line stroke="blue" x1="412.39" x2="413.24" y1="374.15" y2="368.48" /><line stroke="blue" x1="399.18" x2="412.39" y1="374.15" y2="374.15" /><line stroke="blue" x1="398.33" x2="399.18" y1="368.48" y2="374.15" /><line stroke="blue" x1="399.18" x2="398.33" y1="365.65" y2="368.48" /><line stroke="blue" x1="393.51" x2="399.18" y1="365.65" y2="365.65" /><line stroke="blue" x1="381.24" x2="393.51" y1="344.39" y2="365.65" /><line stroke="blue" x1="382.38" x2="381.24" y1="344.39" y2="344.39" /><line stroke="blue" x1="394.65" x2="382.38" y1="323.13" y2="344.39" /><line stroke="blue" x1="416.36" x2="408.57" y1="380.48" y2="379.25" /><line stroke="blue" x1="409.76" x2="416.36" y1="391.92" y2="380.48" /><line stroke="blue" x1="400.54" x2="409.76" y1="393.14" y2="391.92" /><line stroke="blue" x1="550.51" x2="395.5" y1="375.57" y2="375.57" /><line stroke="blue" x1="549.66" x2="550.51" y1="372.73" y2="375.57" /><line stroke="blue" x1="550.51" x2="549.66" y1="367.06" y2="372.73" /><line stroke="blue" x1="563.72" x2="550.51" y1="367.06" y2="367.06" /><line stroke="blue" x1="564.57" x2="563.72" y1="372.73" y2="367.06" /><line stroke="blue" x1="563.72" x2="564.57" y1="375.57" y2="372.73" /><line stroke="blue" x1="569.39" x2="563.72" y1="375.57" y2="375.57" /><line stroke="blue" x1="581.67" x2="569.39" y1="396.83" y2="375.57" /><line stroke="blue" x1="580.53" x2="581.67" y1="396.83" y2="396.83" /><line stroke="blue" x1="568.26" x2="580.53" y1="418.08" y2="396.83" /><line stroke="blue" x1="546.55" x2="554.34" y1="413.17" y2="414.4" /><line stroke="blue" x1="553.15" x2="546.55" y1="401.73" y2="413.17" /><line stroke="blue" x1="562.36" x2="553.15" y1="400.51" y2="401.73" /><line stroke="blue" x1="412.39" x2="567.41" y1="418.08" y2="418.08" /><line stroke="blue" x1="413.24" x2="412.39" y1="420.92" y2="418.08" /><line stroke="blue" x1="412.39" x2="413.24" y1="426.59" y2="420.92" /><line stroke="blue" x1="399.18" x2="412.39" y1="426.59" y2="426.59" /><line stroke="blue" x1="398.33" x2="399.18" y1="420.92" y2="426.59" /><line stroke="blue" x1="399.18" x2="398.33" y1="418.08" y2="420.92" /><line stroke="blue" x1="393.51" x2="399.18" y1="418.08" y2="418.08" /><line stroke="blue" x1="381.24" x2="393.51" y1="396.83" y2="418.08" /><line stroke="blue" x1="382.38" x2="381.24" y1="396.83" y2="396.83" /><line stroke="blue" x1="394.65" x2="382.38" y1="375.57" y2="396.83" /><line stroke="blue" x1="416.36" x2="408.57" y1="432.91" y2="431.69" /><line stroke="blue" x1="409.76" x2="416.36" y1="444.35" y2="432.91" /><line stroke="blue" x1="400.54" x2="409.76" y1="445.58" y2="444.35" /><line stroke="blue" x1="550.51" x2="395.5" y1="428.0" y2="428.0" /><line stroke="blue" x1="549.66" x2="550.51" y1="425.17" y2="428.0" /><line stroke="blue" x1="550.51" x2="549.66" y1="419.5" y2="425.17" /><line stroke="blue" x1="563.72" x2="550.51" y1="419.5" y2="419.5" /><line stroke="blue" x1="564.57" x2="563.72" y1="425.17" y2="419.5" /><line stroke="blue" x1="563.72" x2="564.57" y1="428.0" y2="425.17" /><line stroke="blue" x1="569.39" x2="563.72" y1="428.0" y2="428.0" /><line stroke="blue" x1="581.67" x2="569.39" y1="449.26" y2="428.0" /><line stroke="blue" x1="580.53" x2="581.67" y1="449.26" y2="449.26" /><line stroke="blue" x1="568.26" x2="580.53" y1="470.52" y2="449.26" /><line stroke="blue" x1="546.55" x2="554.34" y1="465.61" y2="466.84" /><line stroke="blue" x1="553.15" x2="546.55" y1="454.17" y2="465.61" /><line stroke="blue" x1="562.36" x2="553.15" y1="452.95" y2="454.17" /><line stroke="blue" x1="412.39" x2="567.41" y1="470.52" y2="470.52" /><line stroke="blue" x1="413.24" x2="412.39" y1="473.36" y2="470.52" /><line stroke="blue" x1="412.39" x2="413.24" y1="479.02" y2="473.36" /><line stroke="blue" x1="399.18" x2="412.39" y1="479.02" y2="479.02" /><line stroke="blue" x1="398.33" x2="399.18" y1="473.36" y2="479.02" /><line stroke="blue" x1="399.18" x2="398.33" y1="470.52" y2="473.36" /><line stroke="blue" x1="393.51" x2="399.18" y1="470.52" y2="470.52" /><line stroke="blue" x1="381.24" x2="393.51" y1="449.26" y2="470.52" /><line stroke="blue" x1="382.38" x2="381.24" y1="449.26" y2="449.26" /><line stroke="blue" x1="394.65" x2="382.38" y1="428.0" y2="449.26" /><line stroke="blue" x1="416.36" x2="408.57" y1="485.35" y2="484.12" /><line stroke="blue" x1="409.76" x2="416.36" y1="496.79" y2="485.35" /><line stroke="blue" x1="400.54" x2="409.76" y1="498.02" y2="496.79" /><line stroke="blue" x1="550.51" x2="395.5" y1="480.44" y2="480.44" /><line stroke="blue" x1="549.66" x2="550.51" y1="477.61" y2="480.44" /><line stroke="blue" x1="550.51" x2="549.66" y1="471.94" y2="477.61" /><line stroke="blue" x1="563.72" x2="550.51" y1="471.94" y2="471.94" /><line stroke="blue" x1="564.57" x2="563.72" y1="477.61" y2="471.94" /><line stroke="blue" x1="563.72" x2="564.57" y1="480.44" y2="477.61" /><line stroke="blue" x1="569.39" x2="563.72" y1="480.44" y2="480.44" /><line stroke="blue" x1="581.67" x2="569.39" y1="501.7" y2="480.44" /><line stroke="blue" x1="580.53" x2="581.67" y1="501.7" y2="501.7" /><line stroke="blue" x1="568.26" x2="580.53" y1="522.96" y2="501.7" /><line stroke="blue" x1="546.55" x2="554.34" y1="518.05" y2="519.28" /><line stroke="blue" x1="553.15" x2="546.55" y1="506.61" y2="518.05" /><line stroke="blue" x1="562.36" x2="553.15" y1="505.38" y2="506.61" /><line stroke="blue" x1="412.39" x2="567.41" y1="522.96" y2="522.96" /><line stroke="blue" x1="413.24" x2="412.39" y1="525.79" y2="522.96" /><line stroke="blue" x1="412.39" x2="413.24" y1="531.46" y2="525.79" /><line stroke="blue" x1="399.18" x2="412.39" y1="531.46" y2="531.46" /><line stroke="blue" x1="398.33" x2="399.18" y1="525.79" y2="531.46" /><line stroke="blue" x1="399.18" x2="398.33" y1="522.96" y2="525.79" /><line stroke="blue" x1="393.51" x2="399.18" y1="522.96" y2="522.96" /><line stroke="blue" x1="381.24" x2="393.51" y1="501.7" y2="522.96" /><line stroke="blue" x1="382.38" x2="381.24" y1="501.7" y2="501.7" /><line stroke="blue" x1="394.65" x2="382.38" y1="480.44" y2="501.7" /><line stroke="blue" x1="416.36" x2="408.57" y1="537.79" y2="536.56" /><line stroke="blue" x1="409.76" x2="416.36" y1="549.23" y2="537.79" /><line stroke="blue" x1="400.54" x2="409.76" y1="550.46" y2="549.23" /><line stroke="blue" x1="550.51" x2="395.5" y1="532.88" y2="532.88" /><line stroke="blue" x1="549.66" x2="550.51" y1="530.05" y2="532.88" /><line stroke="blue" x1="550.51" x2="549.66" y1="524.38" y2="530.05" /><line stroke="blue" x1="563.72" x2="550.51" y1="524.38" y2="524.38" /><line stroke="blue" x1="564.57" x2="563.72" y1="530.05" y2="524.38" /><line stroke="blue" x1="563.72" x2="564.57" y1="532.88" y2="530.05" /><line stroke="blue" x1="569.39" x2="563.72" y1="532.88" y2="532.88" /><line stroke="blue" x1="581.67" x2="569.39" y1="554.14" y2="532.88" /><line stroke="blue" x1="580.53" x2="581.67" y1="554.14" y2="554.14" /><line stroke="blue" x1="568.26" x2="580.53" y1="575.4" y2="554.14" /><line stroke="blue" x1="546.55" x2="554.34" y1="570.49" y2="571.71" /><line stroke="blue" x1="553.15" x2="546.55" y1="559.05" y2="570.49" /><line stroke="blue" x1="562.36" x2="553.15" y1="557.82" y2="559.05" /><line stroke="blue" x1="412.39" x2="567.41" y1="575.4" y2="575.4" /><line stroke="blue" x1="413.24" x2="412.39" y1="578.23" y2="575.4" /><line stroke="blue" x1="412.39" x2="413.24" y1="583.9" y2="578.23" /><line stroke="blue" x1="399.18" x2="412.39" y1="583.9" y2="583.9" /><line stroke="blue" x1="398.33" x2="399.18" y1="578.23" y2="583.9" /><line stroke="blue" x1="399.18" x2="398.33" y1="575.4" y2="578.23" /><line stroke="blue" x1="393.51" x2="399.18" y1="575.4" y2="575.4" /><line stroke="blue" x1="381.24" x2="393.51" y1="554.14" y2="575.4" /><line stroke="blue" x1="382.38" x2="381.24" y1="554.14" y2="554.14" /><line stroke="blue" x1="394.65" x2="382.38" y1="532.88" y2="554.14" /><line stroke="blue" x1="416.36" x2="408.57" y1="590.23" y2="589.0" /><line stroke="blue" x1="409.76" x2="416.36" y1="601.67" y2="590.23" /><line stroke="blue" x1="400.54" x2="409.76" y1="602.89" y2="601.67" /><line stroke="blue" x1="550.51" x2="395.5" y1="585.32" y2="585.32" /><line stroke="blue" x1="549.66" x2="550.51" y1="582.48" y2="585.32" /><line stroke="blue" x1="550.51" x2="549.66" y1="576.81" y2="582.48" /><line stroke="blue" x1="563.72" x2="550.51" y1="576.81" y2="576.81" /><line stroke="blue" x1="564.57" x2="563.72" y1="582.48" y2="576.81" /><line stroke="blue" x1="563.72" x2="564.57" y1="585.32" y2="582.48" /><line stroke="blue" x1="569.39" x2="563.72" y1="585.32" y2="585.32" /><line stroke="blue" x1="581.67" x2="569.39" y1="606.58" y2="585.32" /><line stroke="blue" x1="580.53" x2="581.67" y1="606.58" y2="606.58" /><line stroke="blue" x1="568.26" x2="580.53" y1="627.83" y2="606.58" /><line stroke="blue" x1="546.55" x2="554.34" y1="622.93" y2="624.15" /><line stroke="blue" x1="553.15" x2="546.55" y1="611.49" y2="622.93" /><line stroke="blue" x1="562.36" x2="553.15" y1="610.26" y2="611.49" /><line stroke="blue" x1="412.39" x2="567.41" y1="627.83" y2="627.83" /><line stroke="blue" x1="413.24" x2="412.39" y1="630.67" y2="627.83" /><line stroke="blue" x1="412.39" x2="413.24" y1="636.34" y2="630.67" /><line stroke="blue" x1="399.18" x2="412.39" y1="636.34" y2="636.34" /><line stroke="blue" x1="398.33" x2="399.18" y1="630.67" y2="636.34" /><line stroke="blue" x1="399.18" x2="398.33" y1="627.83" y2="630.67" /><line stroke="blue" x1="393.51" x2="399.18" y1="627.83" y2="627.83" /><line stroke="blue" x1="381.24" x2="393.51" y1="606.58" y2="627.83" /><line stroke="blue" x1="382.38" x2="381.24" y1="606.58" y2="606.58" /><line stroke="blue" x1="394.65" x2="382.38" y1="585.32" y2="606.58" /></g><g id="scorelines"><line stroke="red" x1="200.54" x2="200.54" y1="166.19" y2="197.65" /><line stroke="red" x1="200.54" x2="200.54" y1="45.13" y2="100.27" /><line stroke="red" x1="231.63" x2="204.39" y1="22.07" y2="6.34" /><line stroke="red" x1="336.47" x2="288.72" y1="82.6" y2="55.03" /><line stroke="red" x1="340.89" x2="368.14" y1="121.06" y2="105.33" /><line stroke="red" x1="236.05" x2="283.81" y1="181.59" y2="154.02" /><line stroke="red" x1="364.94" x2="364.94" y1="166.29" y2="134.83" /><line stroke="red" x1="364.94" x2="364.94" y1="287.35" y2="232.21" /><line stroke="red" x1="333.85" x2="361.1" y1="310.41" y2="326.14" /><line stroke="red" x1="229.01" x2="276.76" y1="249.88" y2="277.45" /><line stroke="red" x1="224.59" x2="197.34" y1="211.42" y2="227.15" /><line stroke="red" x1="329.43" x2="281.67" y1="150.89" y2="178.46" /><line stroke="red" x1="200.54" x2="200.54" y1="421.29" y2="452.75" /><line stroke="red" x1="200.54" x2="200.54" y1="300.23" y2="355.37" /><line stroke="red" x1="231.63" x2="204.39" y1="277.17" y2="261.44" /><line stroke="red" x1="336.47" x2="288.72" y1="337.7" y2="310.13" /><line stroke="red" x1="340.89" x2="368.14" y1="376.16" y2="360.43" /><line stroke="red" x1="236.05" x2="283.81" y1="436.69" y2="409.12" /><line stroke="red" x1="364.94" x2="364.94" y1="421.39" y2="389.93" /><line stroke="red" x1="364.94" x2="364.94" y1="542.45" y2="487.31" /><line stroke="red" x1="333.85" x2="361.1" y1="565.51" y2="581.24" /><line stroke="red" x1="229.01" x2="276.76" y1="504.98" y2="532.55" /><line stroke="red" x1="224.59" x2="197.34" y1="466.52" y2="482.25" /><line stroke="red" x1="329.43" x2="281.67" y1="405.99" y2="433.57" /><line stroke="red" x1="10.63" x2="10.63" y1="166.19" y2="197.65" /><line stroke="red" x1="10.63" x2="10.63" y1="45.13" y2="100.27" /><line stroke="red" x1="41.72" x2="14.48" y1="22.07" y2="6.34" /><line stroke="red" x1="146.56" x2="98.81" y1="82.6" y2="55.03" /><line stroke="red" x1="150.98" x2="178.23" y1="121.06" y2="105.33" /><line stroke="red" x1="46.14" x2="93.9" y1="181.59" y2="154.02" /><line stroke="red" x1="175.03" x2="175.03" y1="166.29" y2="134.83" /><line stroke="red" x1="175.03" x2="175.03" y1="287.35" y2="232.21" /><line stroke="red" x1="143.94" x2="171.19" y1="310.41" y2="326.14" /><line stroke="red" x1="39.1" x2="86.86" y1="249.88" y2="277.45" /><line stroke="red" x1="34.68" x2="7.43" y1="211.42" y2="227.15" /><line stroke="red" x1="139.52" x2="91.76" y1="150.89" y2="178.46" /><line stroke="red" x1="10.63" x2="10.63" y1="421.29" y2="452.75" /><line stroke="red" x1="10.63" x2="10.63" y1="300.23" y2="355.37" /><line stroke="red" x1="41.72" x2="14.48" y1="277.17" y2="261.44" /><line stroke="red" x1="146.56" x2="98.81" y1="337.7" y2="310.13" /><line stroke="red" x1="150.98" x2="178.23" y1="376.16" y2="360.43" /><line stroke="red" x1="46.14" x2="93.9" y1="436.69" y2="409.12" /><line stroke="red" x1="175.03" x2="175.03" y1="421.39" y2="389.93" /><line stroke="red" x1="175.03" x2="175.03" y1="542.45" y2="487.31" /><line stroke="red" x1="143.94" x2="171.19" y1="565.51" y2="581.24" /><line stroke="red" x1="39.1" x2="86.86" y1="504.98" y2="532.55" /><line stroke="red" x1="34.68" x2="7.43" y1="466.52" y2="482.25" /><line stroke="red" x1="139.52" x2="91.76" y1="405.99" y2="433.57" /><line stroke="red" x1="412.39" x2="399.18" y1="51.02" y2="51.02" /><line stroke="red" x1="563.72" x2="550.51" y1="8.5" y2="8.5" /><line stroke="red" x1="381.24" x2="581.67" y1="29.76" y2="29.76" /><line stroke="red" x1="412.39" x2="399.18" y1="103.46" y2="103.46" /><line stroke="red" x1="563.72" x2="550.51" y1="60.94" y2="60.94" /><line stroke="red" x1="381.24" x2="581.67" y1="82.2" y2="82.2" /><line stroke="red" x1="412.39" x2="399.18" y1="155.9" y2="155.9" /><line stroke="red" x1="563.72" x2="550.51" y1="113.38" y2="113.38" /><line stroke="red" x1="381.24" x2="581.67" y1="134.64" y2="134.64" /><line stroke="red" x1="412.39" x2="399.18" y1="208.33" y2="208.33" /><line stroke="red" x1="563.72" x2="550.51" y1="165.82" y2="165.82" /><line stroke="red" x1="381.24" x2="581.67" y1="187.07" y2="187.07" /><line stroke="red" x1="412.39" x2="399.18" y1="260.77" y2="260.77" /><line stroke="red" x1="563.72" x2="550.51" y1="218.25" y2="218.25" /><line stroke="red" x1="381.24" x2="581.67" y1="239.51" y2="239.51" /><line stroke="red" x1="412.39" x2="399.18" y1="313.21" y2="313.21" /><line stroke="red" x1="563.72" x2="550.51" y1="270.69" y2="270.69" /><line stroke="red" x1="381.24" x2="581.67" y1="291.95" y2="291.95" /><line stroke="red" x1="412.39" x2="399.18" y1="365.65" y2="365.65" /><line stroke="red" x1="563.72" x2="550.51" y1="323.13" y2="323.13" /><line stroke="red" x1="381.24" x2="581.67" y1="344.39" y2="344.39" /><line stroke="red" x1="412.39" x2="399.18" y1="418.08" y2="418.08" /><line stroke="red" x1="563.72" x2="550.51" y1="375.57" y2="375.57" /><line stroke="red" x1="381.24" x2="581.67" y1="396.83" y2="396.83" /><line stroke="red" x1="412.39" x2="399.18" y1="470.52" y2="470.52" /><line stroke="red" x1="563.72" x2="550.51" y1="428.0" y2="428.0" /><line stroke="red" x1="381.24" x2="581.67" y1="449.26" y2="449.26" /><line stroke="red" x1="412.39" x2="399.18" y1="522.96" y2="522.96" /><line stroke="red" x1="563.72" x2="550.51" y1="480.44" y2="480.44" /><line stroke="red" x1="381.24" x2="581.67" y1="501.7" y2="501.7" /><line stroke="red" x1="412.39" x2="399.18" y1="575.4" y2="575.4" /><line stroke="red" x1="563.72" x2="550.51" y1="532.88" y2="532.88" /><line stroke="red" x1="381.24" x2="581.67" y1="554.14" y2="554.14" /><line stroke="red" x1="412.39" x2="399.18" y1="627.83" y2="627.83" /><line stroke="red" x1="563.72" x2="550.51" y1="585.32" y2="585.32" /><line stroke="red" x1="381.24" x2="581.67" y1="606.58" y2="606.58" /></g></svg>