<?xml version="1.0" encoding="utf-8" ?>
<svg baseProfile="full" height="27.2cm" version="1.1" width="21.2cm" xmlns="http://www.w3.org/2000/svg" xmlns:ev="http://www.w3.org/2001/xml-events" xmlns:xlink="http://www.w3.org/1999/xlink"><defs /><g id="cutlines"><line stroke="blue" x1="228.66" x2="234.33" y1="201.4" y2="201.4" /><line stroke="blue" x1="222.93" x2="229.37" y1="211.32" y2="200.69" /><line stroke="blue" x1="185.43" x2="222.93" y1="211.32" y2="211.32" /><line stroke="blue" x1="186.14" x2="185.43" y1="204.23" y2="211.32" /><line stroke="blue" x1="189.68" x2="186.14" y1="200.69" y2="204.23" /><line stroke="blue" x1="118.89" x2="188.98" y1="201.4" y2="201.4" /><line stroke="blue" x1="118.92" x2="118.89" y1="203.88" y2="200.69" /><line stroke="blue" x1="117.19" x2="118.92" y1="206.36" y2="203.88" /><line stroke="blue" x1="44.7" x2="116.34" y1="211.32" y2="206.36" /><line stroke="blue" x1="45.41" x2="44.7" y1="204.23" y2="211.32" /><line stroke="blue" x1="48.95" x2="45.41" y1="200.69" y2="204.23" /><line stroke="blue" x1="2.89" x2="48.24" y1="201.4" y2="201.4" /><line stroke="blue" x1="5.73" x2="2.89" y1="196.49" y2="201.4" /><line stroke="blue" x1="0.0" x2="5.99" y1="186.57" y2="197.46" /><line stroke="blue" x1="18.75" x2="0.0" y1="154.09" y2="186.57" /><line stroke="blue" x1="24.53" x2="18.75" y1="158.25" y2="154.09" /><line stroke="blue" x1="25.83" x2="24.53" y1="163.09" y2="158.25" /><line stroke="blue" x1="60.61" x2="25.57" y1="101.43" y2="162.12" /><line stroke="blue" x1="58.45" x2="61.22" y1="100.21" y2="101.78" /><line stroke="blue" x1="57.16" x2="58.45" y1="97.48" y2="100.21" /><line stroke="blue" x1="89.11" x2="57.59" y1="32.22" y2="96.74" /><line stroke="blue" x1="94.9" x2="89.11" y1="36.37" y2="32.22" /><line stroke="blue" x1="96.19" x2="94.9" y1="41.21" y2="36.37" /><line stroke="blue" x1="118.61" x2="95.93" y1="0.97" y2="40.25" /><line stroke="blue" x1="121.44" x2="118.61" y1="5.88" y2="0.97" /><line stroke="blue" x1="132.9" x2="120.48" y1="5.88" y2="5.62" /><line stroke="blue" x1="151.65" x2="132.9" y1="38.35" y2="5.88" /><line stroke="blue" x1="145.16" x2="151.65" y1="41.28" y2="38.35" /><line stroke="blue" x1="140.32" x2="145.16" y1="39.99" y2="41.28" /><line stroke="blue" x1="176.33" x2="141.29" y1="100.94" y2="40.25" /><line stroke="blue" x1="178.46" x2="175.71" y1="99.67" y2="101.29" /><line stroke="blue" x1="181.47" x2="178.46" y1="99.93" y2="99.67" /><line stroke="blue" x1="222.01" x2="181.9" y1="160.23" y2="100.67" /><line stroke="blue" x1="215.52" x2="222.01" y1="163.16" y2="160.23" /><line stroke="blue" x1="210.68" x2="215.52" y1="161.86" y2="163.16" /><line stroke="blue" x1="234.33" x2="211.65" y1="201.4" y2="162.12" /><line stroke="blue" x1="154.37" x2="148.7" y1="9.92" y2="9.92" /><line stroke="blue" x1="160.09" x2="153.66" y1="0.0" y2="10.63" /><line stroke="blue" x1="197.59" x2="160.09" y1="0.0" y2="0.0" /><line stroke="blue" x1="196.88" x2="197.59" y1="7.09" y2="0.0" /><line stroke="blue" x1="193.34" x2="196.88" y1="10.63" y2="7.09" /><line stroke="blue" x1="264.13" x2="194.05" y1="9.92" y2="9.92" /><line stroke="blue" x1="264.1" x2="264.13" y1="7.44" y2="10.63" /><line stroke="blue" x1="265.83" x2="264.1" y1="4.96" y2="7.44" /><line stroke="blue" x1="338.32" x2="266.68" y1="0.0" y2="4.96" /><line stroke="blue" x1="337.61" x2="338.32" y1="7.09" y2="0.0" /><line stroke="blue" x1="334.07" x2="337.61" y1="10.63" y2="7.09" /><line stroke="blue" x1="380.13" x2="334.78" y1="9.92" y2="9.92" /><line stroke="blue" x1="377.3" x2="380.13" y1="14.83" y2="9.92" /><line stroke="blue" x1="383.02" x2="377.04" y1="24.75" y2="13.86" /><line stroke="blue" x1="364.28" x2="383.02" y1="57.22" y2="24.75" /><line stroke="blue" x1="358.49" x2="364.28" y1="53.07" y2="57.22" /><line stroke="blue" x1="357.2" x2="358.49" y1="48.23" y2="53.07" /><line stroke="blue" x1="322.41" x2="357.46" y1="109.89" y2="49.2" /><line stroke="blue" x1="324.58" x2="321.8" y1="111.1" y2="109.53" /><line stroke="blue" x1="325.86" x2="324.58" y1="113.84" y2="111.1" /><line stroke="blue" x1="293.91" x2="325.43" y1="179.1" y2="114.58" /><line stroke="blue" x1="288.13" x2="293.91" y1="174.94" y2="179.1" /><line stroke="blue" x1="286.83" x2="288.13" y1="170.11" y2="174.94" /><line stroke="blue" x1="264.41" x2="287.09" y1="210.35" y2="171.07" /><line stroke="blue" x1="261.58" x2="264.41" y1="205.44" y2="210.35" /><line stroke="blue" x1="250.12" x2="262.55" y1="205.44" y2="205.7" /><line stroke="blue" x1="231.38" x2="250.12" y1="172.96" y2="205.44" /><line stroke="blue" x1="237.87" x2="231.38" y1="170.04" y2="172.96" /><line stroke="blue" x1="242.71" x2="237.87" y1="171.33" y2="170.04" /><line stroke="blue" x1="206.7" x2="241.74" y1="110.38" y2="171.07" /><line stroke="blue" x1="204.56" x2="207.31" y1="111.64" y2="110.03" /><line stroke="blue" x1="201.55" x2="204.56" y1="111.39" y2="111.64" /><line stroke="blue" x1="161.01" x2="201.13" y1="51.09" y2="110.65" /><line stroke="blue" x1="167.5" x2="161.01" y1="48.16" y2="51.09" /><line stroke="blue" x1="172.34" x2="167.5" y1="49.46" y2="48.16" /><line stroke="blue" x1="148.7" x2="171.37" y1="9.92" y2="49.2" /><line stroke="blue" x1="427.44" x2="433.11" y1="356.03" y2="356.03" /><line stroke="blue" x1="421.71" x2="428.15" y1="365.95" y2="355.32" /><line stroke="blue" x1="384.22" x2="421.71" y1="365.95" y2="365.95" /><line stroke="blue" x1="384.93" x2="384.22" y1="358.86" y2="365.95" /><line stroke="blue" x1="388.47" x2="384.93" y1="355.32" y2="358.86" /><line stroke="blue" x1="317.68" x2="387.76" y1="356.03" y2="356.03" /><line stroke="blue" x1="317.71" x2="317.68" y1="358.51" y2="355.32" /><line stroke="blue" x1="315.98" x2="317.71" y1="360.99" y2="358.51" /><line stroke="blue" x1="243.49" x2="315.13" y1="365.95" y2="360.99" /><line stroke="blue" x1="244.19" x2="243.49" y1="358.86" y2="365.95" /><line stroke="blue" x1="247.74" x2="244.19" y1="355.32" y2="358.86" /><line stroke="blue" x1="201.68" x2="247.03" y1="356.03" y2="356.03" /><line stroke="blue" x1="204.51" x2="201.68" y1="351.12" y2="356.03" /><line stroke="blue" x1="198.78" x2="204.77" y1="341.2" y2="352.09" /><line stroke="blue" x1="217.53" x2="198.78" y1="308.72" y2="341.2" /><line stroke="blue" x1="223.32" x2="217.53" y1="312.88" y2="308.72" /><line stroke="blue" x1="224.61" x2="223.32" y1="317.72" y2="312.88" /><line stroke="blue" x1="259.39" x2="224.35" y1="256.06" y2="316.75" /><line stroke="blue" x1="257.23" x2="260.01" y1="254.84" y2="256.41" /><line stroke="blue" x1="255.95" x2="257.23" y1="252.11" y2="254.84" /><line stroke="blue" x1="287.9" x2="256.37" y1="186.85" y2="251.37" /><line stroke="blue" x1="293.68" x2="287.9" y1="191.0" y2="186.85" /><line stroke="blue" x1="294.98" x2="293.68" y1="195.84" y2="191.0" /><line stroke="blue" x1="317.39" x2="294.72" y1="155.6" y2="194.87" /><line stroke="blue" x1="320.23" x2="317.39" y1="160.51" y2="155.6" /><line stroke="blue" x1="331.68" x2="319.26" y1="160.51" y2="160.25" /><line stroke="blue" x1="350.43" x2="331.68" y1="192.98" y2="160.51" /><line stroke="blue" x1="343.94" x2="350.43" y1="195.91" y2="192.98" /><line stroke="blue" x1="339.1" x2="343.94" y1="194.62" y2="195.91" /><line stroke="blue" x1="375.11" x2="340.07" y1="255.57" y2="194.87" /><line stroke="blue" x1="377.24" x2="374.5" y1="254.3" y2="255.92" /><line stroke="blue" x1="380.26" x2="377.24" y1="254.56" y2="254.3" /><line stroke="blue" x1="420.8" x2="380.68" y1="314.86" y2="255.3" /><line stroke="blue" x1="414.31" x2="420.8" y1="317.79" y2="314.86" /><line stroke="blue" x1="409.47" x2="414.31" y1="316.49" y2="317.79" /><line stroke="blue" x1="433.11" x2="410.44" y1="356.03" y2="316.75" /><line stroke="blue" x1="353.15" x2="347.48" y1="164.55" y2="164.55" /><line stroke="blue" x1="358.88" x2="352.44" y1="154.63" y2="165.26" /><line stroke="blue" x1="396.38" x2="358.88" y1="154.63" y2="154.63" /><line stroke="blue" x1="395.67" x2="396.38" y1="161.72" y2="154.63" /><line stroke="blue" x1="392.12" x2="395.67" y1="165.26" y2="161.72" /><line stroke="blue" x1="462.91" x2="392.83" y1="164.55" y2="164.55" /><line stroke="blue" x1="462.89" x2="462.91" y1="162.07" y2="165.26" /><line stroke="blue" x1="464.62" x2="462.89" y1="159.59" y2="162.07" /><line stroke="blue" x1="537.11" x2="465.47" y1="154.63" y2="159.59" /><line stroke="blue" x1="536.4" x2="537.11" y1="161.72" y2="154.63" /><line stroke="blue" x1="532.85" x2="536.4" y1="165.26" y2="161.72" /><line stroke="blue" x1="578.91" x2="533.56" y1="164.55" y2="164.55" /><line stroke="blue" x1="576.08" x2="578.91" y1="169.46" y2="164.55" /><line stroke="blue" x1="581.81" x2="575.82" y1="179.38" y2="168.49" /><line stroke="blue" x1="563.06" x2="581.81" y1="211.85" y2="179.38" /><line stroke="blue" x1="557.28" x2="563.06" y1="207.7" y2="211.85" /><line stroke="blue" x1="555.98" x2="557.28" y1="202.86" y2="207.7" /><line stroke="blue" x1="521.2" x2="556.24" y1="264.52" y2="203.83" /><line stroke="blue" x1="523.36" x2="520.58" y1="265.73" y2="264.16" /><line stroke="blue" x1="524.64" x2="523.36" y1="268.47" y2="265.73" /><line stroke="blue" x1="492.69" x2="524.22" y1="333.73" y2="269.21" /><line stroke="blue" x1="486.91" x2="492.69" y1="329.57" y2="333.73" /><line stroke="blue" x1="485.61" x2="486.91" y1="324.73" y2="329.57" /><line stroke="blue" x1="463.2" x2="485.87" y1="364.98" y2="325.7" /><line stroke="blue" x1="460.36" x2="463.2" y1="360.07" y2="364.98" /><line stroke="blue" x1="448.91" x2="461.33" y1="360.07" y2="360.33" /><line stroke="blue" x1="430.16" x2="448.91" y1="327.59" y2="360.07" /><line stroke="blue" x1="436.65" x2="430.16" y1="324.66" y2="327.59" /><line stroke="blue" x1="441.49" x2="436.65" y1="325.96" y2="324.66" /><line stroke="blue" x1="405.48" x2="440.52" y1="265.01" y2="325.7" /><line stroke="blue" x1="403.35" x2="406.09" y1="266.27" y2="264.65" /><line stroke="blue" x1="400.33" x2="403.35" y1="266.02" y2="266.27" /><line stroke="blue" x1="359.79" x2="399.91" y1="205.72" y2="265.28" /><line stroke="blue" x1="366.28" x2="359.79" y1="202.79" y2="205.72" /><line stroke="blue" x1="371.12" x2="366.28" y1="204.08" y2="202.79" /><line stroke="blue" x1="347.48" x2="370.16" y1="164.55" y2="203.83" /><line stroke="blue" x1="197.65" x2="203.32" y1="547.36" y2="547.36" /><line stroke="blue" x1="191.92" x2="198.36" y1="557.28" y2="546.65" /><line stroke="blue" x1="160.09" x2="191.92" y1="557.28" y2="557.28" /><line stroke="blue" x1="160.8" x2="160.09" y1="550.19" y2="557.28" /><line stroke="blue" x1="164.34" x2="160.8" y1="546.65" y2="550.19" /><line stroke="blue" x1="103.39" x2="163.64" y1="547.36" y2="547.36" /><line stroke="blue" x1="103.42" x2="103.39" y1="549.84" y2="546.65" /><line stroke="blue" x1="101.69" x2="103.42" y1="552.32" y2="549.84" /><line stroke="blue" x1="39.03" x2="100.84" y1="557.28" y2="552.32" /><line stroke="blue" x1="39.74" x2="39.03" y1="550.19" y2="557.28" /><line stroke="blue" x1="43.28" x2="39.74" y1="546.65" y2="550.19" /><line stroke="blue" x1="2.89" x2="42.58" y1="547.36" y2="547.36" /><line stroke="blue" x1="5.73" x2="2.89" y1="542.45" y2="547.36" /><line stroke="blue" x1="0.0" x2="5.99" y1="532.53" y2="543.42" /><line stroke="blue" x1="15.91" x2="0.0" y1="504.96" y2="532.53" /><line stroke="blue" x1="21.7" x2="15.91" y1="509.12" y2="504.96" /><line stroke="blue" x1="22.99" x2="21.7" y1="513.96" y2="509.12" /><line stroke="blue" x1="52.86" x2="22.73" y1="460.82" y2="512.99" /><line stroke="blue" x1="50.7" x2="53.47" y1="459.6" y2="461.17" /><line stroke="blue" x1="49.41" x2="50.7" y1="456.86" y2="459.6" /><line stroke="blue" x1="76.44" x2="49.84" y1="400.12" y2="456.13" /><line stroke="blue" x1="82.23" x2="76.44" y1="404.28" y2="400.12" /><line stroke="blue" x1="83.52" x2="82.23" y1="409.12" y2="404.28" /><line stroke="blue" x1="103.11" x2="83.26" y1="373.79" y2="408.15" /><line stroke="blue" x1="105.94" x2="103.11" y1="378.7" y2="373.79" /><line stroke="blue" x1="117.4" x2="104.97" y1="378.7" y2="378.44" /><line stroke="blue" x1="133.31" x2="117.4" y1="406.26" y2="378.7" /><line stroke="blue" x1="126.82" x2="133.31" y1="409.19" y2="406.26" /><line stroke="blue" x1="121.98" x2="126.82" y1="407.89" y2="409.19" /><line stroke="blue" x1="153.07" x2="122.95" y1="460.33" y2="408.15" /><line stroke="blue" x1="155.2" x2="152.46" y1="459.06" y2="460.68" /><line stroke="blue" x1="158.22" x2="155.2" y1="459.32" y2="459.06" /><line stroke="blue" x1="193.84" x2="158.64" y1="511.1" y2="460.06" /><line stroke="blue" x1="187.35" x2="193.84" y1="514.03" y2="511.1" /><line stroke="blue" x1="182.51" x2="187.35" y1="512.73" y2="514.03" /><line stroke="blue" x1="203.32" x2="183.48" y1="547.36" y2="512.99" /><line stroke="blue" x1="134.83" x2="129.16" y1="381.54" y2="381.54" /><line stroke="blue" x1="140.56" x2="134.12" y1="371.62" y2="382.25" /><line stroke="blue" x1="172.39" x2="140.56" y1="371.62" y2="371.62" /><line stroke="blue" x1="171.68" x2="172.39" y1="378.7" y2="371.62" /><line stroke="blue" x1="168.13" x2="171.68" y1="382.25" y2="378.7" /><line stroke="blue" x1="229.09" x2="168.84" y1="381.54" y2="381.54" /><line stroke="blue" x1="229.06" x2="229.09" y1="379.06" y2="382.25" /><line stroke="blue" x1="230.79" x2="229.06" y1="376.58" y2="379.06" /><line stroke="blue" x1="293.45" x2="231.64" y1="371.62" y2="376.58" /><line stroke="blue" x1="292.74" x2="293.45" y1="378.7" y2="371.62" /><line stroke="blue" x1="289.2" x2="292.74" y1="382.25" y2="378.7" /><line stroke="blue" x1="329.59" x2="289.9" y1="381.54" y2="381.54" /><line stroke="blue" x1="326.75" x2="329.59" y1="386.45" y2="381.54" /><line stroke="blue" x1="332.48" x2="326.49" y1="396.37" y2="385.48" /><line stroke="blue" x1="316.56" x2="332.48" y1="423.93" y2="396.37" /><line stroke="blue" x1="310.78" x2="316.56" y1="419.78" y2="423.93" /><line stroke="blue" x1="309.49" x2="310.78" y1="414.94" y2="419.78" /><line stroke="blue" x1="279.62" x2="309.74" y1="468.08" y2="415.9" /><line stroke="blue" x1="281.78" x2="279.01" y1="469.29" y2="467.72" /><line stroke="blue" x1="283.07" x2="281.78" y1="472.03" y2="469.29" /><line stroke="blue" x1="256.03" x2="282.64" y1="528.77" y2="472.77" /><line stroke="blue" x1="250.25" x2="256.03" y1="524.62" y2="528.77" /><line stroke="blue" x1="248.96" x2="250.25" y1="519.78" y2="524.62" /><line stroke="blue" x1="229.37" x2="249.21" y1="555.11" y2="520.74" /><line stroke="blue" x1="226.54" x2="229.37" y1="550.2" y2="555.11" /><line stroke="blue" x1="215.08" x2="227.51" y1="550.2" y2="550.46" /><line stroke="blue" x1="199.17" x2="215.08" y1="522.64" y2="550.2" /><line stroke="blue" x1="205.66" x2="199.17" y1="519.71" y2="522.64" /><line stroke="blue" x1="210.5" x2="205.66" y1="521.0" y2="519.71" /><line stroke="blue" x1="179.41" x2="209.53" y1="468.57" y2="520.74" /><line stroke="blue" x1="177.28" x2="180.02" y1="469.83" y2="468.21" /><line stroke="blue" x1="174.26" x2="177.28" y1="469.58" y2="469.83" /><line stroke="blue" x1="138.64" x2="173.84" y1="417.8" y2="468.84" /><line stroke="blue" x1="145.13" x2="138.64" y1="414.87" y2="417.8" /><line stroke="blue" x1="149.97" x2="145.13" y1="416.16" y2="414.87" /><line stroke="blue" x1="129.16" x2="149.0" y1="381.54" y2="415.9" /><line stroke="blue" x1="452.75" x2="458.42" y1="547.36" y2="547.36" /><line stroke="blue" x1="447.02" x2="453.46" y1="557.28" y2="546.65" /><line stroke="blue" x1="415.19" x2="447.02" y1="557.28" y2="557.28" /><line stroke="blue" x1="415.9" x2="415.19" y1="550.19" y2="557.28" /><line stroke="blue" x1="419.45" x2="415.9" y1="546.65" y2="550.19" /><line stroke="blue" x1="358.49" x2="418.74" y1="547.36" y2="547.36" /><line stroke="blue" x1="358.52" x2="358.49" y1="549.84" y2="546.65" /><line stroke="blue" x1="356.79" x2="358.52" y1="552.32" y2="549.84" /><line stroke="blue" x1="294.13" x2="355.94" y1="557.28" y2="552.32" /><line stroke="blue" x1="294.84" x2="294.13" y1="550.19" y2="557.28" /><line stroke="blue" x1="298.39" x2="294.84" y1="546.65" y2="550.19" /><line stroke="blue" x1="258.0" x2="297.68" y1="547.36" y2="547.36" /><line stroke="blue" x1="260.83" x2="258.0" y1="542.45" y2="547.36" /><line stroke="blue" x1="255.1" x2="261.09" y1="532.53" y2="543.42" /><line stroke="blue" x1="271.02" x2="255.1" y1="504.96" y2="532.53" /><line stroke="blue" x1="276.8" x2="271.02" y1="509.12" y2="504.96" /><line stroke="blue" x1="278.1" x2="276.8" y1="513.96" y2="509.12" /><line stroke="blue" x1="307.96" x2="277.84" y1="460.82" y2="512.99" /><line stroke="blue" x1="305.8" x2="308.57" y1="459.6" y2="461.17" /><line stroke="blue" x1="304.51" x2="305.8" y1="456.86" y2="459.6" /><line stroke="blue" x1="331.55" x2="304.94" y1="400.12" y2="456.13" /><line stroke="blue" x1="337.33" x2="331.55" y1="404.28" y2="400.12" /><line stroke="blue" x1="338.63" x2="337.33" y1="409.12" y2="404.28" /><line stroke="blue" x1="358.21" x2="338.37" y1="373.79" y2="408.15" /><line stroke="blue" x1="361.04" x2="358.21" y1="378.7" y2="373.79" /><line stroke="blue" x1="372.5" x2="360.07" y1="378.7" y2="378.44" /><line stroke="blue" x1="388.41" x2="372.5" y1="406.26" y2="378.7" /><line stroke="blue" x1="381.92" x2="388.41" y1="409.19" y2="406.26" /><line stroke="blue" x1="377.08" x2="381.92" y1="407.89" y2="409.19" /><line stroke="blue" x1="408.17" x2="378.05" y1="460.33" y2="408.15" /><line stroke="blue" x1="410.31" x2="407.56" y1="459.06" y2="460.68" /><line stroke="blue" x1="413.32" x2="410.31" y1="459.32" y2="459.06" /><line stroke="blue" x1="448.94" x2="413.74" y1="511.1" y2="460.06" /><line stroke="blue" x1="442.45" x2="448.94" y1="514.03" y2="511.1" /><line stroke="blue" x1="437.61" x2="442.45" y1="512.73" y2="514.03" /><line stroke="blue" x1="458.42" x2="438.58" y1="547.36" y2="512.99" /><line stroke="blue" x1="389.93" x2="384.26" y1="381.54" y2="381.54" /><line stroke="blue" x1="395.66" x2="389.22" y1="371.62" y2="382.25" /><line stroke="blue" x1="427.49" x2="395.66" y1="371.62" y2="371.62" /><line stroke="blue" x1="426.78" x2="427.49" y1="378.7" y2="371.62" /><line stroke="blue" x1="423.24" x2="426.78" y1="382.25" y2="378.7" /><line stroke="blue" x1="484.19" x2="423.95" y1="381.54" y2="381.54" /><line stroke="blue" x1="484.16" x2="484.19" y1="379.06" y2="382.25" /><line stroke="blue" x1="485.89" x2="484.16" y1="376.58" y2="379.06" /><line stroke="blue" x1="548.55" x2="486.74" y1="371.62" y2="376.58" /><line stroke="blue" x1="547.84" x2="548.55" y1="378.7" y2="371.62" /><line stroke="blue" x1="544.3" x2="547.84" y1="382.25" y2="378.7" /><line stroke="blue" x1="584.69" x2="545.01" y1="381.54" y2="381.54" /><line stroke="blue" x1="581.85" x2="584.69" y1="386.45" y2="381.54" /><line stroke="blue" x1="587.58" x2="581.59" y1="396.37" y2="385.48" /><line stroke="blue" x1="571.67" x2="587.58" y1="423.93" y2="396.37" /><line stroke="blue" x1="565.88" x2="571.67" y1="419.78" y2="423.93" /><line stroke="blue" x1="564.59" x2="565.88" y1="414.94" y2="419.78" /><line stroke="blue" x1="534.72" x2="564.85" y1="468.08" y2="415.9" /><line stroke="blue" x1="536.89" x2="534.11" y1="469.29" y2="467.72" /><line stroke="blue" x1="538.17" x2="536.89" y1="472.03" y2="469.29" /><line stroke="blue" x1="511.14" x2="537.74" y1="528.77" y2="472.77" /><line stroke="blue" x1="505.35" x2="511.14" y1="524.62" y2="528.77" /><line stroke="blue" x1="504.06" x2="505.35" y1="519.78" y2="524.62" /><line stroke="blue" x1="484.48" x2="504.32" y1="555.11" y2="520.74" /><line stroke="blue" x1="481.64" x2="484.48" y1="550.2" y2="555.11" /><line stroke="blue" x1="470.19" x2="482.61" y1="550.2" y2="550.46" /><line stroke="blue" x1="454.27" x2="470.19" y1="522.64" y2="550.2" /><line stroke="blue" x1="460.76" x2="454.27" y1="519.71" y2="522.64" /><line stroke="blue" x1="465.6" x2="460.76" y1="521.0" y2="519.71" /><line stroke="blue" x1="434.51" x2="464.63" y1="468.57" y2="520.74" /><line stroke="blue" x1="432.38" x2="435.12" y1="469.83" y2="468.21" /><line stroke="blue" x1="429.37" x2="432.38" y1="469.58" y2="469.83" /><line stroke="blue" x1="393.74" x2="428.94" y1="417.8" y2="468.84" /><line stroke="blue" x1="400.23" x2="393.74" y1="414.87" y2="417.8" /><line stroke="blue" x1="405.07" x2="400.23" y1="416.16" y2="414.87" /><line stroke="blue" x1="384.26" x2="404.1" y1="381.54" y2="415.9" /><line stroke="blue" x1="197.65" x2="203.32" y1="745.77" y2="745.77" /><line stroke="blue" x1="191.92" x2="198.36" y1="755.69" y2="745.06" /><line stroke="blue" x1="160.09" x2="191.92" y1="755.69" y2="755.69" /><line stroke="blue" x1="160.8" x2="160.09" y1="748.61" y2="755.69" /><line stroke="blue" x1="164.34" x2="160.8" y1="745.06" y2="748.61" /><line stroke="blue" x1="103.39" x2="163.64" y1="745.77" y2="745.77" /><line stroke="blue" x1="103.42" x2="103.39" y1="748.25" y2="745.06" /><line stroke="blue" x1="101.69" x2="103.42" y1="750.73" y2="748.25" /><line stroke="blue" x1="39.03" x2="100.84" y1="755.69" y2="750.73" /><line stroke="blue" x1="39.74" x2="39.03" y1="748.61" y2="755.69" /><line stroke="blue" x1="43.28" x2="39.74" y1="745.06" y2="748.61" /><line stroke="blue" x1="2.89" x2="42.58" y1="745.77" y2="745.77" /><line stroke="blue" x1="5.73" x2="2.89" y1="740.86" y2="745.77" /><line stroke="blue" x1="0.0" x2="5.99" y1="730.94" y2="741.83" /><line stroke="blue" x1="15.91" x2="0.0" y1="703.38" y2="730.94" /><line stroke="blue" x1="21.7" x2="15.91" y1="707.53" y2="703.38" /><line stroke="blue" x1="22.99" x2="21.7" y1="712.37" y2="707.53" /><line stroke="blue" x1="52.86" x2="22.73" y1="659.23" y2="711.41" /><line stroke="blue" x1="50.7" x2="53.47" y1="658.01" y2="659.58" /><line stroke="blue" x1="49.41" x2="50.7" y1="655.28" y2="658.01" /><line stroke="blue" x1="76.44" x2="49.84" y1="598.54" y2="654.54" /><line stroke="blue" x1="82.23" x2="76.44" y1="602.69" y2="598.54" /><line stroke="blue" x1="83.52" x2="82.23" y1="607.53" y2="602.69" /><line stroke="blue" x1="103.11" x2="83.26" y1="572.2" y2="606.56" /><line stroke="blue" x1="105.94" x2="103.11" y1="577.11" y2="572.2" /><line stroke="blue" x1="117.4" x2="104.97" y1="577.11" y2="576.85" /><line stroke="blue" x1="133.31" x2="117.4" y1="604.67" y2="577.11" /><line stroke="blue" x1="126.82" x2="133.31" y1="607.6" y2="604.67" /><line stroke="blue" x1="121.98" x2="126.82" y1="606.31" y2="607.6" /><line stroke="blue" x1="153.07" x2="122.95" y1="658.74" y2="606.56" /><line stroke="blue" x1="155.2" x2="152.46" y1="657.47" y2="659.09" /><line stroke="blue" x1="158.22" x2="155.2" y1="657.73" y2="657.47" /><line stroke="blue" x1="193.84" x2="158.64" y1="709.51" y2="658.47" /><line stroke="blue" x1="187.35" x2="193.84" y1="712.44" y2="709.51" /><line stroke="blue" x1="182.51" x2="187.35" y1="711.15" y2="712.44" /><line stroke="blue" x1="203.32" x2="183.48" y1="745.77" y2="711.41" /><line stroke="blue" x1="134.83" x2="129.16" y1="579.95" y2="579.95" /><line stroke="blue" x1="140.56" x2="134.12" y1="570.03" y2="580.66" /><line stroke="blue" x1="172.39" x2="140.56" y1="570.03" y2="570.03" /><line stroke="blue" x1="171.68" x2="172.39" y1="577.12" y2="570.03" /><line stroke="blue" x1="168.13" x2="171.68" y1="580.66" y2="577.12" /><line stroke="blue" x1="229.09" x2="168.84" y1="579.95" y2="579.95" /><line stroke="blue" x1="229.06" x2="229.09" y1="577.47" y2="580.66" /><line stroke="blue" x1="230.79" x2="229.06" y1="574.99" y2="577.47" /><line stroke="blue" x1="293.45" x2="231.64" y1="570.03" y2="574.99" /><line stroke="blue" x1="292.74" x2="293.45" y1="577.12" y2="570.03" /><line stroke="blue" x1="289.2" x2="292.74" y1="580.66" y2="577.12" /><line stroke="blue" x1="329.59" x2="289.9" y1="579.95" y2="579.95" /><line stroke="blue" x1="326.75" x2="329.59" y1="584.86" y2="579.95" /><line stroke="blue" x1="332.48" x2="326.49" y1="594.78" y2="583.89" /><line stroke="blue" x1="316.56" x2="332.48" y1="622.34" y2="594.78" /><line stroke="blue" x1="310.78" x2="316.56" y1="618.19" y2="622.34" /><line stroke="blue" x1="309.49" x2="310.78" y1="613.35" y2="618.19" /><line stroke="blue" x1="279.62" x2="309.74" y1="666.49" y2="614.32" /><line stroke="blue" x1="281.78" x2="279.01" y1="667.71" y2="666.14" /><line stroke="blue" x1="283.07" x2="281.78" y1="670.44" y2="667.71" /><line stroke="blue" x1="256.03" x2="282.64" y1="727.19" y2="671.18" /><line stroke="blue" x1="250.25" x2="256.03" y1="723.03" y2="727.19" /><line stroke="blue" x1="248.96" x2="250.25" y1="718.19" y2="723.03" /><line stroke="blue" x1="229.37" x2="249.21" y1="753.52" y2="719.16" /><line stroke="blue" x1="226.54" x2="229.37" y1="748.61" y2="753.52" /><line stroke="blue" x1="215.08" x2="227.51" y1="748.61" y2="748.87" /><line stroke="blue" x1="199.17" x2="215.08" y1="721.05" y2="748.61" /><line stroke="blue" x1="205.66" x2="199.17" y1="718.12" y2="721.05" /><line stroke="blue" x1="210.5" x2="205.66" y1="719.42" y2="718.12" /><line stroke="blue" x1="179.41" x2="209.53" y1="666.98" y2="719.16" /><line stroke="blue" x1="177.28" x2="180.02" y1="668.25" y2="666.63" /><line stroke="blue" x1="174.26" x2="177.28" y1="667.99" y2="668.25" /><line stroke="blue" x1="138.64" x2="173.84" y1="616.21" y2="667.25" /><line stroke="blue" x1="145.13" x2="138.64" y1="613.28" y2="616.21" /><line stroke="blue" x1="149.97" x2="145.13" y1="614.58" y2="613.28" /><line stroke="blue" x1="129.16" x2="149.0" y1="579.95" y2="614.32" /><line stroke="blue" x1="452.75" x2="458.42" y1="745.77" y2="745.77" /><line stroke="blue" x1="447.02" x2="453.46" y1="755.69" y2="745.06" /><line stroke="blue" x1="415.19" x2="447.02" y1="755.69" y2="755.69" /><line stroke="blue" x1="415.9" x2="415.19" y1="748.61" y2="755.69" /><line stroke="blue" x1="419.45" x2="415.9" y1="745.06" y2="748.61" /><line stroke="blue" x1="358.49" x2="418.74" y1="745.77" y2="745.77" /><line stroke="blue" x1="358.52" x2="358.49" y1="748.25" y2="745.06" /><line stroke="blue" x1="356.79" x2="358.52" y1="750.73" y2="748.25" /><line stroke="blue" x1="294.13" x2="355.94" y1="755.69" y2="750.73" /><line stroke="blue" x1="294.84" x2="294.13" y1="748.61" y2="755.69" /><line stroke="blue" x1="298.39" x2="294.84" y1="745.06" y2="748.61" /><line stroke="blue" x1="258.0" x2="297.68" y1="745.77" y2="745.77" /><line stroke="blue" x1="260.83" x2="258.0" y1="740.86" y2="745.77" /><line stroke="blue" x1="255.1" x2="261.09" y1="730.94" y2="741.83" /><line stroke="blue" x1="271.02" x2="255.1" y1="703.38" y2="730.94" /><line stroke="blue" x1="276.8" x2="271.02" y1="707.53" y2="703.38" /><line stroke="blue" x1="278.1" x2="276.8" y1="712.37" y2="707.53" /><line stroke="blue" x1="307.96" x2="277.84" y1="659.23" y2="711.41" /><line stroke="blue" x1="305.8" x2="308.57" y1="658.01" y2="659.58" /><line stroke="blue" x1="304.51" x2="305.8" y1="655.28" y2="658.01" /><line stroke="blue" x1="331.55" x2="304.94" y1="598.54" y2="654.54" /><line stroke="blue" x1="337.33" x2="331.55" y1="602.69" y2="598.54" /><line stroke="blue" x1="338.63" x2="337.33" y1="607.53" y2="602.69" /><line stroke="blue" x1="358.21" x2="338.37" y1="572.2" y2="606.56" /><line stroke="blue" x1="361.04" x2="358.21" y1="577.11" y2="572.2" /><line stroke="blue" x1="372.5" x2="360.07" y1="577.11" y2="576.85" /><line stroke="blue" x1="388.41" x2="372.5" y1="604.67" y2="577.11" /><line stroke="blue" x1="381.92" x2="388.41" y1="607.6" y2="604.67" /><line stroke="blue" x1="377.08" x2="381.92" y1="606.31" y2="607.6" /><line stroke="blue" x1="408.17" x2="378.05" y1="658.74" y2="606.56" /><line stroke="blue" x1="410.31" x2="407.56" y1="657.47" y2="659.09" /><line stroke="blue" x1="413.32" x2="410.31" y1="657.73" y2="657.47" /><line stroke="blue" x1="448.94" x2="413.74" y1="709.51" y2="658.47" /><line stroke="blue" x1="442.45" x2="448.94" y1="712.44" y2="709.51" /><line stroke="blue" x1="437.61" x2="442.45" y1="711.15" y2="712.44" /><line stroke="blue" x1="458.42" x2="438.58" y1="745.77" y2="711.41" /><line stroke="blue" x1="389.93" x2="384.26" y1="579.95" y2="579.95" /><line stroke="blue" x1="395.66" x2="389.22" y1="570.03" y2="580.66" /><line stroke="blue" x1="427.49" x2="395.66" y1="570.03" y2="570.03" /><line stroke="blue" x1="426.78" x2="427.49" y1="577.12" y2="570.03" /><line stroke="blue" x1="423.24" x2="426.78" y1="580.66" y2="577.12" /><line stroke="blue" x1="484.19" x2="423.95" y1="579.95" y2="579.95" /><line stroke="blue" x1="484.16" x2="484.19" y1="577.47" y2="580.66" /><line stroke="blue" x1="485.89" x2="484.16" y1="574.99" y2="577.47" /><line stroke="blue" x1="548.55" x2="486.74" y1="570.03" y2="574.99" /><line stroke="blue" x1="547.84" x2="548.55" y1="577.12" y2="570.03" /><line stroke="blue" x1="544.3" x2="547.84" y1="580.66" y2="577.12" /><line stroke="blue" x1="584.69" x2="545.01" y1="579.95" y2="579.95" /><line stroke="blue" x1="581.85" x2="584.69" y1="584.86" y2="579.95" /><line stroke="blue" x1="587.58" x2="581.59" y1="594.78" y2="583.89" /><line stroke="blue" x1="571.67" x2="587.58" y1="622.34" y2="594.78" /><line stroke="blue" x1="565.88" x2="571.67" y1="618.19" y2="622.34" /><line stroke="blue" x1="564.59" x2="565.88" y1="613.35" y2="618.19" /><line stroke="blue" x1="534.72" x2="564.85" y1="666.49" y2="614.32" /><line stroke="blue" x1="536.89" x2="534.11" y1="667.71" y2="666.14" /><line stroke="blue" x1="538.17" x2="536.89" y1="670.44" y2="667.71" /><line stroke="blue" x1="511.14" x2="537.74" y1="727.19" y2="671.18" /><line stroke="blue" x1="505.35" x2="511.14" y1="723.03" y2="727.19" /><line stroke="blue" x1="504.06" x2="505.35" y1="718.19" y2="723.03" /><line stroke="blue" x1="484.48" x2="504.32" y1="753.52" y2="719.16" /><line stroke="blue" x1="481.64" x2="484.48" y1="748.61" y2="753.52" /><line stroke="blue" x1="470.19" x2="482.61" y1="748.61" y2="748.87" /><line stroke="blue" x1="454.27" x2="470.19" y1="721.05" y2="748.61" /><line stroke="blue" x1="460.76" x2="454.27" y1="718.12" y2="721.05" /><line stroke="blue" x1="465.6" x2="460.76" y1="719.42" y2="718.12" /><line stroke="blue" x1="434.51" x2="464.63" y1="666.98" y2="719.16" /><line stroke="blue" x1="432.38" x2="435.12" y1="668.25" y2="666.63" /><line stroke="blue" x1="429.37" x2="432.38" y1="667.99" y2="668.25" /><line stroke="blue" x1="393.74" x2="428.94" y1="616.21" y2="667.25" /><line stroke="blue" x1="400.23" x2="393.74" y1="613.28" y2="616.21" /><line stroke="blue" x1="405.07" x2="400.23" y1="614.58" y2="613.28" /><line stroke="blue" x1="384.26" x2="404.1" y1="579.95" y2="614.32" /></g><g id="scorelines"><line stroke="red" x1="191.53" x2="228.66" y1="200.69" y2="200.69" /><line stroke="red" x1="50.8" x2="115.78" y1="200.69" y2="200.69" /><line stroke="red" x1="24.91" x2="6.34" y1="164.69" y2="196.84" /><line stroke="red" x1="95.27" x2="62.78" y1="42.81" y2="99.08" /><line stroke="red" x1="139.4" x2="120.83" y1="38.39" y2="6.23" /><line stroke="red" x1="209.76" x2="177.27" y1="160.27" y2="103.99" /><line stroke="red" x1="191.5" x2="154.37" y1="10.63" y2="10.63" /><line stroke="red" x1="332.23" x2="267.25" y1="10.63" y2="10.63" /><line stroke="red" x1="358.12" x2="376.68" y1="46.63" y2="14.48" /><line stroke="red" x1="287.75" x2="320.24" y1="168.51" y2="112.24" /><line stroke="red" x1="243.63" x2="262.19" y1="172.93" y2="205.08" /><line stroke="red" x1="173.26" x2="205.75" y1="51.05" y2="107.33" /><line stroke="red" x1="390.31" x2="427.44" y1="355.32" y2="355.32" /><line stroke="red" x1="249.58" x2="314.56" y1="355.32" y2="355.32" /><line stroke="red" x1="223.69" x2="205.13" y1="319.31" y2="351.47" /><line stroke="red" x1="294.06" x2="261.57" y1="197.44" y2="253.71" /><line stroke="red" x1="338.18" x2="319.61" y1="193.02" y2="160.86" /><line stroke="red" x1="408.55" x2="376.06" y1="314.9" y2="258.62" /><line stroke="red" x1="390.28" x2="353.15" y1="165.26" y2="165.26" /><line stroke="red" x1="531.01" x2="466.03" y1="165.26" y2="165.26" /><line stroke="red" x1="556.9" x2="575.47" y1="201.26" y2="169.1" /><line stroke="red" x1="486.54" x2="519.03" y1="323.14" y2="266.86" /><line stroke="red" x1="442.41" x2="460.98" y1="327.56" y2="359.71" /><line stroke="red" x1="372.05" x2="404.54" y1="205.68" y2="261.95" /><line stroke="red" x1="166.19" x2="197.65" y1="546.65" y2="546.65" /><line stroke="red" x1="45.13" x2="100.27" y1="546.65" y2="546.65" /><line stroke="red" x1="22.07" x2="6.34" y1="515.56" y2="542.8" /><line stroke="red" x1="82.6" x2="55.03" y1="410.72" y2="458.47" /><line stroke="red" x1="121.06" x2="105.33" y1="406.3" y2="379.05" /><line stroke="red" x1="181.59" x2="154.02" y1="511.14" y2="463.38" /><line stroke="red" x1="166.29" x2="134.83" y1="382.25" y2="382.25" /><line stroke="red" x1="287.35" x2="232.21" y1="382.25" y2="382.25" /><line stroke="red" x1="310.41" x2="326.14" y1="413.34" y2="386.09" /><line stroke="red" x1="249.88" x2="277.45" y1="518.18" y2="470.42" /><line stroke="red" x1="211.42" x2="227.15" y1="522.6" y2="549.85" /><line stroke="red" x1="150.89" x2="178.46" y1="417.76" y2="465.51" /><line stroke="red" x1="421.29" x2="452.75" y1="546.65" y2="546.65" /><line stroke="red" x1="300.23" x2="355.37" y1="546.65" y2="546.65" /><line stroke="red" x1="277.17" x2="261.44" y1="515.56" y2="542.8" /><line stroke="red" x1="337.7" x2="310.13" y1="410.72" y2="458.47" /><line stroke="red" x1="376.16" x2="360.43" y1="406.3" y2="379.05" /><line stroke="red" x1="436.69" x2="409.12" y1="511.14" y2="463.38" /><line stroke="red" x1="421.39" x2="389.93" y1="382.25" y2="382.25" /><line stroke="red" x1="542.45" x2="487.31" y1="382.25" y2="382.25" /><line stroke="red" x1="565.51" x2="581.24" y1="413.34" y2="386.09" /><line stroke="red" x1="504.98" x2="532.55" y1="518.18" y2="470.42" /><line stroke="red" x1="466.52" x2="482.25" y1="522.6" y2="549.85" /><line stroke="red" x1="405.99" x2="433.57" y1="417.76" y2="465.51" /><line stroke="red" x1="166.19" x2="197.65" y1="745.06" y2="745.06" /><line stroke="red" x1="45.13" x2="100.27" y1="745.06" y2="745.06" /><line stroke="red" x1="22.07" x2="6.34" y1="713.97" y2="741.22" /><line stroke="red" x1="82.6" x2="55.03" y1="609.13" y2="656.88" /><line stroke="red" x1="121.06" x2="105.33" y1="604.71" y2="577.46" /><line stroke="red" x1="181.59" x2="154.02" y1="709.55" y2="661.79" /><line stroke="red" x1="166.29" x2="134.83" y1="580.66" y2="580.66" /><line stroke="red" x1="287.35" x2="232.21" y1="580.66" y2="580.66" /><line stroke="red" x1="310.41" x2="326.14" y1="611.75" y2="584.5" /><line stroke="red" x1="249.88" x2="277.45" y1="716.59" y2="668.84" /><line stroke="red" x1="211.42" x2="227.15" y1="721.01" y2="748.26" /><line stroke="red" x1="150.89" x2="178.46" y1="616.17" y2="663.93" /><line stroke="red" x1="421.29" x2="452.75" y1="745.06" y2="745.06" /><line stroke="red" x1="300.23" x2="355.37" y1="745.06" y2="745.06" /><line stroke="red" x1="277.17" x2="261.44" y1="713.97" y2="741.22" /><line stroke="red" x1="337.7" x2="310.13" y1="609.13" y2="656.88" /><line stroke="red" x1="376.16" x2="360.43" y1="604.71" y2="577.46" /><line stroke="red" x1="436.69" x2="409.12" y1="709.55" y2="661.79" /><line stroke="red" x1="421.39" x2="389.93" y1="580.66" y2="580.66" /><line stroke="red" x1="542.45" x2="487.31" y1="580.66" y2="580.66" /><line stroke="red" x1="565.51" x2="581.24" y1="611.75" y2="584.5" /><line stroke="red" x1="504.98" x2="532.55" y1="716.59" y2="668.84" /><line stroke="red" x1="466.52" x2="482.25" y1="721.01" y2="748.26" /><line stroke="red" x1="405.99" x2="433.57" y1="616.17" y2="663.93" /></g></svg>